<?xml version="1.0" encoding="UTF-8"?>
<svg width="138px" height="124px" viewBox="0 0 138 124" version="1.1" xmlns="http://www.w3.org/2000/svg" xmlns:xlink="http://www.w3.org/1999/xlink">
    <!-- Generator: Sketch 51.3 (57544) - http://www.bohemiancoding.com/sketch -->
    <title>section-4-4-m-3</title>
    <desc>Created with Sketch.</desc>
    <defs></defs>
    <g id="mobile_0917" stroke="none" stroke-width="1" fill="none" fill-rule="evenodd">
        <g id="m_main" transform="translate(-21.000000, -5333.000000)" fill="#14A0C0">
            <g id="section-4-4-m-3" transform="translate(21.000000, 5333.000000)">
                <path d="M103.092991,82.8017056 C96.1060824,94.2259968 83.4714401,101.873335 69.0742381,101.873335 C54.677036,101.873335 42.0423937,94.2259968 35.0554848,82.8017056 C32.3387094,78.3593976 27.5754578,75.5606586 22.3475507,75.5606586 C10.8386126,75.5606586 3.81968307,88.0735842 9.77837282,97.8691707 C11.2313994,100.257371 12.8260284,102.551431 14.5501633,104.739318 C27.2452891,120.833836 46.970018,131.190728 69.0742381,131.190728 C91.1855738,131.190728 110.910303,120.833836 123.598313,104.739318 C125.322448,102.551431 126.917077,100.257371 128.370103,97.8691707 C134.328793,88.0735842 127.309864,75.5606586 115.800214,75.5606586 C110.573018,75.5606586 105.809767,78.3593976 103.092991,82.8017056 Z M22.4841722,49.0285563 C27.6274024,49.0285563 32.3266127,46.283612 34.9850394,41.9035926 C41.9570052,30.4148893 54.6279377,22.7165875 69.0742381,22.7165875 C83.5205384,22.7165875 96.1921824,30.4148893 103.163437,41.9043004 C105.821863,46.283612 110.521074,49.0285563 115.663592,49.0285563 L116.225733,49.0285563 C127.380309,49.0285563 134.445491,36.9643916 128.780679,27.4052186 C127.219494,24.7699871 125.486109,22.2465919 123.598313,19.8506052 C110.910303,3.75537863 91.1855738,-6.60080503 69.0742381,-6.60080503 C46.970018,-6.60080503 27.2452891,3.75537863 14.5501633,19.8506052 C12.6623673,22.2458841 10.9296936,24.7685714 9.36850833,27.4030951 C3.70369711,36.9636838 10.7688787,49.0285563 21.924878,49.0285563 L22.4841722,49.0285563 Z" id="Fill-426-Copy" opacity="0.601841518" transform="translate(69.074604, 62.294961) rotate(90.000000) translate(-69.074604, -62.294961) "></path>
                <g id="analytics-copy" transform="translate(50.000000, 46.000000)" fill-rule="nonzero">
                    <path d="M34.6719494,3.42138686 C32.4643601,1.21509838 29.5293155,0 26.4073661,0 C23.2854167,0 20.350372,1.21509838 18.1427827,3.42138686 C17.8574405,3.7065706 17.5889881,4.00417303 17.3372768,4.3124838 C17.3133929,3.20543547 16.4055804,2.31195891 15.2922619,2.31195891 C14.1640625,2.31195891 13.246131,3.2293805 13.246131,4.35695312 C13.246131,4.81161111 13.3955357,5.23191319 13.647619,5.57190278 L8.72261905,11.8588843 C8.44605655,11.7193041 8.13400298,11.6401814 7.80364583,11.6401814 C6.8077381,11.6401814 5.97611607,12.3551858 5.79471726,13.2984858 L2.64880952,13.2984858 C2.3405506,13.2984858 2.09077381,13.5481238 2.09077381,13.8562115 C2.09077381,14.1642992 2.3405506,14.4139372 2.64880952,14.4139372 L5.89233631,14.4139372 C6.18675595,15.1826319 6.93229167,15.7301698 7.80364583,15.7301698 C8.93184524,15.7301698 9.84977679,14.8127483 9.84977679,13.6851756 C9.84977679,13.2935035 9.73883929,12.927338 9.5469494,12.6159783 L14.5304315,6.25433594 C14.7660714,6.34922367 15.0230655,6.40194734 15.2923363,6.40194734 C15.5377976,6.40194734 15.7732887,6.35844473 15.9915179,6.27887587 L16.0190476,6.31754485 C15.1700149,7.95547367 14.7195685,9.7836985 14.7195685,11.6813788 C14.7195685,14.2350932 15.534375,16.6633565 17.0403274,18.6706484 L15.1092262,20.6012717 L14.7113839,20.2036505 C14.493378,19.9859144 14.1401042,19.9859144 13.9221726,20.2036505 L5.28764881,28.8331542 C5.06971726,29.0510391 5.06971726,29.4041166 5.28764881,29.6219271 C5.39665179,29.7307951 5.53950893,29.7852292 5.68229167,29.7852292 C5.8250744,29.7852292 5.96793155,29.7307951 6.07693452,29.6219271 L8.35840774,27.3417214 L10.7383185,29.7203099 L3.59404762,36.8606117 C3.53080357,36.9238206 3.4468006,36.9585483 3.35729167,36.9585483 C3.26793155,36.9585483 3.18385417,36.9237462 3.12053571,36.8605373 L1.2141369,34.955272 C1.15089286,34.8920631 1.11607143,34.8080324 1.11607143,34.7186476 C1.11607143,34.6292627 1.15089286,34.5452321 1.2141369,34.4820231 L4.34077381,31.3571233 C4.55870536,31.1392384 4.55870536,30.7861609 4.34077381,30.5683504 C4.12276786,30.3506143 3.76949405,30.3506143 3.5515625,30.5683504 L0.425,33.6932503 C0.150892857,33.9670564 0,34.3312885 0,34.7186476 C0,35.1059323 0.150892857,35.47009 0.425,35.7440448 L2.33139881,37.6493102 C2.60543155,37.923265 2.96971726,38.0740741 3.35729167,38.0740741 C3.74494048,38.0740741 4.10922619,37.923265 4.38325893,37.6493845 L15.4743304,26.5645492 C15.6922619,26.3466644 15.6922619,25.9935868 15.4743304,25.7757763 C15.2563988,25.5581146 14.903125,25.5579659 14.685119,25.7757763 L13.1120536,27.3479679 L10.7320685,24.9693793 L14.3165923,21.3868469 L16.696503,23.7654355 L16.4056548,24.0561965 C16.1877232,24.2740069 16.1877232,24.6271589 16.4057292,24.844895 C16.6235863,25.0626311 16.9769345,25.0627054 17.1948661,24.8448206 L17.8802827,24.1597104 C18.0982143,23.9418999 18.0982143,23.5888223 17.8802827,23.3710119 L17.4830357,22.9739855 L19.4142113,21.0433623 C21.4225446,22.5484036 23.8521577,23.3627575 26.4072917,23.3627575 C29.5292411,23.3627575 32.4642857,22.1476591 34.671875,19.9413707 C36.8794643,17.7350078 38.0952381,14.8015937 38.0952381,11.6813788 C38.0952381,8.56116377 36.8794643,5.62774971 34.6719494,3.42138686 Z M7.80364583,14.6146441 C7.29077381,14.6146441 6.87358631,14.1976884 6.87358631,13.6851013 C6.87358631,13.1725142 7.29077381,12.7555584 7.80364583,12.7555584 C8.31651786,12.7555584 8.73370536,13.1725142 8.73370536,13.6851013 C8.73370536,14.1976884 8.31644345,14.6146441 7.80364583,14.6146441 Z M12.3229167,28.1366664 L11.5275298,28.9316114 L9.14761905,26.5530229 L9.94293155,25.7581522 L12.3229167,28.1366664 Z M15.2922619,5.28649595 C14.7793899,5.28649595 14.3622024,4.86946586 14.3622024,4.35695312 C14.3622024,3.84436603 14.7793899,3.4274103 15.2922619,3.4274103 C15.8051339,3.4274103 16.2223214,3.84436603 16.2223214,4.35695312 C16.2223214,4.86954022 15.8051339,5.28649595 15.2922619,5.28649595 Z M16.6939732,22.1852127 L15.8982887,21.3899702 L17.7544643,19.5343053 C17.8802827,19.6725469 18.0095982,19.8083345 18.1427827,19.9413707 C18.2759673,20.0744812 18.4119048,20.2037248 18.5502232,20.3295477 L16.6939732,22.1852127 Z M33.8827381,19.1525978 C31.8860119,21.1482891 29.2311756,22.2473061 26.4073661,22.2473061 C23.5835565,22.2473061 20.9287202,21.1482891 18.931994,19.1525978 C16.9351935,17.1569809 15.8355655,14.5036195 15.8355655,11.6813788 C15.8355655,9.86639062 16.2910714,8.1215272 17.1468006,6.57625521 C17.159003,6.55706944 17.1698661,6.53721441 17.1795387,6.51683883 C17.6490327,5.68188628 18.2357887,4.90590394 18.931994,4.21015972 C20.9287202,2.21446846 23.5835565,1.11545139 26.4073661,1.11545139 C29.2311756,1.11545139 31.8860119,2.21446846 33.8827381,4.21015972 C35.8795387,6.20577662 36.9791667,8.85913802 36.9791667,11.6813788 C36.9791667,14.5036195 35.8795387,17.1569809 33.8827381,19.1525978 Z" id="Shape"></path>
                    <path d="M33.0936012,4.99893258 C31.3075893,3.21398727 28.9330357,2.23090278 26.4073661,2.23090278 C23.8816964,2.23090278 21.5072173,3.21391291 19.721131,4.99885822 C18.8058036,5.91367708 18.1018601,6.9833206 17.6325149,8.14829803 C17.6311756,8.15171875 17.6296875,8.1550651 17.6284226,8.15848582 C17.1846726,9.26374942 16.9517113,10.454531 16.9517113,11.6813788 C16.9517113,14.2057196 17.9352679,16.5788796 19.7212054,18.3638993 C21.5072173,20.1488446 23.8817708,21.1319291 26.4074405,21.1319291 C28.9331101,21.1319291 31.3076637,20.1488446 33.0936756,18.3638993 C33.5143601,17.9433741 33.8962054,17.4835107 34.2287202,16.9970995 C34.4025298,16.7427023 34.337128,16.3957225 34.0826637,16.2219352 C33.8281994,16.0482222 33.480878,16.1135877 33.3070685,16.3679106 C33.0136161,16.797285 32.6762649,17.203458 32.3043899,17.5750521 C30.7292411,19.1494002 28.6349702,20.0164034 26.4073661,20.0164034 C24.1797619,20.0164034 22.0854911,19.1494002 20.5103423,17.5750521 C18.9351935,16.0007784 18.0677083,13.9077454 18.0677083,11.6813044 C18.0677083,10.9599048 18.1593006,10.252783 18.3360119,9.57250637 L22.4248512,15.3158912 C22.1578869,15.6613837 21.9985863,16.0938814 21.9985863,16.5631146 C21.9985863,17.6906872 22.9165179,18.6081088 24.0447173,18.6081088 C25.1729167,18.6081088 26.0908482,17.6906872 26.0908482,16.5631146 C26.0908482,16.0540226 25.9033482,15.5882101 25.5942708,15.2299271 L27.0929315,12.6597784 C27.288244,12.7218718 27.4960565,12.7555584 27.7116815,12.7555584 C28.7049851,12.7555584 29.5349702,12.0442723 29.7192708,11.1046904 L33.3578869,11.1046904 C33.6661458,11.1046904 33.9159226,10.8550524 33.9159226,10.5469647 C33.9159226,10.238877 33.6661458,9.989239 33.3578869,9.989239 L29.6258929,9.989239 C29.3334077,9.21660301 28.5857887,8.66557002 27.7116071,8.66557002 C26.5834077,8.66557002 25.6654762,9.58299161 25.6654762,10.7105642 C25.6654762,11.2190613 25.8526042,11.6844277 26.1610119,12.0426363 L24.6619792,14.6134543 C24.4671131,14.5516583 24.259747,14.5181204 24.0447173,14.5181204 C23.7900298,14.5181204 23.5462054,14.5652668 23.3210565,14.650636 L18.7877232,8.28289583 C19.1981399,7.36473061 19.7774554,6.51996209 20.5102679,5.78755671 C22.0854911,4.21335735 24.1798363,3.34635417 26.4073661,3.34635417 C28.6348958,3.34635417 30.7292411,4.21335735 32.3044643,5.78770544 C33.8795387,7.3619048 34.7470238,9.45501215 34.7470238,11.6814531 C34.7470238,12.5680139 34.6098214,13.4390327 34.3392857,14.2703414 C34.2439732,14.563259 34.4042411,14.877965 34.6973214,14.9732245 C34.9903274,15.0684097 35.3052827,14.9083796 35.4005952,14.6153877 C35.7075149,13.6723851 35.8631696,12.685285 35.8631696,11.6813788 C35.8630952,9.15703791 34.8795387,6.78380353 33.0936012,4.99893258 Z M27.7116071,9.78102141 C28.2244792,9.78102141 28.6416667,10.1979771 28.6416667,10.7105642 C28.6416667,11.2231513 28.2244792,11.6401071 27.7116071,11.6401071 C27.1987351,11.6401071 26.7815476,11.2231513 26.7815476,10.7105642 C26.7815476,10.1979771 27.1988095,9.78102141 27.7116071,9.78102141 Z M24.0447173,15.6335718 C24.5575893,15.6335718 24.9747768,16.0506019 24.9747768,16.5631146 C24.9747768,17.0757017 24.5575893,17.4926574 24.0447173,17.4926574 C23.5318452,17.4926574 23.1146577,17.0757017 23.1146577,16.5631146 C23.1146577,16.0505275 23.5318452,15.6335718 24.0447173,15.6335718 Z" id="Shape"></path>
                </g>
            </g>
        </g>
    </g>
</svg>