<?xml version="1.0" encoding="utf-8"?>
<!-- Generator: Adobe Illustrator 16.0.0, SVG Export Plug-In . SVG Version: 6.00 Build 0)  -->
<!DOCTYPE svg PUBLIC "-//W3C//DTD SVG 1.1//EN" "http://www.w3.org/Graphics/SVG/1.1/DTD/svg11.dtd">
<svg version="1.1" id="Layer_1" xmlns="http://www.w3.org/2000/svg" xmlns:xlink="http://www.w3.org/1999/xlink" x="0px" y="0px"
	 width="1417.32px" height="784px" viewBox="0 0 1417.32 784" enable-background="new 0 0 1417.32 784" xml:space="preserve">
<g>
	<path fill-rule="evenodd" clip-rule="evenodd" fill="#FFFFFF" d="M473.056,41.32c-12.901,3.004-20.679,12.727-20.326,25.806
		c0.176,15.905,11.843,27.22,28.281,27.22c8.662,0,20.15-6.01,24.038-12.551c3.889-6.539,4.595-19.974,1.237-27.573
		c-1.945-4.947-11.313-12.902-15.025-12.902c-2.651,0-0.883,12.549,2.476,15.909c6.892,6.893,2.828,21.209-5.834,21.209
		c-2.474,0-3.004-2.826-3.357-18.911C484.014,38.67,483.837,38.67,473.056,41.32z M474.292,66.949
		c0,12.195-1.412,13.963-7.423,8.483c-4.242-3.71-4.065-12.018,0.353-16.437C473.056,53.161,474.292,54.753,474.292,66.949z"/>
	<path fill-rule="evenodd" clip-rule="evenodd" fill="#FFFFFF" d="M1053.152,71.369c0.53,0.884,3.358,1.768,6.188,1.768
		c4.946,0,5.127,0.353,3.535,4.593c-1.239,3.006-1.059,5.657,0.175,8.306c3.003,5.481,4.948,6.541,13.435,6.541
		c9.369,0,13.076-4.596,12.371-15.553l-0.352-7.424h-18.205C1058.635,69.6,1052.443,70.308,1053.152,71.369z M1083.731,75.257
		c1.24,1.237,2.122,3.71,2.122,5.833c0,5.476-3.36,7.953-10.608,7.953c-9.896,0-13.962-6.892-7.775-13.08
		C1070.652,72.606,1080.726,72.253,1083.731,75.257z"/>
	<path fill-rule="evenodd" clip-rule="evenodd" fill="#FFFFFF" d="M1114.131,92.577c0,2.654-1.236,3.537-4.418,3.537
		c-3.534,0-4.418,0.881-4.418,4.418c0,3.535,0.884,4.419,4.418,4.419c2.828,0,4.418,1.057,4.418,2.652
		c0,1.413,1.593,2.648,3.536,2.648s3.533-1.236,3.533-2.648c0-2.122,2.477-2.652,11.137-2.652c12.725,0,15.379-1.768,15.379-10.074
		c0-4.599-0.706-5.835-3.36-5.835c-1.768,0-3.71,1.591-4.24,3.534c-0.709,3.006-2.477,3.537-9.901,3.537
		c-7.774,0-9.014-0.53-9.014-3.537c0-2.298-1.237-3.534-3.533-3.534C1115.37,89.043,1114.131,90.279,1114.131,92.577z"/>
	<path fill-rule="evenodd" clip-rule="evenodd" fill="#FFFFFF" d="M1063.582,98.762c-2.299,3.538-2.652,5.483-1.062,8.665
		c1.062,2.298,1.413,5.83,0.882,7.954c-0.882,3.711,1.947,5.124,3.89,1.945c0.531-1.062,4.952-1.768,9.55-1.768
		c9.54,0,12.545-2.123,12.545-9.014c0-4.774-3.891-10.429-7.244-10.429c-2.653,0-1.771,3.005,1.059,4.244
		c1.592,0.528,2.652,3.179,2.652,6.36c0,4.065-0.71,5.302-3.537,5.302c-2.476,0-3.71-1.592-4.596-6.186
		C1075.599,94.347,1068.708,90.988,1063.582,98.762z M1073.655,102.653c0.884,2.651,1.59,6.188,1.238,7.952
		c-0.529,2.651-1.061,2.829-4.95,0.884c-5.127-2.472-6.541-7.244-3.533-10.957C1069.591,96.642,1071.535,97.351,1073.655,102.653z"
		/>
	<path fill-rule="evenodd" clip-rule="evenodd" fill="#FFFFFF" d="M486.666,103.889c0,5.655,0.708,8.13,2.297,8.13
		c3.712,0,8.307,6.011,8.307,10.96c0,12.901-26.513,16.438-31.991,4.243c-2.652-5.655-0.707-12.904,3.711-14.318
		c2.829-0.884,3.535-2.651,3.535-8.128c0-6.014-0.53-6.897-4.065-6.897c-9.367,0-18.381,17.679-15.554,30.581
		c3.358,14.318,11.843,20.679,27.75,20.679c17.675,0,27.926-9.72,27.926-26.512c0-12.902-6.539-22.094-17.852-25.631
		C486.843,95.937,486.666,96.467,486.666,103.889z"/>
	<path fill-rule="evenodd" clip-rule="evenodd" fill="#FFFFFF" d="M1117.138,115.201c-2.123,2.295-2.828,6.186-2.476,15.381
		l0.353,12.368h15.911h15.905l0.528-4.946c0.532-4.774,0.532-4.774-10.604-4.774c-11.665,0-15.556-1.768-15.556-7.248
		c0-4.065,3.537-5.126,16.087-5.126c9.899,0,10.429-0.173,10.429-4.416c0-4.421-0.179-4.421-13.79-4.421
		C1122.794,112.02,1119.435,112.728,1117.138,115.201z"/>
	<path fill-rule="evenodd" clip-rule="evenodd" fill="#FFFFFF" d="M1068.532,120.856c-7.778,3.182-8.662,17.678-1.24,20.504
		c4.593,1.767,5.305-0.886,1.062-3.887c-5.123-3.713-4.242-9.545,2.122-13.079c4.242-2.299,5.301-2.299,9.721,0
		c5.48,3.181,7.598,11.665,3.181,13.432c-3.536,1.415-3.714,4.244-0.176,4.244c3.181,0,6.186-5.48,6.186-11.135
		C1089.387,122.979,1077.544,117.147,1068.532,120.856z"/>
	<path fill-rule="evenodd" clip-rule="evenodd" fill="#FFFFFF" d="M1062.875,147.371c0,0.883,2.475,1.767,5.302,1.767
		c6.013,0,9.367,4.773,4.945,7.247c-1.411,0.706-4.59,3.003-6.891,4.949c-6.539,5.305-2.475,6.539,4.421,1.239
		c3.353-2.476,6.716-4.599,7.422-4.599c0.707,0,3.711,2.123,6.364,4.774c7.247,6.891,6.009,1.767-1.413-6.542l-6.366-7.069h10.784
		c6.009,0,10.779-0.705,10.779-1.767s-7.068-1.768-17.673-1.768C1069.943,145.604,1062.875,146.309,1062.875,147.371z"/>
	<path fill-rule="evenodd" clip-rule="evenodd" fill="#FFFFFF" d="M1124.737,146.84c-11.489,4.244-14.316,18.207-5.478,27.221
		c7.599,7.422,19.794,6.539,26.157-1.768c3.538-4.595,2.831-17.322-1.24-21.388c-4.771-4.774-7.068-4.418-7.068,0.709
		c0,2.473,0.886,4.946,1.769,5.477c3.18,1.945,1.947,9.548-1.769,11.49c-3.359,1.768-3.534,1.415-3.534-10.606
		C1133.574,145.073,1132.691,144.011,1124.737,146.84z M1126.504,162.573c0,4.237-0.709,6.007-2.119,5.651
		c-4.241-1.414-3.891-12.018,0.353-12.018C1125.621,156.207,1126.504,159.036,1126.504,162.573z"/>
	<path fill-rule="evenodd" clip-rule="evenodd" fill="#FFFFFF" d="M433.639,164.163c0,7.952,0,7.952,6.188,7.952
		c6.187,0,6.187,0,6.187-7.952c0-7.956,0-7.956-6.187-7.956C433.639,156.207,433.639,156.207,433.639,164.163z"/>
	<polygon fill-rule="evenodd" clip-rule="evenodd" fill="#FFFFFF" points="453.084,164.163 453.084,172.115 480.479,172.115 
		507.875,172.115 507.875,164.163 507.875,156.207 480.479,156.207 453.084,156.207 	"/>
	<path fill-rule="evenodd" clip-rule="evenodd" fill="#FFFFFF" d="M762.398,168.581c0,2.652,1.237,3.535,4.418,3.535
		c3.182,0,4.419-0.883,4.419-3.535c0-2.654-1.237-3.534-4.419-3.534C763.636,165.047,762.398,165.927,762.398,168.581z"/>
	<path fill-rule="evenodd" clip-rule="evenodd" fill="#FFFFFF" d="M742.954,172.115c0,3.538-0.882,5.303-2.648,5.303
		c-1.414,0-2.653,1.595-2.653,3.534c0,1.945,1.239,3.537,2.653,3.537c2.119,0,2.648,2.476,2.648,11.135
		c0,12.726,1.769,15.377,10.075,15.377c4.597,0,5.835-0.706,5.835-3.356c0-1.77-1.593-3.716-3.537-4.245
		c-3.005-0.707-3.534-2.474-3.534-9.896c0-7.778,0.529-9.015,3.534-9.015c2.299,0,3.537-1.239,3.537-3.537
		c0-2.295-1.238-3.534-3.537-3.534c-2.827,0-3.534-1.235-3.534-5.303c0-4.417-0.707-5.305-4.419-5.305
		C743.664,166.811,742.954,167.698,742.954,172.115z"/>
	<path fill-rule="evenodd" clip-rule="evenodd" fill="#FFFFFF" d="M1064.642,170.348c-4.246,4.243-4.419,6.716-0.708,12.018
		c1.416,2.123,1.77,3.89,0.883,3.89c-1.06,0-1.941,1.237-1.941,2.826c0,1.945,0.882,2.476,2.828,1.767
		c1.589-0.531,6.182-1.056,10.426-1.056c9.015,0,13.258-3.362,13.258-10.431c0-5.124-6.01-12.374-8.307-10.073
		c-0.884,0.706,0,2.121,1.768,3.003c3.713,2.121,4.063,11.488,0.354,12.901c-2.651,1.062-6.188-4.949-6.188-10.428
		c0-2.651-4.769-7.956-7.244-7.956C1068.883,166.811,1066.586,168.405,1064.642,170.348z M1074.189,174.941
		c1.769,4.596,1.234,11.315-1.067,11.315c-5.299,0-10.775-9.547-7.243-12.902C1067.998,171.054,1073.122,172.115,1074.189,174.941z"
		/>
	<path fill-rule="evenodd" clip-rule="evenodd" fill="#FFFFFF" d="M452.553,175.123c-1.766,2.825,1.059,11.133,5.302,15.552
		l4.596,4.417h-4.773c-4.242,0-4.594,0.532-4.594,7.07v7.071h27.572h27.396l-0.53-7.6l-0.529-7.425l-17.146-0.883
		c-19.265-1.059-22.094-2.476-23.152-12.374c-0.709-5.654-1.239-6.186-7.071-6.713C456.264,173.883,453.084,174.414,452.553,175.123
		z"/>
	<path fill-rule="evenodd" clip-rule="evenodd" fill="#FFFFFF" d="M548.528,200.395v22.977h4.42c4.064,0,4.419-0.705,4.419-7.246
		c0-6.182,0.354-7.069,3.181-6.008c7.953,3.36,10.958,3.007,16.261-2.298c3.889-4.062,5.302-7.068,5.302-11.842
		c0-7.425-3.888-15.908-7.953-17.498c-4.597-1.77-12.372-1.236-14.494,0.884c-1.415,1.417-2.297,1.417-3.004,0
		c-0.707-1.059-2.829-1.945-4.772-1.945C548.704,177.418,548.528,178.831,548.528,200.395z M571.505,187.849
		c3.714,7.244,0,17.851-6.363,17.851c-6.539,0-10.604-14.141-5.654-19.09C562.669,183.428,569.384,184.136,571.505,187.849z"/>
	<path fill-rule="evenodd" clip-rule="evenodd" fill="#FFFFFF" d="M585.646,194.209c0,16.439,0,16.792,4.242,16.792
		c3.887,0,4.241-0.884,4.949-10.606c0.884-11.49,2.298-14.138,8.309-14.669c2.649-0.174,3.71-1.415,3.71-4.243
		c0-4.947-4.417-5.477-9.189-1.062c-3.006,2.654-3.183,2.654-3.183,0c0-1.942-1.413-3.003-4.419-3.003
		C585.646,177.418,585.646,177.418,585.646,194.209z"/>
	<path fill-rule="evenodd" clip-rule="evenodd" fill="#FFFFFF" d="M611.451,182.897c-11.841,14.141,1.416,33.936,19.09,28.104
		c7.776-2.473,12.549-11.134,10.958-19.974c-1.589-8.661-8.305-13.609-17.852-13.609
		C617.286,177.418,615.164,178.304,611.451,182.897z M631.777,190.5c2.651,9.719-5.302,18.733-11.665,13.429
		c-3.534-3.003-4.948-11.487-2.65-15.905C620.644,182.013,630.01,183.781,631.777,190.5z"/>
	<path fill-rule="evenodd" clip-rule="evenodd" fill="#FFFFFF" d="M645.741,194.209c0,16.792,0,16.792,4.421,16.792
		c4.24,0,4.418-0.528,4.418-10.25c0-11.315,2.826-16.969,8.128-15.909c2.829,0.531,3.36,2.298,3.89,13.433
		c0.529,12.198,0.708,12.727,4.772,12.727c4.243,0,4.419-0.528,4.419-10.25c0-11.315,2.826-16.969,8.128-15.909
		c2.829,0.531,3.36,2.298,3.891,13.433c0.531,12.198,0.709,12.727,4.771,12.727c4.247,0,4.42-0.353,4.42-13.963
		c0-10.428-0.707-14.847-2.827-16.792c-3.183-3.356-13.256-3.709-16.261-0.708c-1.592,1.591-2.651,1.591-4.244,0
		c-2.651-2.648-11.134-2.829-15.729-0.353c-2.299,1.236-3.357,1.236-3.357,0c0-0.881-1.944-1.767-4.418-1.767
		C645.741,177.418,645.741,177.418,645.741,194.209z"/>
	<path fill-rule="evenodd" clip-rule="evenodd" fill="#FFFFFF" d="M706.896,181.835c-6.361,5.835-6.535,17.851-0.35,25.101
		c3.535,4.065,5.652,4.946,12.548,4.946c6.895,0,9.014-0.881,12.549-4.946c6.009-7.069,6.009-19.087-0.177-25.101
		C725.458,175.653,713.615,175.653,706.896,181.835z M724.926,186.609c5.128,5.124,0.883,19.09-5.831,19.09
		c-4.242,0-7.952-5.305-7.952-11.313c0-6.539,2.65-9.898,7.952-9.898C721.215,184.489,723.688,185.373,724.926,186.609z"/>
	<path fill-rule="evenodd" clip-rule="evenodd" fill="#FFFFFF" d="M762.398,194.209c0,16.792,0,16.792,4.418,16.792
		c4.419,0,4.419,0,4.419-16.792c0-16.791,0-16.791-4.419-16.791C762.398,177.418,762.398,177.418,762.398,194.209z"/>
	<path fill-rule="evenodd" clip-rule="evenodd" fill="#FFFFFF" d="M782.369,180.068c-4.593,3.359-8.306,13.61-6.716,18.915
		c3.363,11.134,15.555,16.437,25.453,11.134c15.73-7.955,9.542-32.699-8.13-32.699C789.265,177.418,784.489,178.657,782.369,180.068
		z M799.517,189.083c2.474,6.364,2.296,8.664-1.595,13.257c-2.826,3.713-3.885,3.888-7.953,1.945
		c-3.884-1.77-4.593-3.182-4.593-9.723c0-9.011,0.709-10.073,7.422-10.073C796.511,184.489,798.277,185.551,799.517,189.083z"/>
	<path fill-rule="evenodd" clip-rule="evenodd" fill="#FFFFFF" d="M813.655,194.387v16.789l4.773-0.528
		c4.593-0.531,4.947-1.062,5.303-10.782c0.355-13.435,1.238-15.378,6.54-15.378c5.303,0,6.36,2.83,6.36,16.081
		c0,9.903,0.179,10.431,4.422,10.431c4.418,0,4.418-0.174,4.418-13.785c0-11.312-0.709-14.494-3.181-16.795
		c-3.717-3.357-11.313-3.885-16.439-1.236c-2.299,1.236-3.358,1.236-3.358,0c0-0.881-1.94-1.767-4.419-1.767
		C813.655,177.418,813.655,177.418,813.655,194.387z"/>
	<path fill-rule="evenodd" clip-rule="evenodd" fill="#FFFFFF" d="M1117.138,185.904c-3.535,3.89-3.89,12.901-0.885,15.906
		c1.591,1.59,1.591,2.65,0,4.243c-2.65,2.65-2.827,12.374-0.177,15.024c1.414,1.415,1.414,2.294,0,3.006
		c-1.062,0.704-1.945,2.823-1.945,4.769c0,3.006,1.415,3.359,16.795,3.359c16.79,0,16.79,0,16.79-4.418
		c0-4.243-0.356-4.422-11.313-4.422c-11.843,0-16.614-2.647-14.492-7.951c0.704-1.942,3.884-2.649,13.431-2.649h12.374v-5.305
		v-5.127l-12.728-0.53c-12.373-0.528-12.905-0.707-12.905-4.947c0-4.246,0.532-4.421,12.905-4.952
		c12.198-0.53,12.728-0.706,12.728-4.771c0-4.243-0.356-4.418-13.79-4.418C1122.615,182.722,1119.435,183.428,1117.138,185.904z"/>
	<path fill-rule="evenodd" clip-rule="evenodd" fill="#FFFFFF" d="M1070.122,193.679c-6.72,3.537-8.306,7.603-6.011,13.788
		c2.12,5.658,0.884,6.539-4.949,3.535c-4.419-2.473-4.597-11.486-0.354-13.963c3.89-2.12,2.299-4.243-1.944-2.65
		c-6.716,2.65-5.477,17.495,1.771,20.149c6.007,2.297,30.752,2.297,30.752,0c0-1.059-0.883-1.765-2.12-1.765
		c-1.59,0-1.59-0.53,0-2.123c3.181-3.182,2.65-11.134-0.885-14.316C1081.785,192.267,1074.894,191.205,1070.122,193.679z
		 M1083.731,198.983c3.712,3.179,2.476,10.073-2.123,12.193c-10.781,4.949-20.325-5.833-11.665-12.902
		C1074.005,195.092,1078.957,195.271,1083.731,198.983z"/>
	<path fill-rule="evenodd" clip-rule="evenodd" fill="#FFFFFF" d="M212.174,196.332c-0.709,0.531-1.238,4.238-1.238,7.953
		c0,5.658-0.531,6.716-3.713,6.716c-2.12,0-3.358,0.881-2.827,2.124c0.353,1.233,2.122,2.12,3.711,2.12
		c2.475-0.356,2.829,1.942,3.005,15.905c0.176,8.839,0.707,18.382,1.413,21.389c0.883,4.773,1.768,5.302,8.839,5.83
		c5.655,0.358,7.424,0,6.893-1.765c-0.53-1.239-2.652-2.651-5.125-3.182c-4.065-1.062-4.242-1.592-4.773-20.149
		c-0.353-12.904,0.176-18.736,1.414-17.853c2.652,1.592,9.191-0.884,8.308-3.179c-0.354-1.064-2.475-2.124-4.948-2.124
		c-3.712,0-4.242-0.884-4.773-7.602C217.83,195.624,215.353,193.147,212.174,196.332z"/>
	<path fill-rule="evenodd" clip-rule="evenodd" fill="#FFFFFF" d="M403.239,202.515c-0.352,6.188-1.236,7.602-4.065,7.602
		c-1.944,0-3.711,1.412-4.064,3.18c-0.53,2.3,0.529,3.006,3.888,3.006h4.594v19.087c0,12.555,0.708,19.799,2.121,21.213
		c3.182,3.179,13.789,2.828,13.789-0.53c0-1.59-1.592-2.651-4.242-2.651c-5.658,0-6.365-2.651-6.365-21.385
		c0-11.313,0.707-15.734,2.298-15.912c1.061-0.175,3.183-0.353,4.596-0.528c3.357-0.177,4.773-4.596,1.591-4.771
		c-1.237-0.178-3.536-0.354-4.949-0.531c-1.769-0.178-2.829-2.651-3.182-7.78c-0.354-4.946-1.416-7.423-3.005-7.423
		C404.654,195.092,403.592,197.569,403.239,202.515z"/>
	<path fill-rule="evenodd" clip-rule="evenodd" fill="#FFFFFF" d="M238.509,213.125c-2.299,2.295-4.773,5.829-5.48,7.952
		c-0.883,3.357-0.353,4.063,2.474,4.063c2.122,0,3.713-1.057,3.713-2.295c0-7.247,16.261-11.315,21.917-5.48
		c6.011,5.833,2.122,13.08-6.715,13.08c-16.262,0-25.453,7.422-23.332,18.734c1.061,5.127,2.475,6.719,7.6,9.017
		c7.601,3.007,16.969,1.765,21.563-2.831c3.005-3.004,3.183-3.004,5.302,0c2.122,3.534,8.132,4.596,9.9,1.767
		c0.529-1.058-0.354-2.473-1.946-3.356c-2.474-1.415-3.004-4.774-3.356-17.321c-0.18-8.661-0.884-17.323-1.591-19.442
		C265.904,208.703,246.286,206.227,238.509,213.125z M263.961,239.105c0,11.487-15.378,20.326-22.979,13.433
		c-4.065-3.712-4.597-10.252-1.059-13.08c1.414-1.062,5.832-2.829,10.074-3.537C263.253,233.272,263.961,233.451,263.961,239.105z"
		/>
	<path fill-rule="evenodd" clip-rule="evenodd" fill="#FFFFFF" d="M279.16,210.473c-0.53,0.704-1.06,11.666-1.06,24.745
		c0,22.266,0.177,23.508,3.536,23.508c3.358,0,3.535-1.242,3.535-15.733c0-14.494,0.353-16.259,4.595-21.21
		c2.829-3.356,6.187-5.479,8.839-5.479c3.004,0,4.241-1.059,4.241-3.532c0-4.952-5.655-4.599-12.196,1.057
		c-5.125,4.243-5.479,4.243-5.479,1.061C285.17,211.356,281.105,208.528,279.16,210.473z"/>
	<path fill-rule="evenodd" clip-rule="evenodd" fill="#FFFFFF" d="M313.273,211.882c-10.075,5.482-13.434,25.984-6.01,37.296
		c6.186,9.547,20.856,11.665,28.987,4.065l3.711-3.531v5.301c0,3.001-0.883,7.244-1.942,9.721c-4.242,9.189-20.15,10.25-25.63,1.767
		c-3.182-4.773-7.776-5.658-7.776-1.59c0,4.593,7.953,11.135,15.023,12.548c3.712,0.707,9.544,0.354,13.434-0.883
		c10.781-3.182,12.725-8.836,13.608-37.649c0.353-13.435,0.353-25.45-0.175-27.045c-1.416-3.18-6.542-1.587-6.542,2.123
		c0,1.945-1.06,1.768-4.595-1.062C329.888,208.703,320.167,208.172,313.273,211.882z M334.483,218.779
		c8.307,8.836,6.363,27.042-3.535,31.991c-7.07,3.712-10.074,3.36-15.907-2.476c-4.42-4.593-5.126-6.538-5.126-15.2
		c0-8.127,0.707-10.603,4.42-14.141C319.989,213.125,329.004,212.943,334.483,218.779z"/>
	<path fill-rule="evenodd" clip-rule="evenodd" fill="#FFFFFF" d="M361.879,212.593c-11.133,6.716-13.078,30.752-3.358,40.828
		c9.367,9.72,26.159,8.484,32.876-2.477c4.242-6.891,4.242-8.127-0.177-8.127c-1.945,0-3.536,1.056-3.536,2.298
		c0,3.71-5.656,8.127-11.842,9.367c-4.419,0.881-6.361,0-10.781-4.068c-3.005-2.65-5.656-6.892-6.011-9.367l-0.53-4.418
		l18.206-0.528c17.853-0.531,18.028-0.531,18.028-4.952C394.755,213.828,376.55,203.577,361.879,212.593z M381.853,217.187
		c1.945,1.415,4.595,4.952,5.48,7.953l1.943,5.304h-15.731h-15.73l1.944-5.304c2.12-6.361,7.601-10.604,13.786-10.604
		C376.021,214.536,379.732,215.772,381.853,217.187z"/>
	<path fill-rule="evenodd" clip-rule="evenodd" fill="#FFFFFF" d="M465.985,217.895c-4.065,1.945-8.66,5.476-10.252,7.954
		c-3.888,5.832-4.064,19.089-0.176,24.744c2.476,4.065,2.476,4.596,0.176,4.596c-1.944,0-2.649,1.942-2.649,7.069v7.07h36.056
		c25.806,0,36.235-0.528,36.765-2.118c0.353-1.061,0.353-4.243,0-7.072c-0.706-4.773-1.061-4.949-12.019-4.949
		c-6.187,0-11.313-0.354-11.313-0.706c0-0.53,1.59-3.712,3.712-7.072c2.651-4.593,3.358-7.599,2.296-12.551
		C505.402,217.54,484.721,209.409,465.985,217.895z M493.737,233.979c4.594,4.595,4.594,12.726-0.178,16.966
		c-2.651,2.477-6.363,3.36-13.434,3.36c-7.954,0-10.25-0.707-13.079-4.243c-7.954-9.721-0.528-19.618,14.493-19.618
		C487.902,230.444,491.084,231.327,493.737,233.979z"/>
	<path fill-rule="evenodd" clip-rule="evenodd" fill="#FFFFFF" d="M1062.875,221.608c0,1.059,5.657,1.763,13.254,1.763
		c7.603,0,13.258-0.705,13.258-1.763c0-1.063-5.655-1.768-13.258-1.768C1068.532,219.84,1062.875,220.545,1062.875,221.608z"/>
	<path fill-rule="evenodd" clip-rule="evenodd" fill="#FFFFFF" d="M1092.924,221.608c0,0.884,1.237,1.763,2.65,1.763
		c1.412,0,2.648-0.879,2.648-1.763c0-1.063-1.236-1.768-2.648-1.768C1094.161,219.84,1092.924,220.545,1092.924,221.608z"/>
	<path fill-rule="evenodd" clip-rule="evenodd" fill="#FFFFFF" d="M1062.875,229.56c0,2.121,2.295,2.651,10.605,2.651
		c9.896,0,10.604,0.353,11.663,4.771c1.589,6.188-2.827,9.368-13.783,9.368c-5.129,0-8.485,0.711-8.485,1.945
		c0,3.006,22.802,1.237,24.919-2.12c0.884-1.237,1.24-6.011,0.884-10.253l-0.529-7.776l-12.725-0.708
		C1064.995,226.906,1062.875,227.261,1062.875,229.56z"/>
	<path fill-rule="evenodd" clip-rule="evenodd" fill="#FFFFFF" d="M645.741,236.101c0,5.833-0.529,6.892-2.12,5.302
		c-1.236-1.239-4.774-2.124-7.776-2.124c-7.423,0-11.314,5.305-11.314,15.203c0,6.008,0.885,8.306,4.596,11.135
		c5.655,4.421,9.19,4.595,14.494,0.884c2.12-1.415,3.888-1.767,3.888-0.884c0,1.061,0.884,1.944,1.768,1.944
		c1.061,0,1.767-7.602,1.767-19.445c0-16.08-0.528-19.44-2.651-19.44C646.45,228.676,645.741,230.622,645.741,236.101z
		 M643.621,245.116c3.004,2.475,2.651,14.666-0.708,17.85c-6.008,6.188-14.848,0.884-14.848-9.014
		C628.065,243.701,635.845,239.105,643.621,245.116z"/>
	<path fill-rule="evenodd" clip-rule="evenodd" fill="#FFFFFF" d="M768.762,231.505c-3.355,3.354-3.536,4.417-0.708,10.429
		c1.77,3.887,1.589,4.945-1.764,7.244c-5.306,3.712-5.306,13.61,0,17.323c4.945,3.537,7.951,3.537,14.668,0
		c3.359-1.767,5.478-1.945,5.832-0.884c0.353,1.061,1.767,1.944,3.179,1.944c2.123,0,2.301-0.711,0.355-4.064
		c-1.06-2.123-1.943-6.013-1.589-8.839c0.177-2.651-0.354-4.771-1.416-4.771c-1.06,0-1.943,1.236-1.943,2.651
		c0,3.89-2.123,3.181-5.654-1.593c-2.829-4.065-2.829-4.418,0.35-7.244c3.89-3.537,4.596-9.722,1.418-12.904
		C778.482,227.793,771.943,228.146,768.762,231.505z M779.189,233.979c1.769,2.65-0.885,8.838-3.536,8.838
		c-3.004,0-6.011-5.304-4.946-8.483C771.766,231.858,777.598,231.505,779.189,233.979z M778.482,255.364
		c3.887,5.479,3.887,5.657,0.707,7.955c-4.064,3.006-8.31,3.182-11.136,0.353c-4.241-4.241-1.412-13.785,4.242-13.785
		C773.533,249.887,776.361,252.36,778.482,255.364z"/>
	<path fill-rule="evenodd" clip-rule="evenodd" fill="#FFFFFF" d="M912.637,232.211c0,2.295,1.236,3.538,3.182,3.538
		c4.24,0,5.657-1.414,4.419-4.599C918.822,227.261,912.637,228.146,912.637,232.211z"/>
	<path fill-rule="evenodd" clip-rule="evenodd" fill="#FFFFFF" d="M711.143,234.859c0,3.007-1.062,4.421-3.007,4.421
		c-3.005,0.178-3.005,0.178,0,2.477c2.297,1.766,3.007,4.948,3.007,13.257c0,9.721,0.528,11.135,4.062,12.371
		c2.124,0.884,4.596,1.062,5.657,0.531c0.884-0.531,0.354-1.415-0.883-1.768c-4.244-1.414-5.302-4.243-5.302-14.141
		c0-7.953,0.527-9.189,3.535-9.189c4.596,0,4.596-2.829,0-4.068c-1.945-0.528-3.535-1.589-3.359-2.473
		c0.53-3.182-0.354-5.833-1.942-5.833C712.025,230.444,711.143,232.387,711.143,234.859z"/>
	<path fill-rule="evenodd" clip-rule="evenodd" fill="#FFFFFF" d="M1124.737,236.982c-11.489,4.244-14.316,18.207-5.478,27.221
		c5.831,5.835,13.255,6.718,21.209,2.475c5.834-3.006,7.247-5.835,7.247-15.202c0-4.597-1.24-8.131-3.539-10.429
		c-4.771-4.771-7.068-4.418-7.068,0.709c0,2.476,0.886,4.948,1.769,5.479c3.18,1.943,1.947,9.545-1.769,11.49
		c-3.359,1.765-3.534,1.412-3.534-10.609C1133.574,235.218,1132.691,234.154,1124.737,236.982z M1126.504,252.715
		c0,4.24-0.709,6.01-2.119,5.652c-4.241-1.412-3.891-12.018,0.353-12.018C1125.621,246.35,1126.504,249.178,1126.504,252.715z"/>
	<path fill-rule="evenodd" clip-rule="evenodd" fill="#FFFFFF" d="M552.064,258.726c0,11.843,0.705,19.44,1.767,19.44
		c1.06,0,1.767-2.829,1.767-6.188c0-5.83,0.177-6.008,4.242-4.238c13.786,6.36,24.746-13.435,13.964-25.278
		c-3.183-3.535-12.902-4.24-16.084-1.059c-1.591,1.589-2.122,1.589-2.122,0c0-1.239-0.708-2.124-1.767-2.124
		C552.77,239.28,552.064,246.879,552.064,258.726z M573.274,249c2.474,6.363-0.355,13.965-6.01,15.911
		c-4.241,1.414-5.478,1.059-8.307-2.476c-5.656-6.891-3.712-17.672,3.712-19.973C566.556,241.226,571.505,244.232,573.274,249z"/>
	<path fill-rule="evenodd" clip-rule="evenodd" fill="#FFFFFF" d="M582.11,253.421c0,8.306,0.707,14.14,1.769,14.14
		c1.06,0,1.767-4.243,1.767-9.367c0-9.547,3.359-15.377,8.483-15.377c1.239,0,2.122-0.883,2.122-1.77
		c0-2.473-5.833-2.298-8.483,0.356c-1.591,1.589-2.122,1.589-2.122,0c0-1.239-0.707-2.124-1.767-2.124
		C582.817,239.28,582.11,245.116,582.11,253.421z"/>
	<path fill-rule="evenodd" clip-rule="evenodd" fill="#FFFFFF" d="M598.196,243.874c-6.186,7.78-3.889,19.624,4.595,23.511
		c6.009,2.654,8.309,2.474,13.257-1.589c5.302-4.067,7.07-10.96,4.595-18.031C617.286,238.222,604.382,235.921,598.196,243.874z
		 M615.34,245.997c3.358,4.244,2.653,13.435-1.413,17.145c-4.596,4.068-12.02,2.298-14.141-3.71
		c-2.652-6.716-2.12-9.369,2.475-13.962C606.856,240.872,611.275,241.047,615.34,245.997z"/>
	<path fill-rule="evenodd" clip-rule="evenodd" fill="#FFFFFF" d="M654.58,250.77c0,13.786,4.063,19.799,12.018,17.851
		c2.65-0.705,6.01-1.236,7.424-1.412c4.066-0.358,4.419-1.945,3.889-15.379c-0.708-15.2-3.889-16.792-3.889-2.118
		c0,11.309-2.652,16.083-9.016,16.083c-4.418,0-6.892-6.364-6.892-17.85c0-4.775-0.708-8.665-1.768-8.665
		C655.285,239.28,654.58,244.232,654.58,250.77z"/>
	<path fill-rule="evenodd" clip-rule="evenodd" fill="#FFFFFF" d="M684.802,243.874c-6.538,8.311-3.71,19.976,5.657,23.867
		c6.717,2.829,14.143-0.89,15.026-7.25c0.528-4.417,0.528-4.417-3.712,0.711c-5.48,6.714-12.019,5.477-15.553-2.654
		c-1.768-4.772-1.768-6.363,0.351-10.253c3.184-5.655,11.846-7.247,15.203-2.651c2.829,3.888,5.479,1.592,3.007-2.474
		c-1.24-1.767-4.774-3.182-9.018-3.537C689.753,239.105,687.982,239.811,684.802,243.874z"/>
	<path fill-rule="evenodd" clip-rule="evenodd" fill="#FFFFFF" d="M725.637,241.403c-5.303,5.301-0.355,11.84,10.777,14.494
		c6.54,1.587,6.54,7.6,0,9.189c-3.534,0.884-5.301,0.353-7.776-2.476c-3.534-4.596-5.125-4.946-5.125-1.237
		c0,1.415,1.945,3.89,4.418,5.477c5.833,3.891,14.672,1.77,17.323-4.062c1.768-3.891,1.412-4.949-2.123-7.775
		c-2.295-1.945-5.479-3.36-7.07-3.36c-1.766,0-4.594-1.239-6.537-2.653c-3.182-2.651-3.182-2.651-0.179-5.127
		c3.714-2.826,7.954-1.939,11.313,2.123c3.007,3.535,5.48,1.064,3.007-2.827C741.365,239.458,728.814,238.222,725.637,241.403z"/>
	<path fill-rule="evenodd" clip-rule="evenodd" fill="#FFFFFF" d="M809.412,242.109c-5.653,5.655-1.765,11.843,8.662,13.788
		c3.359,0.706,6.185,2.298,6.185,3.534c0,3.71-4.59,4.594-8.306,1.943c-3.534-2.827-9.367-3.534-9.367-1.237
		c0,4.774,5.479,8.309,12.903,8.309c8.838,0,13.609-3.006,13.609-8.839c0-4.949-2.651-7.247-10.429-9.192
		c-7.424-1.943-9.367-5.83-3.001-5.83c2.47,0,4.59,0.707,4.59,1.765c0,0.886,1.593,1.767,3.539,1.767
		c3.887,0,4.592-3.532,1.411-6.713C826.029,238.222,812.596,238.75,809.412,242.109z"/>
	<path fill-rule="evenodd" clip-rule="evenodd" fill="#FFFFFF" d="M838.752,243.345c-7.596,8.131-3.712,22.803,6.72,25.101
		c6.187,1.412,14.669-2.298,15.553-6.718c0.708-3.533-3.356-4.063-8.483-0.884c-2.476,1.592-4.417,1.768-6.363,0.531
		c-5.124-3.179-2.649-5.301,7.247-5.83c11.134-0.531,12.549-3.359,6.009-11.67C854.661,237.688,844.233,237.514,838.752,243.345z
		 M851.479,245.644c4.951,1.947,3.007,4.243-3.534,4.243c-5.48,0-6.186-0.355-4.241-2.651
		C846.178,244.232,847.414,244.054,851.479,245.644z"/>
	<path fill-rule="evenodd" clip-rule="evenodd" fill="#FFFFFF" d="M864.912,253.421c0,13.963,0,14.14,4.417,14.14
		c4.069,0,4.423-0.531,4.423-8.483c0-9.192,2.12-12.729,7.952-12.729c2.828,0,4.243,2.122,6.894,10.606
		c3.004,9.545,3.887,10.606,8.306,10.606c4.421,0,5.127-1.061,8.84-12.018c2.123-6.543,4.242-12.905,4.774-14.141
		c0.349-1.239-0.888-2.124-3.714-2.124c-3.891,0-4.773,1.237-6.716,8.837c-1.237,4.774-2.829,8.311-3.537,7.956
		c-0.527-0.529-2.121-4.419-3.179-8.837c-1.945-7.603-2.301-7.956-8.662-7.956c-3.716,0-7.6,0.884-8.838,2.124
		c-1.59,1.589-2.12,1.589-2.12,0c0-1.239-1.943-2.124-4.423-2.124C864.912,239.28,864.912,239.458,864.912,253.421z"/>
	<path fill-rule="evenodd" clip-rule="evenodd" fill="#FFFFFF" d="M912.637,253.421c0,13.609,0.175,14.14,4.064,14.14
		c3.891,0,4.064-0.531,3.713-12.904c-0.355-16.083,0-15.378-4.243-15.378C912.989,239.28,912.637,240.517,912.637,253.421z"/>
	<path fill-rule="evenodd" clip-rule="evenodd" fill="#FFFFFF" d="M928.367,242.639c-6.185,4.952-5.832,16.792,0.705,22.447
		c2.828,2.298,6.895,4.241,9.014,4.241c4.953,0,13.435-6.361,13.435-9.896c0-3.358-6.539-3.181-8.481,0.351
		c-1.945,3.359-7.25,2.653-9.721-1.234c-2.301-3.534-0.181-12.021,3.354-13.432c1.414-0.531,4.068,0.353,5.836,1.945
		c3.711,3.354,9.013,3.709,9.013,0.53C951.521,239.811,935.789,236.454,928.367,242.639z"/>
	<path fill-rule="evenodd" clip-rule="evenodd" fill="#FFFFFF" d="M956.998,243.874c-8.479,10.609-1.233,25.454,12.2,25.454
		c4.592,0,14.315-9.014,10.78-10.249c-1.239-0.353-4.067,0.175-6.362,1.412c-5.127,2.651-10.432,1.767-11.135-2.295
		c-0.531-2.476,0.88-3.006,9.189-3.006c10.604,0,12.021-1.59,7.955-9.367c-2.827-5.304-4.951-6.542-12.551-6.542
		C962.125,239.28,959.651,240.341,956.998,243.874z M972.376,247.591c0.356,1.587-1.237,2.296-4.771,2.296
		c-5.304,0-6.895-1.592-4.244-4.243C965.307,243.874,971.492,245.116,972.376,247.591z"/>
	<path fill-rule="evenodd" clip-rule="evenodd" fill="#FFFFFF" d="M986.164,242.109c-5.479,5.301-1.944,11.843,7.774,13.963
		c6.19,1.411,8.487,4.24,5.127,6.362c-1.414,0.884-3.888,0.354-6.361-1.061c-5.478-3.709-9.721-3.359-9.012,0.354
		c1.589,8.661,21.029,9.544,24.742,1.238c2.828-6.01,0.177-9.898-8.306-12.374c-3.891-1.061-7.245-2.828-7.601-3.888
		c-0.884-2.65,6.008-2.831,7.601-0.355c1.59,2.651,7.951,2.122,7.951-0.528c0-4.243-4.243-6.542-11.662-6.542
		C992,239.28,987.753,240.341,986.164,242.109z"/>
	<path fill-rule="evenodd" clip-rule="evenodd" fill="#FFFFFF" d="M1068.532,253.775c-4.95,2.475-6.716,9.014-4.065,14.846
		c2.119,4.774,2.119,4.95-4.071,2.473c-3.531-1.236-4.59-3-4.59-6.891c0-3.182,1.235-6.008,3.003-7.072
		c3.712-1.942,1.945-4.593-1.944-3.179c-3.535,1.412-5.477,9.545-3.535,15.022c1.943,5.657,9.369,7.777,24.039,7.072l10.78-0.531
		l0.707-8.131c0.705-7.247,0.179-8.659-4.063-12.021C1079.663,251.3,1074.718,250.77,1068.532,253.775z M1081.256,256.956
		c3.537,1.239,4.598,3.004,4.598,6.894c0,4.244-1.061,5.478-5.657,7.072c-4.42,1.587-6.363,1.412-9.721-0.709
		c-5.48-3.534-5.48-10.958,0-13.257C1075.599,254.835,1075.958,254.835,1081.256,256.956z"/>
	<path fill-rule="evenodd" clip-rule="evenodd" fill="#FFFFFF" d="M1117.667,274.984c-3.536,3.89-4.772,13.788-2.474,19.974
		c3.182,8.308,21.21,10.604,28.103,3.535c6.008-5.83,6.187-18.031,0.356-23.508c-2.301-2.12-5.129-3.89-6.189-3.89
		c-3.181,0-2.475,8.312,0.707,9.547c1.768,0.707,2.476,2.649,2.122,5.833c-1.061,10.074-19.092,9.721-19.092-0.355
		c0-2.473,1.239-4.946,2.654-5.478c3.534-1.414,3.534-9.547,0-9.547C1122.439,271.094,1119.789,272.864,1117.667,274.984z"/>
	<path fill-rule="evenodd" clip-rule="evenodd" fill="#FFFFFF" d="M1019.923,293.015c-21.563,7.775-34.642,30.399-32.696,57.442
		c1.945,27.396,18.378,46.133,43.479,49.667c12.726,1.589,22.624-0.709,30.931-7.247l6.541-5.302l1.061,5.302
		c1.062,5.124,1.59,5.477,8.837,5.477h7.779v-28.276v-28.282h-23.155h-22.977l0.527,8.308l0.528,8.309l11.138,0.35
		c6.01,0,11.487,0.709,12.019,1.062c1.77,1.942-4.241,13.257-8.838,16.792c-10.428,8.308-27.045,6.541-36.233-3.891
		c-6.718-7.777-9.721-18.381-8.484-31.458c1.767-20.151,12.021-31.285,28.811-31.285c10.432,0,18.912,5.299,20.857,13.254
		c1.062,4.066,1.771,4.421,12.551,4.421h11.487l-1.059-4.951c-4.951-20.677-20.859-32.167-44.012-31.989
		C1032.297,290.717,1023.637,291.776,1019.923,293.015z"/>
	<path fill-rule="evenodd" clip-rule="evenodd" fill="#FFFFFF" d="M269.264,345.331v53.024h10.604h10.605v-35.704
		c0-19.618,0.531-34.993,1.238-34.287s6.54,16.436,13.08,35.173l11.666,33.935l9.544,0.53l9.72,0.531l11.135-33.228
		c6.188-18.204,12.02-34.467,12.727-35.882c0.884-1.412,1.591,13.435,1.591,33.056v35.876h23.507h23.51l3.535-11.132l3.536-10.962
		h20.325h20.148l3.714,10.606l3.711,10.604l24.215,0.53l24.037,0.531v-20.501v-20.327h15.908c20.502,0,23.685,2.476,25.451,19.618
		c2.476,22.271,1.591,21.032,14.672,21.032c9.721,0,11.311-0.353,10.426-2.824c-0.529-1.592-1.589-8.485-2.121-15.379
		c-1.414-17.145-3.535-23.684-9.721-28.104l-5.125-3.887l5.125-3.183c5.833-3.71,10.782-14.493,10.782-23.33
		c0-9.367-7.071-20.68-15.906-25.275c-7.071-3.89-9.545-4.068-39.946-4.068h-32.522L488.08,344.8l-0.53,52.671l-19.62-52.141
		l-19.441-52.14l-12.373-0.528l-12.195-0.53l-8.484,22.621c-4.595,12.374-13.433,35.704-19.443,51.788l-10.959,29.163l-0.529-51.787
		l-0.354-51.784l-16.967,0.53l-16.97,0.528l-10.252,31.816c-5.657,17.496-10.958,33.582-11.842,35.705
		c-1.236,3.179-3.889-3.36-13.785-32.172l-12.374-36.234h-16.26h-16.438V345.331z M544.641,311.925
		c6.363,2.123,10.074,9.723,8.307,17.322c-1.944,8.839-6.542,10.782-25.099,10.782h-16.438v-15.023v-15.024h13.964
		C532.975,309.982,541.636,310.866,544.641,311.925z M443.185,339.673l6.186,18.031h-13.255c-7.247,0-13.079-0.708-13.079-1.592
		s2.474-8.306,5.301-16.439c3.005-8.127,5.833-15.727,6.363-17.142C435.939,318.819,436.821,320.409,443.185,339.673z"/>
	<path fill-rule="evenodd" clip-rule="evenodd" fill="#FFFFFF" d="M587.415,345.331v53.024h11.49h11.487v-17.32v-17.323l6.01-5.83
		c3.359-3.184,6.717-5.482,7.6-4.951c0.883,0.708,8.307,11.134,16.438,23.33l14.67,22.094h13.965
		c10.604,0,13.959-0.528,13.254-2.295c-0.353-1.061-10.075-15.199-21.389-31.11c-11.31-15.908-20.501-29.516-20.501-30.044
		c0-0.53,8.837-10.252,19.442-21.388l19.266-20.326l-13.61-0.528l-13.611-0.53l-20.68,21.738l-20.679,21.741l-0.176-21.741v-21.566
		h-11.487h-11.49V345.331z"/>
	<path fill-rule="evenodd" clip-rule="evenodd" fill="#FFFFFF" d="M684.627,345.331v53.024h40.654h40.652v-9.72v-9.72h-28.281
		h-28.28v-13.258v-13.258h25.629h25.63v-8.836v-8.836h-25.63h-25.629v-11.49V311.75h43.307h43.302v43.304v43.301h11.49h11.487
		l0.355-42.948l0.527-42.773l15.909-0.884c11.133-0.708,15.908-1.592,15.729-3.181c-0.177-1.062-0.352-5.303-0.352-9.193
		l-0.354-7.071h-83.075h-83.072V345.331z"/>
	<polygon fill-rule="evenodd" clip-rule="evenodd" fill="#FFFFFF" points="854.308,345.331 854.308,398.354 866.679,398.354 
		879.055,398.354 879.055,345.331 879.055,292.304 866.679,292.304 854.308,292.304 	"/>
	<path fill-rule="evenodd" clip-rule="evenodd" fill="#FFFFFF" d="M889.66,345.331v53.024h10.428h10.251l1.238-10.779
		c0.529-6.01,0.529-21.035,0-33.409c-0.711-12.724-0.533-22.799,0.351-23.505c0.884-0.528,11.137,14.494,22.803,33.403l21.209,34.29
		h12.02h11.843v-53.024v-53.026h-10.604h-10.606l-0.354,35.707l-0.53,35.879l-22.094-35.704l-22.094-35.704l-11.843-0.178H889.66
		V345.331z"/>
	<path fill-rule="evenodd" clip-rule="evenodd" fill="#FFFFFF" d="M110.187,318.819c0,16.439,0.176,17.675,3.536,17.675
		c3.358,0,3.534-1.236,3.534-17.675c0-16.437-0.176-17.676-3.534-17.676C110.363,301.143,110.187,302.382,110.187,318.819z"/>
	<path fill-rule="evenodd" clip-rule="evenodd" fill="#FFFFFF" d="M219.772,303.439c-2.297,1.241-5.125,4.599-6.01,7.427
		c-4.772,16.081-6.717,20.324-9.897,20.324c-4.772,0-7.423-4.418-6.715-11.841c0.351-4.949,1.589-7.247,4.593-8.483
		c2.122-0.884,3.891-3.182,3.891-4.773c0-3.888-0.53-3.888-6.895-0.531c-6.01,3.007-7.246,5.835-7.246,15.733
		c0,10.073,3.889,15.2,11.488,15.2c6.892,0,10.959-3.535,12.549-10.25c2.475-12.018,5.302-17.147,9.544-17.675
		c5.303-0.884,8.837,3.712,8.837,11.487c0,5.657-4.949,12.904-8.837,12.904c-0.885,0-1.767,1.237-1.767,2.651
		c0,3.89,4.418,3.179,10.075-1.592c4.417-3.712,4.949-5.48,4.949-14.316c0-8.836-0.531-10.606-4.949-14.316
		C227.726,300.615,225.959,300.26,219.772,303.439z"/>
	<path fill-rule="evenodd" clip-rule="evenodd" fill="#FFFFFF" d="M1117.138,309.626c-4.243,4.599-4.068,19.974,0.178,23.864
		c1.765,1.768,4.241,3.004,5.3,3.004c3.006,0,2.652-6.894-0.532-9.897c-3.532-3.535-3.356-7.603,0.179-9.018
		c3.359-1.236,6.011,2.299,6.011,8.312c0,6.361,4.771,12.369,9.722,12.369c7.423,0,9.543-4.063,9.365-18.557l-0.173-13.257h-13.612
		C1122.615,306.445,1119.435,307.157,1117.138,309.626z M1141.528,320.586c1.593,4.773-2.297,9.547-5.305,7.071
		c-1.235-1.061-2.649-3.89-3.181-6.188c-0.528-3.712,0-4.421,3.36-4.421C1138.877,317.048,1140.824,318.466,1141.528,320.586z"/>
	<path fill-rule="evenodd" clip-rule="evenodd" fill="#FFFFFF" d="M57.516,311.572c-1.59,0.884-1.06,4.241,1.768,13.08
		c3.536,10.606,4.42,11.842,8.485,11.842c4.063,0,4.949-1.236,8.482-12.018c4.772-14.672,4.772-14.318,0.354-13.257
		c-2.296,0.706-4.417,3.709-6.008,9.189l-2.299,8.13l-2.297-7.6C63.347,312.634,60.697,309.626,57.516,311.572z"/>
	<path fill-rule="evenodd" clip-rule="evenodd" fill="#FFFFFF" d="M85.796,312.808c-2.122,1.417-3.89,3.36-3.89,4.418
		c0,2.123,6.541,2.123,7.955-0.178c1.591-2.648,7.953-2.12,7.953,0.709c0,1.415-3.358,3.181-7.776,4.421
		c-5.656,1.414-8.308,3.003-9.192,5.832c-1.59,5.479,5.302,10.959,12.196,9.542c2.828-0.528,6.894-1.059,9.016-1.059
		c3.71,0,3.887-0.708,3.18-11.134c-0.707-12.021-3.18-15.377-10.958-15.377C91.805,309.982,87.917,311.219,85.796,312.808z
		 M97.46,328.892c-0.706,3.891-8.483,5.483-8.483,1.77c0-3.359,1.769-4.771,5.656-4.771
		C96.931,325.891,97.814,326.947,97.46,328.892z"/>
	<path fill-rule="evenodd" clip-rule="evenodd" fill="#FFFFFF" d="M138.466,318.466c0,9.897-1.942,13.254-6.362,12.371
		c-2.651-0.353-3.535-2.473-3.888-9.898c-0.532-7.775-1.06-9.189-4.066-9.189c-3.004,0-3.358,1.236-3.358,10.429
		c0,12.371,3.181,16.969,10.428,15.199c2.475-0.53,6.717-1.059,9.545-0.883c4.771,0,4.771,0,4.771-12.198
		c0-10.602-0.353-12.193-3.533-13.077C138.822,310.335,138.466,311.219,138.466,318.466z"/>
	<path fill-rule="evenodd" clip-rule="evenodd" fill="#FFFFFF" d="M154.552,312.28c-9.899,4.946-7.954,22.624,2.828,25.272
		c4.948,1.237,12.903-1.942,14.316-6.007c0.884-2.654-5.302-2.829-7.776-0.355c-2.473,2.476-7.778,0.355-7.778-2.826
		c0-1.767,2.476-2.473,8.84-2.473c7.775,0,8.836-0.531,8.836-3.537c0-4.597-7.6-12.372-11.843-12.372
		C160.207,309.982,156.849,311.042,154.552,312.28z M164.981,317.935c1.943,2.299,1.412,2.652-3.358,2.652
		c-5.481,0-7.424-2.476-3.184-4.063C161.974,314.929,162.683,315.109,164.981,317.935z"/>
	<path fill-rule="evenodd" clip-rule="evenodd" fill="#FFFFFF" d="M204.749,342.68c-9.72,3.535-13.256,8.309-13.256,18.556
		c0,6.719,0.883,9.37,4.772,13.085c5.655,5.83,10.428,7.069,22.801,6.007c14.846-1.239,22.801-11.665,19.443-25.452
		c-1.415-5.48-8.662-13.08-12.55-13.08c-4.419,0-3.005,4.418,2.652,8.483c8.307,6.188,7.247,17.853-1.946,22.446
		c-9.897,5.127-10.428,4.421-10.428-15.022C216.237,338.259,216.415,338.617,204.749,342.68z M210.936,361.414
		c0,13.963,0,14.142-3.89,13.08c-11.133-3.356-14.316-16.08-6.009-23.33C209.521,343.917,210.936,345.331,210.936,361.414z"/>
	<polygon fill-rule="evenodd" clip-rule="evenodd" fill="#FFFFFF" points="1101.759,346.214 1101.759,350.636 1124.737,350.636 
		1147.716,350.636 1147.716,346.214 1147.716,341.796 1124.737,341.796 1101.759,341.796 	"/>
	<path fill-rule="evenodd" clip-rule="evenodd" fill="#FFFFFF" d="M117.964,349.041c-0.53,1.064-0.177,2.829,0.884,3.89
		c1.414,1.415,1.943,0.883,1.943-1.942C120.792,346.746,119.909,346.039,117.964,349.041z"/>
	<path fill-rule="evenodd" clip-rule="evenodd" fill="#FFFFFF" d="M62.465,353.992c0,4.949-0.355,5.127-6.185,4.243
		c-8.664-1.415-13.258,3-13.258,12.727c0,10.073,4.065,13.61,14.847,12.898l8.13-0.528V366.01c0-10.25-0.708-17.142-1.767-17.142
		C63.347,348.868,62.465,351.164,62.465,353.992z M60.343,363.359c5.125,5.127,0.885,19.09-5.833,19.09
		c-4.241,0-7.954-5.303-7.954-11.313c0-6.539,2.652-9.901,7.954-9.901C56.633,361.236,59.105,362.125,60.343,363.359z"/>
	<path fill-rule="evenodd" clip-rule="evenodd" fill="#FFFFFF" d="M1122.083,356.112c-1.939,1.062-4.593,3.36-5.651,4.771
		c-2.829,3.538-3.006,13.083-0.179,15.908c1.591,1.593,1.591,2.124,0,2.124c-1.238,0-2.122,1.945-2.122,4.417v4.418h21.741
		c12.02,0,22.269-0.528,22.802-1.058c0.528-0.534,0.706-2.477,0.178-4.418c-0.711-2.654-2.474-3.359-8.13-3.359
		c-5.66,0-6.718-0.531-5.13-2.124c3.363-3.356,2.656-14.493-1.415-18.203C1140.115,354.876,1126.858,353.283,1122.083,356.112z
		 M1136.05,364.773c3.182,1.062,4.596,3.003,4.596,5.833c0,5.482-3.183,8.309-9.72,8.309c-6.541,0-9.726-2.827-9.726-8.309
		c0-2.651,1.415-4.771,4.067-5.833C1130.395,362.651,1130.748,362.651,1136.05,364.773z"/>
	<path fill-rule="evenodd" clip-rule="evenodd" fill="#FFFFFF" d="M73.069,361.236c-6.54,6.541-3.005,22.097,5.302,23.156
		c6.716,0.711,10.605-0.531,12.374-3.888c2.827-5.127,1.06-6.183-3.36-1.767c-4.595,4.596-7.601,4.596-11.312,0.53
		c-5.302-5.654-3.711-7.422,6.717-7.422c8.131,0,9.72-0.531,9.72-3.182C92.511,358.941,80.14,354.167,73.069,361.236z
		 M86.855,363.359c5.127,5.127,1.414,7.425-8.837,5.479c-4.243-0.706-4.594-1.237-3.183-4.24
		C76.957,360.883,83.675,360.18,86.855,363.359z"/>
	<path fill-rule="evenodd" clip-rule="evenodd" fill="#FFFFFF" d="M97.108,360.53c-1.591,1.417-2.828,3.36-2.828,4.243
		c0,2.829,5.302,6.719,10.604,7.953c6.363,1.415,8.131,3.712,5.303,7.072c-3.182,3.89-8.308,3.182-11.312-1.236
		c-3.005-4.241-5.657-3.357-3.888,1.236c2.298,6.36,15.553,6.539,19.443,0.353c2.827-4.416-0.531-8.659-8.84-10.957
		c-4.064-1.062-6.893-3.006-6.893-4.421c0-3.89,7.778-4.243,11.666-0.709c2.652,2.477,3.359,2.477,3.359,0.534
		C113.723,357.882,102.411,355.229,97.108,360.53z"/>
	<path fill-rule="evenodd" clip-rule="evenodd" fill="#FFFFFF" d="M118.495,358.941c-0.531,0.708-0.885,6.716-1.061,13.257
		c0,8.484,0.53,12.018,2.119,12.018c1.592,0,2.122-3.534,1.946-12.371C121.321,359.825,120.438,355.76,118.495,358.941z"/>
	<path fill-rule="evenodd" clip-rule="evenodd" fill="#FFFFFF" d="M127.862,361.236c-9.367,9.37,1.767,28.282,12.727,21.391
		c3.18-1.945,3.358-1.592,2.826,2.829c-0.352,3.888-1.589,5.125-5.477,5.477c-3.004,0.353-6.54-0.705-8.484-2.475
		c-3.004-2.649-3.358-2.649-3.358-0.175c0,3.534,5.303,6.541,11.134,6.541c7.6,0,10.076-5.126,10.428-21.21l0.354-14.494
		l-8.307-0.884C133.164,357.704,130.691,358.413,127.862,361.236z M141.649,363.359c3.004,3.006,2.651,12.901-0.53,15.556
		c-4.064,3.359-11.313,0.705-12.549-4.594C126.095,364.599,135.286,356.996,141.649,363.359z"/>
	<path fill-rule="evenodd" clip-rule="evenodd" fill="#FFFFFF" d="M152.606,371.314c0,7.423,0.708,12.902,1.769,12.902
		c1.061,0,1.766-3.888,1.766-8.661c0-11.844,1.238-14.319,7.071-14.319c5.833,0,7.07,2.476,7.07,14.319
		c0,4.773,0.884,8.661,1.769,8.661c2.296,0,2.296-18.737-0.177-23.152c-1.415-2.829-3.358-3.36-10.428-3.006l-8.839,0.531V371.314z"
		/>
	<path fill-rule="evenodd" clip-rule="evenodd" fill="#FFFFFF" d="M1245.46,364.246c-1.413,2.826-1.59,5.124-0.708,5.832
		c0.884,0.528,1.946,4.594,2.297,8.837c0.355,6.712,1.239,8.13,4.597,8.483c2.65,0.352,3.891-0.353,3.891-2.124
		c0-1.587-0.707-2.825-1.769-2.825c-2.651,0-2.122-11.844,0.528-13.08c1.768-0.883,1.768-1.237,0-2.12
		c-1.24-0.531-2.296-2.476-2.296-4.418C1252,357.882,1247.933,358.763,1245.46,364.246z"/>
	<path fill-rule="evenodd" clip-rule="evenodd" fill="#FFFFFF" d="M1184.834,366.01c-7.247,2.654-9.543,13.789-3.713,18.915
		c4.067,3.71,12.37,3.178,15.026-1.064c2.652-4.416-0.179-6.007-4.245-2.295c-3.358,3.007-3.891,3.007-6.535,0.531
		c-3.72-3.891-1.773-12.019,3.001-12.019c1.944,0,3.534,0.707,3.534,1.767c0,0.881,1.238,1.768,2.651,1.768
		c4.423,0,3.007-5.305-1.945-7.072c-2.474-1.062-4.597-1.768-4.77-1.592C1187.662,364.949,1186.25,365.479,1184.834,366.01z"/>
	<path fill-rule="evenodd" clip-rule="evenodd" fill="#FFFFFF" d="M1227.608,366.719c-6.186,2.297-4.601,9.017,2.828,11.134
		c3.003,0.884,5.653,2.298,5.653,3.182c0,2.473-5.83,4.068-6.714,1.771c-0.711-2.301-5.656-3.007-5.656-0.708
		c0,5.302,12.015,7.777,15.904,3.006c3.361-4.068,1.239-8.664-4.945-10.431c-7.78-2.121-7.248-5.302,0.704-3.71
		c4.774,0.883,6.187,0.531,5.659-1.062C1239.98,366.719,1232.377,364.949,1227.608,366.719z"/>
	<path fill-rule="evenodd" clip-rule="evenodd" fill="#FFFFFF" d="M1264.372,366.01c-7.247,2.477-9.543,13.789-3.892,18.738
		c7.426,6.716,18.028,1.411,18.028-8.84C1278.509,368.664,1271.269,363.537,1264.372,366.01z M1272.853,375.555
		c0.355,2.651-0.7,5.479-2.295,6.895c-4.24,3.534-8.837-1.59-7.247-7.957C1264.899,368.133,1272.152,368.839,1272.853,375.555z"/>
	<path fill-rule="evenodd" clip-rule="evenodd" fill="#FFFFFF" d="M1291.06,366.366c-1.234,0.884-3.887,1.059-5.653,0.706
		c-3.007-0.883-3.361,0.178-3.361,9.898c0,8.305,0.533,10.781,2.473,10.781c1.945,0,2.83-2.476,3.185-8.306
		c0.356-6.188,1.238-8.66,3.534-9.014c2.472-0.531,3.007,1.062,3.534,7.953c0.356,6.188,1.24,8.483,3.185,8.483
		s2.828-2.295,3.179-8.483c0.534-6.892,1.063-8.484,3.535-7.953c2.301,0.354,3.185,2.826,3.534,9.014
		c0.355,5.83,1.24,8.306,3.186,8.306c1.767,0,2.472-2.476,2.472-9.72c0-7.781-0.705-9.898-3.534-11.49
		c-2.473-1.415-4.597-1.415-7.068,0c-2.301,1.236-4.598,1.236-6.72,0.178C1294.771,365.835,1292.298,365.657,1291.06,366.366z"/>
	<path fill-rule="evenodd" clip-rule="evenodd" fill="#FFFFFF" d="M1322.696,367.072c-3.177,1.592-4.59,3.89-4.945,8.133
		c-1.062,10.251,8.308,16.081,16.612,10.07c4.245-3.178,1.771-6.008-2.83-3.178c-3.883,2.295-9.364,1.061-8.302-2.121
		c0.35-1.061,3.355-1.591,7.068-1.414c6.009,0.527,6.541,0.175,6.541-3.89c0-2.474-1.594-5.478-3.89-7.07
		C1328.177,364.246,1328.355,364.246,1322.696,367.072z M1331.006,372.904c0.356,1.237-1.239,1.943-3.885,1.943
		c-4.425,0-5.485-1.234-3.185-3.709C1325.703,369.37,1330.3,370.606,1331.006,372.904z"/>
	<path fill-rule="evenodd" clip-rule="evenodd" fill="#FFFFFF" d="M1349.384,366.366c-1.233,0.884-3.886,1.059-5.652,0.706
		c-3-0.883-3.361,0.178-3.361,9.898c0,8.486,0.532,10.781,2.656,10.781c1.945,0,2.65-1.942,2.65-7.068
		c0-5.127,0.885-7.425,3.357-8.837c4.595-2.298,4.946-2.298,6.008,1.59c0.534,1.941,3.006,3.887,6.367,4.596
		c3.002,0.706,5.476,2.297,5.476,3.709c0,2.833-4.591,3.363-6.186,0.71c-1.411-2.298-6.187-2.298-6.187,0
		c0,3.006,8.131,5.833,12.905,4.596c6.187-1.418,7.598-6.542,3.008-10.254c-2.124-1.767-5.486-3.178-7.249-3.178
		c-1.768,0-3.362-0.887-3.362-1.944c0-1.237,2.124-1.59,6.188-0.884c7.247,1.414,8.486-1.59,1.767-4.244
		c-2.829-1.062-6.009-1.062-9.187,0.178c-3.006,1.058-4.953,1.058-5.658,0C1352.219,365.657,1350.801,365.657,1349.384,366.366z"/>
	<path fill-rule="evenodd" clip-rule="evenodd" fill="#FFFFFF" d="M1200.745,375.205c0,10.251,1.939,12.194,12.015,12.018h7.425
		V376.97c0-8.131-0.528-10.429-2.651-10.429c-1.944,0-2.652,2.123-2.652,7.78c0,6.183-0.711,7.953-3.361,8.659
		c-4.768,1.236-5.474,0-5.474-8.839c0-5.654-0.711-7.6-2.656-7.6C1201.45,366.541,1200.745,368.664,1200.745,375.205z"/>
	<path fill-rule="evenodd" clip-rule="evenodd" fill="#FFFFFF" d="M191.493,384.925c0,1.59,7.423,5.124,19.972,9.545
		c22.625,8.128,22.977,6.713-4.948,16.258c-9.192,3.007-14.317,5.835-14.672,7.601c-0.884,4.241,1.062,3.89,24.57-5.304
		c15.201-6.007,21.032-9.014,21.032-11.133c0-2.299-5.831-5.302-21.386-11.312C192.552,381.565,191.493,381.39,191.493,384.925z"/>
	<path fill-rule="evenodd" clip-rule="evenodd" fill="#FFFFFF" d="M1109.888,409.136c-3.709,3.006-4.593,3.184-4.593,0.887
		c0-1.59-1.237-2.83-2.651-2.83c-2.301,0-2.65,4.066-2.301,29.519c0.355,18.381,1.24,29.694,2.301,29.694s1.945-4.95,2.298-11.138
		l0.531-11.132l4.594,3.71c7.954,6.188,20.501,4.064,25.983-4.421c3.888-6.009,4.596-19.265,1.237-27.04
		C1132.864,405.957,1118.727,402.066,1109.888,409.136z M1129.863,415.324c2.651,3.356,3.711,7.246,3.711,13.08
		c0,15.377-12.374,23.156-23.153,14.315c-3.712-2.825-4.242-4.947-4.242-14.315c0-9.367,0.53-11.487,4.242-14.317
		C1116.606,409.136,1125.444,409.669,1129.863,415.324z"/>
	<path fill-rule="evenodd" clip-rule="evenodd" fill="#FFFFFF" d="M1160.086,407.368c-2.474,0.884-5.474,3.008-6.54,4.597
		c-2.119,2.654-2.297,2.654-2.297-0.884c0-2.295-1.062-3.888-2.649-3.888c-2.124,0-2.652,3.535-2.652,21.211
		c0,17.675,0.528,21.209,2.652,21.209c2.122,0,2.649-2.65,2.649-13.963c0-15.728,3.713-23.155,11.665-23.155
		c3.007,0,4.24-0.883,4.24-3.534C1167.154,405.074,1166.448,404.896,1160.086,407.368z"/>
	<path fill-rule="evenodd" clip-rule="evenodd" fill="#FFFFFF" d="M1175.819,407.902c-13.434,7.6-13.434,33.757,0,40.652
		c9.19,4.769,17.321,3.713,24.392-3.359c6.007-6.013,6.185-6.537,5.479-17.674c-0.534-9.547-1.591-12.373-5.303-16.084
		C1194.732,405.782,1182.711,404.012,1175.819,407.902z M1192.785,411.79c4.246,1.767,7.96,10.253,7.96,18.381
		c0,9.37-6.013,15.908-14.673,15.908c-14.315,0-19.796-20.148-8.836-32.169C1180.06,410.729,1187.308,409.844,1192.785,411.79z"/>
	<path fill-rule="evenodd" clip-rule="evenodd" fill="#FFFFFF" d="M1219.828,408.608c-17.85,10.959-10.425,42.774,10.076,42.774
		c10.253,0,21.918-11.667,16.616-16.615c-1.417-1.415-2.301-1.415-2.828,0.178c-2.301,6.36-8.132,11.134-13.61,11.134
		c-18.734,0-19.445-33.405-0.532-34.998c6.185-0.527,7.602,0.356,12.726,7.6c3.54,5.127,6.719,1.415,3.89-4.416
		C1241.925,405.782,1228.842,402.953,1219.828,408.608z"/>
	<path fill-rule="evenodd" clip-rule="evenodd" fill="#FFFFFF" d="M1260.659,408.08c-11.313,6.185-13.255,28.454-3.355,38.353
		c4.062,4.064,6.535,4.95,13.254,4.95c6.718,0,9.191-0.886,13.432-5.128c2.829-2.829,5.129-6.539,5.129-7.954
		c0-4.241-4.95-3.355-7.246,1.063c-2.829,5.477-4.952,6.716-11.67,6.716c-6.714,0-12.898-5.654-12.898-11.843
		c0-3.891,0.526-4.065,16.083-4.065h16.26l-1.061-7.601C1286.641,408.608,1272.853,401.361,1260.659,408.08z M1279.394,415.148
		c7.954,7.775,6.013,9.721-8.836,9.721c-14.673,0-16.084-1.235-9.549-9.545C1265.782,409.313,1273.563,409.136,1279.394,415.148z"/>
	<path fill-rule="evenodd" clip-rule="evenodd" fill="#FFFFFF" d="M1297.071,409.844c-2.478,2.298-4.418,5.836-4.418,7.957
		c0,4.593,5.651,10.251,11.843,11.662c14.489,3.185,19.085,6.894,15.374,12.551c-4.064,6.541-19.264,4.949-21.915-2.298
		c-1.944-5.126-6.541-4.771-5.657,0.355c1.062,6.184,8.659,11.312,16.967,11.312c10.432,0,16.973-5.128,16.973-13.257
		c0-7.069-4.068-10.604-14.672-12.373c-8.664-1.592-14.146-6.186-12.727-10.251c2.474-6.366,18.201-6.01,19.797,0.531
		c1.234,4.592,5.83,4.592,5.83,0.172C1324.466,406.313,1305.025,401.714,1297.071,409.844z"/>
	<path fill-rule="evenodd" clip-rule="evenodd" fill="#FFFFFF" d="M1336.485,408.252c-3.89,1.948-4.952,3.891-4.952,8.486
		c0,7.423,3.541,10.429,16.089,14.142c11.133,3.18,13.96,6.893,9.365,11.84c-5.836,6.541-21.913,2.65-21.913-5.124
		c0-1.239-1.24-2.122-2.657-2.122c-3.534,0-3.357,5.832,0.534,10.605c7.068,8.661,28.987,5.481,31.46-4.42
		c1.768-7.423-3.185-12.725-15.555-16.438c-7.597-2.12-11.31-4.243-11.666-6.363c-1.767-8.482,13.262-11.665,18.386-3.71
		c2.472,3.889,7.774,6.183,7.774,3.532c0-2.825-5.479-11.132-7.953-12.195C1350.452,404.718,1341.432,405.426,1336.485,408.252z"/>
	<path fill-rule="evenodd" clip-rule="evenodd" fill="#FFFFFF" d="M271.03,445.195v36.232h5.303c3.711,0,5.303-0.884,5.303-2.823
		c0-2.304,0.882-2.124,4.595,0.884c10.252,7.953,27.043,3.179,32.698-9.194c6.364-14.316,2.123-33.407-8.835-39.064
		c-6.72-3.534-17.853-3.708-22.45-0.173c-1.766,1.412-3.887,2.649-4.594,2.649c-0.884,0-1.414-5.654-1.414-12.375v-12.37h-5.303
		h-5.303V445.195z M301.608,439.183c12.02,5.484,10.429,30.227-2.121,34.292c-7.953,2.476-17.852-7.068-17.852-17.319
		c0-7.071,3.535-14.85,7.599-16.792C294.362,436.887,296.483,436.887,301.608,439.183z"/>
	<path fill-rule="evenodd" clip-rule="evenodd" fill="#FFFFFF" d="M424.803,414.971c0,6.188,0.176,6.36,6.364,6.36
		c6.009,0,6.186-0.172,5.654-5.829c-0.529-4.948-1.236-5.658-6.186-6.188C424.979,408.786,424.803,408.961,424.803,414.971z"/>
	<path fill-rule="evenodd" clip-rule="evenodd" fill="#FFFFFF" d="M654.58,468.173v53.909h5.301h5.302v-22.977v-22.978h23.333
		c19.971,0,24.393-0.53,30.752-3.711c10.959-5.128,15.731-13.789,15.556-27.397c-0.175-13.79-4.418-21.386-14.847-26.866
		c-7.068-3.534-10.253-3.889-36.589-3.889h-28.81V468.173z M713.793,425.931c9.72,4.596,14.315,18.909,9.189,28.985
		c-1.237,2.298-4.949,6.188-8.13,8.308c-5.48,3.711-7.956,4.065-27.75,4.065h-21.918v-22.094v-22.094h21.386
		C702.303,423.102,709.55,423.808,713.793,425.931z"/>
	<path fill-rule="evenodd" clip-rule="evenodd" fill="#FFFFFF" d="M748.261,468.173v53.909h38.708h38.707l6.539-16.791l6.716-16.966
		l24.568,0.53l24.746,0.528l6.185,16.261c6.011,15.377,6.541,16.438,11.313,16.438c2.828,0,5.123-0.529,5.123-1.413
		c0-0.705-4.771-13.611-10.778-28.636c-5.833-15.021-15.024-38.71-20.504-52.67l-9.898-25.099h-5.655
		c-5.832,0-5.832,0.176-15.38,23.331c-5.302,12.901-14.315,35.173-19.972,49.489l-10.428,26.159h-29.694h-29.692v-49.489v-49.49
		h-5.302h-5.302V468.173z M874.104,452.62l9.72,26.156l-10.426,0.53c-5.657,0.354-15.024,0.354-20.681,0l-10.427-0.53l9.894-25.983
		c5.659-14.492,10.606-26.156,11.138-26.156S868.802,438.301,874.104,452.62z"/>
	<path fill-rule="evenodd" clip-rule="evenodd" fill="#FFFFFF" d="M919.706,468.173v53.909h4.421h4.419v-45.069
		c0-24.745,0.526-45.074,1.411-45.074c0.708,0,2.476,2.121,4.064,4.948c1.768,2.654,7.6,11.491,13.436,19.797
		c5.654,8.311,18.206,26.336,27.748,40.124c16.439,24.214,17.499,25.274,23.331,25.274h6.014v-53.909v-53.908h-5.306h-5.306v45.425
		c0,30.223-0.527,44.893-1.763,43.656c-1.945-1.944-34.821-49.664-50.729-73.53c-9.367-14.135-10.781-15.375-15.908-15.551h-5.832
		V468.173z"/>
	<path fill-rule="evenodd" clip-rule="evenodd" fill="#FFFFFF" d="M174.172,426.989c1.235,3.537,10.251,4.067,10.251,0.706
		c0-1.942-1.769-2.826-5.481-2.826C175.408,424.869,173.817,425.576,174.172,426.989z"/>
	<path fill-rule="evenodd" clip-rule="evenodd" fill="#FFFFFF" d="M191.493,427.521c0,2.294,3.712,2.649,22.977,2.649
		c19.266,0,22.978-0.355,22.978-2.649c0-2.3-3.711-2.652-22.978-2.652C195.205,424.869,191.493,425.222,191.493,427.521z"/>
	<path fill-rule="evenodd" clip-rule="evenodd" fill="#FFFFFF" d="M360.29,429.815c-0.531,0.53-0.884,8.843-0.884,18.385
		c0,9.723-0.707,19.089-1.769,20.856c-2.473,4.594-10.075,6.01-15.2,2.652c-4.065-2.652-4.241-3.536-4.241-22.096v-19.442h-6.187
		h-6.185v19.442c0,14.317,0.707,21.032,2.649,24.923c4.773,9.014,16.793,11.313,27.22,4.952c4.772-2.829,5.656-3.008,4.949-0.884
		c-0.884,2.296,0.178,2.823,4.949,2.823h6.187v-25.45v-25.451l-5.302-0.711C363.47,429.289,360.82,429.463,360.29,429.815z"/>
	<path fill-rule="evenodd" clip-rule="evenodd" fill="#FFFFFF" d="M385.034,430.346c-5.656,3.188-7.954,7.071-7.954,13.08
		c0,8.311,3.358,11.49,16.792,15.202c6.716,1.768,13.434,4.596,15.023,6.186c2.298,2.476,2.298,3.005-1.767,6.188
		c-5.125,4.415-13.434,3.36-18.029-1.945c-3.181-4.063-13.786-4.949-13.786-1.238c0,7.426,11.841,15.378,22.977,15.378
		c13.964,0,22.977-6.362,22.977-16.614c0-9.721-4.063-12.9-20.679-16.969c-11.313-2.65-15.2-6.359-10.251-9.897
		c4.772-3.534,10.958-3.004,15.023,1.062c4.242,4.242,14.141,4.771,14.141,1.06c0-1.412-1.945-4.772-4.242-7.423
		c-3.536-4.243-5.658-4.951-15.379-5.479C393.518,428.581,386.978,429.111,385.034,430.346z"/>
	<path fill-rule="evenodd" clip-rule="evenodd" fill="#FFFFFF" d="M459.448,432.117c-3.714,3.003-4.598,3.181-4.598,0.882
		c0-1.942-1.766-2.828-6.007-2.828h-6.01l0.353,25.098l0.176,25.275l5.833,0.53l5.656,0.531v-17.851
		c0-16.614,0.356-18.207,4.42-22.096c5.127-5.303,10.252-5.655,15.022-0.882c3.007,3.004,3.535,5.832,3.535,22.093v18.558h6.187
		h6.364l-0.177-17.32c-0.354-20.503-2.298-29.34-7.599-33.051C477.122,427.167,465.101,427.695,459.448,432.117z"/>
	<path fill-rule="evenodd" clip-rule="evenodd" fill="#FFFFFF" d="M505.226,431.764c-7.601,5.301-11.489,13.432-11.489,24.92
		c0,16.264,9.543,26.513,24.745,26.513c10.782,0,22.978-8.13,22.978-15.378c0-3.005-10.076-3.005-11.842,0.18
		c-1.768,2.825-8.131,6.364-11.842,6.364c-3.712,0-11.136-7.073-12.549-12.022c-1.062-3.89-1.062-3.89,18.38-3.89h19.621v-4.416
		c0-6.541-4.065-15.202-9.544-20.15C527.142,427.876,512.648,426.814,505.226,431.764z M526.434,441.659
		c7.778,7.602,6.011,9.724-7.599,9.724c-6.719,0-12.55-0.529-13.257-1.06c-1.768-1.769,3.711-10.96,7.07-11.844
		C519.364,436.712,522.37,437.417,526.434,441.659z"/>
	<path fill-rule="evenodd" clip-rule="evenodd" fill="#FFFFFF" d="M551.888,431.057c-6.54,3.533-8.837,10.957-6.009,18.204
		c2.119,4.597,4.063,6.008,12.725,8.306c5.655,1.593,12.018,3.537,14.315,4.422c5.48,2.295,5.126,8.483-0.707,10.603
		c-6.716,2.653-9.367,2.124-14.14-2.651c-5.303-5.303-13.609-6.716-14.494-2.296c-0.353,1.591,1.769,5.479,4.597,8.657
		c4.243,4.773,6.54,5.836,14.67,6.545c11.842,0.883,21.917-2.829,24.922-9.195l1.943-4.594l1.944,4.065
		c1.059,2.122,4.771,5.302,8.131,6.895c17.145,8.659,39.769-2.296,36.058-17.146c-1.417-6.009-6.542-9.188-20.327-12.9
		c-8.131-2.3-11.491-3.891-11.842-6.365c-1.415-6.718,8.837-8.484,16.084-2.827c2.475,1.942,6.893,3.534,9.72,3.534
		c4.418,0,5.128-0.53,4.418-3.534c-0.529-1.945-3.357-5.479-6.187-7.955c-4.241-3.533-7.068-4.418-15.554-4.418
		c-8.482,0-11.311,0.707-15.73,4.595c-10.427,8.66-5.301,21.563,9.898,25.276c13.257,3.181,18.205,5.655,18.205,9.014
		c0,7.247-17.322,8.48-21.74,1.59c-1.237-1.944-4.067-3.357-6.893-3.357c-3.537,0-5.48-1.414-7.424-5.126
		c-2.828-5.303-7.776-7.956-20.325-10.604c-4.242-0.884-9.016-3.007-10.606-4.597c-2.652-2.65-2.475-3.003,0.53-5.479
		c4.95-3.534,10.96-3.182,15.201,1.062c3.71,3.71,14.141,4.949,14.141,1.593c0-3.891-3.889-8.664-8.838-11.313
		C572.212,427.695,557.895,427.695,551.888,431.057z"/>
	<polygon fill-rule="evenodd" clip-rule="evenodd" fill="#FFFFFF" points="424.803,455.8 424.803,481.428 430.99,481.428 
		437.177,481.428 437.177,455.8 437.177,430.171 430.99,430.171 424.803,430.171 	"/>
	<path fill-rule="evenodd" clip-rule="evenodd" fill="#FFFFFF" d="M1031.413,436.004c-7.245,7.601-4.246,26.689,4.418,28.99
		c7.423,1.765,12.193-1.945,14.494-11.313c2.475-9.194,4.947-13.435,7.426-11.845c2.119,1.236,1.941,10.783-0.18,12.197
		c-0.883,0.528-1.766,3.001-1.766,5.478c0,2.298,0.883,4.243,1.766,4.243c1.063,0,1.769,1.593,1.769,3.534
		c0,3.183-1.239,3.534-13.966,3.534c-15.372,0-18.559,1.768-17.494,10.077c0.705,6.007,6.713,8.127,6.713,2.472
		c0-3.355,1.063-3.712,12.373-3.712c11.135,0,12.374,0.356,12.374,3.536c0,5.129,6.713,4.776,7.423-0.351
		c0.353-3.008,1.77-4.069,4.948-4.069c3.183,0,4.597-1.056,4.948-4.062c0.532-3.361-0.175-3.892-4.774-3.892
		c-4.238,0-5.475-0.705-5.475-3.534c0-1.941-1.24-3.534-2.828-3.534c-2.475,0-2.475-0.353,0-3.891
		c3.533-4.948,3.533-18.912,0.175-23.33c-3.003-4.065-12.727-4.596-15.199-0.884c-0.883,1.414-2.828,6.72-4.42,11.843
		c-2.12,7.069-3.532,9.19-5.654,8.837c-4.066-0.706-5.303-13.43-1.412-14.844c3.354-1.239,3.706-9.548,0.527-9.548
		C1036.184,431.938,1033.532,433.706,1031.413,436.004z"/>
	<path fill-rule="evenodd" clip-rule="evenodd" fill="#FFFFFF" d="M192.729,436.712c-0.707,0.531-1.236,2.651-1.236,4.418
		c0,2.475-1.414,3.182-6.187,3.182c-4.949,0-6.187,0.708-6.187,3.535c0,2.826,1.238,3.536,6.187,3.536
		c4.948,0,6.187,0.707,6.187,3.533c0,1.945,1.236,3.534,2.65,3.534c1.414,0,2.651-1.589,2.651-3.534
		c0-3.355,1.238-3.533,16.968-3.533c20.327,0,23.685-1.413,23.685-9.724c0-6.892-3.005-8.481-3.888-2.296
		c-0.531,3.891-1.414,4.063-18.559,4.594l-18.207,0.53v-4.593C196.794,435.65,195.029,434.236,192.729,436.712z"/>
	<path fill-rule="evenodd" clip-rule="evenodd" fill="#FFFFFF" d="M221.54,461.635c0,1.589,2.474,4.063,5.302,5.3
		c15.73,7.071,3.536,28.458-14.668,26.16c-15.909-1.945-22.271-20.147-9.193-26.16c2.475-1.056,4.42-3.004,4.42-4.416
		c0-3.891-6.894-2.654-11.489,2.118c-3.536,3.361-4.419,6.009-4.419,12.903c0,15.024,9.721,22.803,26.689,21.209
		c7.069-0.704,10.251-2.122,14.493-6.537c4.772-4.771,5.656-6.895,5.656-14.143c0-9.722-3.357-14.667-11.666-17.674
		C222.248,458.981,221.54,459.159,221.54,461.635z"/>
	<path fill-rule="evenodd" clip-rule="evenodd" fill="#FFFFFF" d="M1027.88,492.387c0.53,3.713,1.589,4.069,13.431,4.596
		c11.489,0.531,13.078,0.888,15.73,5.13c2.829,4.237,2.829,4.593,0,6.714c-3.712,2.654-3.889,6.893-0.177,9.724
		c3.531,3.003,2.653,13.078-1.413,13.783c-3.008,0.529-3.892-1.238-5.831-12.369c-0.531-3.716-2.3-7.778-3.712-9.371
		c-3.714-3.713-11.844-3.357-15.38,0.531c-3.533,3.886-4.063,16.261-0.707,19.62c1.768,1.943,1.768,2.471,0,3.182
		c-1.236,0.531-2.295,3.18-2.295,6.007c0,3.892,0.884,5.128,3.532,5.128c1.943,0,3.534-0.885,3.534-1.767
		c0-1.063,5.308-1.769,12.373-1.769c10.075,0,13.08-0.708,15.909-3.537c4.417-4.415,4.771-18.557,0.707-24.389
		c-2.475-3.533-2.475-3.892,0-3.892c3.71,0,3.71-6.715-0.18-10.959c-2.648-3.003-2.648-3.18,0-3.18c1.768,0,3.008-1.414,3.008-3.536
		c0-3.357-1.24-3.53-19.619-3.53C1027.526,488.503,1027.349,488.503,1027.88,492.387z M1043.431,520.138
		c3.006,5.655,2.299,12.55-1.413,12.55c-4.596,0-7.425-3.535-7.425-8.84C1034.593,516.072,1040.072,513.953,1043.431,520.138z"/>
	<path fill-rule="evenodd" clip-rule="evenodd" fill="#FFFFFF" d="M1345.677,509.708c0,10.607,0.706,17.677,1.767,17.677
		c1.058,0,1.769-7.069,1.769-17.677c0-10.603-0.711-17.675-1.769-17.675C1346.383,492.033,1345.677,499.105,1345.677,509.708z"/>
	<path fill-rule="evenodd" clip-rule="evenodd" fill="#FFFFFF" d="M461.92,513.069c0,9.897,0.708,18.202,1.769,18.732
		c1.06,0.531,1.767,0.18,1.767-0.883c0-1.235,1.062-1.414,3.358,0c13.61,7.069,24.392-11.314,13.255-22.268
		c-4.243-4.421-6.185-4.6-13.433-1.594c-2.652,1.061-3.181,0.354-3.181-5.126c0-3.536-0.707-6.362-1.767-6.362
		C462.627,495.569,461.92,502.638,461.92,513.069z M479.949,510.948c7.07,6.36,2.476,18.909-6.54,17.852
		c-6.891-0.709-9.898-9.545-5.479-16.439C471.288,507.235,475.354,506.705,479.949,510.948z"/>
	<path fill-rule="evenodd" clip-rule="evenodd" fill="#FFFFFF" d="M490.201,514.306c0,11.84,0.707,18.206,1.767,17.496
		c1.062-0.53,1.769-8.835,1.769-18.732c0-10.432-0.707-17.5-1.769-17.5C490.908,495.569,490.201,502.993,490.201,514.306z"/>
	<path fill-rule="evenodd" clip-rule="evenodd" fill="#FFFFFF" d="M589.181,498.224c0,1.413,0.883,2.647,1.769,2.647
		c1.061,0,1.766-1.234,1.766-2.647c0-1.416-0.705-2.654-1.766-2.654C590.064,495.569,589.181,496.808,589.181,498.224z"/>
	<path fill-rule="evenodd" clip-rule="evenodd" fill="#FFFFFF" d="M208.284,502.466c-12.902,3.179-16.791,7.771-16.791,20.147
		c0,6.892,0.883,8.658,6.539,13.609c6.01,5.478,6.893,5.656,18.383,4.948c9.544-0.53,12.903-1.415,16.437-4.774
		c8.661-8.127,8.13-23.86-0.707-30.221c-3.005-2.124-6.717-3.538-8.483-3.183c-2.477,0.528-1.769,1.943,3.71,6.715
		c8.662,7.778,9.013,15.202,1.061,21.92c-3.004,2.474-6.893,4.595-8.838,4.595c-3.004,0-3.358-1.412-3.358-17.673
		c0-9.724-0.529-17.679-1.236-17.502C214.116,501.223,211.288,501.754,208.284,502.466z M210.936,522.082
		c0,7.775-0.531,14.141-1.238,14.141c-0.884,0-4.064-1.593-7.07-3.535c-4.949-3.004-5.833-4.418-5.833-10.429
		c0-5.48,1.062-7.777,4.598-10.607C209.697,505.113,210.936,506.528,210.936,522.082z"/>
	<path fill-rule="evenodd" clip-rule="evenodd" fill="#FFFFFF" d="M431.873,503.521c0,1.239-1.413,3.358-3.004,4.242
		c-2.828,1.771-3.004,2.122-0.354,4.068c1.592,1.412,2.829,5.477,3.006,10.072c0.353,8.13,2.297,10.783,7.954,10.783
		c3.711,0,3.887-2.83,0.176-6.542c-3.182-3.357-2.651-11.136,1.06-14.14c1.769-1.588,2.122-2.649,0.707-3.533
		c-1.06-0.884-2.297-2.828-3.003-4.596C436.999,500.163,431.873,499.811,431.873,503.521z"/>
	<path fill-rule="evenodd" clip-rule="evenodd" fill="#FFFFFF" d="M1324.82,502.815c-2.473,0.885-3.892,3.007-3.892,5.479v3.892
		l3.537-3.892c4.065-4.242,5.128-4.594,8.662-2.295c3.357,2.119,1.063,7.245-3.361,7.245c-6.186,0-10.604,3.359-10.604,7.956
		c0,5.83,5.304,8.483,11.844,6.006c3.357-1.235,5.129-1.235,5.479,0c0.355,1.063,1.59,1.946,2.828,1.946
		c2.473,0,1.768-20.68-0.883-24.039C1336.135,502.286,1329.415,501.223,1324.82,502.815z M1335.074,519.432
		c0,3.182-1.24,4.594-4.247,5.479c-5.124,1.235-8.131-0.179-8.131-3.71c0-2.83,3.714-5.304,8.837-5.659
		C1334.19,515.364,1335.074,516.248,1335.074,519.432z"/>
	<path fill-rule="evenodd" clip-rule="evenodd" fill="#FFFFFF" d="M1267.201,505.822c-2.829,3.355-3.891,13.782-1.419,17.319
		c2.652,4.064,9.014,6.188,12.556,4.243c4.591-2.294,5.473-2.294,5.473,0.531c0,1.414-1.589,3.886-3.706,5.829
		c-3.54,3.185-3.89,3.185-8.836,0.181c-5.13-2.831-5.308-2.831-4.774,0.176c0.883,4.418,13.078,5.124,17.495,1.062
		c2.829-2.476,3.358-5.479,3.358-17.323v-14.494l-8.66-0.353C1272.324,502.815,1269.494,503.521,1267.201,505.822z
		 M1281.689,509.356c3.006,3.888,2.655,8.13-1.234,12.902c-3.18,3.887-3.356,3.887-7.952,1.06
		c-5.302-3.533-6.009-9.189-1.945-14.846C1273.563,504.23,1277.804,504.582,1281.689,509.356z"/>
	<path fill-rule="evenodd" clip-rule="evenodd" fill="#FFFFFF" d="M1294.594,505.113c-1.234,1.415-2.651,5.305-3.18,8.661
		c-0.705,5.127-0.178,7.072,3.534,10.784c5.658,5.476,9.898,5.83,16.083,0.884c5.658-4.421,6.541-15.205,1.418-19.798
		C1308.381,501.932,1297.42,501.754,1294.594,505.113z M1311.031,512.006c3.185,8.486-6.717,17.499-12.727,11.488
		c-3.005-3.002-2.649-12.014,0.711-15.73C1302.729,503.7,1308.909,505.822,1311.031,512.006z"/>
	<path fill-rule="evenodd" clip-rule="evenodd" fill="#FFFFFF" d="M1355.22,505.113c-2.123,5.479,0.356,9.016,7.774,11.49
		c5.485,1.59,7.432,3.182,7.074,5.301c-0.884,4.066-8.659,4.772-11.486,0.884c-2.656-3.533-4.953-2.296-3.54,1.771
		c1.417,3.711,8.309,5.125,14.143,3.002c3.535-1.415,4.77-3.002,4.77-6.36c0-3.714-1.412-5.128-8.131-7.956
		c-4.414-1.942-7.419-4.241-6.892-5.302c1.417-2.476,8.486-2.298,11.137,0.352c3.008,3.008,4.947,0.357,2.124-3.003
		C1369.363,501.754,1356.459,501.754,1355.22,505.113z"/>
	<path fill-rule="evenodd" clip-rule="evenodd" fill="#FFFFFF" d="M526.611,508.118c-3.534,2.83-4.595,5.126-4.595,10.604
		c0,12.372,11.489,18.383,19.62,10.253c4.418-4.417,3.004-6.894-1.591-2.83c-5.479,5.126-14.494,2.83-14.494-3.532
		c0-1.592,3.005-2.298,9.721-2.298c8.661,0,9.722-0.352,9.722-3.537c0-4.242-7.423-12.371-11.135-12.371
		C532.445,504.407,529.263,505.999,526.611,508.118z M538.63,510.77c4.596,4.419,3.358,6.009-5.125,6.009
		c-4.419,0-7.955-0.706-7.955-1.59c0-2.474,5.301-7.246,7.955-7.246C534.742,507.942,537.216,509.178,538.63,510.77z"/>
	<path fill-rule="evenodd" clip-rule="evenodd" fill="#FFFFFF" d="M555.598,506.176c-1.413,0.882-4.065,1.235-5.656,0.704
		c-2.827-0.881-3.181,0.709-3.181,16.796c0,10.781,0.707,17.85,1.767,17.85c1.062,0,1.768-2.828,1.768-6.187
		c0-5.655,0.354-6.187,3.357-4.42c9.193,4.949,17.852-1.062,17.852-12.196c0-5.479-1.06-7.774-4.595-10.604
		C561.608,504.052,559.488,503.7,555.598,506.176z M565.142,510.77c5.657,5.655,2.3,18.383-4.947,18.383
		c-5.304,0-8.662-4.062-8.662-10.603C551.533,509.178,559.133,504.761,565.142,510.77z"/>
	<path fill-rule="evenodd" clip-rule="evenodd" fill="#FFFFFF" d="M604.206,506.176c-0.707,1.06-2.652,1.413-4.596,0.882
		c-3.005-1.059-3.359-0.178-3.359,11.313c0,6.721,0.884,12.901,1.768,13.432c1.06,0.71,1.768-2.297,1.768-7.602
		c0-10.78,4.419-17.32,10.25-15.549c3.36,1.234,3.891,2.473,3.891,11.664c0,5.655,0.883,10.956,1.768,11.486
		c1.059,0.71,1.767-3.532,1.767-11.31c0-10.426-0.53-12.729-3.36-14.316C609.684,503.877,605.619,503.877,604.206,506.176z"/>
	<path fill-rule="evenodd" clip-rule="evenodd" fill="#FFFFFF" d="M335.543,509.003c-5.655,2.829-6.714,3.003-5.478,0.883
		c0.707-0.883-2.475-1.592-6.895-1.592l-7.952,0.179v12.196c0,10.781,0.353,12.193,3.18,11.664c2.122-0.352,3.184-2.649,3.535-8.485
		c0.532-7.069,2.476-10.428,6.186-10.604c0.709,0,1.238,2.828,1.238,6.188c0,11.487,13.079,17.852,20.327,9.721
		c4.064-4.594,2.122-6.539-3.358-3.537c-2.474,1.239-5.657,1.77-7.069,1.239c-5.479-2.123-2.652-4.419,6.186-5.126
		c7.953-0.528,9.19,0,10.605,3.362c2.827,7.597,13.434,9.891,19.088,4.239c3.182-3.185,3.358-3.185,6.186,0
		c2.122,2.472,4.773,3.182,12.019,2.828l9.192-0.356l-0.53-10.602c-0.177-5.836-0.885-11.134-1.239-11.844
		c-0.529-0.884-4.24-1.414-8.481-1.414c-6.895,0-11.668,2.295-11.668,5.657c0,2.119,6.718,1.765,7.954-0.355
		c1.592-2.651,6.187-2.12,6.187,0.885c0,1.412-2.473,3.005-6.363,3.711c-3.359,0.71-6.717,2.124-7.071,3.36
		c-0.527,1.235-2.474,1.767-4.595,1.235c-2.298-0.531-4.242,0.178-5.303,2.123c-3.536,6.36-11.665-0.358-9.367-7.78
		c1.238-3.709,6.893-4.772,8.837-1.769c1.237,2.124,7.954,2.299,7.954,0.354c0-3.358-6.717-7.422-12.02-7.422
		c-5.126,0-10.957,3.709-10.957,7.246c0,3.005-3.359,1.59-4.421-1.769C349.861,508.294,341.376,505.999,335.543,509.003z
		 M345.266,515.01c0,0.887-2.122,1.769-4.597,1.769c-2.473,0-4.064-0.706-3.356-1.769c0.531-1.057,2.649-1.766,4.595-1.766
		C343.675,513.244,345.266,513.953,345.266,515.01z M394.755,523.848c0,2.298-1.238,3.537-3.358,3.537
		c-7.247,0-5.125-4.949,3.005-6.893C394.58,520.315,394.755,521.904,394.755,523.848z"/>
	<path fill-rule="evenodd" clip-rule="evenodd" fill="#FFFFFF" d="M497.271,516.604c0,7.244,0.885,11.487,2.828,13.254
		c3.181,3.185,10.605,3.716,12.195,1.062c0.885-1.414,1.944-1.235,3.713,0.176c2.12,1.768,2.475,0,2.475-11.49
		c0-7.772-0.707-13.429-1.767-13.429c-0.885,0-1.769,4.242-1.769,9.543c0,10.427-2.473,14.139-9.192,13.081
		c-3.71-0.53-4.063-1.594-4.593-11.666C500.452,503.168,497.271,502.638,497.271,516.604z"/>
	<path fill-rule="evenodd" clip-rule="evenodd" fill="#FFFFFF" d="M575.042,519.432c0,15.55,3.181,18.027,3.888,3.004
		c0.53-8.482,1.238-10.43,4.596-11.843c2.121-0.885,3.889-2.299,3.889-3.004c0-2.122-4.42-1.59-6.717,0.705
		c-1.59,1.592-2.121,1.592-2.121,0c0-1.236-0.708-2.118-1.768-2.118C575.748,506.176,575.042,511.832,575.042,519.432z"/>
	<path fill-rule="evenodd" clip-rule="evenodd" fill="#FFFFFF" d="M589.181,519.432c0,7.599,0.708,13.256,1.769,13.256
		s1.766-5.657,1.766-13.256c0-7.6-0.705-13.256-1.766-13.256S589.181,511.832,589.181,519.432z"/>
	<path fill-rule="evenodd" clip-rule="evenodd" fill="#FFFFFF" d="M289.765,511.832c-6.363,9.015-0.884,20.855,9.546,20.855
		c10.428,0,15.907-11.841,9.544-20.855C305.143,506.35,293.478,506.35,289.765,511.832z M303.73,520.315
		c0,5.127-0.708,6.361-3.891,6.715c-3.004,0.53-4.242-0.529-5.125-3.889c-1.59-6.538,0.354-10.251,4.951-9.542
		C303.022,513.953,303.73,515.188,303.73,520.315z"/>
	<path fill-rule="evenodd" clip-rule="evenodd" fill="#FFFFFF" d="M407.128,510.593c-3.357,4.065-1.237,8.662,5.303,10.779
		c6.363,2.122,9.367,6.013,4.594,6.013c-1.589,0-4.418-0.884-6.363-2.123c-3.887-2.474-6.185-1.062-4.771,2.829
		c1.414,3.711,9.544,5.482,15.199,3.537c3.537-1.239,4.597-2.828,4.597-6.896c0-4.416-0.884-5.655-6.186-7.245
		c-3.359-1.062-6.363-2.828-6.718-4.066c-0.883-2.472,4.242-2.65,5.834-0.176c1.237,2.12,7.953,2.475,7.953,0.355
		C426.571,508.118,411.193,505.645,407.128,510.593z"/>
	<path fill-rule="evenodd" clip-rule="evenodd" fill="#FFFFFF" d="M886.124,536.223c0,1.943,1.237,3.533,2.652,3.533
		c1.411,0,2.65-1.59,2.65-3.533s-1.239-3.535-2.65-3.535C887.361,532.688,886.124,534.279,886.124,536.223z"/>
	<path fill-rule="evenodd" clip-rule="evenodd" fill="#FFFFFF" d="M871.453,535.69c-0.705,0.532-1.239,3.358-1.239,6.188
		c0,3.712-0.885,4.946-3.535,4.946c-1.939,0-3.532,0.711-3.532,1.767c0,0.887,1.593,1.771,3.532,1.771
		c3.184,0,3.535,1.237,3.535,15.555c0,16.438,1.416,19.793,8.13,19.793c5.48,0,7.071-3.178,2.124-3.887
		c-3.892-0.53-4.066-1.239-4.066-15.554c0-14.317,0.175-15.023,4.066-15.554c4.596-0.71,3.533-3.891-1.59-3.891
		c-2.652,0-3.357-1.234-3.357-6.185C875.521,534.811,874.104,533.042,871.453,535.69z"/>
	<path fill-rule="evenodd" clip-rule="evenodd" fill="#FFFFFF" d="M1059.87,545.061c-0.884,3.179-2.476,3.531-14.846,3.531
		c-11.844,0-14.139,0.532-15.733,3.36c-3.18,6.009-2.296,12.551,1.768,12.551c2.298,0,3.534-1.238,3.534-3.536
		c0-3.181,1.238-3.532,12.373-3.532s12.374,0.352,12.374,3.532c0,2.298,1.24,3.536,3.535,3.536s3.535-1.238,3.535-3.536
		c0-2.826,1.236-3.532,5.301-3.532c4.418,0,5.302-0.712,5.302-4.42c0-3.714-0.884-4.423-5.128-4.423
		c-3.531,0-5.299-1.056-6.006-3.531c-0.529-1.945-1.768-3.535-3.004-3.535C1061.636,541.525,1060.396,543.115,1059.87,545.061z"/>
	<path fill-rule="evenodd" clip-rule="evenodd" fill="#FFFFFF" d="M414.199,553.722v8.659l-4.773-2.297
		c-6.362-3.18-13.433-1.594-18.559,3.888c-3.358,3.536-4.065,6.361-4.065,14.845c0,8.839,0.707,10.962,4.596,15.024
		c5.127,4.952,15.554,6.365,19.972,2.653c1.769-1.414,2.829-1.591,3.711-0.177c0.531,0.885,3.006,1.767,5.481,1.767h4.241v-26.512
		v-26.512h-5.302C414.376,545.061,414.199,545.236,414.199,553.722z M411.37,569.098c1.591,1.588,2.829,5.656,2.829,9.547
		c0,11.31-9.193,16.611-14.849,8.48C391.575,575.991,402.355,559.907,411.37,569.098z"/>
	<path fill-rule="evenodd" clip-rule="evenodd" fill="#FFFFFF" d="M559.133,549.479c0,3.713,0.884,4.417,5.305,4.417
		c4.418,0,5.3-0.704,5.3-4.417c0-3.71-0.882-4.418-5.3-4.418C560.017,545.061,559.133,545.769,559.133,549.479z"/>
	<path fill-rule="evenodd" clip-rule="evenodd" fill="#FFFFFF" d="M613.927,549.479c0,3.713,0.883,4.417,5.301,4.417
		s5.302-0.704,5.302-4.417c0-3.71-0.884-4.418-5.302-4.418S613.927,545.769,613.927,549.479z"/>
	<path fill-rule="evenodd" clip-rule="evenodd" fill="#FFFFFF" d="M735.886,547.709c0,2.122,2.478,2.653,11.136,2.653
		c12.018,0,18.912,3.181,18.912,8.837c0,4.948-5.48,7.07-18.385,7.07c-9.186,0-11.663,0.531-11.663,2.651
		c0,2.124,2.478,2.651,12.197,2.651c13.432,0,18.559,2.651,17.496,9.544c-0.529,3.356-1.943,3.711-14.671,4.594
		c-10.956,0.71-14.138,1.415-14.138,3.538c0,2.121,3.003,2.827,13.607,3.179c11.844,0.353,14.14,0,17.321-3.179
		c4.066-4.066,4.597-10.251,1.063-15.024c-1.945-2.827-1.945-4.065,0.529-8.307c2.652-4.599,2.652-5.303-0.177-10.252
		c-1.589-3.005-2.298-5.303-1.415-5.303c1.063,0,1.769-1.238,1.769-2.653c0-2.118-3.008-2.648-16.789-2.648
		C738.892,545.061,735.886,545.591,735.886,547.709z"/>
	<path fill-rule="evenodd" clip-rule="evenodd" fill="#FFFFFF" d="M806.408,547.003c-5.479,1.945-9.72,9.548-6.538,11.487
		c1.236,0.709,2.474,0.356,2.826-0.704c1.414-4.243,6.01-7.424,10.606-7.424c5.655,0,8.131,1.59,9.544,5.477
		c1.59,3.891-1.767,6.895-7.601,6.895c-7.775,0-15.907,3.715-17.497,8.131c-1.944,5.127,0.354,12.195,4.418,13.791
		c5.125,1.941,14.14,1.232,18.03-1.596c3.355-2.295,3.89-2.295,4.772,0c1.06,2.828,8.129,3.713,8.129,1.063
		c0-0.884-1.236-2.477-2.651-3.711c-1.943-1.595-2.649-5.834-2.649-14.853c0-7.418-0.886-13.959-2.122-15.553
		C822.847,546.296,812.419,544.705,806.408,547.003z M822.67,571.926c-1.413,6.891-8.132,11.313-14.673,9.72
		c-4.945-1.234-7.244-4.947-5.653-9.189c1.236-2.827,9.37-5.832,16.791-6.008C823.553,566.27,823.731,566.624,822.67,571.926z"/>
	<path fill-rule="evenodd" clip-rule="evenodd" fill="#FFFFFF" d="M841.583,547.887c-9.368,4.95-12.904,18.562-7.599,28.988
		c3.355,6.538,7.599,8.835,16.611,8.835c5.479,0,7.778-1.055,10.606-4.594c3.71-4.772,4.95-9.544,2.297-9.544
		c-0.883,0-3.181,2.299-5.301,5.303c-4.95,6.538-11.315,6.894-17.145,0.883c-8.664-8.48-3.537-27.396,7.244-27.396
		c5.834,0,11.313,3.004,11.313,6.188c0,1.41,1.236,2.648,2.649,2.648c5.48,0,2.298-7.953-4.593-11.49
		C851.479,544.349,847.767,544.53,841.583,547.887z"/>
	<path fill-rule="evenodd" clip-rule="evenodd" fill="#FFFFFF" d="M902.739,548.421c-10.429,6.36-12.196,24.21-3.359,33.047
		c4.597,4.599,15.906,5.836,22.45,2.301c4.064-2.123,8.482-11.843,8.482-18.382c0-6.718-4.596-14.671-10.606-17.678
		C912.989,544.176,909.454,544.349,902.739,548.421z M921.298,554.958c9.193,11.666,0.35,29.869-12.904,26.51
		c-9.367-2.299-12.727-19.618-5.302-27.746C907.688,548.592,916.879,549.301,921.298,554.958z"/>
	<path fill-rule="evenodd" clip-rule="evenodd" fill="#FFFFFF" d="M942.331,547.887c-2.828,1.414-4.95,1.768-4.95,0.705
		c0-0.883-1.235-1.767-2.65-1.767c-2.298,0-2.651,2.829-2.298,18.914c0.352,12.196,1.236,19.088,2.476,19.442
		c1.412,0.528,2.296-4.065,2.647-14.496c0.709-16.79,2.829-20.323,12.2-20.323c7.599,0,8.836,3.004,8.836,19.796
		c0,12.73,0.53,15.552,2.654,15.552c2.115,0,2.646-3.002,2.646-16.612c0-15.906-0.175-16.968-4.592-20.327
		C953.821,544.349,949.046,544.176,942.331,547.887z"/>
	<path fill-rule="evenodd" clip-rule="evenodd" fill="#FFFFFF" d="M976.267,546.296c-8.13,3.005-11.665,12.02-6.364,16.262
		c1.415,1.062,6.718,3.359,11.845,5.125c6.185,1.946,9.719,4.065,10.076,6.188c1.763,8.661-11.138,11.311-18.033,3.887
		c-4.948-5.302-6.359-5.479-6.359-1.06c0,5.304,6.891,9.012,16.083,9.012c9.19,0,13.961-3.708,13.961-10.956
		c0-5.656-4.416-9.72-12.725-11.135c-3.534-0.708-7.951-2.301-9.724-3.535c-4.418-3.361-1.059-8.662,6.011-9.368
		c4.244-0.354,6.363,0.53,9.193,4.242c4.24,5.478,6.36,4.771,4.771-1.592C993.586,547.178,983.864,543.469,976.267,546.296z"/>
	<path fill-rule="evenodd" clip-rule="evenodd" fill="#FFFFFF" d="M175.231,547.887c-2.296,2.298,0.884,6.009,5.125,6.009
		c3.183,0,4.243-0.881,3.711-3.18C183.54,547.709,177.353,545.591,175.231,547.887z"/>
	<path fill-rule="evenodd" clip-rule="evenodd" fill="#FFFFFF" d="M192.552,548.421c-2.829,4.594,1.769,5.475,28.458,5.475
		c25.804,0,27.396,0.176,28.28,3.539c1.061,4.063,5.833,4.946,5.833,1.056c0-1.411-1.589-4.24-3.358-6.538
		c-3.182-4.065-4.418-4.243-30.755-4.774C202.627,546.652,193.26,547.178,192.552,548.421z"/>
	<path fill-rule="evenodd" clip-rule="evenodd" fill="#FFFFFF" d="M537.923,553.191c0,6.008-0.176,6.187-4.948,5.124
		c-3.534-0.709-6.363,0-9.721,2.651c-3.89,3.181-4.772,3.357-4.772,1.061c0-1.943-1.591-2.828-5.303-2.828h-5.304v19.445v19.439
		h5.304h5.303v-10.78c0-5.836,0.882-12.195,1.767-13.964c1.591-2.826,11.311-7.07,16.438-7.07c0.707,0,1.236,6.361,1.236,14.142
		c0,15.554,1.415,17.673,12.196,17.673c4.596,0,5.479-0.706,5.479-4.418c0-3.181-0.883-4.418-3.534-4.418
		c-3.182,0-3.537-1.237-3.537-11.49c0-10.25,0.355-11.488,3.537-11.488c2.296,0,3.534-1.235,3.534-3.536
		c0-2.298-1.238-3.534-3.534-3.534c-2.829,0-3.537-1.238-3.537-6.185c0-5.659-0.353-6.189-5.302-6.189
		S537.923,547.355,537.923,553.191z"/>
	<path fill-rule="evenodd" clip-rule="evenodd" fill="#FFFFFF" d="M886.124,566.27c0,16.085,0.528,19.44,2.652,19.44
		c2.12,0,2.65-3.355,2.65-19.44s-0.53-19.444-2.65-19.444C886.652,546.825,886.124,550.185,886.124,566.27z"/>
	<path fill-rule="evenodd" clip-rule="evenodd" fill="#FFFFFF" d="M356.755,559.378c-9.9,2.827-13.258,12.194-4.42,12.194
		c3.005,0,5.302-0.708,5.302-1.771c0-2.472,6.54-5.478,9.546-4.243c3.888,1.419,3.533,7.251-0.178,8.313
		c-1.767,0.53-6.185,1.413-9.721,2.12c-3.711,0.53-7.776,2.298-9.367,3.709c-3.712,3.713-3.358,11.846,0.53,15.38
		c3.712,3.357,14.669,3.889,19.973,1.237c2.296-1.237,3.358-1.237,3.358,0c0,0.885,2.473,1.767,5.302,1.767h5.303v-15.195
		c0-8.312-0.884-16.619-1.768-18.386c-1.059-1.945-4.772-4.243-8.483-5.304C364.531,557.256,364.001,557.256,356.755,559.378z
		 M370.187,585.182c-1.061,3.889-2.475,5.125-6.893,5.479c-4.066,0.354-6.01-0.354-6.895-2.474
		c-1.412-3.89,3.714-7.775,10.253-7.775C371.071,580.411,371.424,580.765,370.187,585.182z"/>
	<path fill-rule="evenodd" clip-rule="evenodd" fill="#FFFFFF" d="M476.061,560.791c-11.488,6.01-13.786,23.682-4.418,33.05
		c6.184,6.188,20.501,6.012,26.512-0.175c2.473-2.297,4.418-5.126,4.418-6.186c0-2.653-7.424-2.123-11.313,0.883
		c-1.945,1.415-4.771,2.651-6.363,2.651c-3.711,0-9.898-6.542-8.129-8.482c0.706-0.709,7.069-1.239,13.962-1.416
		c14.495-0.176,15.555-1.416,11.136-12.019c-1.944-4.595-4.596-7.248-8.836-9.014C485.074,556.723,483.484,556.723,476.061,560.791z
		 M490.908,569.098c1.591,1.416,2.475,3.358,2.122,4.067c-1.239,1.943-14.847,2.295-15.908,0.35
		c-1.415-2.298,3.889-7.245,7.776-7.245C486.666,566.27,489.495,567.508,490.908,569.098z"/>
	<path fill-rule="evenodd" clip-rule="evenodd" fill="#FFFFFF" d="M585.116,559.199c-7.248,2.298-10.075,5.125-10.075,10.603
		c0,6.014,2.122,7.78,14.139,11.844c6.01,1.946,9.724,4.242,9.724,5.835c0,3.711-10.253,4.419-13.258,1.06
		c-1.238-1.591-4.419-2.83-7.07-2.83c-4.064,0-4.772,0.531-4.064,3.538c1.59,5.832,7.598,8.836,17.849,8.836
		c7.601,0,10.252-0.882,13.61-4.418c8.484-8.309,4.949-15.2-10.073-19.442c-6.362-1.768-10.252-3.891-10.252-5.478
		c0-2.829,9.723-3.536,11.489-0.708c1.061,1.764,11.489,2.476,11.489,0.708c0-3.359-4.241-7.603-9.014-9.368
		C593.246,557.256,592.01,557.079,585.116,559.199z"/>
	<path fill-rule="evenodd" clip-rule="evenodd" fill="#FFFFFF" d="M646.802,560.084c-3.712,1.943-5.479,2.121-6.363,0.707
		c-1.944-3.005-9.722-1.236-9.545,2.297c0,1.768,0.178,10.427,0.353,19.267l0.354,15.908l4.95-0.53
		c4.596-0.53,4.771-0.884,5.655-14.494c0.706-10.782,1.591-14.317,4.065-15.908c2.121-1.413,3.89-1.413,6.186,0
		c2.297,1.591,3.181,4.948,3.533,16.438l0.531,14.315h5.127h5.302v-15.729c0-12.374-0.707-16.438-3.004-19.267
		C659.529,557.961,652.987,556.904,646.802,560.084z"/>
	<path fill-rule="evenodd" clip-rule="evenodd" fill="#FFFFFF" d="M681.623,560.084c-7.601,3.358-9.898,8.308-9.015,19.975
		c0.707,7.422,1.768,10.602,4.95,13.077c4.418,3.534,15.905,4.242,19.087,1.058c3.36-3.354,4.949,0.181,1.947,5.306
		c-3.005,5.483-10.432,7.248-13.965,3.179c-2.299-3.001-12.374-3.885-12.374-1.235c0,0.703,2.122,3.54,4.596,6.19
		c3.712,3.531,6.54,4.593,12.551,4.593c8.659,0,17.146-3.714,18.914-7.956c0.53-1.592,1.058-12.37,1.058-24.035v-21.035h-4.242
		c-2.296,0-4.594,0.885-4.947,2.119c-0.531,1.415-1.945,1.239-4.949-0.883C690.105,556.904,689.044,556.904,681.623,560.084z
		 M696.471,568.392c7.953,10.074-1.237,26.159-10.251,18.028c-3.891-3.531-4.596-14.672-1.239-18.028
		C687.808,565.559,694.346,565.739,696.471,568.392z"/>
	<path fill-rule="evenodd" clip-rule="evenodd" fill="#FFFFFF" d="M202.805,561.677c-3.005,1.411-6.893,4.24-8.483,6.536
		c-4.067,5.832-3.714,17.675,0.884,23.511l3.534,4.594h-12.372c-10.251,0-12.194,0.531-11.49,2.651
		c0.885,2.297,6.188,2.652,31.816,2.652c26.159,0,30.754-0.355,30.754-2.652c0-1.415-1.238-2.651-2.651-2.651
		c-2.121,0-1.944-1.062,0.884-5.832c4.065-6.717,4.419-11.669,1.06-19.621C232.498,560.614,215.708,556.02,202.805,561.677z
		 M228.08,569.098c7.778,4.947,7.422,17.852-0.53,23.156c-6.364,4.063-19.09,3.711-25.099-0.708
		c-6.009-4.421-7.421-15.024-2.827-20.149C205.81,564.68,219.244,563.442,228.08,569.098z"/>
	<path fill-rule="evenodd" clip-rule="evenodd" fill="#FFFFFF" d="M428.338,561.318c0.176,1.239,2.83,9.898,6.011,19.093
		c5.654,16.438,5.832,16.791,11.842,17.321l6.008,0.53l6.188-18.028c3.358-9.901,6.54-18.737,6.894-19.62
		c0.353-0.885-1.945-1.415-5.125-1.06c-5.305,0.529-6.011,1.236-9.723,12.901l-3.887,12.371l-3.889-12.901
		c-3.889-12.019-4.419-12.727-9.192-12.727C430.459,559.199,428.338,560.084,428.338,561.318z"/>
	<polygon fill-rule="evenodd" clip-rule="evenodd" fill="#FFFFFF" points="559.133,578.645 559.133,598.084 564.438,598.084 
		569.738,598.084 569.738,578.645 569.738,559.199 564.438,559.199 559.133,559.199 	"/>
	<polygon fill-rule="evenodd" clip-rule="evenodd" fill="#FFFFFF" points="613.927,578.645 613.927,598.084 619.229,598.084 
		624.531,598.084 624.531,578.645 624.531,559.199 619.229,559.199 613.927,559.199 	"/>
	<path fill-rule="evenodd" clip-rule="evenodd" fill="#FFFFFF" d="M1036.01,567.33c-6.366,3.355-8.483,7.6-8.483,16.613
		c0,5.305,1.059,8.311,4.417,11.49c2.299,2.476,5.128,4.419,6.186,4.419c2.827,0,2.12-8.307-0.883-9.546
		c-4.065-1.412-3.536-12.901,0.709-15.198c6.535-3.36,7.243-2.122,7.243,12.372c0,12.549-0.353,14.141-3.358,14.141
		c-4.946,0-12.196,6.539-13.43,12.372c-0.712,3.358-0.179,7.248,1.411,10.605c2.476,4.769,2.476,5.299,0.181,5.299
		c-6.365,0-9.548-3.532-9.548-10.425c0-4.421,0.884-7.247,2.65-7.953c4.063-1.415,3.36-8.131-0.705-8.131
		c-9.192,0-12.549,20.503-4.771,29.517c4.063,4.772,5.125,4.949,24.39,5.833l19.974,0.882l-16.967,6.365
		c-18.209,6.716-24.57,6.716-24.57-0.177c0-2.301-1.239-3.537-3.535-3.537c-4.774,0-4.948,9.548-0.175,13.61
		c1.942,1.593,13.608,6.719,25.801,11.313c17.678,6.538,22.45,7.777,23.334,5.832c1.768-4.771-0.884-6.894-13.436-10.959
		c-6.891-2.295-12.543-4.418-12.543-4.771c0-0.177,6.008-2.65,13.252-5.306l13.258-4.944v-8.485c0-4.773-0.886-8.664-1.769-8.664
		c-1.239,0-1.239-1.055,0-3.356c3.712-7.068,2.121-15.377-3.712-20.326c-3.005-2.474-6.364-4.594-7.425-4.594
		c-1.236,0,0.355-1.238,3.359-2.828c13.079-6.366,12.727-25.628-0.532-32.345C1051.03,563.795,1041.661,564.147,1036.01,567.33z
		 M1056.511,575.639c4.243,3.178,3.007,11.486-1.945,15.021c-4.062,2.476-4.062,2.476-4.062-7.422
		C1050.504,572.81,1051.388,571.926,1056.511,575.639z M1055.98,612.226c7.953,4.419,1.771,17.672-8.306,17.672
		c-4.774,0-13.082-6.359-13.082-10.072C1034.593,612.048,1047.144,607.633,1055.98,612.226z"/>
	<path fill-rule="evenodd" clip-rule="evenodd" fill="#FFFFFF" d="M736.771,599.853c-2.476,3.889,1.941,5.301,16.964,5.301
		c14.496,0,15.733-0.171,15.733-3.532c0-3.358-1.237-3.537-15.733-3.537C744.898,598.084,737.299,598.793,736.771,599.853z"/>
	<path fill-rule="evenodd" clip-rule="evenodd" fill="#FFFFFF" d="M776.537,601.621c0,2.648,0.884,3.532,3.185,3.179
		c1.589-0.352,3.002-1.764,3.002-3.179s-1.413-2.828-3.002-3.184C777.421,598.084,776.537,598.969,776.537,601.621z"/>
	<path fill-rule="evenodd" clip-rule="evenodd" fill="#FFFFFF" d="M202.981,609.396c-7.424,3.183-11.488,10.076-11.488,19.091
		c0,13.253,8.837,20.856,23.86,20.856c10.251,0,17.675-4.242,21.387-12.018c3.889-8.311,2.122-17.326-4.418-24.042
		c-4.242-4.24-7.07-5.303-14.671-5.832C212.174,607.099,206.161,607.805,202.981,609.396z M227.904,616.645
		c8.482,5.479,7.598,18.206-1.592,23.859c-6.716,4.244-13.255,4.419-21.563,1.062c-6.186-2.653-9.192-8.66-8.131-16.084
		C198.385,613.993,216.237,609.044,227.904,616.645z"/>
	<path fill-rule="evenodd" clip-rule="evenodd" fill="#FFFFFF" d="M739.419,612.226c-2.474,2.477-3.533,5.833-3.533,11.135
		c0,9.365,4.245,14.142,11.842,13.254c4.417-0.527,5.302-1.764,8.131-10.778c3.534-10.784,7.424-13.257,9.367-5.658
		c0.708,3.007,0.181,5.658-1.768,7.78c-1.591,1.766-2.827,4.063-2.827,5.125c0,3.531,4.948,2.297,7.775-1.771
		c7.247-10.25-1.412-26.159-11.309-20.854c-1.771,0.882-3.891,5.125-5.13,9.366c-3.18,13.08-10.779,15.731-10.779,4.066
		c0-3.36,1.236-6.893,2.65-8.135c3.004-2.473,3.535-7.066,0.884-7.066C743.839,608.69,741.365,610.28,739.419,612.226z"/>
	<path fill-rule="evenodd" clip-rule="evenodd" fill="#FFFFFF" d="M742.954,640.151c-4.419,1.414-7.068,6.011-7.068,12.902
		c0,9.014,1.413,12.195,6.539,14.141c6.363,2.298,10.604-0.884,13.08-9.545c3.004-10.074,4.948-12.37,7.953-9.9
		c3.184,2.653,3.184,7.78-0.176,11.14c-4.598,4.593-3.006,10.073,1.943,6.713c9.191-6.185,6.54-25.098-3.534-25.098
		c-5.304,0-8.484,3.892-10.783,13.083c-1.411,5.477-2.647,7.247-5.302,7.247c-4.771,0-6.188-11.137-1.768-14.318
		C747.374,643.864,746.666,638.912,742.954,640.151z"/>
	<path fill-rule="evenodd" clip-rule="evenodd" fill="#FFFFFF" d="M735.886,674.972c0,2.121,3.006,2.652,16.793,2.652
		c13.781,0,16.789-0.531,16.789-2.652c0-2.124-3.008-2.651-16.789-2.651C738.892,672.32,735.886,672.848,735.886,674.972z"/>
	<path fill-rule="evenodd" clip-rule="evenodd" fill="#FFFFFF" d="M776.537,674.972c0,1.411,1.591,2.652,3.534,2.652
		c1.945,0,3.535-1.241,3.535-2.652c0-1.416-1.59-2.651-3.535-2.651C778.128,672.32,776.537,673.556,776.537,674.972z"/>
	<path fill-rule="evenodd" clip-rule="evenodd" fill="#FFFFFF" d="M740.306,687.341c-3.36,3.184-4.42,6.19-4.42,11.485
		c0,10.611,5.831,15.913,17.498,15.913c7.601,0,9.367-0.707,13.258-5.479c6.186-7.247,6.008-14.673-0.532-21.208
		C759.039,681.157,746.843,680.804,740.306,687.341z M759.393,690.17c7.424,4.067,8.661,10.075,3.006,15.731
		c-7.6,7.599-21.919,2.297-20.856-7.602C742.248,689.991,751.262,685.929,759.393,690.17z"/>
	<path fill-rule="evenodd" clip-rule="evenodd" fill="#FFFFFF" d="M735.886,722.691c0,2.122,2.478,2.651,11.313,2.651
		c13.785,0,19.97,3.712,18.026,11.136c-1.06,4.419-1.59,4.596-14.848,5.124c-10.604,0.355-13.607,1.063-13.607,3.185
		c0,2.117,3.003,2.83,13.607,3.181c11.844,0.354,14.14,0,17.321-3.181c4.244-4.245,4.597-10.076,0.707-15.555
		c-1.412-2.123-1.765-3.89-0.881-3.89c1.058,0,1.942-1.234,1.942-2.651c0-2.123-3.008-2.65-16.789-2.65
		C738.892,720.041,735.886,720.568,735.886,722.691z"/>
</g>
</svg>
