<?xml version="1.0" encoding="UTF-8"?>
<svg width="139px" height="514px" viewBox="0 0 139 514" version="1.1" xmlns="http://www.w3.org/2000/svg" xmlns:xlink="http://www.w3.org/1999/xlink">
    <!-- Generator: Sketch 51.3 (57544) - http://www.bohemiancoding.com/sketch -->
    <title>Group 4</title>
    <desc>Created with Sketch.</desc>
    <defs></defs>
    <g id="mobile_0917" stroke="none" stroke-width="1" fill="none" fill-rule="evenodd">
        <g id="m_main" transform="translate(-20.000000, -5139.000000)">
            <g id="Group-4" transform="translate(19.000000, 5139.000000)">
                <g id="Group-27" transform="translate(70.000000, 257.000000) rotate(90.000000) translate(-70.000000, -257.000000) translate(-186.666667, 187.514815)" opacity="0.601841518">
                    <path d="M290.313349,89.4025106 C283.32644,100.826802 270.691797,108.47414 256.294595,108.47414 C241.897393,108.47414 229.262751,100.826802 222.275842,89.4025106 C219.559067,84.9602026 214.795815,82.1614636 209.567908,82.1614636 C198.05897,82.1614636 191.04004,94.6743892 196.99873,104.469976 C198.451757,106.858176 200.046386,109.152236 201.770521,111.340123 C214.465647,127.434641 234.190375,137.791533 256.294595,137.791533 C278.405931,137.791533 298.13066,127.434641 310.81867,111.340123 C312.542805,109.152236 314.137434,106.858176 315.590461,104.469976 C321.54915,94.6743892 314.530221,82.1614636 303.020571,82.1614636 C297.793376,82.1614636 293.030124,84.9602026 290.313349,89.4025106 Z M209.70453,55.6293613 C214.84776,55.6293613 219.54697,52.884417 222.205397,48.5043976 C229.177363,37.0156944 241.848295,29.3173926 256.294595,29.3173926 C270.740896,29.3173926 283.41254,37.0156944 290.383794,48.5051054 C293.042221,52.884417 297.741431,55.6293613 302.88395,55.6293613 L303.44609,55.6293613 C314.600666,55.6293613 321.665848,43.5651966 316.001037,34.0060236 C314.439851,31.3707921 312.706466,28.847397 310.81867,26.4514102 C298.13066,10.3561837 278.405931,0 256.294595,0 C234.190375,0 214.465647,10.3561837 201.770521,26.4514102 C199.882725,28.8466891 198.150051,31.3693765 196.588866,34.0039001 C190.924054,43.5644888 197.989236,55.6293613 209.145235,55.6293613 L209.70453,55.6293613 Z" id="Fill-426-Copy" fill="#14A0C0"></path>
                    <path d="M384.062004,89.9089747 C377.074383,101.333266 364.439741,108.980604 350.042539,108.980604 C335.645337,108.980604 323.010694,101.333266 316.023786,89.9089747 C313.30701,85.4666667 308.54447,82.6679277 303.316563,82.6679277 C291.806913,82.6679277 284.788695,95.1808533 290.746674,104.97644 C292.1997,107.36464 293.794329,109.6587 295.518464,111.846587 C308.214301,127.941105 327.93903,138.297997 350.042539,138.297997 C372.154586,138.297997 391.878603,127.941105 404.566614,111.846587 C406.29146,109.6587 407.885378,107.36464 409.338404,104.97644 C415.297094,95.1808533 408.278164,82.6679277 396.769226,82.6679277 C391.541319,82.6679277 386.778067,85.4666667 384.062004,89.9089747 Z M303.452473,56.1358255 C308.595703,56.1358255 313.295625,53.3908811 315.95334,49.0108617 C322.925306,37.5221585 335.596238,29.8238567 350.042539,29.8238567 C364.489551,29.8238567 377.160483,37.5221585 384.132449,49.0115695 C386.790164,53.3908811 391.489374,56.1358255 396.631893,56.1358255 L397.194745,56.1358255 C408.349321,56.1358255 415.413791,44.0716607 409.749692,34.5124877 C408.187795,31.8772562 406.455121,29.3538611 404.566614,26.9578744 C391.878603,10.8626478 372.154586,0.506464115 350.042539,0.506464115 C327.93903,0.506464115 308.214301,10.8626478 295.518464,26.9578744 C293.630668,29.3531532 291.897994,31.8758406 290.336809,34.5103642 C284.671998,44.0709529 291.737179,56.1358255 302.893179,56.1358255 L303.452473,56.1358255 Z" id="Fill-437-Copy" fill="#5059AB"></path>
                    <path d="M389.267554,26.9578744 C387.379046,29.3538611 385.646373,31.8765484 384.084476,34.5124877 C378.420376,44.0716607 385.484846,56.1358255 396.639422,56.1358255 L397.200851,56.1358255 C402.353332,56.1358255 407.049696,53.3746012 409.715238,48.9889191 C417.062913,36.8978571 430.726486,29.0112739 446.124156,29.8903922 C466.41743,31.0483935 482.747257,47.6058296 483.547773,67.8099788 C484.440794,90.3584434 466.264442,108.980604 443.791629,108.980604 C429.394427,108.980604 416.759073,101.333266 409.772164,89.9089747 C407.0561,85.4666667 402.292848,82.6679277 397.064941,82.6679277 C385.555292,82.6679277 378.537074,95.1808533 384.495763,104.975732 C385.94879,107.36464 387.542707,109.657993 389.267554,111.846587 C402.349062,128.43092 422.894943,138.923006 445.817469,138.268268 C482.053476,137.234136 511.606414,108.139709 512.999668,72.1057671 C514.516025,32.8915691 482.889571,0.506464115 443.791629,0.506464115 C421.687409,0.506464115 401.96268,10.8626478 389.267554,26.9578744 Z" id="Fill-438-Copy" fill="#09909F"></path>
                    <path d="M103.279337,89.9089654 C96.2924286,101.333257 83.6577862,108.980595 69.2598726,108.980595 C46.7920402,108.980595 28.6064379,90.3541872 29.5044396,67.8021834 C30.3092256,47.5973264 46.6426104,31.0434294 66.9365956,29.8896751 C82.3307076,29.0148037 95.9885881,36.8999712 103.335551,48.9874942 C106.001805,53.373884 110.698169,56.1358162 115.851362,56.1358162 L116.409944,56.1358162 C127.565944,56.1358162 134.631125,44.0709436 128.966314,34.5103549 C127.404417,31.8758313 125.672455,29.3531439 123.783947,26.957865 C110.718805,10.3841489 90.1921363,-0.104397937 67.2809956,0.534059971 C31.042143,1.54412586 1.46928106,30.6215659 0.0539677197,66.6562151 C-1.48658199,105.889524 30.1555264,138.297988 69.2598726,138.297988 C91.3719199,138.297988 111.096649,127.941096 123.783947,111.846577 C125.508794,109.658691 127.103423,107.364631 128.556449,104.97643 C134.515139,95.180844 127.49621,82.6679184 115.98656,82.6679184 C110.759364,82.6679184 105.995401,85.4666574 103.279337,89.9089654 Z" id="Fill-422-Copy" fill="#7DE314"></path>
                    <path d="M197.072458,89.9089747 C190.085549,101.333266 177.450907,108.980604 163.052993,108.980604 C148.655791,108.980604 136.021149,101.333266 129.03424,89.9089747 C126.318176,85.4666667 121.554925,82.6679277 116.327017,82.6679277 C104.817368,82.6679277 97.7991498,95.1808533 103.757128,104.97644 C105.210155,107.36464 106.804784,109.6587 108.52963,111.846587 C121.224756,127.941105 140.949485,138.297997 163.052993,138.297997 C185.165041,138.297997 204.889769,127.941105 217.577068,111.846587 C219.301914,109.6587 220.896543,107.36464 222.34957,104.97644 C228.30826,95.1808533 221.28933,82.6679277 209.779681,82.6679277 C204.552485,82.6679277 199.788522,85.4666667 197.072458,89.9089747 Z M116.463639,56.1358255 C121.606158,56.1358255 126.306079,53.3908811 128.963795,49.0108617 C135.93576,37.5221585 148.607404,29.8238567 163.052993,29.8238567 C177.500005,29.8238567 190.171649,37.5221585 197.142904,49.0115695 C199.800619,53.3908811 204.50054,56.1358255 209.642348,56.1358255 L210.2052,56.1358255 C221.359776,56.1358255 228.424246,44.0716607 222.760146,34.5124877 C221.198249,31.8772562 219.465576,29.3538611 217.577068,26.9578744 C204.889769,10.8626478 185.165041,0.506464115 163.052993,0.506464115 C140.949485,0.506464115 121.224756,10.8626478 108.52963,26.9578744 C106.641834,29.3531532 104.90916,31.8758406 103.347975,34.5103642 C97.6824523,44.0709529 104.748345,56.1358255 115.903633,56.1358255 L116.463639,56.1358255 Z" id="Fill-424-Copy" fill="#01CC9B"></path>
                </g>
                <g id="selfie-copy" transform="translate(51.428571, 53.303704)" fill="#7DE314" fill-rule="nonzero">
                    <path d="M35.1776724,-7.89245212e-14 L7.35552303,-7.89245212e-14 C5.747392,0.00348578559 4.44472734,1.30542674 4.44123962,2.91266436 L4.44123962,7.00439564 C3.87942556,8.03735011 0.662291555,14.1177221 0.0385703495,18.9652879 C-0.0648987726,19.8137862 0.0400235489,20.6750658 0.344618043,21.4738916 L2.75754126,30.9357661 C2.81392608,31.1597279 2.86013843,31.385723 2.90664141,31.61288 C2.95285376,31.840037 2.99993798,32.0724228 3.05719483,32.3027751 C3.13683114,32.6417677 3.17519609,32.9891844 3.17141775,33.3377629 L3.17141775,36.8049577 C3.17141775,37.505891 3.73991663,38.0740741 4.44123962,38.0740741 L12.6952273,38.0740741 C13.3965503,38.0740741 13.9650491,37.505891 13.9650491,36.8049577 L13.9848129,33.2654329 C13.983941,33.1193204 13.9929509,32.9734983 14.0121334,32.8288382 C14.0940949,32.2888319 14.2472641,31.7618974 14.4672813,31.2619776 L14.5161094,31.1440419 C15.9890912,26.808015 15.1459341,22.0487558 14.7465898,20.3061535 L35.1776724,20.3061535 C36.7858035,20.3026677 38.088468,19.0007268 38.0919558,17.3934892 L38.0919558,2.91266436 C38.088468,1.30542674 36.7858035,0.00348578559 35.1776724,-7.89245212e-14 Z M5.71106025,19.7946144 C6.19469245,20.1280879 6.76813233,20.3064439 7.35552303,20.3061535 L8.85582533,20.3061535 C8.71835086,21.0160918 8.11759051,21.5433169 7.39563188,21.5880512 C6.97913955,21.6101277 6.5725292,21.4576246 6.27374751,21.1671425 C5.91393077,20.8266974 5.71048025,20.3532116 5.7110615,19.85823 L5.71106025,19.7946144 Z M5.7110615,2.91266436 C5.71222414,2.00548864 6.44784304,1.27027835 7.35552303,1.26911642 L8.88576157,1.26911642 L8.88576157,19.037037 L7.35552303,19.037037 C6.44784304,19.0358751 5.71222414,18.3006648 5.7110615,17.3934892 L5.7110615,2.91266436 Z M13.3299929,30.685661 L13.3003472,30.7542148 C13.0349896,31.3575462 12.8513029,31.9931211 12.7536466,32.6446725 C12.7254542,32.8474291 12.7115033,33.0519285 12.7123753,33.2564279 L12.6952273,36.165897 L12.6952273,36.8049577 L4.44123962,36.8049577 L4.44123962,33.3377629 C4.44588992,32.8872251 4.39589922,32.4378492 4.29213947,31.9992213 C4.2392423,31.7848454 4.1956458,31.5716316 4.15233992,31.3595796 C4.10205852,31.1115079 4.05148657,30.8660504 3.98928888,30.6223359 L1.56619312,21.1253131 C1.56008962,21.1006221 1.55224222,21.0770931 1.5441042,21.053564 C1.30432325,20.4415182 1.22032727,19.7792189 1.2990917,19.1265055 C1.70105175,16.0012083 3.30220733,12.2130308 4.44123962,9.82236287 L4.44123962,19.85823 C4.44182094,20.7038235 4.79088389,21.5116543 5.40617638,22.0917471 C5.96130569,22.6204246 6.71058486,22.8960921 7.47614014,22.8533913 C8.98109267,22.7581131 10.153549,21.5113639 10.1555835,20.004052 L10.1555835,11.6201568 C10.1538396,10.7812444 10.8060439,10.0861206 11.6436788,10.0338339 C12.0598804,10.0108858 12.4664907,10.1633889 12.7649817,10.453871 C13.1262517,10.794897 13.3305741,11.2695448 13.3299929,11.7662692 L13.3299929,19.7983907 C13.3299929,19.857649 13.3384215,19.9166169 13.3549883,19.9735514 C13.370683,20.0287431 14.9916023,25.7951038 13.3299929,30.685661 Z M17.1397492,19.037037 L17.1397492,18.8188849 C17.1435276,18.0316784 17.5762959,17.3089588 18.268609,16.9333655 L21.4037815,15.2035444 C21.905723,14.9302007 22.2184555,14.405009 22.2190368,13.8336306 L22.2190368,12.9450458 C22.2190368,12.7030742 22.1245776,12.4706884 21.9560044,12.2966896 C21.3860523,11.6387476 20.923057,10.8954038 20.5847478,10.0933827 C20.5516145,10.0135001 20.5027863,9.94087958 20.4411699,9.88016875 L20.3141587,9.76339497 L20.3141587,8.42311038 L20.444367,8.29646017 C20.5661466,8.17707207 20.6347385,8.01382107 20.6347385,7.84330804 L20.6347385,5.4020962 C20.9041651,3.83610708 23.464154,3.80734933 23.4888587,3.80734933 C23.5135634,3.80734933 26.0723896,3.82594019 26.3458853,5.4020962 L26.3458853,7.84185565 C26.3458853,8.01236868 26.4147678,8.1756196 26.5365475,8.29500778 L26.6635587,8.41178163 L26.6667558,9.75206615 L26.5365475,9.87900683 C26.4749311,9.93971757 26.4261029,10.0123381 26.3929695,10.0922207 C26.0546604,10.8939514 25.5916651,11.6375857 25.0214224,12.2955277 C24.8528491,12.4695265 24.7583899,12.7027836 24.7586805,12.9450458 L24.7586805,13.8336306 C24.7595525,14.403847 25.0714131,14.9281673 25.5719014,15.2018014 L28.7105616,16.9327845 C29.4022934,17.3086683 29.8344804,18.0316784 29.8379682,18.8188849 L29.8379682,19.037037 L17.1397492,19.037037 Z M36.8221339,17.3934892 C36.8212619,18.3006648 36.085643,19.0358751 35.1776724,19.037037 L31.1077901,19.037037 L31.1077901,18.8188849 C31.103721,17.5692308 30.4198366,16.4212455 29.3223664,15.8222713 L26.1839968,14.0907073 C26.0889564,14.0398729 26.0293744,13.9413994 26.0285025,13.8336306 L26.0285025,13.0777961 C26.6397259,12.3626291 27.1407956,11.5603174 27.5154352,10.6975855 L27.5561253,10.656918 C27.79765,10.4222085 27.9336713,10.0994828 27.9333806,9.76281397 L27.9333806,8.41178163 C27.9336713,8.1050325 27.8206109,7.80874065 27.6157072,7.5798408 L27.6157072,5.35184281 C27.6157072,5.3213422 27.613382,5.2908416 27.6087317,5.26063146 C27.2172348,2.56931444 23.6405747,2.53823284 23.4888587,2.53823284 C23.3371427,2.53823284 19.7604826,2.56931444 19.3689856,5.26063146 C19.3643353,5.2908416 19.3620102,5.3213422 19.3617195,5.35184281 L19.3617195,7.5798408 C19.1571064,7.80874065 19.0440461,8.1050325 19.0443367,8.41178163 L19.0443367,9.76281397 C19.0443367,10.1015162 19.1818112,10.4254037 19.4253705,10.6606943 L19.4654794,10.7001998 C19.839247,11.5617698 20.3394446,12.36321 20.9492149,13.0777961 L20.9492149,13.8336306 C20.9477616,13.94169 20.8873078,14.0401634 20.791686,14.0907073 L17.6559323,15.8205284 C16.5578807,16.4195025 15.8734151,17.5683594 15.8699273,18.8188849 L15.8699273,19.037037 L14.5998148,19.037037 L14.5998148,11.7662692 C14.5989429,10.9206758 14.2498799,10.112845 13.634878,9.53246166 C13.0797488,9.00378418 12.3304695,8.72840712 11.5649143,8.77110801 C11.0609383,8.80335147 10.5744009,8.96921679 10.1555835,9.25127496 L10.1555835,1.26911642 L35.1776724,1.26911642 C36.085643,1.27027835 36.8212619,2.00548864 36.8221339,2.91266436 L36.8221339,4.44205277 C36.8221339,4.79237419 36.5378844,5.07646575 36.1873683,5.07646575 C35.1352384,5.07646575 34.2824901,5.92874029 34.2824901,6.98028568 L34.2824901,13.3258678 C34.2824901,14.3774132 35.1352384,15.2296877 36.1873683,15.2296877 C36.5378844,15.2296877 36.8221339,15.5137793 36.8221339,15.8641007 L36.8221339,17.3934892 Z M36.8221339,6.22880839 L36.8221339,14.0773451 C36.618974,14.0021103 36.4041884,13.9626047 36.1873683,13.9605713 C35.8365614,13.9605713 35.552312,13.6764797 35.552312,13.3258678 L35.552312,6.98028568 C35.552312,6.62967373 35.8365614,6.34558217 36.1873683,6.34558217 C36.4041884,6.34354885 36.618974,6.30404328 36.8221339,6.22880839 Z" id="Shape"></path>
                </g>
                <g id="cloud-computing-copy" transform="translate(49.523810, 141.825926)" fill="#01CC9B" fill-rule="nonzero">
                    <path d="M33.4483758,5.43811015 C31.5216473,2.08931481 27.9324072,0.00894412516 24.0815074,0.00886206897 C20.2028909,0.00886206897 16.671724,2.06026692 14.736994,5.39913346 C14.0387126,5.16305779 13.3100749,5.04366603 12.5638666,5.04366603 C10.7702777,5.04366603 9.07716205,5.73663059 7.79625099,6.99488027 C6.65524366,8.11576788 5.9539927,9.57407056 5.78793951,11.1491392 C4.29981254,11.3009432 2.9214803,11.9608391 1.85842641,13.0410268 C0.660005758,14.2588228 0,15.8716373 0,17.5825089 C0,21.1493276 2.89417598,24.0510808 6.45157484,24.0510808 L11.8226078,24.0510808 C12.1642831,24.0510808 12.4412859,23.7755361 12.4412859,23.4356593 C12.4412859,23.0957826 12.1642831,22.8202379 11.8226078,22.8202379 L6.45157484,22.8202379 C3.57645415,22.8202379 1.23735613,20.4706408 1.23735613,17.5825089 C1.23735613,14.7347487 3.54370545,12.3859722 6.37865332,12.3468314 C6.71141963,12.3422363 6.98091579,12.0766204 6.9885874,11.7456057 C7.02257345,10.2758151 7.61823669,8.8996507 8.66578238,7.87066603 C9.71357555,6.84135313 11.0979296,6.27450894 12.5639491,6.27450894 C13.330285,6.27450894 14.0736886,6.42844636 14.7737022,6.73213633 C15.0733898,6.8621954 15.4230667,6.73779821 15.5718794,6.4482219 C17.2234198,3.23555779 20.4841007,1.23970498 24.0815899,1.23970498 C27.4898461,1.23970498 30.6676241,3.0826871 32.3745981,6.04951086 C32.5442809,6.34450287 32.922252,6.44674489 33.218805,6.2779553 C33.515358,6.10908365 33.618141,5.73310217 33.4483758,5.43811015 Z" id="Shape"></path>
                    <path d="M35.4393643,11.1140192 L34.8854412,11.1140192 C34.8876684,11.0248241 34.8888233,10.9361213 34.8888233,10.8482391 C34.8888233,10.2596501 34.8413088,9.66876341 34.7476822,9.09207248 C34.693156,8.7565447 34.3758979,8.52867465 34.0381822,8.58274968 C33.7008789,8.63698883 33.4716381,8.95290517 33.5260817,9.28843295 C33.6093146,9.80038155 33.6514672,10.325213 33.6514672,10.8482391 C33.6514672,11.1184502 33.6394236,11.3974413 33.6155838,11.6776632 C33.600983,11.8492427 33.6593862,12.019099 33.7766051,12.1458758 C33.8937415,12.2726526 34.0589698,12.3448621 34.2320347,12.3448621 L35.4392818,12.3448621 C38.314485,12.3448621 40.653583,14.6944591 40.653583,17.5825089 C40.653583,20.4705587 38.314485,22.8202379 35.4392818,22.8202379 L26.4192031,22.8202379 C26.0775278,22.8202379 25.800525,23.0957826 25.800525,23.4356593 C25.800525,23.7755361 26.0775278,24.0510808 26.4192031,24.0510808 L35.4393643,24.0510808 C38.9968456,24.0510808 41.8910216,21.1493276 41.8910216,17.5825089 C41.8910216,14.0156903 38.9968456,11.1140192 35.4393643,11.1140192 Z" id="Shape"></path>
                    <path d="M15.704524,18.8305837 L14.0557882,16.299068 C14.4557017,15.88731 14.7026779,15.3260457 14.7026779,14.7077522 C14.7026779,13.4480255 13.678972,12.4232257 12.4206633,12.4232257 C11.1623546,12.4232257 10.1385661,13.4481076 10.1385661,14.7077522 C10.1385661,15.9674789 11.1622721,16.9923608 12.4206633,16.9923608 C12.6160006,16.9923608 12.8055635,16.9675798 12.98663,16.921136 L14.6660522,19.499916 C14.7243729,19.5894393 14.7908602,19.8131245 14.7908602,19.9198796 L14.7908602,27.5703068 L0.950289505,27.5703068 C0.608614233,27.5703068 0.331611442,27.8458515 0.331611442,28.1857283 C0.331611442,28.525605 0.608614233,28.8011497 0.950289505,28.8011497 L14.9970862,28.8011497 C15.5656926,28.8010677 16.0282163,28.3408966 16.0282163,27.7753653 L16.0282163,19.9197976 C16.0282163,19.5765565 15.8921071,19.1185188 15.704524,18.8305837 Z M12.4207458,15.7614358 C11.8446328,15.7614358 11.3760048,15.2887101 11.3760048,14.7076702 C11.3760048,14.1266303 11.8446328,13.6539866 12.4207458,13.6539866 C12.9967763,13.6539866 13.4654043,14.1267123 13.4654043,14.7076702 C13.4654043,15.2887101 12.9967763,15.7614358 12.4207458,15.7614358 Z" id="Shape"></path>
                    <path d="M27.495043,12.4231437 C26.4497245,12.4231437 25.5669947,13.1307142 25.2978285,14.0922487 L20.855555,14.0922487 C20.5863888,13.1306322 19.703659,12.4231437 18.658258,12.4231437 C17.3999493,12.4231437 16.3762433,13.4480255 16.3762433,14.7076702 C16.3762433,15.7145817 17.0305573,16.5707561 17.935642,16.8741999 L17.935642,31.2682513 L11.2186955,31.2682513 C10.8770203,31.2682513 10.6000175,31.543796 10.6000175,31.8836727 C10.6000175,32.2235495 10.8770203,32.4990942 11.2186955,32.4990942 L18.1419505,32.4990942 C18.7105569,32.4990942 19.1730806,32.0390051 19.1730806,31.4733918 L19.1730806,16.9329521 C19.9850337,16.7447973 20.6320885,16.1219087 20.855555,15.3230916 L25.2978285,15.3230916 C25.5669122,16.2847082 26.4497245,16.9922787 27.495043,16.9922787 C28.7533517,16.9922787 29.7770577,15.9673969 29.7770577,14.7076702 C29.7770577,13.4479435 28.7533517,12.4231437 27.495043,12.4231437 Z M18.658258,15.7614358 C18.08231,15.7614358 17.6135995,15.2887101 17.6135995,14.7076702 C17.6135995,14.1266303 18.0822275,13.6539866 18.658258,13.6539866 C19.2342885,13.6539866 19.702999,14.1267123 19.702999,14.7076702 C19.702999,15.2887101 19.234371,15.7614358 18.658258,15.7614358 Z M27.4949605,15.7614358 C26.91893,15.7614358 26.450302,15.2887101 26.450302,14.7076702 C26.450302,14.1267123 26.91893,13.6539866 27.4949605,13.6539866 C28.070991,13.6539866 28.539619,14.1267123 28.539619,14.7076702 C28.539619,15.2887101 28.070991,15.7614358 27.4949605,15.7614358 Z" id="Shape"></path>
                    <path d="M7.25907345,31.2682513 L4.81306786,31.2682513 C4.54703629,30.2981009 3.66810099,29.5990642 2.61469848,29.5990642 C2.5938284,29.5990642 2.57287584,29.5993924 2.55200576,29.5999668 C1.29427451,29.6339381 0.298615278,30.6859805 0.332436346,31.9451328 C0.366009942,33.1917305 1.36769097,34.1681992 2.61288369,34.1681992 C2.63358878,34.1681992 2.65454134,34.1679531 2.67541142,34.1673787 C3.69878742,34.1397257 4.54860361,33.4379812 4.81150054,32.4990942 L7.25907345,32.4990942 C7.60074872,32.4990942 7.87775151,32.2235495 7.87775151,31.8836727 C7.87775151,31.543796 7.60074872,31.2682513 7.25907345,31.2682513 Z M2.64167284,32.936946 L2.6128012,32.9372743 C2.04312244,32.9372743 1.58480573,32.4869499 1.56938002,31.9121462 C1.55378933,31.3311884 2.00963133,30.845826 2.58574434,30.8302353 L2.61469848,30.829825 C3.18429475,30.829825 3.64252896,31.2801494 3.65803716,31.8550351 C3.67362785,32.435993 3.21770336,32.9213554 2.64167284,32.936946 Z" id="Shape"></path>
                    <path d="M41.616411,35.165182 L13.6844163,35.165182 C13.4183848,34.1950316 12.5394495,33.4959949 11.486047,33.4959949 C11.4652594,33.4959949 11.4442243,33.4963231 11.4233542,33.4968975 C10.4000607,33.5245504 9.55024454,34.2263771 9.28726512,35.165264 L0.950289505,35.165264 C0.608614233,35.165264 0.331611442,35.4408087 0.331611442,35.7806855 C0.331611442,36.1205623 0.608614233,36.396107 0.950289505,36.396107 L9.28561531,36.396107 C9.55172937,37.3661753 10.4307472,38.065212 11.4841497,38.065212 C11.5048548,38.065212 11.5258073,38.0649658 11.5466774,38.0643914 C12.5700534,38.0367385 13.4198696,37.3349939 13.682849,36.396107 L41.616411,36.396107 C41.9581688,36.396107 42.2350891,36.1205623 42.2350891,35.7806855 C42.2350891,35.4407267 41.9581688,35.165182 41.616411,35.165182 Z M11.5130213,36.8339588 L11.4841497,36.834287 C10.9144709,36.834287 10.4560717,36.3839626 10.440646,35.809159 C10.4250553,35.2281191 10.8809798,34.7427567 11.4570103,34.7272481 L11.4859645,34.7268378 C12.0555607,34.7268378 12.513795,35.1771622 12.5293032,35.7520479 C12.5449763,36.3330057 12.0890518,36.8183681 11.5130213,36.8339588 Z" id="Shape"></path>
                    <path d="M41.616411,27.5702248 L32.3362401,27.5702248 C31.9944823,27.5702248 31.717562,27.8457695 31.717562,28.1856462 C31.717562,28.525523 31.9944823,28.8010677 32.3362401,28.8010677 L41.616411,28.8010677 C41.9581688,28.8010677 42.2350891,28.525523 42.2350891,28.1856462 C42.2350891,27.8457695 41.9581688,27.5702248 41.616411,27.5702248 Z" id="Shape"></path>
                    <path d="M28.4591084,27.5702248 L23.6869558,27.5702248 L23.6869558,21.4839527 C24.6233044,21.1990536 25.3067375,20.3269604 25.3067375,19.2978116 C25.3067375,18.0380849 24.2830315,17.0132851 23.0246403,17.0132851 C21.7663316,17.0132851 20.7426256,18.038167 20.7426256,19.2978116 C20.7426256,20.3587162 21.4687887,21.2529646 22.4495997,21.5088158 L22.4495997,27.7753653 C22.4495997,28.3408966 22.9122059,28.8010677 23.4807298,28.8010677 L28.4591084,28.8010677 C28.8008662,28.8010677 29.0777865,28.525523 29.0777865,28.1856462 C29.0777865,27.8457695 28.8008662,27.5702248 28.4591084,27.5702248 Z M23.0246403,20.3514952 C22.4486098,20.3514952 21.9799818,19.8788515 21.9799818,19.2978116 C21.9799818,18.7167717 22.4486098,18.244128 23.0246403,18.244128 C23.6006708,18.244128 24.0693813,18.7168538 24.0693813,19.2978116 C24.0693813,19.8788515 23.6006708,20.3514952 23.0246403,20.3514952 Z" id="Shape"></path>
                    <path d="M41.616411,31.2682513 L39.2239417,31.2682513 C38.9579926,30.2981009 38.0790573,29.5990642 37.0256548,29.5990642 C37.0047848,29.5990642 36.9837497,29.5993924 36.9628796,29.5999668 C35.9395036,29.6276197 35.0896874,30.3294464 34.8267905,31.2682513 L25.2239996,31.2682513 C24.957968,30.2981009 24.0791152,29.5990642 23.0256302,29.5990642 C23.0047601,29.5990642 22.9837251,29.5993924 22.962855,29.5999668 C21.7052062,29.6340201 20.709547,30.6859805 20.7432856,31.9451328 C20.7768592,33.1917305 21.7785402,34.1681992 23.0236504,34.1681992 C23.044438,34.1681992 23.0653906,34.1679531 23.0862606,34.1673787 C24.1096366,34.1397257 24.9594528,33.4379812 25.2224323,32.4990942 L34.8252232,32.4990942 C35.0912548,33.4691625 35.9701901,34.1681992 37.0236751,34.1681992 C37.0444626,34.1681992 37.0654152,34.1679531 37.0862853,34.1673787 C38.1096613,34.1397257 38.9594775,33.4379812 39.2222919,32.4990942 L41.616411,32.4990942 C41.9581688,32.4990942 42.2350891,32.2235495 42.2350891,31.8836727 C42.2350891,31.543796 41.9581688,31.2682513 41.616411,31.2682513 Z M23.052687,32.936946 L23.0237329,32.9372743 C22.4541366,32.9372743 21.9957374,32.4869499 21.9803117,31.9121462 C21.964721,31.3311884 22.4206455,30.845826 22.9966761,30.8302353 L23.0257127,30.829825 C23.5952265,30.829825 24.0535432,31.2801494 24.0689689,31.8550351 C24.0846421,32.435993 23.6287176,32.9213554 23.052687,32.936946 Z M37.0527117,32.936946 L37.0237576,32.9372743 C36.4540788,32.9372743 35.9957621,32.4870319 35.9803364,31.9121462 C35.9646632,31.3311884 36.4205877,30.845826 36.9966182,30.8302353 L37.0256548,30.829825 C37.5951686,30.829825 38.0534853,31.2801494 38.068911,31.8550351 C38.0845842,32.435993 37.6286597,32.9213554 37.0527117,32.936946 Z" id="Shape"></path>
                    <path d="M23.0246403,6.78982184 C21.7663316,6.78982184 20.7426256,7.8147037 20.7426256,9.07434834 C20.7426256,10.334075 21.7663316,11.3588748 23.0246403,11.3588748 C24.2830315,11.3589569 25.3067375,10.334075 25.3067375,9.07434834 C25.3067375,7.81462165 24.2830315,6.78982184 23.0246403,6.78982184 Z M23.0246403,10.1280319 C22.4486098,10.1280319 21.9799818,9.65538825 21.9799818,9.07434834 C21.9799818,8.49330843 22.4486098,8.02066475 23.0246403,8.02066475 C23.6006708,8.02066475 24.0693813,8.49339049 24.0693813,9.07434834 C24.0693813,9.65538825 23.6006708,10.1280319 23.0246403,10.1280319 Z" id="Shape"></path>
                </g>
                <g id="analytics-copy" transform="translate(52.380952, 239.866667)" fill="#14A0C0" fill-rule="nonzero">
                    <path d="M34.6719494,3.42138686 C32.4643601,1.21509838 29.5293155,0 26.4073661,0 C23.2854167,0 20.350372,1.21509838 18.1427827,3.42138686 C17.8574405,3.7065706 17.5889881,4.00417303 17.3372768,4.3124838 C17.3133929,3.20543547 16.4055804,2.31195891 15.2922619,2.31195891 C14.1640625,2.31195891 13.246131,3.2293805 13.246131,4.35695312 C13.246131,4.81161111 13.3955357,5.23191319 13.647619,5.57190278 L8.72261905,11.8588843 C8.44605655,11.7193041 8.13400298,11.6401814 7.80364583,11.6401814 C6.8077381,11.6401814 5.97611607,12.3551858 5.79471726,13.2984858 L2.64880952,13.2984858 C2.3405506,13.2984858 2.09077381,13.5481238 2.09077381,13.8562115 C2.09077381,14.1642992 2.3405506,14.4139372 2.64880952,14.4139372 L5.89233631,14.4139372 C6.18675595,15.1826319 6.93229167,15.7301698 7.80364583,15.7301698 C8.93184524,15.7301698 9.84977679,14.8127483 9.84977679,13.6851756 C9.84977679,13.2935035 9.73883929,12.927338 9.5469494,12.6159783 L14.5304315,6.25433594 C14.7660714,6.34922367 15.0230655,6.40194734 15.2923363,6.40194734 C15.5377976,6.40194734 15.7732887,6.35844473 15.9915179,6.27887587 L16.0190476,6.31754485 C15.1700149,7.95547367 14.7195685,9.7836985 14.7195685,11.6813788 C14.7195685,14.2350932 15.534375,16.6633565 17.0403274,18.6706484 L15.1092262,20.6012717 L14.7113839,20.2036505 C14.493378,19.9859144 14.1401042,19.9859144 13.9221726,20.2036505 L5.28764881,28.8331542 C5.06971726,29.0510391 5.06971726,29.4041166 5.28764881,29.6219271 C5.39665179,29.7307951 5.53950893,29.7852292 5.68229167,29.7852292 C5.8250744,29.7852292 5.96793155,29.7307951 6.07693452,29.6219271 L8.35840774,27.3417214 L10.7383185,29.7203099 L3.59404762,36.8606117 C3.53080357,36.9238206 3.4468006,36.9585483 3.35729167,36.9585483 C3.26793155,36.9585483 3.18385417,36.9237462 3.12053571,36.8605373 L1.2141369,34.955272 C1.15089286,34.8920631 1.11607143,34.8080324 1.11607143,34.7186476 C1.11607143,34.6292627 1.15089286,34.5452321 1.2141369,34.4820231 L4.34077381,31.3571233 C4.55870536,31.1392384 4.55870536,30.7861609 4.34077381,30.5683504 C4.12276786,30.3506143 3.76949405,30.3506143 3.5515625,30.5683504 L0.425,33.6932503 C0.150892857,33.9670564 0,34.3312885 0,34.7186476 C0,35.1059323 0.150892857,35.47009 0.425,35.7440448 L2.33139881,37.6493102 C2.60543155,37.923265 2.96971726,38.0740741 3.35729167,38.0740741 C3.74494048,38.0740741 4.10922619,37.923265 4.38325893,37.6493845 L15.4743304,26.5645492 C15.6922619,26.3466644 15.6922619,25.9935868 15.4743304,25.7757763 C15.2563988,25.5581146 14.903125,25.5579659 14.685119,25.7757763 L13.1120536,27.3479679 L10.7320685,24.9693793 L14.3165923,21.3868469 L16.696503,23.7654355 L16.4056548,24.0561965 C16.1877232,24.2740069 16.1877232,24.6271589 16.4057292,24.844895 C16.6235863,25.0626311 16.9769345,25.0627054 17.1948661,24.8448206 L17.8802827,24.1597104 C18.0982143,23.9418999 18.0982143,23.5888223 17.8802827,23.3710119 L17.4830357,22.9739855 L19.4142113,21.0433623 C21.4225446,22.5484036 23.8521577,23.3627575 26.4072917,23.3627575 C29.5292411,23.3627575 32.4642857,22.1476591 34.671875,19.9413707 C36.8794643,17.7350078 38.0952381,14.8015937 38.0952381,11.6813788 C38.0952381,8.56116377 36.8794643,5.62774971 34.6719494,3.42138686 Z M7.80364583,14.6146441 C7.29077381,14.6146441 6.87358631,14.1976884 6.87358631,13.6851013 C6.87358631,13.1725142 7.29077381,12.7555584 7.80364583,12.7555584 C8.31651786,12.7555584 8.73370536,13.1725142 8.73370536,13.6851013 C8.73370536,14.1976884 8.31644345,14.6146441 7.80364583,14.6146441 Z M12.3229167,28.1366664 L11.5275298,28.9316114 L9.14761905,26.5530229 L9.94293155,25.7581522 L12.3229167,28.1366664 Z M15.2922619,5.28649595 C14.7793899,5.28649595 14.3622024,4.86946586 14.3622024,4.35695312 C14.3622024,3.84436603 14.7793899,3.4274103 15.2922619,3.4274103 C15.8051339,3.4274103 16.2223214,3.84436603 16.2223214,4.35695312 C16.2223214,4.86954022 15.8051339,5.28649595 15.2922619,5.28649595 Z M16.6939732,22.1852127 L15.8982887,21.3899702 L17.7544643,19.5343053 C17.8802827,19.6725469 18.0095982,19.8083345 18.1427827,19.9413707 C18.2759673,20.0744812 18.4119048,20.2037248 18.5502232,20.3295477 L16.6939732,22.1852127 Z M33.8827381,19.1525978 C31.8860119,21.1482891 29.2311756,22.2473061 26.4073661,22.2473061 C23.5835565,22.2473061 20.9287202,21.1482891 18.931994,19.1525978 C16.9351935,17.1569809 15.8355655,14.5036195 15.8355655,11.6813788 C15.8355655,9.86639062 16.2910714,8.1215272 17.1468006,6.57625521 C17.159003,6.55706944 17.1698661,6.53721441 17.1795387,6.51683883 C17.6490327,5.68188628 18.2357887,4.90590394 18.931994,4.21015972 C20.9287202,2.21446846 23.5835565,1.11545139 26.4073661,1.11545139 C29.2311756,1.11545139 31.8860119,2.21446846 33.8827381,4.21015972 C35.8795387,6.20577662 36.9791667,8.85913802 36.9791667,11.6813788 C36.9791667,14.5036195 35.8795387,17.1569809 33.8827381,19.1525978 Z" id="Shape"></path>
                    <path d="M33.0936012,4.99893258 C31.3075893,3.21398727 28.9330357,2.23090278 26.4073661,2.23090278 C23.8816964,2.23090278 21.5072173,3.21391291 19.721131,4.99885822 C18.8058036,5.91367708 18.1018601,6.9833206 17.6325149,8.14829803 C17.6311756,8.15171875 17.6296875,8.1550651 17.6284226,8.15848582 C17.1846726,9.26374942 16.9517113,10.454531 16.9517113,11.6813788 C16.9517113,14.2057196 17.9352679,16.5788796 19.7212054,18.3638993 C21.5072173,20.1488446 23.8817708,21.1319291 26.4074405,21.1319291 C28.9331101,21.1319291 31.3076637,20.1488446 33.0936756,18.3638993 C33.5143601,17.9433741 33.8962054,17.4835107 34.2287202,16.9970995 C34.4025298,16.7427023 34.337128,16.3957225 34.0826637,16.2219352 C33.8281994,16.0482222 33.480878,16.1135877 33.3070685,16.3679106 C33.0136161,16.797285 32.6762649,17.203458 32.3043899,17.5750521 C30.7292411,19.1494002 28.6349702,20.0164034 26.4073661,20.0164034 C24.1797619,20.0164034 22.0854911,19.1494002 20.5103423,17.5750521 C18.9351935,16.0007784 18.0677083,13.9077454 18.0677083,11.6813044 C18.0677083,10.9599048 18.1593006,10.252783 18.3360119,9.57250637 L22.4248512,15.3158912 C22.1578869,15.6613837 21.9985863,16.0938814 21.9985863,16.5631146 C21.9985863,17.6906872 22.9165179,18.6081088 24.0447173,18.6081088 C25.1729167,18.6081088 26.0908482,17.6906872 26.0908482,16.5631146 C26.0908482,16.0540226 25.9033482,15.5882101 25.5942708,15.2299271 L27.0929315,12.6597784 C27.288244,12.7218718 27.4960565,12.7555584 27.7116815,12.7555584 C28.7049851,12.7555584 29.5349702,12.0442723 29.7192708,11.1046904 L33.3578869,11.1046904 C33.6661458,11.1046904 33.9159226,10.8550524 33.9159226,10.5469647 C33.9159226,10.238877 33.6661458,9.989239 33.3578869,9.989239 L29.6258929,9.989239 C29.3334077,9.21660301 28.5857887,8.66557002 27.7116071,8.66557002 C26.5834077,8.66557002 25.6654762,9.58299161 25.6654762,10.7105642 C25.6654762,11.2190613 25.8526042,11.6844277 26.1610119,12.0426363 L24.6619792,14.6134543 C24.4671131,14.5516583 24.259747,14.5181204 24.0447173,14.5181204 C23.7900298,14.5181204 23.5462054,14.5652668 23.3210565,14.650636 L18.7877232,8.28289583 C19.1981399,7.36473061 19.7774554,6.51996209 20.5102679,5.78755671 C22.0854911,4.21335735 24.1798363,3.34635417 26.4073661,3.34635417 C28.6348958,3.34635417 30.7292411,4.21335735 32.3044643,5.78770544 C33.8795387,7.3619048 34.7470238,9.45501215 34.7470238,11.6814531 C34.7470238,12.5680139 34.6098214,13.4390327 34.3392857,14.2703414 C34.2439732,14.563259 34.4042411,14.877965 34.6973214,14.9732245 C34.9903274,15.0684097 35.3052827,14.9083796 35.4005952,14.6153877 C35.7075149,13.6723851 35.8631696,12.685285 35.8631696,11.6813788 C35.8630952,9.15703791 34.8795387,6.78380353 33.0936012,4.99893258 Z M27.7116071,9.78102141 C28.2244792,9.78102141 28.6416667,10.1979771 28.6416667,10.7105642 C28.6416667,11.2231513 28.2244792,11.6401071 27.7116071,11.6401071 C27.1987351,11.6401071 26.7815476,11.2231513 26.7815476,10.7105642 C26.7815476,10.1979771 27.1988095,9.78102141 27.7116071,9.78102141 Z M24.0447173,15.6335718 C24.5575893,15.6335718 24.9747768,16.0506019 24.9747768,16.5631146 C24.9747768,17.0757017 24.5575893,17.4926574 24.0447173,17.4926574 C23.5318452,17.4926574 23.1146577,17.0757017 23.1146577,16.5631146 C23.1146577,16.0505275 23.5318452,15.6335718 24.0447173,15.6335718 Z" id="Shape"></path>
                </g>
                <g id="admin-copy" transform="translate(50.476190, 335.051852)" fill="#5059AB" fill-rule="nonzero">
                    <path d="M34.9020205,0 L8.24956848,0 C6.49812164,0.00221980376 5.07887859,1.42067441 5.07665753,3.17114823 L5.07665753,13.3188226 L6.34582191,13.3188226 L6.34582191,3.17114823 C6.34582191,2.12054684 7.1983831,1.26845929 8.24956848,1.26845929 L34.9020205,1.26845929 C35.9532059,1.26845929 36.8057671,2.12054684 36.8057671,3.17114823 L36.8057671,22.8322672 C36.8057671,23.8828686 35.9532059,24.7349562 34.9020205,24.7349562 L26.652452,24.7349562 L26.652452,26.0034155 L34.9020205,26.0034155 C36.6534674,26.0011956 38.0727104,24.5827411 38.0749315,22.8322672 L38.0749315,3.17114823 C38.0727104,1.42067441 36.6534674,0.00221980376 34.9020205,0 Z" id="Shape"></path>
                    <polygon id="Shape" points="7.61498629 2.53691858 8.88415068 2.53691858 8.88415068 3.80537787 7.61498629 3.80537787"></polygon>
                    <polygon id="Shape" points="10.1533151 2.53691858 11.4224794 2.53691858 11.4224794 3.80537787 10.1533151 3.80537787"></polygon>
                    <polygon id="Shape" points="12.6916438 2.53691858 13.9608082 2.53691858 13.9608082 3.80537787 12.6916438 3.80537787"></polygon>
                    <polygon id="Shape" points="7.61498629 5.07383716 35.5366027 5.07383716 35.5366027 6.34229645 7.61498629 6.34229645"></polygon>
                    <polygon id="Shape" points="7.61498629 7.61075575 13.9608082 7.61075575 13.9608082 8.87921504 7.61498629 8.87921504"></polygon>
                    <polygon id="Shape" points="7.61498629 10.1476743 11.4224794 10.1476743 11.4224794 11.4161336 7.61498629 11.4161336"></polygon>
                    <path d="M18.4028835,12.0503633 L18.4028835,10.781904 C18.4028835,10.4314921 18.118908,10.1476743 17.7683014,10.1476743 L15.2299726,10.1476743 C14.8793659,10.1476743 14.5953904,10.4314921 14.5953904,10.781904 L14.5953904,11.4161336 L17.1337192,11.4161336 L17.1337192,12.0503633 L18.4028835,12.0503633 Z" id="Shape"></path>
                    <path d="M23.4795411,15.2215115 L23.4795411,8.87921504 C23.4795411,8.52880318 23.1955655,8.24498539 22.8449589,8.24498539 L20.3066301,8.24498539 C19.9560235,8.24498539 19.6720479,8.52880318 19.6720479,8.87921504 L19.6720479,13.3188226 L20.9412123,13.3188226 L20.9412123,9.51344468 L22.2103767,9.51344468 L22.2103767,15.2215115 L23.4795411,15.2215115 Z" id="Shape"></path>
                    <path d="M27.2870342,21.5638079 L26.652452,21.5638079 L26.652452,22.8322672 L35.5366027,22.8322672 L35.5366027,21.5638079 L33.6328561,21.5638079 L33.6328561,8.87921504 C33.6328561,8.52880318 33.3488806,8.24498539 32.9982739,8.24498539 L30.4599452,8.24498539 C30.1093385,8.24498539 29.825363,8.52880318 29.825363,8.87921504 L29.825363,21.5638079 L28.5561986,21.5638079 L28.5561986,13.3188226 C28.5561986,12.9684107 28.272223,12.6845929 27.9216164,12.6845929 L25.3832876,12.6845929 C25.032681,12.6845929 24.7487055,12.9684107 24.7487055,13.3188226 L24.7487055,19.0268894 L26.0178698,19.0268894 L26.0178698,13.9530522 L27.2870342,13.9530522 L27.2870342,21.5638079 Z M31.0945274,9.51344468 L32.3636917,9.51344468 L32.3636917,21.5638079 L31.0945274,21.5638079 L31.0945274,9.51344468 Z" id="Shape"></path>
                    <path d="M12.6916438,12.6845929 C5.6818903,12.6845929 0,18.3633266 0,25.3691858 C0,32.375045 5.6818903,38.0537787 12.6916438,38.0537787 C19.7013973,38.0537787 25.3832876,32.375045 25.3832876,25.3691858 C25.3753554,18.3669734 19.6977485,12.6925208 12.6916438,12.6845929 Z M12.6916438,36.7853194 C6.50319829,36.7902347 1.4360595,31.8690883 1.26424636,25.6863006 C1.09227459,19.5038301 5.87781752,14.308855 12.0570616,13.9701764 L12.0570616,25.3691858 C12.0570616,25.3826632 12.0642007,25.394555 12.0648353,25.4086666 C12.0681668,25.4644788 12.079272,25.5198154 12.0976749,25.5724564 C12.1017997,25.585141 12.0976749,25.6008382 12.106559,25.6132057 C12.1106838,25.620975 12.1149672,25.6284272 12.1202026,25.6355623 C12.1498693,25.7012051 12.1900066,25.7616154 12.2398213,25.8139393 L12.2434702,25.8180619 L20.3066301,33.8773765 C18.216951,35.756916 15.5028429,36.7932473 12.6916438,36.7853194 Z M21.2045639,32.9799416 L14.2241598,26.0034155 L24.0969895,26.0034155 C23.9603957,28.5913895 22.939353,31.0537861 21.2045639,32.9799416 Z M13.326226,24.7349562 L13.326226,13.9701764 C19.1323358,14.3009271 23.7660549,18.932072 24.0969895,24.7349562 L13.326226,24.7349562 Z" id="Shape"></path>
                </g>
                <g id="businessman-copy" transform="translate(57.142857, 425.477778)" fill="#09909F" fill-rule="nonzero">
                    <path d="M24.1855214,21.4704379 C21.7915462,21.4704379 19.8438206,23.4078368 19.8438206,25.7892848 C19.8438206,28.1707328 21.7915462,30.1081317 24.1855214,30.1081317 C26.5794966,30.1081317 28.5272222,28.1706586 28.5272222,25.7892848 C28.5272222,23.4079111 26.5794966,21.4704379 24.1855214,21.4704379 Z M24.1855214,28.9947062 C22.4086555,28.9947062 20.9630633,27.5567234 20.9630633,25.7892106 C20.9630633,24.0216978 22.4086555,22.583715 24.1855214,22.583715 C25.9623873,22.583715 27.4079794,24.0216978 27.4079794,25.7892106 C27.4079794,27.5567234 25.9623873,28.9947062 24.1855214,28.9947062 Z" id="Shape"></path>
                    <path d="M26.0047665,24.5430825 L25.1999354,24.4267822 L24.8401601,23.7014451 C24.5723805,23.1621737 23.7985877,23.1621737 23.5308827,23.7015193 L23.1711074,24.4268564 L22.3662763,24.5431567 C21.7678944,24.6297697 21.5288401,25.3618607 21.961809,25.7816403 L22.5440748,26.3462202 L22.4065664,27.1436234 C22.3045728,27.7365548 22.9305609,28.1886937 23.4658217,27.9090385 L24.1855214,27.5326766 L24.9052211,27.9090385 C25.4409296,28.1889905 26.0666938,27.7362579 25.9643272,27.1435492 L25.8268933,26.3462944 L26.4091592,25.7817145 C26.8422027,25.3617122 26.603223,24.6296955 26.0047665,24.5430825 Z M24.7280195,26.5583366 C24.1874613,26.2756384 24.087333,26.3260328 23.6430233,26.5583366 C23.7464344,25.9577607 23.666302,25.8797571 23.3077951,25.5318952 C23.7965732,25.4612392 23.9120713,25.4488447 24.1855214,24.8976241 C24.4566585,25.4442432 24.5689484,25.460497 25.0633222,25.5318952 C24.6221462,25.9598389 24.6440073,26.0708697 24.7280195,26.5583366 Z" id="Shape"></path>
                    <path d="M25.6211156,19.7977021 C25.3199102,19.7264524 25.0186301,19.9111079 24.9470034,20.2101341 C24.8753766,20.5091603 25.0609347,20.8093741 25.3616179,20.880698 C27.656584,21.4247936 29.2593819,23.443239 29.2593819,25.7892106 C29.2593819,28.5712157 26.9797857,30.8362149 24.1856706,30.8362149 C21.3870042,30.8362149 19.1119593,28.5607508 19.1119593,25.7892106 C19.1119593,23.4234969 20.7571364,21.4147741 23.0097234,20.880698 C23.3103319,20.8093741 23.4959646,20.5091603 23.4243378,20.2101341 C23.3527111,19.9111822 23.051058,19.7264524 22.7502256,19.7977021 C22.3349396,19.89619 21.931666,20.03817 21.5471945,20.2194115 L16.5077297,18.278079 L16.5077297,16.6656085 C17.5980233,15.824268 18.3532379,14.5745032 18.5399151,13.148618 C19.8691138,13.0608176 20.8390595,11.9907357 20.8390595,10.7374084 C20.8390595,10.1535317 20.6266414,9.59592838 20.248288,9.16219565 L20.248288,7.04711775 C20.2480641,3.16133564 17.0700744,0 13.1636554,0 C9.25723636,0 6.0793212,3.16133564 6.0793212,7.04711775 L6.0793212,9.21756263 C5.69686415,9.64706491 5.4888481,10.1762426 5.4888481,10.7373342 C5.4888481,11.9913294 6.45886841,13.0605949 7.78724635,13.1484696 C7.97138681,14.5687884 8.72607917,15.8780764 9.93545224,16.7495496 L9.93545224,18.2781532 L3.08778483,20.9189947 C3.0842781,20.9204049 3.08077137,20.9217408 3.07726465,20.9232252 C2.95423076,20.9735453 0.0627480256,22.1946618 0.0627480256,25.5540865 L0.0627480256,32.2678149 C0.0627480256,32.9150741 0.592189155,33.4417284 1.24294811,33.4417284 C2.00495237,33.4417284 18.9908653,33.4417284 19.7496613,33.4417284 L19.7496613,37.2510655 C19.7496613,37.7752705 20.2764164,38.1325582 20.7631053,37.9528011 L24.1854468,36.6925715 L27.6077136,37.9527269 C28.0982823,38.1335973 28.6213815,37.7719307 28.6213815,37.2510655 L28.6213815,30.082081 C29.7076461,28.9716985 30.3785501,27.4574191 30.3785501,25.789359 C30.3785501,22.9096825 28.3668827,20.4488207 25.6211156,19.7977021 Z M17.7772394,19.9611312 L16.0803567,23.344009 C16.0732686,23.3389621 15.1112317,22.6591951 14.031906,21.8966004 L16.126168,19.3250789 C17.6883028,19.9268422 17.2859992,19.7718741 17.7772394,19.9611312 Z M13.2234189,22.6912575 L14.3919797,23.5168638 L13.9444616,24.1868339 L12.5023762,24.1868339 L12.0548582,23.516938 L13.2234189,22.6912575 Z M13.2233443,21.1204979 L11.0547696,18.4576877 L11.0547696,17.367641 C12.3987413,17.9112913 13.9975102,17.9417209 15.3883377,17.3311998 L15.3883377,18.462215 C14.2617831,19.845573 13.3488404,20.9664945 13.2233443,21.1204979 Z M19.7196676,10.7373342 C19.7196676,11.3709373 19.260734,11.922232 18.5863979,12.024134 L18.5863979,9.45112815 C19.264763,9.55392073 19.7196676,10.1097428 19.7196676,10.7373342 Z M7.74150968,12.024134 C7.06806892,11.9225289 6.60816543,11.3724216 6.60816543,10.7373342 C6.60816543,10.114567 7.132533,9.61136582 7.74150968,9.47821789 L7.74150968,12.024134 Z M7.7696381,8.34594094 C7.58639298,8.3662768 7.36770753,8.41652271 7.19863853,8.47493264 L7.19863853,7.04711775 C7.19863853,3.77527081 9.87456949,1.11335124 13.16373,1.11335124 C16.4528904,1.11335124 19.1288214,3.77527081 19.1288214,7.04711775 L19.1288214,8.43522576 C18.9543058,8.3811205 18.7727767,8.34594094 18.5863233,8.33028085 C18.5863233,7.77386499 18.606916,7.89677077 16.7869248,5.95024301 C16.4530397,5.59347484 15.9130037,5.5277915 15.5027167,5.79445845 C13.5051509,7.09246524 11.0683488,7.74425182 8.81986546,7.58393993 C8.32914755,7.54638539 7.88498703,7.87331774 7.7696381,8.34594094 Z M8.86067779,12.4574956 C8.86067779,11.6526706 8.86067779,9.4071166 8.86067779,8.70241224 C11.3456041,8.85070074 13.9395373,8.11571526 16.0333516,6.77911487 C16.8722054,7.67522865 17.324424,8.14265656 17.4671552,8.31788636 C17.4671552,8.76779871 17.4671552,11.9462046 17.4671552,12.4574214 C17.4671552,14.7510689 15.5941154,16.6688742 13.2332676,16.6688742 C10.6373945,16.6688742 8.86067779,14.6711357 8.86067779,12.4574956 Z M10.3179093,19.3261922 L12.4126936,21.8983074 C11.3582134,22.6432382 10.4642219,23.2749116 10.3665558,23.3439347 L8.66974771,19.9611312 L10.3179093,19.3261922 Z M5.72230657,32.3283029 L5.72230657,26.593813 C5.72230657,26.2863259 5.47183674,26.0371745 5.16272251,26.0371745 C4.85360828,26.0371745 4.60313845,26.2863259 4.60313845,26.593813 L4.60313845,32.3283029 L1.24302272,32.3283029 C1.20937306,32.3283029 1.18206536,32.301139 1.18206536,32.2677407 L1.18206536,25.5539381 C1.18206536,22.9788541 3.36735302,22.0103773 3.4997133,21.9541939 L7.62146025,20.3647312 L9.43279653,23.9757566 C9.70393366,24.5162154 10.3965495,24.6884023 10.8912964,24.3389075 L11.1419901,24.1618223 L11.6136821,24.868011 L10.3440978,32.3283029 L5.72230657,32.3283029 Z M19.7497359,32.3283029 L16.10274,32.3283029 L15.7099866,30.0201086 C15.6585049,29.7170746 15.3702818,29.5128254 15.0648981,29.5641845 C14.760186,29.6154695 14.5550052,29.9028434 14.6065615,30.2058774 L14.9676797,32.3281545 L11.479382,32.3281545 L12.6752504,25.2999625 L13.7718113,25.2999625 L14.1645647,27.6081568 C14.2161211,27.9111908 14.5048664,28.1157369 14.8096532,28.0640809 C15.1143654,28.0127959 15.3195462,27.725422 15.2679899,27.422388 L14.833305,24.8678625 L15.3049224,24.161748 L15.5556161,24.3388333 C16.0508106,24.6886992 16.743128,24.5159186 17.0141159,23.9757566 L17.0141906,23.9756823 L18.8253776,20.3648796 L20.3527437,20.9532837 C18.857162,22.1240058 17.9925673,23.9037646 17.9925673,25.7892106 C17.9925673,27.406431 18.6290755,28.9369643 19.7497359,30.0825263 L19.7497359,32.3283029 Z M21.4250559,36.521869 L20.8689786,36.7266378 C20.8689786,36.1470658 20.8689786,31.5413645 20.8689786,30.9905151 C20.9438136,31.0379407 21.1792866,31.1813307 21.4250559,31.3035686 L21.4250559,36.521869 Z M25.8267441,36.1096597 L24.446586,35.6014858 C24.2782631,35.5395876 24.0928543,35.5395134 23.9243822,35.60156 L22.5442987,36.1097339 L22.5442987,31.7293599 C23.5960182,32.0162885 24.7298101,32.0287572 25.8267441,31.7293599 L25.8267441,36.1096597 Z M27.5020642,36.7265636 L26.9459868,36.5217948 L26.9459868,31.3035686 C27.1528837,31.2007018 27.3745536,31.0712647 27.5020642,30.9905151 L27.5020642,36.7265636 Z" id="Shape"></path>
                </g>
            </g>
        </g>
    </g>
</svg>