
<svg width="92px" height="80px" viewBox="0 0 92 80" version="1.1" xmlns="http://www.w3.org/2000/svg" xmlns:xlink="http://www.w3.org/1999/xlink">
    <!-- Generator: Sketch 51.3 (57544) - http://www.bohemiancoding.com/sketch -->
    <desc>Created with Sketch.</desc>
    <defs></defs>
    <g id="final" stroke="none" stroke-width="1" fill="none" fill-rule="evenodd">
        <g id="sponsor_influencerlist2" transform="translate(-914.000000, -405.000000)" fill="#FFFFFF" fill-rule="nonzero">
            <g id="warning" transform="translate(914.000000, 405.000000)">
                <path d="M90.793722,59.6548879 C90.0591928,57.8148879 87.9723767,56.918565 86.1323767,57.6530942 C84.2923767,58.3876233 83.3960538,60.4744395 84.130583,62.3144395 C85.0643946,64.653991 84.7582063,67.3252018 83.3113901,69.4604484 C81.8638565,71.5967713 79.5461883,72.8220628 76.9528251,72.8220628 L14.9000897,72.8220628 C12.0712108,72.8220628 9.55910314,71.346009 8.17991031,68.8731839 C6.79856502,66.3962332 6.86349776,63.4773094 8.3535426,61.064574 L39.3799103,10.830852 C40.7926457,8.54349776 43.2398206,7.17793722 45.9264574,7.17793722 C48.6130942,7.17793722 51.0600897,8.54349776 52.4730045,10.830852 L75.4195516,47.983139 C76.4606278,49.6686996 78.6712108,50.1915695 80.3564126,49.1499552 C82.0417937,48.1090583 82.5644843,45.8986547 81.5232287,44.2130942 L58.5765022,7.06080717 C55.8471749,2.64179372 51.1182063,0.00358744395 45.926278,0.00358744395 C40.7343498,0.00358744395 36.0053812,2.64197309 33.2760538,7.06080717 L2.2496861,57.2947085 C-0.626726457,61.952287 -0.751928251,67.5870852 1.91443946,72.3678924 C4.57865471,77.144574 9.43300448,79.9962332 14.9000897,79.9962332 L76.9528251,79.9962332 C81.9641256,79.9962332 86.4464574,77.6226009 89.250583,73.4844843 C92.033722,69.3772197 92.6104036,64.2071749 90.793722,59.6548879 Z" id="Shape"></path>
                <path d="M45.9280717,65.8272646 C47.9092377,65.8272646 49.515157,64.2213453 49.515157,62.2401794 C49.515157,60.2590135 47.9092377,58.6530942 45.9280717,58.6530942 L45.926278,58.6530942 C43.9451121,58.6530942 42.3400897,60.2590135 42.3400897,62.2401794 C42.3400897,64.2213453 43.9469058,65.8272646 45.9280717,65.8272646 Z" id="Shape"></path>
                <path d="M49.5135426,49.6852018 L49.5135426,23.3198206 C49.5135426,21.3386547 47.9076233,19.7327354 45.9264574,19.7327354 C43.9452915,19.7327354 42.3393722,21.3386547 42.3393722,23.3198206 L42.3393722,49.6852018 C42.3393722,51.6663677 43.9452915,53.272287 45.9264574,53.272287 C47.9076233,53.272287 49.5135426,51.6663677 49.5135426,49.6852018 Z" id="Shape"></path>
            </g>
        </g>
    </g>
</svg>