<?xml version="1.0" encoding="UTF-8"?>
<svg width="236px" height="236px" viewBox="0 0 236 236" version="1.1" xmlns="http://www.w3.org/2000/svg" xmlns:xlink="http://www.w3.org/1999/xlink">
    <!-- Generator: Sketch 51.3 (57544) - http://www.bohemiancoding.com/sketch -->
    <title>Shape</title>
    <desc>Created with Sketch.</desc>
    <defs></defs>
    <g id="final" stroke="none" stroke-width="1" fill="none" fill-rule="evenodd">
        <g id="sponsor_payment2" transform="translate(-842.000000, -218.000000)" fill-rule="nonzero">
            <g id="credit-card-(1)" transform="translate(842.000000, 218.000000)">
                <path d="M184.130829,97.9258727 L149.594849,97.9258727 L149.594849,129.333038 C149.594849,134.21051 145.603149,138.202209 140.725677,138.202209 L85.4999236,138.202209 L85.4999236,158.164139 C85.4999236,163.041611 89.4916229,167.03331 94.3690949,167.03331 L184.130829,167.03331 C189.009445,167.03331 193,163.041611 193,158.164139 L193,106.795044 C193,101.916428 189.009445,97.9258727 184.130829,97.9258727 Z" id="Shape" fill="#E4E3E1"></path>
                <path d="M149.594849,97.9258727 L149.594849,129.333038 C149.594849,134.21051 145.603149,138.202209 140.725677,138.202209 L85.4999236,138.202209 L85.4999236,158.164139 C85.4999236,163.041611 89.4916229,167.03331 94.3690949,167.03331 L100.405853,167.03331 C95.5283813,167.03331 91.5366821,163.041611 91.5366821,158.164139 L91.5366821,146.337814 C91.5366821,145.678635 92.0711213,145.144196 92.730301,145.144196 L141.630905,145.144196 C149.86264,145.144196 156.536835,138.470001 156.536835,130.238266 L156.536835,97.9258727 L149.594849,97.9258727 Z" id="Shape" fill="#D1D0CF"></path>
                <path d="M149.594849,111.621017 L149.594849,124.296493 L193,124.296493 C193,122.952957 193,112.96341 193,111.621017 L149.594849,111.621017 Z" id="Shape" fill="#525468"></path>
                <polygon id="Shape" fill="#3E4151" points="149.594849 111.621017 156.536835 111.621017 156.536835 124.296493 149.594849 124.296493"></polygon>
                <path d="M168.767136,143.443604 C169.293564,143.848724 170.038574,143.848724 170.563858,143.443604 C175.481384,139.649887 182.525223,143.152923 182.691162,149.201126 C182.863968,155.521698 175.640457,159.20784 170.632523,155.433578 C170.056885,154.999847 169.275253,154.999847 168.699616,155.433578 C163.705414,159.19754 156.467026,155.53772 156.640976,149.199982 C156.806915,143.147201 163.855331,139.65332 168.767136,143.443604 Z" id="Shape" fill="#F3A334"></path>
                <path d="M141.630905,70 L51.8691713,70 C46.9905549,70 43,73.9916992 43,78.8691713 L43,130.238266 C43,135.116882 46.9905549,139.107437 51.8691713,139.107437 L141.630905,139.107437 C146.509521,139.107437 150.500076,135.116882 150.500076,130.238266 L150.500076,78.8691713 C150.500076,73.9916992 146.508377,70 141.630905,70 Z" id="Shape" fill="#4B98D4"></path>
                <path d="M49.0367585,130.238266 L49.0367585,78.8691713 C49.0367585,73.9916992 53.0273131,70 57.9059295,70 L51.8691713,70 C46.9905549,70 43,73.9916992 43,78.8691713 L43,130.238266 C43,135.115738 46.9905549,139.107437 51.8691713,139.107437 L57.9059295,139.107437 C53.0273131,139.107437 49.0367585,135.115738 49.0367585,130.238266 Z" id="Shape" fill="#2472B2"></path>
                <path d="M66.8849641,83.4513854 C67.4651793,83.8988494 68.2880096,83.8988494 68.8682251,83.4513854 C74.2961579,79.262848 82.0724184,83.1309508 82.2555238,89.8062897 C82.4466399,96.7848968 74.4723968,100.854416 68.9437562,96.6876221 C68.3074645,96.2092592 67.4445801,96.2092592 66.8082886,96.6876221 C61.2956696,100.841828 53.3042603,96.802063 53.496521,89.8062897 C53.6807708,83.1252288 61.4616089,79.2674254 66.8849641,83.4513854 Z" id="Shape" fill="#F3A334"></path>
                <path d="M167.193573,142.514343 C162.253158,140.343399 156.785172,143.956299 156.640976,149.199982 C156.48877,154.721756 162.142151,158.528061 167.188996,156.317062 C161.198013,153.692932 161.167114,145.177383 167.193573,142.514343 Z" id="Shape" fill="#E87E04"></path>
                <path d="M64.8364715,82.2932436 C59.3970947,80.1657868 53.6521606,84.1895295 53.4976653,89.8062897 C53.334015,95.7423402 59.2734985,99.9503327 64.8227386,97.7885436 C57.7800446,95.0362396 57.7857666,85.0650024 64.8364715,82.2932436 Z" id="Shape" fill="#E87E04"></path>
                <g id="Group" transform="translate(52.082031, 115.410156)" fill="#2472B2">
                    <path d="M87.0277406,4.81224053 L82.1651458,4.81224053 C80.915451,4.81224053 79.9015046,3.79943848 79.9015046,2.54859932 C79.9015046,1.29890449 80.9143066,0.284957813 82.1651458,0.284957813 L87.0277406,0.284957813 C88.2785798,0.284957813 89.2913818,1.29776016 89.2913818,2.54859932 C89.2913818,3.79829414 88.2785798,4.81224053 87.0277406,4.81224053 Z" id="Shape"></path>
                    <path d="M73.7182617,4.81224053 L68.8556672,4.81224053 C67.6059724,4.81224053 66.5920257,3.79943848 66.5920257,2.54859932 C66.5920257,1.29890449 67.6048277,0.284957813 68.8556672,0.284957813 L73.7182617,0.284957813 C74.9691009,0.284957813 75.9819029,1.29776016 75.9819029,2.54859932 C75.9819029,3.79829414 74.9691009,4.81224053 73.7182617,4.81224053 Z" id="Shape"></path>
                    <path d="M60.4087828,4.81224053 L55.5461883,4.81224053 C54.2953491,4.81224053 53.2825471,3.79943848 53.2825471,2.54859932 C53.2825471,1.29890449 54.2953491,0.284957813 55.5461883,0.284957813 L60.4087828,0.284957813 C61.6596223,0.284957813 62.6724243,1.29776016 62.6724243,2.54859932 C62.6724243,3.79829414 61.6596223,4.81224053 60.4087828,4.81224053 Z" id="Shape"></path>
                    <path d="M47.0993042,4.81224053 L42.2367097,4.81224053 C40.9858705,4.81224053 39.9730682,3.79943848 39.9730682,2.54859932 C39.9730682,1.29890449 40.9858705,0.284957813 42.2367097,0.284957813 L47.0993042,0.284957813 C48.348999,0.284957813 49.3629457,1.29776016 49.3629457,2.54859932 C49.3629457,3.79829414 48.3501434,4.81224053 47.0993042,4.81224053 Z" id="Shape"></path>
                    <path d="M33.7898256,4.81224053 L28.9272308,4.81224053 C27.6763916,4.81224053 26.6635896,3.79943848 26.6635896,2.54859932 C26.6635896,1.29890449 27.6763916,0.284957813 28.9272308,0.284957813 L33.7898256,0.284957813 C35.0395201,0.284957813 36.0534668,1.29776016 36.0534668,2.54859932 C36.0534668,3.79829414 35.0406647,4.81224053 33.7898256,4.81224053 Z" id="Shape"></path>
                    <path d="M20.4803467,4.81224053 L15.6177521,4.81224053 C14.3669127,4.81224053 13.3529663,3.79943848 13.3529663,2.54859932 C13.3529663,1.29890449 14.3669127,0.284957813 15.6177521,0.284957813 L20.4803467,0.284957813 C21.7300415,0.284957813 22.7439879,1.29776016 22.7439879,2.54859932 C22.7439879,3.79829414 21.7311858,4.81224053 20.4803467,4.81224053 Z" id="Shape"></path>
                    <path d="M7.17086777,4.81224053 L2.30827324,4.81224053 C1.05743408,4.81224053 0.0434876953,3.79943848 0.0434876953,2.54859932 C0.0434876953,1.29890449 1.05743408,0.284957813 2.30827324,0.284957813 L7.17086777,0.284957813 C8.42056289,0.284957813 9.43450928,1.29776016 9.43450928,2.54859932 C9.43450928,3.79829414 8.42056289,4.81224053 7.17086777,4.81224053 Z" id="Shape"></path>
                </g>
                <path d="M125.806015,82.1559145 L139.031952,82.1559145 C139.569824,82.1559145 140.005844,82.5919343 140.005844,83.1298064 L140.005844,96.9519807 C140.005844,97.4898528 139.569824,97.9258727 139.031952,97.9258727 L125.806015,97.9258727 C125.268143,97.9258727 124.832123,97.4898528 124.832123,96.9519807 L124.832123,83.1298064 C124.832123,82.5919343 125.268143,82.1559145 125.806015,82.1559145 Z" id="Shape" fill="#FFC964"></path>
                <path d="M130.868881,96.9519807 L130.868881,83.1298064 C130.868881,82.5919343 131.304901,82.1559145 131.842773,82.1559145 L125.806015,82.1559145 C125.268143,82.1559145 124.832123,82.5919343 124.832123,83.1298064 L124.832123,96.9519807 C124.832123,97.4898528 125.268143,97.9258727 125.806015,97.9258727 L131.842773,97.9258727 C131.304901,97.9258727 130.868881,97.4898528 130.868881,96.9519807 Z" id="Shape" fill="#F3A334"></path>
                <path d="M124.832123,90.0408936 L124.832123,96.9519807 C124.832123,97.4898528 125.268143,97.9258727 125.806015,97.9258727 L139.031952,97.9258727 C139.569824,97.9258727 140.005844,97.4898528 140.005844,96.9519807 L140.005844,90.0408936 L124.832123,90.0408936 Z" id="Shape" fill="#F3A334"></path>
                <path d="M130.868881,96.9519807 L130.868881,90.0408936 L124.832123,90.0408936 L124.832123,96.9519807 C124.832123,97.1831512 124.916809,97.3937225 125.051849,97.5608063 C125.191467,97.7336119 125.384872,97.8594971 125.610321,97.9064178 C125.673263,97.9190063 125.738495,97.9258727 125.806015,97.9258727 L131.842773,97.9258727 C131.304901,97.9258727 130.868881,97.4898528 130.868881,96.9519807 Z" id="Shape" fill="#E87E04"></path>
            </g>
        </g>
    </g>
</svg>