
<svg width="63px" height="60px" viewBox="0 0 63 60" version="1.1" xmlns="http://www.w3.org/2000/svg" xmlns:xlink="http://www.w3.org/1999/xlink">
    <!-- Generator: Sketch 51.3 (57544) - http://www.bohemiancoding.com/sketch -->
    <desc>Created with Sketch.</desc>
    <defs></defs>
    <g id="final" stroke="none" stroke-width="1" fill="none" fill-rule="evenodd">
        <g id="sponsor_list2" transform="translate(-928.000000, -393.000000)" fill="#FFFFFF" fill-rule="nonzero">
            <g id="Group-2" transform="translate(655.000000, 393.000000)">
                <g id="check-(1)" transform="translate(273.000000, 0.000000)">
                    <path d="M57.4653844,24.9267855 C56.0654757,24.9267855 54.9307689,26.0616149 54.9307689,27.4614013 L54.9307689,30.0142773 C54.9269698,36.6734955 52.3300979,42.9327048 47.6185954,47.6386929 C42.9105243,52.3412495 36.6542568,54.9305234 30.0004314,54.9305234 C29.9955293,54.9305234 29.9906273,54.9305234 29.9857252,54.9305234 C16.2388488,54.92268 5.06139275,43.7326002 5.06923606,29.9856002 C5.07303517,23.3265045 7.66990702,17.0672952 12.3815321,12.361062 C17.0896032,7.6585054 23.3459932,5.06923154 29.9996961,5.06923154 C30.0045982,5.06923154 30.0095002,5.06923154 30.0144023,5.06923154 C33.5282064,5.07119237 36.9373514,5.79743417 40.1469821,7.22749081 C41.4259323,7.79735656 42.9238825,7.22246619 43.4937482,5.94388354 C44.0633687,4.6653009 43.4888461,3.16698292 42.210141,2.59711717 C38.3477996,0.876122625 34.2456245,0.00232848369 30.017221,0 C30.0108483,0 30.0059462,0 29.9995735,0 C21.9933894,0 14.4640542,3.11624648 8.79897642,8.77470695 C3.12948676,14.4375793 0.00466190889,21.9694887 4.94190091e-06,29.982904 C-0.00452947333,37.9960743 3.11147165,45.5315377 8.77458862,51.2010278 C14.4377056,56.8705179 21.9694918,59.995343 29.9827839,60 C29.9890341,60 29.9940587,60 30.0004314,60 C38.0066155,60 45.5359507,56.8838761 51.2010285,51.2252931 C56.8705182,45.5622982 59.995343,38.0303888 60,30.0157479 L60,27.4615238 C60,26.0616149 58.8652932,24.9267855 57.4653844,24.9267855 Z" id="Shape"></path>
                    <path d="M61.8699973,3.3551407 C60.8850663,2.35988064 59.2882268,2.35988064 58.3032957,3.3551407 L30.0249086,31.9334987 L23.6096258,25.450136 C22.6248167,24.4547527 21.0278553,24.4547527 20.0430461,25.450136 C19.0581151,26.4455193 19.0581151,28.0593047 20.0430461,29.054688 L28.2417407,37.3403882 C28.7341453,37.8381415 29.3797099,38.0869565 30.0251525,38.0869565 C30.6705952,38.0869565 31.3160378,37.8381415 31.8085643,37.3403882 L61.8699973,6.95969267 C62.8549284,5.96430937 62.8549284,4.35052401 61.8699973,3.3551407 Z" id="Shape"></path>
                </g>
            </g>
        </g>
    </g>
</svg>