<svg width="131px" height="125px" viewBox="0 0 131 125" version="1.1" xmlns="http://www.w3.org/2000/svg" xmlns:xlink="http://www.w3.org/1999/xlink">
    <!-- Generator: Sketch 51.2 (57519) - http://www.bohemiancoding.com/sketch -->
    <desc>Created with Sketch.</desc>
    <defs></defs>
    <g id="final" stroke="none" stroke-width="1" fill="none" fill-rule="evenodd">
        <g id="sponsor_signup2" transform="translate(-895.000000, -445.000000)" fill="#092056" fill-rule="nonzero">
            <g id="check-(1)" transform="translate(895.000000, 445.000000)">
                <path d="M119.719551,51.9308032 C116.803074,51.9308032 114.439102,54.2950311 114.439102,57.2112527 L114.439102,62.5297443 C114.431187,76.4031157 109.021037,89.443135 99.2054071,99.2472768 C89.3969257,109.04427 76.363035,114.43859 62.5008988,114.43859 C62.4906861,114.43859 62.4804735,114.43859 62.4702608,114.43859 C33.8309351,114.42225 10.5445682,91.1095838 10.5609085,62.4700003 C10.5688233,48.5968843 15.978973,35.556865 25.7948585,25.7522126 C35.60334,15.9552196 48.6374859,10.560899 62.4993669,10.560899 C62.5095795,10.560899 62.5197922,10.560899 62.5300048,10.560899 C69.8504301,10.5649841 76.9528154,12.0779879 83.639546,15.0572725 C86.3040255,16.2444928 89.4247551,15.0468046 90.6119753,12.3830907 C91.7986849,9.71937687 90.6017627,6.59788108 87.9377937,5.41066078 C79.8912492,1.82525547 71.345051,0.00485100768 62.5358771,0 C62.5226006,0 62.512388,0 62.4991115,0 C45.8195613,0 30.1334463,6.49218018 18.3312009,18.2806395 C6.51976408,30.0782902 0.00971231019,45.7697681 1.02956269e-05,62.4643834 C-0.00943640277,79.158488 6.48223261,94.8573702 18.2803929,106.668808 C30.0785533,118.480246 45.7697746,124.990298 62.4641332,125 C62.4771544,125 62.4876223,125 62.5008988,125 C79.180449,125 94.866564,118.508075 106.668809,106.719361 C118.480246,94.9214545 124.990298,79.2299766 125,62.5328081 L125,57.211508 C125,54.2950311 122.636028,51.9308032 119.719551,51.9308032 Z" id="Shape"></path>
                <path d="M129.447695,7.53588387 C127.377956,5.48803871 124.022348,5.48803871 121.952608,7.53588387 L62.5282468,66.3386572 L49.0471354,52.9985029 C46.977652,50.9504042 43.6217882,50.9504042 41.5523048,52.9985029 C39.4825651,55.0466016 39.4825651,58.3671232 41.5523048,60.4152219 L58.7810877,77.4638626 C59.8158294,78.4880387 61.1724225,79 62.5287593,79 C63.885096,79 65.2414328,78.4880387 66.2764308,77.4638626 L129.447695,14.9526029 C131.517435,12.9045042 131.517435,9.5839826 129.447695,7.53588387 Z" id="Shape"></path>
            </g>
        </g>
    </g>
</svg>