<?xml version="1.0" encoding="UTF-8"?>
<svg width="236px" height="236px" viewBox="0 0 236 236" version="1.1" xmlns="http://www.w3.org/2000/svg" xmlns:xlink="http://www.w3.org/1999/xlink">
    <!-- Generator: Sketch 51.3 (57544) - http://www.bohemiancoding.com/sketch -->
    <title>credit-card (2)</title>
    <desc>Created with Sketch.</desc>
    <defs></defs>
    <g id="final" stroke="none" stroke-width="1" fill="none" fill-rule="evenodd">
        <g id="sponsor_payment4" transform="translate(-841.000000, -239.000000)" fill-rule="nonzero">
            <g id="credit-card-(2)" transform="translate(841.000000, 239.000000)">
                <path d="M165.408081,110.518722 L165.408081,130.805664 C165.408081,136.356048 160.867065,140.897064 155.316681,140.897064 C152.027649,140.897064 73.0267944,140.897064 66.2541811,140.897064 L66.2541811,163.485413 C66.2541811,169.034653 70.7951967,173.576813 76.3455811,173.576813 L178.47609,173.576813 C184.026474,173.576813 188.56749,169.034653 188.56749,163.485413 L188.56749,105.038147 C188.56749,103.450851 187.893433,101.644974 187.233109,100.306015 C182.155365,106.362228 173.931641,110.518722 165.408081,110.518722 Z" id="Shape" fill="#E4E3E1"></path>
                <path d="M165.408081,110.518722 L165.408081,130.805664 C165.408081,136.356048 160.867065,140.897064 155.316681,140.897064 L72.2897949,140.897064 C69.2628327,140.897064 67.1399536,140.897064 66.2541811,140.897064 L66.2541811,163.485413 C66.2541811,169.035797 70.7951967,173.576813 76.3455811,173.576813 L82.3823396,173.576813 C76.8319549,173.576813 72.2897949,169.035797 72.2897949,163.485413 L72.2897949,149.166565 C72.2897949,148.432999 72.8837434,147.83905 73.6173096,147.83905 L156.223053,147.83905 C165.12999,147.83905 172.351212,140.618973 172.351212,131.710892 L172.351212,109.611206 C170.100159,110.198288 167.765564,110.518722 165.408081,110.518722 Z" id="Shape" fill="#D1D0CF"></path>
                <path d="M160.996384,146.73584 C161.593765,147.197037 162.441772,147.197037 163.040299,146.73584 C168.635315,142.420273 176.649613,146.40625 176.83844,153.286438 C177.035278,160.47905 168.816131,164.673309 163.118118,160.379486 C162.462372,159.885101 161.573166,159.885101 160.918564,160.379486 C155.235428,164.660721 147.000259,160.49736 147.198242,153.286438 C147.38707,146.399383 155.407089,142.423706 160.996384,146.73584 Z" id="Shape" fill="#F3A334"></path>
                <path d="M158.793396,145.506745 C153.218979,143.398743 147.356171,147.520905 147.197098,153.286438 C147.031159,159.358673 153.067917,163.69484 158.77623,161.550217 C151.398224,158.76358 151.402801,148.311691 158.793396,145.506745 Z" id="Shape" fill="#E87E04"></path>
                <polygon id="Shape" fill="#525468" points="165.408081 110.527878 188.56749 110.527878 188.56749 124.950867 165.408081 124.950867"></polygon>
                <polygon id="Shape" fill="#3E4151" points="165.408081 110.527878 172.351212 110.527878 172.351212 124.950867 165.408081 124.950867"></polygon>
                <path d="M139.534134,82.8320312 C139.534134,75.1438902 142.669815,68.1893157 147.729248,63.1722259 L54.0914,63.1722259 C48.5410156,63.1722259 44,67.7132415 44,73.2636262 L44,131.710892 C44,137.261276 48.5410156,141.802292 54.0914,141.802292 L156.223053,141.802292 C161.772293,141.802292 166.314453,137.261276 166.314453,131.712036 L166.314453,109.61235 C151.024002,109.61235 139.534134,98.1224822 139.534134,82.8320312 Z" id="Shape" fill="#4B98D4"></path>
                <path d="M50.0367585,131.710892 L50.0367585,73.2636262 C50.0367585,67.7132415 54.5777741,63.1722259 60.1281585,63.1722259 L54.0914,63.1722259 C48.5410156,63.1722259 44,67.7132415 44,73.2636262 L44,131.710892 C44,137.261276 48.5410156,141.802292 54.0914,141.802292 L60.1281585,141.802292 C54.5777741,141.802292 50.0367585,137.261276 50.0367585,131.710892 Z" id="Shape" fill="#2472B2"></path>
                <path d="M71.1762849,78.4764098 C71.8366089,78.9856721 72.7727357,78.9856721 73.4330598,78.4764098 C75.1462402,77.1546174 77.324051,76.4061736 79.6803893,76.5229035 C84.5761719,76.762085 88.5301057,80.8087158 88.6651458,85.7079314 C88.8116302,91.0569001 84.5200959,95.4388428 79.204315,95.4388428 C77.069992,95.4388428 75.1016082,94.7304534 73.5188902,93.5379792 C72.7956236,92.9932404 71.8137207,92.9932404 71.0904541,93.5379792 C69.5065918,94.7304534 67.538208,95.4388428 65.403885,95.4388428 C60.0881041,95.4388428 55.7965698,91.0569001 55.9441985,85.7079314 C56.1524812,78.1056215 65.0056306,73.7168122 71.1762849,78.4764098 Z" id="Shape" fill="#F3A334"></path>
                <path d="M68.4285582,77.0069887 C62.2979583,74.9378969 56.1147154,79.5155336 55.9441985,85.7079314 C55.7965698,91.0569001 60.0881041,95.4388428 65.403885,95.4388428 C66.4601744,95.4388428 67.4752654,95.2637482 68.4239809,94.944458 C59.8821107,92.0719908 59.838623,79.9240876 68.4285582,77.0069887 Z" id="Shape" fill="#E87E04"></path>
                <g id="Group" transform="translate(54.546875, 115.351562)" fill="#2472B2">
                    <path d="M98.8071442,4.65202324 L93.2739258,4.65202324 C92.024231,4.65202324 91.0102846,3.63807686 91.0102846,2.38838203 C91.0102846,1.13754258 92.024231,0.124740527 93.2739258,0.124740527 L98.8071442,0.124740527 C100.057983,0.124740527 101.070785,1.13754258 101.070785,2.38838203 C101.070785,3.63807686 100.057983,4.65202324 98.8071442,4.65202324 Z" id="Shape"></path>
                    <path d="M83.664322,4.65202324 L78.1311035,4.65202324 C76.8802644,4.65202324 75.8674623,3.63807686 75.8674623,2.38838203 C75.8674623,1.13754258 76.8802644,0.124740527 78.1311035,0.124740527 L83.664322,0.124740527 C84.9140168,0.124740527 85.9279632,1.13754258 85.9279632,2.38838203 C85.9279632,3.63807686 84.9140168,4.65202324 83.664322,4.65202324 Z" id="Shape"></path>
                    <path d="M68.5203551,4.65202324 L62.9871369,4.65202324 C61.7374421,4.65202324 60.7234954,3.63807686 60.7234954,2.38838203 C60.7234954,1.13754258 61.7362975,0.124740527 62.9871369,0.124740527 L68.5203551,0.124740527 C69.7700502,0.124740527 70.7839966,1.13754258 70.7839966,2.38838203 C70.7839966,3.63807686 69.7711945,4.65202324 68.5203551,4.65202324 Z" id="Shape"></path>
                    <path d="M53.3763885,4.65202324 L47.8431703,4.65202324 C46.5934752,4.65202324 45.5795288,3.63807686 45.5795288,2.38838203 C45.5795288,1.13754258 46.5934752,0.124740527 47.8431703,0.124740527 L53.3763885,0.124740527 C54.6272279,0.124740527 55.6411743,1.13754258 55.6411743,2.38838203 C55.6411743,3.63807686 54.6272279,4.65202324 53.3763885,4.65202324 Z" id="Shape"></path>
                    <path d="M38.2335662,4.65202324 L32.6992034,4.65202324 C31.4495086,4.65202324 30.4355622,3.63807686 30.4355622,2.38838203 C30.4355622,1.13754258 31.4495086,0.124740527 32.6992034,0.124740527 L38.2335662,0.124740527 C39.483261,0.124740527 40.4972077,1.13754258 40.4972077,2.38838203 C40.4972077,3.63807686 39.483261,4.65202324 38.2335662,4.65202324 Z" id="Shape"></path>
                    <path d="M23.0895996,4.65202324 L17.5563812,4.65202324 C16.3066863,4.65202324 15.2927399,3.63807686 15.2927399,2.38838203 C15.2927399,1.13754258 16.305542,0.124740527 17.5563812,0.124740527 L23.0895996,0.124740527 C24.3392944,0.124740527 25.3532408,1.13754258 25.3532408,2.38838203 C25.3532408,3.63807686 24.3392944,4.65202324 23.0895996,4.65202324 Z" id="Shape"></path>
                    <path d="M7.94563301,4.65202324 L2.41241455,4.65202324 C1.16271973,4.65202324 0.148773047,3.63807686 0.148773047,2.38838203 C0.148773047,1.13754258 1.16271973,0.124740527 2.41241455,0.124740527 L7.94563301,0.124740527 C9.19532783,0.124740527 10.2092742,1.13754258 10.2092742,2.38838203 C10.2092742,3.63807686 9.19647217,4.65202324 7.94563301,4.65202324 Z" id="Shape"></path>
                </g>
                <path d="M194,82.8320312 C194,98.1224822 181.604904,110.518722 166.314453,110.518722 C151.024002,110.518722 138.627762,98.1224822 138.627762,82.8320312 C138.627762,67.5415803 151.024002,55.1464844 166.314453,55.1464844 C181.604904,55.1464844 194,67.5415803 194,82.8320312 Z" id="Shape" fill="#9AD14B"></path>
                <path d="M144.66452,82.8320312 C144.66452,68.5612486 155.462021,56.8150328 169.33226,55.3112793 C168.341202,55.2037047 167.334122,55.1464844 166.314453,55.1464844 C151.024002,55.1464844 138.627762,67.5415803 138.627762,82.8320312 C138.627762,98.1224822 151.024002,110.518722 166.314453,110.518722 C167.334122,110.518722 168.341202,110.461502 169.33226,110.353928 C155.462021,108.850174 144.66452,97.1028139 144.66452,82.8320312 Z" id="Shape" fill="#7FBB37"></path>
                <path d="M162.754196,91.9049072 L154.696411,83.8459779 C153.811783,82.9624938 153.811783,81.5285491 154.696411,80.6450652 C155.579895,79.7615813 157.01384,79.7615813 157.897324,80.6450652 L164.355225,87.1029663 L174.730438,76.7277525 C175.613922,75.8431243 177.047867,75.8431243 177.931351,76.7277525 C178.815979,77.6112367 178.815979,79.0451813 177.931351,79.9286652 L165.956253,91.9049072 C165.071625,92.7883911 163.638825,92.7883911 162.754196,91.9049072 Z" id="Shape" fill="#E4E3E1"></path>
            </g>
        </g>
    </g>
</svg>