<?xml version="1.0" encoding="utf-8"?>
<!-- Generator: Adobe Illustrator 16.0.0, SVG Export Plug-In . SVG Version: 6.00 Build 0)  -->
<!DOCTYPE svg PUBLIC "-//W3C//DTD SVG 1.1//EN" "http://www.w3.org/Graphics/SVG/1.1/DTD/svg11.dtd">
<svg version="1.1" id="Layer_1" xmlns="http://www.w3.org/2000/svg" xmlns:xlink="http://www.w3.org/1999/xlink" x="0px" y="0px"
	 width="33px" height="33px" viewBox="0 0 33 33" enable-background="new 0 0 33 33" xml:space="preserve">
<desc>Created with Sketch.</desc>
<g id="final" opacity="0.7">
	<g id="sponsor_signup2" transform="translate(-1360.000000, -359.000000)">
		<g id="Close" transform="translate(1360.000000, 359.000000)">
			<path id="Shape" fill="#FF0000" d="M19.721,16.5L32.334,3.887c0.889-0.889,0.889-2.332,0-3.221c-0.889-0.889-2.332-0.889-3.221,0
				L16.5,13.279L3.887,0.667c-0.889-0.889-2.332-0.889-3.221,0c-0.889,0.889-0.889,2.332,0,3.221L13.279,16.5L0.667,29.113
				c-0.889,0.889-0.889,2.331,0,3.221c0.889,0.889,2.332,0.889,3.221,0L16.5,19.721l12.613,12.613c0.889,0.889,2.332,0.889,3.221,0
				c0.889-0.89,0.889-2.332,0-3.221L19.721,16.5z"/>
		</g>
	</g>
</g>
</svg>
