<?xml version="1.0" encoding="UTF-8"?>
<svg width="14px" height="13px" viewBox="0 0 14 13" version="1.1" xmlns="http://www.w3.org/2000/svg" xmlns:xlink="http://www.w3.org/1999/xlink">
    <!-- Generator: Sketch 51.3 (57544) - http://www.bohemiancoding.com/sketch -->
    <title>line-menu</title>
    <desc>Created with Sketch.</desc>
    <defs></defs>
    <g id="mobile_0917" stroke="none" stroke-width="1" fill="none" fill-rule="evenodd">
        <g id="m_login" transform="translate(-285.000000, -17.000000)" fill="#000000" fill-rule="nonzero">
            <g id="line-menu" transform="translate(285.000000, 17.000000)">
                <path d="M1.15566038,2.34433962 C0.495283019,2.34433962 0,1.8490566 0,1.18867925 C0,0.528301887 0.495283019,0 1.15566038,0 L12.8113208,0 C13.4716981,0 14,0.528301887 14,1.18867925 C14,1.8490566 13.4716981,2.34433962 12.8113208,2.34433962 L1.15566038,2.34433962 Z" id="Shape"></path>
                <path d="M12.8113208,5.21698113 C13.4716981,5.21698113 14,5.74528302 14,6.40566038 C14,7.06603774 13.4716981,7.56132075 12.8113208,7.56132075 L1.15566038,7.56132075 C0.495283019,7.56132075 0,7.06603774 0,6.40566038 C0,5.74528302 0.495283019,5.21698113 1.15566038,5.21698113 L12.8113208,5.21698113 Z" id="Shape"></path>
                <path d="M12.8113208,10.4669811 C13.4716981,10.4669811 14,10.9622642 14,11.6226415 C14,12.2830189 13.4716981,12.8113208 12.8113208,12.8113208 L1.15566038,12.8113208 C0.495283019,12.8113208 0,12.2830189 0,11.6226415 C0,10.9622642 0.495283019,10.4669811 1.15566038,10.4669811 L12.8113208,10.4669811 Z" id="Shape"></path>
            </g>
        </g>
    </g>
</svg>