
<svg width="43px" height="36px" viewBox="0 0 43 36" version="1.1" xmlns="http://www.w3.org/2000/svg" xmlns:xlink="http://www.w3.org/1999/xlink">
    <!-- Generator: Sketch 51.3 (57544) - http://www.bohemiancoding.com/sketch -->
    <desc>Created with Sketch.</desc>
    <defs>
        <radialGradient cx="9.37149226%" cy="116.627044%" fx="9.37149226%" fy="116.627044%" r="125.812231%" gradientTransform="translate(0.093715,1.166270),scale(0.844794,1.000000),rotate(-58.323232),translate(-0.093715,-1.166270)" id="radialGradient-1">
            <stop stop-color="#FFD944" offset="0%"></stop>
            <stop stop-color="#FF5C44" offset="55.6832551%"></stop>
            <stop stop-color="#852EF6" offset="100%"></stop>
        </radialGradient>
    </defs>
    <g id="final" stroke="none" stroke-width="1" fill="none" fill-rule="evenodd">
        <g id="influencer_signup" transform="translate(-547.000000, -918.000000)">
            <g id="Group-32" transform="translate(547.000000, 889.000000)">
                <path d="M0,32.9901786 C0,30.7864638 1.79030937,29 4.00901729,29 L42.6139535,29 L42.6139535,65 L4.00901729,65 C1.79489818,65 0,63.2147544 0,61.0098214 L0,32.9901786 Z" id="Base" fill="url(#radialGradient-1)"></path>
                <g id="instagram" transform="translate(13.000000, 39.000000)" fill="#FFFFFF" fill-rule="nonzero">
                    <path d="M11.9884878,0 L3.99629268,0 C1.79863415,0 0.000195121951,1.79843902 0.000195121951,3.99609756 L0.000195121951,11.9886829 C0.000195121951,14.1857561 1.79863415,15.9847805 3.99629268,15.9847805 L11.9884878,15.9847805 C14.1861463,15.9847805 15.9845854,14.1857561 15.9845854,11.9886829 L15.9845854,3.99609756 C15.9845854,1.79843902 14.1861463,0 11.9884878,0 Z M14.6524878,11.9886829 C14.6524878,13.4572488 13.4578732,14.6526829 11.9884878,14.6526829 L3.99629268,14.6526829 C2.52753171,14.6526829 1.33229268,13.4572488 1.33229268,11.9886829 L1.33229268,3.99609756 C1.33229268,2.52714146 2.52753171,1.33209756 3.99629268,1.33209756 L11.9884878,1.33209756 C13.4578732,1.33209756 14.6524878,2.52714146 14.6524878,3.99609756 L14.6524878,11.9886829 Z" id="Shape"></path>
                    <circle id="Oval" cx="12.3221463" cy="3.66302439" r="1"></circle>
                    <path d="M7.99239024,3.99609756 C5.78493659,3.99609756 3.99629268,5.78493659 3.99629268,7.99219512 C3.99629268,10.1986341 5.78493659,11.9886829 7.99239024,11.9886829 C10.1992195,11.9886829 11.9884878,10.1986341 11.9884878,7.99219512 C11.9884878,5.78493659 10.1992195,3.99609756 7.99239024,3.99609756 Z M7.99239024,10.6565854 C6.52120976,10.6565854 5.32839024,9.46376585 5.32839024,7.99219512 C5.32839024,6.52062439 6.52120976,5.32819512 7.99239024,5.32819512 C9.46357073,5.32819512 10.6563902,6.52062439 10.6563902,7.99219512 C10.6563902,9.46376585 9.46357073,10.6565854 7.99239024,10.6565854 Z" id="Shape"></path>
                </g>
            </g>
        </g>
    </g>
</svg>