
<svg width="43px" height="36px" viewBox="0 0 43 36" version="1.1" xmlns="http://www.w3.org/2000/svg" xmlns:xlink="http://www.w3.org/1999/xlink">
    <!-- Generator: Sketch 51.3 (57544) - http://www.bohemiancoding.com/sketch -->
    <desc>Created with Sketch.</desc>
    <defs></defs>
    <g id="final" stroke="none" stroke-width="1" fill="none" fill-rule="evenodd">
        <g id="sponsor_mypage" transform="translate(-1015.000000, -1069.000000)">
            <g id="Group-8" transform="translate(375.000000, 542.000000)">
                <g id="Group-2" transform="translate(640.000000, 452.000000)">
                    <g id="Facebook" transform="translate(0.000000, 75.000000)">
                        <g id="Base">
                            <path d="M0,3.99017859 C0,1.7864638 1.79030937,0 4.00901729,0 L42.6139535,0 L42.6139535,36 L4.00901729,36 C1.79489818,36 0,34.2147544 0,32.0098214 L0,3.99017859 Z" fill="#0054A8"></path>
                            <path d="M17.755814,18 L17.755814,16 L19.8255814,16 L19.8255814,14 C19.8255814,13.25 19.3650581,11 21.7804767,11 L25,11 L25,14 L23.8730116,14 C22.8319186,14 22.9302326,14.325 22.9302326,15 L22.9302326,16 L25,16 L25,18 L22.9302326,18 L22.9302326,26 L19.8255814,26 L19.8255814,18 L17.755814,18 Z" id="Facebook-Icon" fill="#FFFFFF"></path>
                        </g>
                    </g>
                </g>
            </g>
        </g>
    </g>
</svg>