
<svg width="43px" height="36px" viewBox="0 0 43 36" version="1.1" xmlns="http://www.w3.org/2000/svg" xmlns:xlink="http://www.w3.org/1999/xlink">
    <!-- Generator: Sketch 51.3 (57544) - http://www.bohemiancoding.com/sketch -->
    <desc>Created with Sketch.</desc>
    <defs></defs>
    <g id="final" stroke="none" stroke-width="1" fill="none" fill-rule="evenodd">
        <g id="sponsor_mypage" transform="translate(-1367.000000, -941.000000)">
            <g id="Group-8" transform="translate(375.000000, 542.000000)">
                <g id="Group-3" transform="translate(640.000000, 373.000000)">
                    <path d="M352,29.9901786 C352,27.7864638 353.790309,26 356.009017,26 L394.613953,26 L394.613953,62 L356.009017,62 C353.794898,62 352,60.2147544 352,58.0098214 L352,29.9901786 Z" id="Base" fill="#092056" transform="translate(373.306977, 44.000000) scale(-1, 1) translate(-373.306977, -44.000000) "></path>
                    <g id="paper-clip" transform="translate(369.000000, 34.000000)" fill="#FFFFFF" fill-rule="nonzero">
                        <path d="M8.49497475,5.78580808 C8.14939394,5.78580808 7.87065657,6.05335859 7.87065657,6.39919192 L7.87065657,15.462601 C7.87065657,16.3880051 7.53626263,17.1459848 6.88957071,17.7926768 C6.24287879,18.4393687 5.47373737,18.7737626 4.53739899,18.7737626 C3.62315657,18.7737626 2.84282828,18.4505303 2.19616162,17.8038636 C1.54949495,17.1572222 1.22626263,16.3768687 1.22626263,15.4626263 L1.22626263,12.0401515 L1.22626263,10.2119192 L1.22626263,5.70780303 L1.22626263,3.54517677 L1.22626263,3.52280303 L1.22626263,3.50045455 C1.22626263,2.88732323 1.4519697,2.35505051 1.88411616,1.91742424 C2.32174242,1.47434343 2.85376263,1.23744949 3.48949495,1.23744949 C4.125,1.23744949 4.65727273,1.47434343 5.09462121,1.91742424 C5.52676768,2.35505051 5.7525,2.88732323 5.7525,3.50045455 L5.7525,3.52280303 L5.7525,3.56729798 L5.7525,13.6790909 C5.7525,14.3143434 5.26207071,14.805 4.62659091,14.805 C4.01343434,14.805 3.51161616,14.2922222 3.51161616,13.6790909 L3.51161616,8.38343434 C3.51161616,8.03785354 3.2440404,7.77030303 2.89848485,7.77030303 C2.55292929,7.77030303 2.28535354,8.03785354 2.28535354,8.38343434 L2.28535354,13.6790909 C2.28535354,14.3366919 2.50843434,14.8941667 2.96532828,15.3513131 C3.42244949,15.8084343 3.96876263,16.0312879 4.62661616,16.0312879 C5.28421717,16.0312879 5.83621212,15.8027273 6.29881313,15.3513131 C6.7504798,14.9106061 6.97881313,14.3590657 6.97881313,13.6790909 L6.97881313,3.52280303 L6.97881313,3.50045455 C6.97881313,2.54174242 6.63037879,1.71954545 5.95325758,1.03671717 C5.27040404,0.348181818 4.44820707,0 3.48949495,0 C2.53055556,0 1.70835859,0.348181818 1.0255303,1.03671717 C0.348434343,1.71954545 0,2.54174242 0,3.50045455 L0,3.52280303 L0,5.70780303 L0,10.2119192 L0,12.0401515 L0,15.4625758 C0,16.722399 0.445934343,17.7926515 1.32664141,18.6733333 C2.20734848,19.5540152 3.27757576,20 4.53739899,20 C5.79722222,20 6.88957071,19.5764394 7.78146465,18.6845202 C8.67333333,17.7926515 9.10810606,16.7002778 9.10810606,15.4625758 L9.10810606,6.39919192 C9.10810606,6.05335859 8.8405303,5.78580808 8.49497475,5.78580808 Z" id="Shape"></path>
                    </g>
                </g>
            </g>
        </g>
    </g>
</svg>