
<svg width="20px" height="20px" viewBox="0 0 20 20" version="1.1" xmlns="http://www.w3.org/2000/svg" xmlns:xlink="http://www.w3.org/1999/xlink">
    <!-- Generator: Sketch 51.2 (57519) - http://www.bohemiancoding.com/sketch -->
    <desc>Created with Sketch.</desc>
    <defs></defs>
    <g id="final" stroke="none" stroke-width="1" fill="none" fill-rule="evenodd">
        <g id="login" transform="translate(-537.000000, -662.000000)" fill="#FFFFFF" fill-rule="nonzero">
            <g id="Button" transform="translate(490.000000, 642.000000)">
                <g id="Group-2" transform="translate(47.000000, 20.000000)">
                    <g id="instagram">
                        <path d="M14.9856098,0 L4.99536585,0 C2.24829268,0 0.000243902439,2.24804878 0.000243902439,4.99512195 L0.000243902439,14.9858537 C0.000243902439,17.7321951 2.24829268,19.9809756 4.99536585,19.9809756 L14.9856098,19.9809756 C17.7326829,19.9809756 19.9807317,17.7321951 19.9807317,14.9858537 L19.9807317,4.99512195 C19.9807317,2.24804878 17.7326829,0 14.9856098,0 Z M18.3156098,14.9858537 C18.3156098,16.821561 16.8223415,18.3158537 14.9856098,18.3158537 L4.99536585,18.3158537 C3.15941463,18.3158537 1.66536585,16.821561 1.66536585,14.9858537 L1.66536585,4.99512195 C1.66536585,3.15892683 3.15941463,1.66512195 4.99536585,1.66512195 L14.9856098,1.66512195 C16.8223415,1.66512195 18.3156098,3.15892683 18.3156098,4.99512195 L18.3156098,14.9858537 Z" id="Shape"></path>
                        <circle id="Oval" cx="15.4026829" cy="4.57878049" r="1.24878049"></circle>
                        <path d="M9.9904878,4.99512195 C7.23117073,4.99512195 4.99536585,7.23117073 4.99536585,9.9902439 C4.99536585,12.7482927 7.23117073,14.9858537 9.9904878,14.9858537 C12.7490244,14.9858537 14.9856098,12.7482927 14.9856098,9.9902439 C14.9856098,7.23117073 12.7490244,4.99512195 9.9904878,4.99512195 Z M9.9904878,13.3207317 C8.1515122,13.3207317 6.6604878,11.8297073 6.6604878,9.9902439 C6.6604878,8.15078049 8.1515122,6.6602439 9.9904878,6.6602439 C11.8294634,6.6602439 13.3204878,8.15078049 13.3204878,9.9902439 C13.3204878,11.8297073 11.8294634,13.3207317 9.9904878,13.3207317 Z" id="Shape"></path>
                    </g>
                </g>
            </g>
        </g>
    </g>
</svg>