
<svg width="86px" height="70px" viewBox="0 0 86 70" version="1.1" xmlns="http://www.w3.org/2000/svg" xmlns:xlink="http://www.w3.org/1999/xlink">
    <!-- Generator: Sketch 51.3 (57544) - http://www.bohemiancoding.com/sketch -->
    <desc>Created with Sketch.</desc>
    <defs>
        <polygon id="path-1" points="0.143058651 0.0172844575 9.27385044 0.0172844575 9.27385044 9.44281525 0.143058651 9.44281525"></polygon>
        <polygon id="path-3" points="0.131994135 0.158680352 35.3109971 0.158680352 35.3109971 11.5616393 0.131994135 11.5616393"></polygon>
    </defs>
    <g id="web_0919" stroke="none" stroke-width="1" fill="none" fill-rule="evenodd">
        <g id="Home_white_main1" transform="translate(-374.000000, -31.000000)">
            <g id="Group" transform="translate(374.000000, 31.000000)">
                <path d="M5.88433138,65.2524809 C6.35811437,64.8969384 6.59439003,64.3864106 6.59439003,63.7180235 C6.59439003,63.0516891 6.35811437,62.5393138 5.88433138,62.185824 C5.41239589,61.8290499 4.72635484,61.6502522 3.82785044,61.6502522 L1.41829032,61.6502522 L1.41829032,65.7857947 L3.82785044,65.7857947 C4.72635484,65.7857947 5.41239589,65.6080235 5.88433138,65.2524809 M6.90620821,61.3616305 C7.64336364,61.9327155 8.01265982,62.7181114 8.01265982,63.7180235 C8.01265982,64.7187566 7.64336364,65.504563 6.90620821,66.0744164 C6.16782111,66.6455015 5.15743988,66.9300176 3.87280645,66.9300176 L1.41829032,66.9300176 L1.41829032,69.7205748 L2.05278592e-05,69.7205748 L2.05278592e-05,60.5060293 L3.87280645,60.5060293 C5.15743988,60.5060293 6.16782111,60.7917771 6.90620821,61.3616305" id="Fill-1" fill="#FEFEFE"></path>
                <polygon id="Fill-3" fill="#FEFEFE" points="15.2441525 60.5060088 16.6611906 60.5060088 16.6611906 68.575305 22.0362053 68.575305 22.0362053 69.7205543 15.2441525 69.7205543"></polygon>
                <path d="M36.626607,66.3630792 L34.4857566,61.8490029 L32.3449062,66.3630792 L36.626607,66.3630792 Z M37.1223548,67.4175953 L31.8469003,67.4175953 L30.7558446,69.7204106 L29.2959032,69.7204106 L33.7902727,60.5060704 L35.1947889,60.5060704 L39.7027067,69.7204106 L38.2132053,69.7204106 L37.1223548,67.4175953 Z" id="Fill-5" fill="#FEFEFE"></path>
                <g id="Group-9" transform="translate(46.803519, 60.384340)">
                    <mask id="mask-2" fill="white">
                        <use xlink:href="#path-1"></use>
                    </mask>
                    <g id="Clip-8"></g>
                    <path d="M7.82745748,4.67649267 L9.18927566,4.67649267 L9.18927566,8.27133138 C8.69640176,8.64904399 8.12552199,8.93889736 7.47273607,9.13945455 C6.82015543,9.34247507 6.14027273,9.4428563 5.43124047,9.4428563 C4.42927566,9.4428563 3.52769208,9.23798827 2.72341056,8.82989443 C1.92118182,8.42200587 1.2885132,7.86159531 0.830331378,7.14599413 C0.370096774,6.43059824 0.143058651,5.62426393 0.143058651,4.7298651 C0.143058651,3.83443988 0.370096774,3.02831085 0.830331378,2.30778299 C1.2885132,1.58807625 1.92220821,1.02643402 2.73080059,0.622651026 C3.53918768,0.218868035 4.44816129,0.0172844575 5.45956891,0.0172844575 C6.25338123,0.0172844575 6.9728827,0.137577713 7.62238416,0.378780059 C8.26880645,0.619366569 8.81997947,0.97511437 9.27385044,1.43740176 L8.39443695,2.25523167 C7.60062463,1.54312023 6.64341056,1.18839883 5.51704692,1.18839883 C4.75977419,1.18839883 4.08214956,1.33907331 3.48273607,1.64247507 C2.88229619,1.94567155 2.41056598,2.36505572 2.06980352,2.9080176 C1.72986217,3.44564223 1.56153372,4.05429326 1.56153372,4.7298651 C1.56153372,5.39517302 1.72986217,6.00074487 2.06980352,6.54144868 C2.41056598,7.07907331 2.88229619,7.50358944 3.48273607,7.81027566 C4.08214956,8.11655132 4.75772141,8.27133138 5.50021408,8.27133138 C6.39153372,8.27133138 7.1674868,8.07364809 7.82745748,7.67725513 L7.82745748,4.67649267 Z" id="Fill-7" fill="#FEFEFE" mask="url(#mask-2)"></path>
                </g>
                <polygon id="Fill-10" fill="#FEFEFE" points="70.4420469 68.5752229 70.4420469 69.7204721 63.2375894 69.7204721 63.2375894 60.5059267 70.243132 60.5059267 70.243132 61.6503548 64.6558592 61.6503548 64.6558592 64.4815572 69.6314018 64.4815572 69.6314018 65.6017625 64.6558592 65.6017625 64.6558592 68.5752229"></polygon>
                <path d="M83.6173607,65.2584956 C84.0890909,64.8988475 84.326393,64.3864721 84.326393,63.718085 C84.326393,63.0517507 84.0890909,62.5393754 83.6173607,62.1856804 C83.1443988,61.8291114 82.4593842,61.6503138 81.561085,61.6503138 L79.1513196,61.6503138 L79.1513196,65.7983783 L81.561085,65.7983783 C82.4593842,65.7983783 83.1443988,65.6185543 83.6173607,65.2584956 Z M84.3682698,69.7204311 L82.226393,66.8902551 C81.9636364,66.9091408 81.7536364,66.9175572 81.6048094,66.9175572 L79.1513196,66.9175572 L79.1513196,69.7204311 L77.7330499,69.7204311 L77.7330499,60.5060909 L81.6048094,60.5060909 C82.8894428,60.5060909 83.899824,60.7916334 84.6392375,61.3616921 C85.3753666,61.9327771 85.7436364,62.718173 85.7436364,63.718085 C85.7436364,64.4301965 85.5551906,65.0347419 85.1778886,65.5360323 C84.7981232,66.0367067 84.2594721,66.3988182 83.558651,66.6277038 L85.9140176,69.7204311 L84.3682698,69.7204311 Z" id="Fill-12" fill="#FEFEFE"></path>
                <polygon id="Fill-14" fill="#045069" points="9.65991789 36.6800616 12.2215894 41.102173 39.5499179 27.4614106 33.8402991 24.6113226"></polygon>
                <polygon id="Fill-16" fill="#0E9794" points="15.753346 39.3523988 18.3129648 43.7734839 45.2732287 30.316651 39.56361 27.4682053"></polygon>
                <polygon id="Fill-18" fill="#29B078" points="21.8375161 42.0163196 24.3969296 46.4384311 50.9858446 33.170044 45.2764311 30.3189296"></polygon>
                <polygon id="Fill-20" fill="#8CC55D" points="27.9237185 44.6792141 30.4788211 49.0939355 32.9335425 47.8776598 56.695566 36.0180997 50.9859472 33.1700645"></polygon>
                <polygon id="Fill-22" fill="#045069" points="27.6380323 4.41164223 73.8850411 27.493783 79.6135455 24.6521114 68.8887654 19.2996774 30.1921085 0"></polygon>
                <polygon id="Fill-24" fill="#0E9794" points="21.5488534 7.08297361 68.1440147 30.3398065 73.8727243 27.4995718 24.1082669 2.66127273"></polygon>
                <polygon id="Fill-26" fill="#29B078" points="15.4616657 9.7473871 62.4125748 33.1815806 68.1398475 30.3419619 18.0221056 5.32568622"></polygon>
                <polygon id="Fill-28" fill="#8CC55D" points="9.37866569 12.4102815 56.6830645 36.0222463 62.4125953 33.1816012 11.9380792 7.98858065"></polygon>
                <g id="Group-32" opacity="0.2" transform="translate(21.348974, 24.460587)">
                    <mask id="mask-4" fill="white">
                        <use xlink:href="#path-3"></use>
                    </mask>
                    <g id="Clip-31"></g>
                    <polygon id="Fill-30" fill="#060101" mask="url(#mask-4)" points="35.3612493 11.5616393 0.131953079 6.3278563 12.4903402 0.158618768"></polygon>
                </g>
            </g>
        </g>
    </g>
</svg>