<?xml version="1.0" encoding="UTF-8"?>
<svg width="59px" height="48px" viewBox="0 0 59 48" version="1.1" xmlns="http://www.w3.org/2000/svg" xmlns:xlink="http://www.w3.org/1999/xlink">
    <!-- Generator: Sketch 51.3 (57544) - http://www.bohemiancoding.com/sketch -->
    <title>que-left</title>
    <desc>Created with Sketch.</desc>
    <defs></defs>
    <g id="web_0919" stroke="none" stroke-width="1" fill="none" fill-rule="evenodd">
        <g id="Home_white_main1" transform="translate(-582.000000, -1083.000000)" fill="#0F2968" stroke="#FFFFFF" stroke-width="5">
            <g id="Group-8" transform="translate(374.000000, 1053.000000)">
                <g id="que-left" transform="translate(237.500000, 54.000000) scale(-1, 1) translate(-237.500000, -54.000000) translate(213.000000, 35.000000)">
                    <path d="M38.3070822,14.3369771 C36.7725916,10.9187872 34.8045908,8.92517568 33.8067407,8.92480364 L33.7772714,8.92450251 C32.1900527,8.99775192 30.7446504,7.94932357 30.3187345,6.40981245 L29.1158726,2.06559601 C28.8567785,1.13547179 29.0001549,0.13989364 29.5156729,-0.688364343 C30.0306271,-1.50785606 30.8670016,-2.07358604 31.8193916,-2.24246599 C32.4219751,-2.3500499 33.0383039,-2.4042963 33.6550505,-2.4042963 C40.8299256,-2.4042963 47.66204,4.85534395 50.3685047,14.6279927 L50.3685811,14.6282686 C51.7429981,19.5932979 51.7755163,25.0010182 50.4380543,29.5365765 C48.8773736,34.8318107 45.532989,38.5598288 41.0019057,39.8385275 C39.8629687,40.160511 38.6890292,40.3240741 37.5125455,40.3240741 C31.7387429,40.3240741 26.6358115,36.4117279 25.0840432,30.8100916 C23.1726213,23.9075153 27.1789844,16.7206485 34.0380956,14.7829634 C35.424445,14.393084 36.8732008,14.2470356 38.3070822,14.3369771 Z" id="Shape"></path>
                    <path d="M11.1988673,14.3369947 C9.66431849,10.9188408 7.69618813,8.92517354 6.69857444,8.92479418 L6.66753865,8.92459472 C5.07372165,8.99685963 3.63676661,7.94872137 3.21108359,6.41005158 L2.00656027,2.0615242 C1.74952096,1.13270583 1.89310311,0.138824605 2.405972,-0.685202287 C2.92117876,-1.5078198 3.761661,-2.07725264 4.71077659,-2.24238862 C5.31111646,-2.34968099 5.92787311,-2.40335802 6.54593939,-2.40335802 C13.7214859,-2.40335802 20.5529166,4.85427765 23.2612828,14.6271648 C24.6359666,19.5918314 24.6684855,25.0000883 23.3311995,29.5368033 C21.7700181,34.831889 18.4257309,38.5597985 13.8947991,39.8386176 C12.7554781,40.1605467 11.5816491,40.3240741 10.4052929,40.3240741 C4.63149033,40.3240741 -0.471441017,36.4117279 -2.02310609,30.8104642 C-3.93556557,23.9082915 0.0710948031,16.7208916 6.92991376,14.7829634 C8.31635059,14.3930594 9.76501332,14.2470165 11.1988673,14.3369947 Z" id="Shape"></path>
                </g>
            </g>
        </g>
    </g>
</svg>