<?xml version="1.0" encoding="UTF-8"?>
<svg width="244px" height="273px" viewBox="0 0 244 273" version="1.1" xmlns="http://www.w3.org/2000/svg" xmlns:xlink="http://www.w3.org/1999/xlink">
    <!-- Generator: Sketch 51.3 (57544) - http://www.bohemiancoding.com/sketch -->
    <title>section-4-4-4</title>
    <desc>Created with Sketch.</desc>
    <defs></defs>
    <g id="web_0917" stroke="none" stroke-width="1" fill="none" fill-rule="evenodd">
        <g id="Home_white_main1" transform="translate(-1032.000000, -7845.000000)" fill="#5059AB">
            <g id="Group-6" transform="translate(372.000000, 4904.000000)">
                <g id="section-4-4-4" transform="translate(660.000000, 2941.000000)">
                    <g id="admin" transform="translate(92.000000, 107.000000)" fill-rule="nonzero">
                        <path d="M54.9706823,0 L12.9930704,0 C10.2345416,0.00349813433 7.99923377,2.23880597 7.99573561,4.99733475 L7.99573561,20.988806 L9.99466951,20.988806 L9.99466951,4.99733475 C9.99466951,3.34171778 11.3374534,1.9989339 12.9930704,1.9989339 L54.9706823,1.9989339 C56.6262993,1.9989339 57.9690832,3.34171778 57.9690832,4.99733475 L57.9690832,35.9808102 C57.9690832,37.6364272 56.6262993,38.9792111 54.9706823,38.9792111 L41.9776119,38.9792111 L41.9776119,40.978145 L54.9706823,40.978145 C57.7292111,40.9746468 59.9645189,38.739339 59.9680171,35.9808102 L59.9680171,4.99733475 C59.9645189,2.23880597 57.7292111,0.00349813433 54.9706823,0 Z" id="Shape"></path>
                        <polygon id="Shape" points="11.9936034 3.9978678 13.9925373 3.9978678 13.9925373 5.99680171 11.9936034 5.99680171"></polygon>
                        <polygon id="Shape" points="15.9914712 3.9978678 17.9904051 3.9978678 17.9904051 5.99680171 15.9914712 5.99680171"></polygon>
                        <polygon id="Shape" points="19.989339 3.9978678 21.9882729 3.9978678 21.9882729 5.99680171 19.989339 5.99680171"></polygon>
                        <polygon id="Shape" points="11.9936034 7.99573561 55.9701493 7.99573561 55.9701493 9.99466951 11.9936034 9.99466951"></polygon>
                        <polygon id="Shape" points="11.9936034 11.9936034 21.9882729 11.9936034 21.9882729 13.9925373 11.9936034 13.9925373"></polygon>
                        <polygon id="Shape" points="11.9936034 15.9914712 17.9904051 15.9914712 17.9904051 17.9904051 11.9936034 17.9904051"></polygon>
                        <path d="M28.9845416,18.9898721 L28.9845416,16.9909382 C28.9845416,16.4387327 28.5372801,15.9914712 27.9850746,15.9914712 L23.9872068,15.9914712 C23.4350014,15.9914712 22.9877399,16.4387327 22.9877399,16.9909382 L22.9877399,17.9904051 L26.9856077,17.9904051 L26.9856077,18.9898721 L28.9845416,18.9898721 Z" id="Shape"></path>
                        <path d="M36.9802772,23.9872068 L36.9802772,13.9925373 C36.9802772,13.4403319 36.5330157,12.9930704 35.9808102,12.9930704 L31.9829424,12.9930704 C31.430737,12.9930704 30.9834755,13.4403319 30.9834755,13.9925373 L30.9834755,20.988806 L32.9824094,20.988806 L32.9824094,14.9920043 L34.9813433,14.9920043 L34.9813433,23.9872068 L36.9802772,23.9872068 Z" id="Shape"></path>
                        <path d="M42.9770789,33.9818763 L41.9776119,33.9818763 L41.9776119,35.9808102 L55.9701493,35.9808102 L55.9701493,33.9818763 L52.9717484,33.9818763 L52.9717484,13.9925373 C52.9717484,13.4403319 52.5244869,12.9930704 51.9722814,12.9930704 L47.9744136,12.9930704 C47.4222082,12.9930704 46.9749467,13.4403319 46.9749467,13.9925373 L46.9749467,33.9818763 L44.9760128,33.9818763 L44.9760128,20.988806 C44.9760128,20.4366005 44.5287513,19.989339 43.9765458,19.989339 L39.978678,19.989339 C39.4264726,19.989339 38.9792111,20.4366005 38.9792111,20.988806 L38.9792111,29.9840085 L40.978145,29.9840085 L40.978145,21.9882729 L42.9770789,21.9882729 L42.9770789,33.9818763 Z M48.9738806,14.9920043 L50.9728145,14.9920043 L50.9728145,33.9818763 L48.9738806,33.9818763 L48.9738806,14.9920043 Z" id="Shape"></path>
                        <path d="M19.989339,19.989339 C8.94897723,19.989339 0,28.9383162 0,39.978678 C0,51.0190398 8.94897723,59.9680171 19.989339,59.9680171 C31.0297008,59.9680171 39.978678,51.0190398 39.978678,39.978678 C39.9661847,28.9440632 31.0239539,20.0018323 19.989339,19.989339 Z M19.989339,57.9690832 C10.2425373,57.976829 2.26179371,50.2217151 1.99118802,40.4784115 C1.72033247,30.7356077 9.2575626,22.5489739 18.9898721,22.0152585 L18.9898721,39.978678 C18.9898721,39.9999167 19.0011161,40.0186567 19.0021155,40.0408948 C19.0073628,40.1288479 19.0248534,40.2160515 19.053838,40.2990072 C19.0603345,40.3189965 19.053838,40.3437333 19.0678305,40.363223 C19.074327,40.3754664 19.0810734,40.3872102 19.0893191,40.3984542 C19.1360441,40.501899 19.1992604,40.5970982 19.2777186,40.6795542 L19.2834655,40.6860508 L31.9829424,53.3865272 C28.6916978,56.3484475 24.4169776,57.9815765 19.989339,57.9690832 Z M33.3971882,51.9722814 L22.4030517,40.978145 L37.9527585,40.978145 C37.7376233,45.0564699 36.129481,48.9369003 33.3971882,51.9722814 Z M20.988806,38.9792111 L20.988806,22.0152585 C30.1334289,22.5364805 37.4315365,29.8345882 37.9527585,38.9792111 L20.988806,38.9792111 Z" id="Shape"></path>
                    </g>
                    <path d="M188.89898,176.522893 C175.109773,199.079854 150.176865,214.179321 121.765763,214.179321 C93.3546614,214.179321 68.4217535,199.079854 54.6339509,176.522893 C49.2727298,167.751673 39.8744446,162.225637 29.557815,162.225637 C6.84494136,162.225637 -7.00464586,186.932078 4.752689,206.273204 C7.62005766,210.988643 10.7668614,215.518204 14.1692288,219.838127 C39.2228976,251.616329 78.1472165,272.065737 121.765763,272.065737 C165.401161,272.065737 204.324075,251.616329 229.362298,219.838127 C232.766069,215.518204 235.911469,210.988643 238.778838,206.273204 C250.537577,186.932078 236.686585,162.225637 213.975116,162.225637 C203.658486,162.225637 194.258797,167.751673 188.89898,176.522893 Z M29.8260165,109.838703 C39.9755467,109.838703 49.2502627,104.418883 54.4949355,95.7706503 C68.25325,73.0865096 93.2577719,57.8864163 121.765763,57.8864163 C150.275159,57.8864163 175.279681,73.0865096 189.037995,95.7720478 C194.282668,104.418883 203.55598,109.838703 213.704106,109.838703 L214.814825,109.838703 C236.827005,109.838703 250.767865,86.0183285 239.590463,67.1439943 C236.508252,61.9407994 233.089035,56.9584224 229.362298,52.22761 C204.324075,20.4480107 165.401161,0 121.765763,0 C78.1472165,0 39.2228976,20.4480107 14.1692288,52.22761 C10.4438962,56.9570248 7.02467847,61.9380042 3.94387199,67.1398015 C-7.23493404,86.016931 6.70733013,109.838703 28.7223183,109.838703 L29.8260165,109.838703 Z" id="Fill-437" opacity="0.601841518"></path>
                </g>
            </g>
        </g>
    </g>
</svg>