<?xml version="1.0" encoding="utf-8"?>
<!-- Generator: Adobe Illustrator 21.1.0, SVG Export Plug-In . SVG Version: 6.00 Build 0)  -->
<svg version="1.1" id="레이어_1" xmlns="http://www.w3.org/2000/svg" xmlns:xlink="http://www.w3.org/1999/xlink" x="0px"
	 y="0px" viewBox="0 0 290 166" style="enable-background:new 0 0 290 166;" xml:space="preserve">
<style type="text/css">
</style>
<desc>Created with Sketch.</desc>
<g id="mobile_0917">
	<g id="m_main" transform="translate(-10.000000, -728.000000)">
		<path id="path-1" d="M14,728h282c2.2,0,4,1.8,4,4v158c0,2.2-1.8,4-4,4H14c-2.2,0-4-1.8-4-4V732C10,729.8,11.8,728,14,728z"/>
		<path id="path-1_1_" class="st0" d="M14,728h282c2.2,0,4,1.8,4,4v158c0,2.2-1.8,4-4,4H14c-2.2,0-4-1.8-4-4V732
			C10,729.8,11.8,728,14,728z"/>
		<g class="st1">
			<path class="st2" d="M48.6,883H48v-3.9c-0.1,0.1-0.3,0.3-0.6,0.4c-0.2,0.1-0.5,0.2-0.6,0.3v-0.6c0.3-0.2,0.6-0.4,0.9-0.6
				s0.4-0.5,0.5-0.7h0.4V883z"/>
			<path class="st2" d="M50.1,880.5c0-0.6,0.1-1.1,0.2-1.4c0.1-0.4,0.3-0.6,0.5-0.8c0.2-0.2,0.5-0.3,0.9-0.3c0.3,0,0.5,0.1,0.7,0.2
				s0.4,0.3,0.5,0.5s0.2,0.5,0.3,0.7s0.1,0.7,0.1,1.2c0,0.6-0.1,1.1-0.2,1.4s-0.3,0.6-0.5,0.8c-0.2,0.2-0.5,0.3-0.9,0.3
				c-0.5,0-0.9-0.2-1.1-0.5C50.3,882.1,50.1,881.5,50.1,880.5z M50.8,880.5c0,0.8,0.1,1.4,0.3,1.6c0.2,0.3,0.4,0.4,0.7,0.4
				s0.5-0.1,0.7-0.4c0.2-0.3,0.3-0.8,0.3-1.6c0-0.8-0.1-1.4-0.3-1.6c-0.2-0.3-0.4-0.4-0.7-0.4c-0.3,0-0.5,0.1-0.7,0.4
				C50.9,879.1,50.8,879.7,50.8,880.5z"/>
		</g>
		<g class="st1">
			<path class="st2" d="M56.8,882.2v-1h-2.5v-0.6h5.6v0.6h-2.4v1H56.8z M55,880v-2.5h0.8v0.6h2.6v-0.7h0.8v2.5H55z M55,883.4v-1.8
				h0.8v1.1h3.4v0.6H55z M58.4,878.8h-2.6v0.5h2.6V878.8z"/>
			<path class="st2" d="M64.6,883.5v-1.5h-2.4v-0.7h5.6v0.7h-2.4v1.5H64.6z M62.5,879v-0.6h5v0.6H62.5z M65,881.2c-1.2,0-2-0.4-2-1
				c0-0.6,0.8-1,2-1c1.3,0,2,0.4,2,1C67,880.8,66.3,881.2,65,881.2z M65,879.8c-0.7,0-1.2,0.1-1.2,0.4c0,0.2,0.5,0.4,1.2,0.4
				s1.2-0.1,1.2-0.4C66.2,879.9,65.7,879.8,65,879.8z M63.9,877.4h2.2v0.6h-2.2V877.4z"/>
		</g>
		<g class="st1">
			<path class="st2" d="M94.8,883h-0.6v-3.9c-0.1,0.1-0.3,0.3-0.6,0.4c-0.2,0.1-0.5,0.2-0.6,0.3v-0.6c0.3-0.2,0.6-0.4,0.9-0.6
				s0.4-0.5,0.5-0.7h0.4V883z"/>
		</g>
		<g class="st1">
			<path class="st2" d="M97.8,877.5c1,0,1.6,0.6,1.6,1.4c0,0.8-0.7,1.4-1.6,1.4c-0.9,0-1.7-0.5-1.7-1.4
				C96.1,878.1,96.8,877.5,97.8,877.5z M97.8,879.7c0.5,0,0.8-0.3,0.8-0.7c0-0.4-0.3-0.8-0.8-0.8c-0.5,0-0.8,0.4-0.8,0.8
				S97.3,879.7,97.8,879.7z M97,883.5v-1.7h3.3v-0.4H97v-0.6h4.1v1.7h-3.3v0.4h3.5v0.7H97z M100.3,880.4v-3.1h0.8v3.1H100.3z"/>
		</g>
		<g class="st1">
			<path class="st2" d="M135.3,883h-0.6v-3.9c-0.1,0.1-0.3,0.3-0.6,0.4c-0.2,0.1-0.5,0.2-0.6,0.3v-0.6c0.3-0.2,0.6-0.4,0.9-0.6
				s0.4-0.5,0.5-0.7h0.4V883z"/>
		</g>
		<g class="st1">
			<path class="st2" d="M138.8,883.5v-2.2h-2.4v-0.7h5.6v0.7h-2.4v2.2H138.8z M136.7,879.6c0.9-0.1,2-0.7,2.1-1.4h-1.9v-0.7h4.6v0.7
				h-1.9c0.1,0.7,1.2,1.3,2.1,1.4c-0.1,0.2-0.2,0.4-0.3,0.6c-0.8-0.1-1.9-0.7-2.2-1.3c-0.3,0.6-1.4,1.2-2.2,1.3L136.7,879.6z"/>
			<path class="st2" d="M144.3,877.5c1,0,1.6,0.6,1.6,1.4c0,0.8-0.7,1.4-1.6,1.4c-0.9,0-1.7-0.5-1.7-1.4
				C142.6,878.1,143.3,877.5,144.3,877.5z M144.3,879.7c0.5,0,0.8-0.3,0.8-0.7c0-0.4-0.3-0.8-0.8-0.8c-0.5,0-0.8,0.4-0.8,0.8
				S143.8,879.7,144.3,879.7z M143.5,883.5v-1.7h3.3v-0.4h-3.3v-0.6h4.1v1.7h-3.3v0.4h3.5v0.7H143.5z M146.8,880.4v-3.1h0.8v3.1
				H146.8z"/>
		</g>
		<g class="st1">
			<path class="st2" d="M189.8,883h-0.6v-3.9c-0.1,0.1-0.3,0.3-0.6,0.4c-0.2,0.1-0.5,0.2-0.6,0.3v-0.6c0.3-0.2,0.6-0.4,0.9-0.6
				c0.3-0.2,0.4-0.5,0.5-0.7h0.4V883z"/>
		</g>
		<g class="st1">
			<path class="st2" d="M194.4,879.5c0,0.2,0.1,0.4,0.1,0.6c-0.6,0.1-1.6,0.2-2.8,0.2h-0.6v-2.6h2.8v0.7h-2v1.3
				C192.9,879.6,193.7,879.6,194.4,879.5z M191.7,883.5v-1.7h3.2v-0.4h-3.3v-0.6h4.1v1.7h-3.3v0.4h3.4v0.7H191.7z M195.8,879.2v1.2
				H195v-3.1h0.8v1.2h0.9v0.7H195.8z"/>
		</g>
		<g class="st1">
			<path class="st2" d="M257.9,881.1c-0.5-0.3-1.2-1.1-1.4-1.7c-0.2,0.7-0.8,1.5-1.5,1.9l-0.5-0.6c1-0.7,1.5-1.6,1.5-2.9v-1h0.8v0.9
				c0,1.2,0.5,2.2,1.4,2.8L257.9,881.1z M258.8,882.6v-6.2h0.8v6.2H258.8z"/>
			<path class="st2" d="M260.8,880.1l-0.4-0.7c1-0.2,2.1-0.9,2.3-2h-2v-0.7h2.9C263.7,878.6,262.4,879.7,260.8,880.1z M261.4,882.4
				v-2h0.8v1.4h3.3v0.7H261.4z M265.4,878.8v2.1h-0.8v-4.5h0.8v1.8h0.9v0.7H265.4z"/>
			<path class="st2" d="M268.7,881.1c-0.7,0-1.4,0.1-2,0l-0.1-0.7c0.7,0,1.3,0,2,0c0.8,0,1.5-0.1,2.1-0.2l0.1,0.7
				C270.2,881,269.3,881.1,268.7,881.1z M268.6,876.7c1.1,0,1.7,0.6,1.7,1.5c0,0.9-0.7,1.5-1.7,1.5c-1.1,0-1.7-0.6-1.7-1.5
				C266.8,877.3,267.5,876.7,268.6,876.7z M268.6,879c0.6,0,0.9-0.4,0.9-0.8c0-0.4-0.3-0.8-0.9-0.8c-0.6,0-0.9,0.4-0.9,0.8
				C267.7,878.7,268,879,268.6,879z M271.8,882.6H271v-6.2h0.8V882.6z"/>
		</g>
		<g class="st1">
			<path class="st2" d="M275.3,880l-0.4-0.7c1.1-0.2,2.1-0.9,2.3-1.9h-2v-0.7h2.9C278,878.4,276.9,879.5,275.3,880z M277.9,882.6
				c-1.3,0-2.1-0.5-2.1-1.3c0-0.8,0.8-1.3,2.1-1.3c1.4,0,2.1,0.5,2.1,1.3C280,882.1,279.3,882.6,277.9,882.6z M277.9,880.7
				c-0.8,0-1.3,0.2-1.3,0.6c0,0.4,0.5,0.6,1.3,0.6c0.8,0,1.3-0.2,1.3-0.6C279.2,880.9,278.7,880.7,277.9,880.7z M279.2,879.9v-0.7
				H278v-0.6h1.1V878h-1.1v-0.6h1.1v-1.1h0.8v3.6H279.2z"/>
			<path class="st2" d="M282.5,881.3c-0.6,0-1.2,0-1.6,0l-0.1-0.7c0.4,0,0.9,0,1.3,0v-1.8h0.8v1.7c0.8,0,1.3-0.1,1.8-0.1l0.1,0.6
				C284.1,881.2,283.2,881.2,282.5,881.3z M284.2,879.7l-0.8-0.1c0.1-0.6,0.2-1.3,0.2-2h-2.5V877h3.3
				C284.4,878.2,284.4,879.1,284.2,879.7z M285.8,879.5v3H285v-6.2h0.8v2.6h0.8v0.7H285.8z"/>
		</g>
		<g class="st1">
			<path class="st2" d="M22.5,857.4v0.6h-3.3c0-0.1,0-0.3,0.1-0.4c0.1-0.2,0.2-0.4,0.4-0.7c0.2-0.2,0.5-0.5,0.8-0.8
				c0.5-0.4,0.9-0.8,1.1-1.1s0.3-0.5,0.3-0.7c0-0.2-0.1-0.4-0.3-0.6c-0.2-0.2-0.4-0.3-0.7-0.3c-0.3,0-0.5,0.1-0.7,0.3
				s-0.3,0.4-0.3,0.7l-0.6-0.1c0-0.5,0.2-0.8,0.5-1.1s0.7-0.4,1.1-0.4c0.5,0,0.9,0.1,1.1,0.4c0.3,0.3,0.4,0.6,0.4,1
				c0,0.2,0,0.4-0.1,0.6s-0.2,0.4-0.4,0.6c-0.2,0.2-0.5,0.5-0.9,0.9c-0.4,0.3-0.6,0.5-0.7,0.6s-0.2,0.2-0.3,0.3H22.5z"/>
			<path class="st2" d="M23.2,855.5c0-0.6,0.1-1.1,0.2-1.4c0.1-0.4,0.3-0.6,0.5-0.8c0.2-0.2,0.5-0.3,0.9-0.3c0.3,0,0.5,0.1,0.7,0.2
				s0.4,0.3,0.5,0.5s0.2,0.5,0.3,0.7s0.1,0.7,0.1,1.2c0,0.6-0.1,1.1-0.2,1.4s-0.3,0.6-0.5,0.8c-0.2,0.2-0.5,0.3-0.9,0.3
				c-0.5,0-0.9-0.2-1.1-0.5C23.3,857.1,23.2,856.5,23.2,855.5z M23.8,855.5c0,0.8,0.1,1.4,0.3,1.6c0.2,0.3,0.4,0.4,0.7,0.4
				s0.5-0.1,0.7-0.4c0.2-0.3,0.3-0.8,0.3-1.6c0-0.8-0.1-1.4-0.3-1.6c-0.2-0.3-0.4-0.4-0.7-0.4c-0.3,0-0.5,0.1-0.7,0.4
				C23.9,854.1,23.8,854.7,23.8,855.5z"/>
		</g>
		<g class="st1">
			<path class="st2" d="M21.3,837v-1.2h-2.2v-0.6l2.3-3.2h0.5v3.2h0.7v0.6h-0.7v1.2H21.3z M21.3,835.2V833l-1.6,2.3H21.3z"/>
			<path class="st2" d="M23.2,834.5c0-0.6,0.1-1.1,0.2-1.4c0.1-0.4,0.3-0.6,0.5-0.8c0.2-0.2,0.5-0.3,0.9-0.3c0.3,0,0.5,0.1,0.7,0.2
				s0.4,0.3,0.5,0.5s0.2,0.5,0.3,0.7s0.1,0.7,0.1,1.2c0,0.6-0.1,1.1-0.2,1.4s-0.3,0.6-0.5,0.8c-0.2,0.2-0.5,0.3-0.9,0.3
				c-0.5,0-0.9-0.2-1.1-0.5C23.3,836.1,23.2,835.5,23.2,834.5z M23.8,834.5c0,0.8,0.1,1.4,0.3,1.6c0.2,0.3,0.4,0.4,0.7,0.4
				s0.5-0.1,0.7-0.4c0.2-0.3,0.3-0.8,0.3-1.6c0-0.8-0.1-1.4-0.3-1.6c-0.2-0.3-0.4-0.4-0.7-0.4c-0.3,0-0.5,0.1-0.7,0.4
				C23.9,833.1,23.8,833.7,23.8,834.5z"/>
		</g>
		<g class="st1">
			<path class="st2" d="M22.5,811.2l-0.6,0c-0.1-0.2-0.1-0.4-0.2-0.5c-0.2-0.2-0.4-0.3-0.6-0.3c-0.2,0-0.4,0.1-0.5,0.2
				c-0.2,0.1-0.3,0.3-0.5,0.6c-0.1,0.3-0.2,0.7-0.2,1.2c0.1-0.2,0.3-0.4,0.5-0.5s0.4-0.2,0.7-0.2c0.4,0,0.8,0.2,1,0.5
				c0.3,0.3,0.4,0.7,0.4,1.2c0,0.3-0.1,0.6-0.2,0.9c-0.1,0.3-0.3,0.5-0.6,0.6s-0.5,0.2-0.8,0.2c-0.5,0-0.9-0.2-1.3-0.6
				s-0.5-1-0.5-1.9c0-1,0.2-1.7,0.5-2.1c0.3-0.4,0.7-0.6,1.3-0.6c0.4,0,0.7,0.1,1,0.3C22.3,810.5,22.4,810.8,22.5,811.2z M20,813.4
				c0,0.2,0,0.4,0.1,0.6c0.1,0.2,0.2,0.3,0.4,0.4s0.3,0.2,0.5,0.2c0.3,0,0.5-0.1,0.7-0.3c0.2-0.2,0.3-0.5,0.3-0.9
				c0-0.3-0.1-0.6-0.3-0.8s-0.4-0.3-0.7-0.3c-0.3,0-0.5,0.1-0.7,0.3S20,813.1,20,813.4z"/>
			<path class="st2" d="M23.2,812.5c0-0.6,0.1-1.1,0.2-1.4c0.1-0.4,0.3-0.6,0.5-0.8c0.2-0.2,0.5-0.3,0.9-0.3c0.3,0,0.5,0.1,0.7,0.2
				s0.4,0.3,0.5,0.5s0.2,0.5,0.3,0.7s0.1,0.7,0.1,1.2c0,0.6-0.1,1.1-0.2,1.4s-0.3,0.6-0.5,0.8c-0.2,0.2-0.5,0.3-0.9,0.3
				c-0.5,0-0.9-0.2-1.1-0.5C23.3,814.1,23.2,813.5,23.2,812.5z M23.8,812.5c0,0.8,0.1,1.4,0.3,1.6c0.2,0.3,0.4,0.4,0.7,0.4
				s0.5-0.1,0.7-0.4c0.2-0.3,0.3-0.8,0.3-1.6c0-0.8-0.1-1.4-0.3-1.6c-0.2-0.3-0.4-0.4-0.7-0.4c-0.3,0-0.5,0.1-0.7,0.4
				C23.9,811.1,23.8,811.7,23.8,812.5z"/>
		</g>
		<g class="st1">
			<path class="st2" d="M20.2,789.3c-0.3-0.1-0.4-0.2-0.6-0.4s-0.2-0.4-0.2-0.6c0-0.4,0.1-0.7,0.4-0.9c0.3-0.2,0.6-0.4,1-0.4
				c0.4,0,0.8,0.1,1.1,0.4s0.4,0.6,0.4,0.9c0,0.2-0.1,0.4-0.2,0.6c-0.1,0.2-0.3,0.3-0.6,0.4c0.3,0.1,0.5,0.3,0.7,0.5
				c0.2,0.2,0.2,0.5,0.2,0.8c0,0.4-0.2,0.8-0.5,1.1c-0.3,0.3-0.7,0.4-1.2,0.4s-0.9-0.1-1.2-0.4s-0.5-0.7-0.5-1.1
				c0-0.3,0.1-0.6,0.2-0.8C19.7,789.5,19.9,789.4,20.2,789.3z M19.9,790.6c0,0.2,0,0.3,0.1,0.5c0.1,0.2,0.2,0.3,0.4,0.4
				s0.3,0.1,0.5,0.1c0.3,0,0.5-0.1,0.7-0.3s0.3-0.4,0.3-0.7c0-0.3-0.1-0.5-0.3-0.7c-0.2-0.2-0.4-0.3-0.7-0.3c-0.3,0-0.5,0.1-0.7,0.3
				C20,790,19.9,790.3,19.9,790.6z M20.1,788.2c0,0.2,0.1,0.4,0.2,0.6s0.4,0.2,0.6,0.2c0.2,0,0.4-0.1,0.6-0.2
				c0.2-0.1,0.2-0.3,0.2-0.5c0-0.2-0.1-0.4-0.2-0.6c-0.2-0.2-0.4-0.2-0.6-0.2c-0.2,0-0.4,0.1-0.6,0.2S20.1,788,20.1,788.2z"/>
			<path class="st2" d="M23.2,789.5c0-0.6,0.1-1.1,0.2-1.4c0.1-0.4,0.3-0.6,0.5-0.8c0.2-0.2,0.5-0.3,0.9-0.3c0.3,0,0.5,0.1,0.7,0.2
				s0.4,0.3,0.5,0.5s0.2,0.5,0.3,0.7s0.1,0.7,0.1,1.2c0,0.6-0.1,1.1-0.2,1.4s-0.3,0.6-0.5,0.8c-0.2,0.2-0.5,0.3-0.9,0.3
				c-0.5,0-0.9-0.2-1.1-0.5C23.3,791.1,23.2,790.5,23.2,789.5z M23.8,789.5c0,0.8,0.1,1.4,0.3,1.6c0.2,0.3,0.4,0.4,0.7,0.4
				s0.5-0.1,0.7-0.4c0.2-0.3,0.3-0.8,0.3-1.6c0-0.8-0.1-1.4-0.3-1.6c-0.2-0.3-0.4-0.4-0.7-0.4c-0.3,0-0.5,0.1-0.7,0.4
				C23.9,788.1,23.8,788.7,23.8,789.5z"/>
		</g>
		<g class="st1">
			<path class="st2" d="M21.6,767H21v-3.9c-0.1,0.1-0.3,0.3-0.6,0.4c-0.2,0.1-0.5,0.2-0.6,0.3v-0.6c0.3-0.2,0.6-0.4,0.9-0.6
				s0.4-0.5,0.5-0.7h0.4V767z"/>
			<path class="st2" d="M23.2,764.5c0-0.6,0.1-1.1,0.2-1.4c0.1-0.4,0.3-0.6,0.5-0.8c0.2-0.2,0.5-0.3,0.9-0.3c0.3,0,0.5,0.1,0.7,0.2
				s0.4,0.3,0.5,0.5s0.2,0.5,0.3,0.7s0.1,0.7,0.1,1.2c0,0.6-0.1,1.1-0.2,1.4s-0.3,0.6-0.5,0.8c-0.2,0.2-0.5,0.3-0.9,0.3
				c-0.5,0-0.9-0.2-1.1-0.5C23.3,766.1,23.2,765.5,23.2,764.5z M23.8,764.5c0,0.8,0.1,1.4,0.3,1.6c0.2,0.3,0.4,0.4,0.7,0.4
				s0.5-0.1,0.7-0.4c0.2-0.3,0.3-0.8,0.3-1.6c0-0.8-0.1-1.4-0.3-1.6c-0.2-0.3-0.4-0.4-0.7-0.4c-0.3,0-0.5,0.1-0.7,0.4
				C23.9,763.1,23.8,763.7,23.8,764.5z"/>
			<path class="st2" d="M27.1,764.5c0-0.6,0.1-1.1,0.2-1.4c0.1-0.4,0.3-0.6,0.5-0.8c0.2-0.2,0.5-0.3,0.9-0.3c0.3,0,0.5,0.1,0.7,0.2
				s0.4,0.3,0.5,0.5s0.2,0.5,0.3,0.7s0.1,0.7,0.1,1.2c0,0.6-0.1,1.1-0.2,1.4s-0.3,0.6-0.5,0.8c-0.2,0.2-0.5,0.3-0.9,0.3
				c-0.5,0-0.9-0.2-1.1-0.5C27.2,766.1,27.1,765.5,27.1,764.5z M27.7,764.5c0,0.8,0.1,1.4,0.3,1.6c0.2,0.3,0.4,0.4,0.7,0.4
				s0.5-0.1,0.7-0.4c0.2-0.3,0.3-0.8,0.3-1.6c0-0.8-0.1-1.4-0.3-1.6c-0.2-0.3-0.4-0.4-0.7-0.4c-0.3,0-0.5,0.1-0.7,0.4
				C27.8,763.1,27.7,763.7,27.7,764.5z"/>
		</g>
		<rect id="Line-segment" x="19" y="850" class="st3" width="272" height="1"/>
		<rect id="Line-segment_1_" x="19" y="827" class="st3" width="272" height="1"/>
		<rect id="Line-segment_2_" x="19" y="805" class="st3" width="272" height="1"/>
		<rect id="Line-segment_3_" x="19" y="782" class="st3" width="272" height="1"/>
		<rect id="Line-segment-Copy" x="19" y="758" class="st3" width="272" height="1"/>
		<rect id="Line-segment_4_" x="19" y="873" class="st3" width="272" height="1"/>
		<g class="st1">
			<path class="st4" d="M18.8,746v-7.2h4.8v0.8h-3.9v2.2h3.4v0.8h-3.4v3.3H18.8z"/>
			<path class="st4" d="M24.4,743.4c0-1,0.3-1.7,0.8-2.1c0.4-0.4,1-0.6,1.6-0.6c0.7,0,1.3,0.2,1.7,0.7c0.5,0.5,0.7,1.1,0.7,1.9
				c0,0.7-0.1,1.2-0.3,1.6c-0.2,0.4-0.5,0.7-0.9,0.9s-0.8,0.3-1.3,0.3c-0.7,0-1.3-0.2-1.8-0.7S24.4,744.3,24.4,743.4z M25.3,743.4
				c0,0.7,0.1,1.2,0.4,1.5c0.3,0.3,0.7,0.5,1.1,0.5c0.4,0,0.8-0.2,1.1-0.5s0.4-0.8,0.4-1.5c0-0.6-0.1-1.1-0.4-1.5
				c-0.3-0.3-0.7-0.5-1.1-0.5c-0.4,0-0.8,0.2-1.1,0.5S25.3,742.7,25.3,743.4z"/>
			<path class="st4" d="M30.3,746v-5.2h0.8v0.8c0.2-0.4,0.4-0.6,0.6-0.7s0.4-0.2,0.6-0.2c0.3,0,0.6,0.1,0.9,0.3l-0.3,0.8
				c-0.2-0.1-0.4-0.2-0.6-0.2c-0.2,0-0.4,0.1-0.5,0.2c-0.2,0.1-0.3,0.3-0.3,0.5c-0.1,0.3-0.1,0.7-0.1,1v2.7H30.3z"/>
			<path class="st4" d="M33.5,746.4l0.9,0.1c0,0.3,0.1,0.5,0.3,0.6c0.2,0.2,0.5,0.2,0.9,0.2c0.4,0,0.7-0.1,0.9-0.2s0.4-0.4,0.4-0.7
				c0-0.2,0.1-0.6,0.1-1.1c-0.4,0.5-0.9,0.7-1.4,0.7c-0.7,0-1.3-0.3-1.7-0.8s-0.6-1.1-0.6-1.9c0-0.5,0.1-1,0.3-1.4
				c0.2-0.4,0.4-0.7,0.8-1s0.7-0.3,1.2-0.3c0.6,0,1.1,0.2,1.5,0.7v-0.6h0.8v4.5c0,0.8-0.1,1.4-0.2,1.7c-0.2,0.3-0.4,0.6-0.8,0.8
				s-0.8,0.3-1.3,0.3c-0.6,0-1.1-0.1-1.5-0.4C33.7,747.4,33.5,747,33.5,746.4z M34.2,743.3c0,0.7,0.1,1.2,0.4,1.5s0.6,0.5,1,0.5
				c0.4,0,0.7-0.2,1-0.5c0.3-0.3,0.4-0.8,0.4-1.5c0-0.6-0.1-1.1-0.4-1.4s-0.6-0.5-1-0.5c-0.4,0-0.7,0.2-1,0.5
				C34.4,742.2,34.2,742.7,34.2,743.3z"/>
			<path class="st4" d="M42.8,744.3l0.9,0.1c-0.1,0.5-0.4,0.9-0.8,1.2s-0.9,0.4-1.5,0.4c-0.8,0-1.4-0.2-1.8-0.7
				c-0.4-0.5-0.7-1.1-0.7-2c0-0.9,0.2-1.5,0.7-2s1-0.7,1.7-0.7c0.7,0,1.3,0.2,1.7,0.7s0.7,1.1,0.7,2c0,0.1,0,0.1,0,0.2h-3.9
				c0,0.6,0.2,1,0.5,1.3s0.7,0.5,1.1,0.5c0.3,0,0.6-0.1,0.8-0.3S42.6,744.7,42.8,744.3z M39.9,742.9h2.9c0-0.4-0.1-0.8-0.3-1
				c-0.3-0.3-0.6-0.5-1.1-0.5c-0.4,0-0.7,0.1-1,0.4S39.9,742.5,39.9,742.9z"/>
			<path class="st4" d="M46.7,745.2l0.1,0.8c-0.2,0.1-0.5,0.1-0.7,0.1c-0.3,0-0.6-0.1-0.7-0.2s-0.3-0.2-0.4-0.4
				c-0.1-0.2-0.1-0.5-0.1-1v-3h-0.6v-0.7h0.6v-1.3l0.9-0.5v1.8h0.9v0.7h-0.9v3c0,0.3,0,0.4,0,0.5s0.1,0.1,0.2,0.2s0.2,0.1,0.3,0.1
				C46.4,745.2,46.5,745.2,46.7,745.2z"/>
			<path class="st4" d="M49.5,745.2l0.1,0.8c-0.2,0.1-0.5,0.1-0.7,0.1c-0.3,0-0.6-0.1-0.7-0.2s-0.3-0.2-0.4-0.4
				c-0.1-0.2-0.1-0.5-0.1-1v-3h-0.6v-0.7h0.6v-1.3l0.9-0.5v1.8h0.9v0.7h-0.9v3c0,0.3,0,0.4,0,0.5s0.1,0.1,0.2,0.2s0.2,0.1,0.3,0.1
				C49.2,745.2,49.3,745.2,49.5,745.2z"/>
			<path class="st4" d="M50.3,739.9v-1h0.9v1H50.3z M50.3,746v-5.2h0.9v5.2H50.3z"/>
			<path class="st4" d="M52.6,746v-5.2h0.8v0.7c0.4-0.6,0.9-0.9,1.7-0.9c0.3,0,0.6,0.1,0.9,0.2c0.3,0.1,0.5,0.3,0.6,0.4
				s0.2,0.4,0.3,0.6c0,0.2,0,0.4,0,0.9v3.2h-0.9v-3.2c0-0.4,0-0.6-0.1-0.8c-0.1-0.2-0.2-0.3-0.4-0.4c-0.2-0.1-0.4-0.2-0.6-0.2
				c-0.4,0-0.7,0.1-1,0.4s-0.4,0.7-0.4,1.4v2.8H52.6z"/>
			<path class="st4" d="M58,746.4l0.9,0.1c0,0.3,0.1,0.5,0.3,0.6c0.2,0.2,0.5,0.2,0.9,0.2c0.4,0,0.7-0.1,0.9-0.2s0.4-0.4,0.4-0.7
				c0-0.2,0.1-0.6,0.1-1.1c-0.4,0.5-0.9,0.7-1.4,0.7c-0.7,0-1.3-0.3-1.7-0.8s-0.6-1.1-0.6-1.9c0-0.5,0.1-1,0.3-1.4
				c0.2-0.4,0.4-0.7,0.8-1s0.7-0.3,1.2-0.3c0.6,0,1.1,0.2,1.5,0.7v-0.6h0.8v4.5c0,0.8-0.1,1.4-0.2,1.7c-0.2,0.3-0.4,0.6-0.8,0.8
				s-0.8,0.3-1.3,0.3c-0.6,0-1.1-0.1-1.5-0.4C58.1,747.4,57.9,747,58,746.4z M58.7,743.3c0,0.7,0.1,1.2,0.4,1.5s0.6,0.5,1,0.5
				c0.4,0,0.7-0.2,1-0.5c0.3-0.3,0.4-0.8,0.4-1.5c0-0.6-0.1-1.1-0.4-1.4s-0.6-0.5-1-0.5c-0.4,0-0.7,0.2-1,0.5
				C58.8,742.2,58.7,742.7,58.7,743.3z"/>
		</g>
		<g class="st1">
			<path class="st4" d="M22,756.1l0.9,0.1c-0.1,0.6-0.3,1.1-0.7,1.4c-0.4,0.3-0.9,0.5-1.4,0.5c-0.7,0-1.3-0.2-1.7-0.7
				c-0.4-0.5-0.6-1.1-0.6-2c0-0.6,0.1-1,0.3-1.5s0.5-0.7,0.8-0.9c0.4-0.2,0.8-0.3,1.2-0.3c0.6,0,1,0.1,1.4,0.4
				c0.4,0.3,0.6,0.7,0.7,1.2l-0.9,0.1c-0.1-0.3-0.2-0.6-0.4-0.8s-0.5-0.3-0.7-0.3c-0.4,0-0.8,0.2-1.1,0.5c-0.3,0.3-0.4,0.8-0.4,1.5
				c0,0.7,0.1,1.2,0.4,1.5s0.6,0.5,1,0.5c0.3,0,0.6-0.1,0.9-0.3S22,756.5,22,756.1z"/>
			<path class="st4" d="M27.1,758v-0.8c-0.4,0.6-1,0.9-1.6,0.9c-0.3,0-0.6-0.1-0.9-0.2s-0.5-0.3-0.6-0.4c-0.1-0.2-0.2-0.4-0.3-0.7
				c0-0.2-0.1-0.4-0.1-0.8v-3.2h0.9v2.9c0,0.5,0,0.8,0.1,0.9c0.1,0.2,0.2,0.4,0.4,0.5c0.2,0.1,0.4,0.2,0.7,0.2s0.5-0.1,0.7-0.2
				c0.2-0.1,0.4-0.3,0.5-0.6c0.1-0.2,0.1-0.6,0.1-1v-2.8h0.9v5.2H27.1z"/>
			<path class="st4" d="M29.2,758v-5.2H30v0.8c0.2-0.4,0.4-0.6,0.6-0.7s0.4-0.2,0.6-0.2c0.3,0,0.6,0.1,0.9,0.3l-0.3,0.8
				c-0.2-0.1-0.4-0.2-0.6-0.2c-0.2,0-0.4,0.1-0.5,0.2c-0.2,0.1-0.3,0.3-0.3,0.5c-0.1,0.3-0.1,0.7-0.1,1v2.7H29.2z"/>
			<path class="st4" d="M34,758l-2-5.2h0.9l1.1,3.1c0.1,0.3,0.2,0.7,0.3,1c0.1-0.3,0.2-0.6,0.3-1l1.2-3.2h0.9l-2,5.2H34z"/>
			<path class="st4" d="M41.1,756.3l0.9,0.1c-0.1,0.5-0.4,0.9-0.8,1.2s-0.9,0.4-1.5,0.4c-0.8,0-1.4-0.2-1.8-0.7
				c-0.4-0.5-0.7-1.1-0.7-2c0-0.9,0.2-1.5,0.7-2s1-0.7,1.7-0.7c0.7,0,1.3,0.2,1.7,0.7s0.7,1.1,0.7,2c0,0.1,0,0.1,0,0.2h-3.9
				c0,0.6,0.2,1,0.5,1.3s0.7,0.5,1.1,0.5c0.3,0,0.6-0.1,0.8-0.3S41,756.7,41.1,756.3z M38.2,754.9h2.9c0-0.4-0.1-0.8-0.3-1
				c-0.3-0.3-0.6-0.5-1.1-0.5c-0.4,0-0.7,0.1-1,0.4S38.2,754.5,38.2,754.9z"/>
		</g>
		<path id="Path-2" class="st5" d="M35,874c3.4-76,11.8-114,25.2-114c20,0,5.9,51.5,25.7,72.8c19.8,21.3,36.2,21.8,108.1,21.8
			c47.9,0,79.9,0,96.1,0"/>
		<path id="Path-3" class="st5" d="M73,791.5c5.7-21,13-31.5,21.9-31.5c13.3,0,11.3,35.3,17.1,55.8c12.2,28.6,33.9,27.2,51.1,27.2
			c11.5,0,53.8,0,126.9,0"/>
		<path id="Path-4" class="st5" d="M106,778.2c13.3-10.6,25.3-16.3,36.1-17.2c16.2-1.3,5.6,30.5,20.9,47.3
			c16.8,15.6,32.9,22.7,74,22.7c27.4,0,45.1,0,53,0"/>
		<path id="Path-5" class="st5" d="M151,770.4c37-10.7,57.1-13.1,60.3-7.3c4.8,8.7-0.9,40.3,21,48.2c14.6,5.3,33.8,7.9,57.7,7.7"/>
		<path id="Path-7" class="st6" d="M35,874c4-15,10.4-32.3,19.3-51.7c13.2-29.2,19.9-35.9,50.5-43.1S203.9,760,290,760"/>
		<g class="st1">
			<path d="M264,750.2l-0.4-0.5c1.8-0.8,2.8-2.3,2.9-3.9H264v-0.5h3.3C267.2,747.6,265.9,749.3,264,750.2z M268.7,751.6v-7h0.6v7
				H268.7z"/>
			<path d="M274.2,746.6c0,1-0.8,1.7-1.8,1.7s-1.8-0.6-1.8-1.7s0.8-1.7,1.8-1.7S274.2,745.6,274.2,746.6z M271.2,746.6
				c0,0.7,0.5,1.2,1.2,1.2c0.7,0,1.2-0.5,1.2-1.2c0-0.7-0.5-1.2-1.2-1.2C271.7,745.4,271.2,745.9,271.2,746.6z M275.6,751.6v-2h-4.1
				V749h4.7v2.5H275.6z M274.5,746.9v-0.5h1.2v-1.8h0.6v4.1h-0.6v-1.8H274.5z"/>
			<path d="M279.1,751.6v-2.5h-1.6v-0.5h6.3v0.5h-1.7v2.5h-0.6v-2.5h-1.8v2.5H279.1z M280.6,747.9c-1.5,0-2.5-0.6-2.5-1.5
				c0-0.9,0.9-1.5,2.5-1.5c1.6,0,2.5,0.6,2.5,1.5C283.1,747.3,282.2,747.9,280.6,747.9z M278.7,746.4c0,0.6,0.7,1,1.9,1
				c1.2,0,1.9-0.4,1.9-1c0-0.6-0.7-1-1.9-1C279.5,745.4,278.7,745.8,278.7,746.4z"/>
			<path d="M288.3,749.9c-0.7-0.4-1.5-1.3-1.8-2.1c-0.2,0.9-1,1.8-1.8,2.3l-0.4-0.4c1-0.6,1.9-1.8,1.9-3.1v-0.7h-1.6v-0.5h3.9v0.5
				h-1.6v0.7c0,1.3,0.9,2.4,1.8,3L288.3,749.9z M290.1,744.6v7h-0.6v-7H290.1z"/>
		</g>
	</g>
</g>
</svg>
