<?xml version="1.0" encoding="UTF-8"?>
<svg width="139px" height="124px" viewBox="0 0 139 124" version="1.1" xmlns="http://www.w3.org/2000/svg" xmlns:xlink="http://www.w3.org/1999/xlink">
    <!-- Generator: Sketch 51.3 (57544) - http://www.bohemiancoding.com/sketch -->
    <title>section-4-4-m-4</title>
    <desc>Created with Sketch.</desc>
    <defs></defs>
    <g id="mobile_0917" stroke="none" stroke-width="1" fill="none" fill-rule="evenodd">
        <g id="m_main" transform="translate(-20.000000, -5427.000000)" fill="#5059AB">
            <g id="section-4-4-m-4" transform="translate(20.000000, 5427.000000)">
                <g id="Group-13">
                    <path d="M103.587031,82.5498563 C96.5994111,93.9741474 83.9647687,101.621486 69.5675667,101.621486 C55.1703646,101.621486 42.5357223,93.9741474 35.5488134,82.5498563 C32.832038,78.1075482 28.0694979,75.3088093 22.8415909,75.3088093 C11.3319412,75.3088093 4.31372325,87.8217349 10.2717014,97.6173213 C11.724728,100.005522 13.3193571,102.299582 15.0434919,104.487468 C27.7393293,120.581987 47.4640582,130.938878 69.5675667,130.938878 C91.6796139,130.938878 111.403631,120.581987 124.091641,104.487468 C125.816488,102.299582 127.410405,100.005522 128.863432,97.6173213 C134.822122,87.8217349 127.803192,75.3088093 116.294254,75.3088093 C111.066347,75.3088093 106.303095,78.1075482 103.587031,82.5498563 Z M22.9775008,48.776707 C28.120731,48.776707 32.8206529,46.0317627 35.478368,41.6517432 C42.4503338,30.16304 55.1212663,22.4647382 69.5675667,22.4647382 C84.0145786,22.4647382 96.6855111,30.16304 103.657477,41.6524511 C106.315192,46.0317627 111.014402,48.776707 116.156921,48.776707 L116.719773,48.776707 C127.874349,48.776707 134.938819,36.7125423 129.27472,27.1533693 C127.712823,24.5181378 125.980149,21.9947426 124.091641,19.5987559 C111.403631,3.50352931 91.6796139,-6.85265435 69.5675667,-6.85265435 C47.4640582,-6.85265435 27.7393293,3.50352931 15.0434919,19.5987559 C13.1556959,21.9940348 11.4230222,24.5167221 9.86183693,27.1512458 C4.19702572,36.7118344 11.2622073,48.776707 22.4182066,48.776707 L22.9775008,48.776707 Z" id="Fill-437-Copy" opacity="0.601841518" transform="translate(69.568140, 62.043112) rotate(90.000000) translate(-69.568140, -62.043112) "></path>
                    <g id="admin-copy" transform="translate(49.000000, 47.000000)" fill-rule="nonzero">
                        <path d="M34.9020205,0 L8.24956848,0 C6.49812164,0.00221980376 5.07887859,1.42067441 5.07665753,3.17114823 L5.07665753,13.3188226 L6.34582191,13.3188226 L6.34582191,3.17114823 C6.34582191,2.12054684 7.1983831,1.26845929 8.24956848,1.26845929 L34.9020205,1.26845929 C35.9532059,1.26845929 36.8057671,2.12054684 36.8057671,3.17114823 L36.8057671,22.8322672 C36.8057671,23.8828686 35.9532059,24.7349562 34.9020205,24.7349562 L26.652452,24.7349562 L26.652452,26.0034155 L34.9020205,26.0034155 C36.6534674,26.0011956 38.0727104,24.5827411 38.0749315,22.8322672 L38.0749315,3.17114823 C38.0727104,1.42067441 36.6534674,0.00221980376 34.9020205,0 Z" id="Shape"></path>
                        <polygon id="Shape" points="7.61498629 2.53691858 8.88415068 2.53691858 8.88415068 3.80537787 7.61498629 3.80537787"></polygon>
                        <polygon id="Shape" points="10.1533151 2.53691858 11.4224794 2.53691858 11.4224794 3.80537787 10.1533151 3.80537787"></polygon>
                        <polygon id="Shape" points="12.6916438 2.53691858 13.9608082 2.53691858 13.9608082 3.80537787 12.6916438 3.80537787"></polygon>
                        <polygon id="Shape" points="7.61498629 5.07383716 35.5366027 5.07383716 35.5366027 6.34229645 7.61498629 6.34229645"></polygon>
                        <polygon id="Shape" points="7.61498629 7.61075575 13.9608082 7.61075575 13.9608082 8.87921504 7.61498629 8.87921504"></polygon>
                        <polygon id="Shape" points="7.61498629 10.1476743 11.4224794 10.1476743 11.4224794 11.4161336 7.61498629 11.4161336"></polygon>
                        <path d="M18.4028835,12.0503633 L18.4028835,10.781904 C18.4028835,10.4314921 18.118908,10.1476743 17.7683014,10.1476743 L15.2299726,10.1476743 C14.8793659,10.1476743 14.5953904,10.4314921 14.5953904,10.781904 L14.5953904,11.4161336 L17.1337192,11.4161336 L17.1337192,12.0503633 L18.4028835,12.0503633 Z" id="Shape"></path>
                        <path d="M23.4795411,15.2215115 L23.4795411,8.87921504 C23.4795411,8.52880318 23.1955655,8.24498539 22.8449589,8.24498539 L20.3066301,8.24498539 C19.9560235,8.24498539 19.6720479,8.52880318 19.6720479,8.87921504 L19.6720479,13.3188226 L20.9412123,13.3188226 L20.9412123,9.51344468 L22.2103767,9.51344468 L22.2103767,15.2215115 L23.4795411,15.2215115 Z" id="Shape"></path>
                        <path d="M27.2870342,21.5638079 L26.652452,21.5638079 L26.652452,22.8322672 L35.5366027,22.8322672 L35.5366027,21.5638079 L33.6328561,21.5638079 L33.6328561,8.87921504 C33.6328561,8.52880318 33.3488806,8.24498539 32.9982739,8.24498539 L30.4599452,8.24498539 C30.1093385,8.24498539 29.825363,8.52880318 29.825363,8.87921504 L29.825363,21.5638079 L28.5561986,21.5638079 L28.5561986,13.3188226 C28.5561986,12.9684107 28.272223,12.6845929 27.9216164,12.6845929 L25.3832876,12.6845929 C25.032681,12.6845929 24.7487055,12.9684107 24.7487055,13.3188226 L24.7487055,19.0268894 L26.0178698,19.0268894 L26.0178698,13.9530522 L27.2870342,13.9530522 L27.2870342,21.5638079 Z M31.0945274,9.51344468 L32.3636917,9.51344468 L32.3636917,21.5638079 L31.0945274,21.5638079 L31.0945274,9.51344468 Z" id="Shape"></path>
                        <path d="M12.6916438,12.6845929 C5.6818903,12.6845929 0,18.3633266 0,25.3691858 C0,32.375045 5.6818903,38.0537787 12.6916438,38.0537787 C19.7013973,38.0537787 25.3832876,32.375045 25.3832876,25.3691858 C25.3753554,18.3669734 19.6977485,12.6925208 12.6916438,12.6845929 Z M12.6916438,36.7853194 C6.50319829,36.7902347 1.4360595,31.8690883 1.26424636,25.6863006 C1.09227459,19.5038301 5.87781752,14.308855 12.0570616,13.9701764 L12.0570616,25.3691858 C12.0570616,25.3826632 12.0642007,25.394555 12.0648353,25.4086666 C12.0681668,25.4644788 12.079272,25.5198154 12.0976749,25.5724564 C12.1017997,25.585141 12.0976749,25.6008382 12.106559,25.6132057 C12.1106838,25.620975 12.1149672,25.6284272 12.1202026,25.6355623 C12.1498693,25.7012051 12.1900066,25.7616154 12.2398213,25.8139393 L12.2434702,25.8180619 L20.3066301,33.8773765 C18.216951,35.756916 15.5028429,36.7932473 12.6916438,36.7853194 Z M21.2045639,32.9799416 L14.2241598,26.0034155 L24.0969895,26.0034155 C23.9603957,28.5913895 22.939353,31.0537861 21.2045639,32.9799416 Z M13.326226,24.7349562 L13.326226,13.9701764 C19.1323358,14.3009271 23.7660549,18.932072 24.0969895,24.7349562 L13.326226,24.7349562 Z" id="Shape"></path>
                    </g>
                </g>
            </g>
        </g>
    </g>
</svg>