<?xml version="1.0" encoding="UTF-8"?>
<svg width="244px" height="273px" viewBox="0 0 244 273" version="1.1" xmlns="http://www.w3.org/2000/svg" xmlns:xlink="http://www.w3.org/1999/xlink">
    <!-- Generator: Sketch 51.3 (57544) - http://www.bohemiancoding.com/sketch -->
    <title>section-4-4-3</title>
    <desc>Created with Sketch.</desc>
    <defs></defs>
    <g id="web_0917" stroke="none" stroke-width="1" fill="none" fill-rule="evenodd">
        <g id="Home_white_main1" transform="translate(-847.000000, -7844.000000)" fill="#14A0C0">
            <g id="Group-6" transform="translate(372.000000, 4904.000000)">
                <g id="section-4-4-3" transform="translate(475.000000, 2940.000000)">
                    <path d="M188.897576,176.522893 C175.109773,199.079854 150.176865,214.179321 121.765763,214.179321 C93.3546614,214.179321 68.4217535,199.079854 54.6339509,176.522893 C49.2727298,167.751673 39.8730404,162.225637 29.5564108,162.225637 C6.84494136,162.225637 -7.00605005,186.932078 4.752689,206.273204 C7.62005766,210.988643 10.7668614,215.518204 14.1692288,219.838127 C39.2214934,251.616329 78.1458123,272.065737 121.765763,272.065737 C165.399756,272.065737 204.324075,251.616329 229.362298,219.838127 C232.764665,215.518204 235.911469,210.988643 238.778838,206.273204 C250.537577,186.932078 236.686585,162.225637 213.973712,162.225637 C203.658486,162.225637 194.258797,167.751673 188.897576,176.522893 Z M29.8260165,109.838703 C39.9755467,109.838703 49.2488585,104.418883 54.4949355,95.7706503 C68.25325,73.0865096 93.2577719,57.8864163 121.765763,57.8864163 C150.273755,57.8864163 175.279681,73.0865096 189.036591,95.7720478 C194.282668,104.418883 203.55598,109.838703 213.704106,109.838703 L214.813421,109.838703 C236.825601,109.838703 250.767865,86.0183285 239.589059,67.1439943 C236.508252,61.9407994 233.08763,56.9584224 229.362298,52.22761 C204.324075,20.4480107 165.399756,0 121.765763,0 C78.1458123,0 39.2214934,20.4480107 14.1692288,52.22761 C10.4438962,56.9570248 7.02467847,61.9380042 3.94387199,67.1398015 C-7.23493404,86.016931 6.70733013,109.838703 28.7223183,109.838703 L29.8260165,109.838703 Z" id="Fill-426" opacity="0.601841518"></path>
                    <g id="analytics" transform="translate(91.000000, 108.000000)" fill-rule="nonzero">
                        <path d="M54.6083203,5.39167969 C51.1313672,1.91484375 46.5086719,0 41.5916016,0 C36.6745313,0 32.0518359,1.91484375 28.5748828,5.39167969 C28.1254687,5.84109375 27.7026562,6.31007812 27.3062109,6.7959375 C27.2685938,5.05136719 25.8387891,3.64335937 24.0853125,3.64335937 C22.3083984,3.64335937 20.8626563,5.08910156 20.8626563,6.86601562 C20.8626563,7.5825 21.0979687,8.24484375 21.495,8.780625 L13.738125,18.688125 C13.3025391,18.4681641 12.8110547,18.3434766 12.2907422,18.3434766 C10.7221875,18.3434766 9.41238281,19.4702344 9.12667969,20.9567578 L4.171875,20.9567578 C3.68636719,20.9567578 3.29296875,21.3501562 3.29296875,21.8356641 C3.29296875,22.3211719 3.68636719,22.7145703 4.171875,22.7145703 L9.28042969,22.7145703 C9.74414062,23.9259375 10.9183594,24.7887891 12.2907422,24.7887891 C14.0676562,24.7887891 15.5133984,23.3430469 15.5133984,21.5661328 C15.5133984,20.9489062 15.3386719,20.371875 15.0364453,19.8812109 L22.8854297,9.85605469 C23.2565625,10.0055859 23.6613281,10.0886719 24.0854297,10.0886719 C24.4720313,10.0886719 24.8429297,10.0201172 25.1866406,9.89472656 L25.23,9.95566406 C23.8927734,12.5368359 23.1833203,15.4178906 23.1833203,18.4083984 C23.1833203,22.4327344 24.4666406,26.259375 26.8385156,29.4226172 L23.7970313,32.4650391 L23.1704297,31.8384375 C22.8270703,31.4953125 22.2706641,31.4953125 21.9274219,31.8384375 L8.32804688,45.4374609 C7.98480469,45.7808203 7.98480469,46.3372266 8.32804688,46.6804687 C8.49972656,46.8520312 8.72472656,46.9378125 8.94960937,46.9378125 C9.17449219,46.9378125 9.39949219,46.8520312 9.57117187,46.6804687 L13.1644922,43.0871484 L16.9128516,46.8355078 L5.660625,58.0877344 C5.56101562,58.1873437 5.42871094,58.2420703 5.28773437,58.2420703 C5.14699219,58.2420703 5.01457031,58.1872266 4.91484375,58.0876172 L1.91226562,55.0851562 C1.81265625,54.9855469 1.7578125,54.853125 1.7578125,54.7122656 C1.7578125,54.5714062 1.81265625,54.4389844 1.91226562,54.339375 L6.83671875,49.4149219 C7.17996094,49.0715625 7.17996094,48.5151562 6.83671875,48.1719141 C6.49335937,47.8287891 5.93695312,47.8287891 5.59371094,48.1719141 L0.669375,53.0963672 C0.23765625,53.5278516 0,54.1018359 0,54.7122656 C0,55.3225781 0.23765625,55.8964453 0.669375,56.3281641 L3.67195312,59.330625 C4.10355469,59.7623437 4.67730469,60 5.28773437,60 C5.89828125,60 6.47203125,59.7623437 6.90363281,59.3307422 L24.3720703,41.8624219 C24.7153125,41.5190625 24.7153125,40.9626562 24.3720703,40.6194141 C24.0288281,40.2764062 23.4724219,40.2761719 23.1290625,40.6194141 L20.6514844,43.0969922 L16.9030078,39.3486328 L22.5486328,33.7030078 L26.2969922,37.4513672 L25.8389063,37.9095703 C25.4956641,38.2528125 25.4956641,38.8093359 25.8390234,39.1524609 C26.1821484,39.4955859 26.7386719,39.4957031 27.0819141,39.1523437 L28.1614453,38.0726953 C28.5046875,37.7294531 28.5046875,37.1730469 28.1614453,36.8298047 L27.5357812,36.2041406 L30.5773828,33.1617187 C33.7405078,35.5334766 37.5671484,36.8167969 41.5914844,36.8167969 C46.5085547,36.8167969 51.13125,34.9019531 54.6082031,31.4251172 C58.0851562,27.9481641 60,23.3254687 60,18.4083984 C60,13.4913281 58.0851562,8.86863281 54.6083203,5.39167969 Z M12.2907422,23.0308594 C11.4829688,23.0308594 10.8258984,22.3737891 10.8258984,21.5660156 C10.8258984,20.7582422 11.4829688,20.1011719 12.2907422,20.1011719 C13.0985156,20.1011719 13.7555859,20.7582422 13.7555859,21.5660156 C13.7555859,22.3737891 13.0983984,23.0308594 12.2907422,23.0308594 Z M19.4085937,44.3398828 L18.1558594,45.5926172 L14.4075,41.8442578 L15.6601172,40.5916406 L19.4085937,44.3398828 Z M24.0853125,8.33085937 C23.2775391,8.33085937 22.6204687,7.67367187 22.6204687,6.86601562 C22.6204687,6.05824219 23.2775391,5.40117187 24.0853125,5.40117187 C24.8930859,5.40117187 25.5501562,6.05824219 25.5501562,6.86601562 C25.5501562,7.67378906 24.8930859,8.33085937 24.0853125,8.33085937 Z M26.2930078,34.9611328 L25.0398047,33.7079297 L27.9632813,30.7836328 C28.1614453,31.0014844 28.3651172,31.2154687 28.5748828,31.4251172 C28.7846484,31.6348828 28.99875,31.8385547 29.2166016,32.0368359 L26.2930078,34.9611328 Z M53.3653125,30.1821094 C50.2204687,33.3270703 46.0391016,35.0589844 41.5916016,35.0589844 C37.1441016,35.0589844 32.9627344,33.3270703 29.8178906,30.1821094 C26.6729297,27.0372656 24.9410156,22.8558984 24.9410156,18.4083984 C24.9410156,15.5482031 25.6584375,12.7985156 27.0062109,10.3633594 C27.0254297,10.333125 27.0425391,10.3018359 27.0577734,10.2697266 C27.7972266,8.95394531 28.7213672,7.73109375 29.8178906,6.6346875 C32.9627344,3.48972656 37.1441016,1.7578125 41.5916016,1.7578125 C46.0391016,1.7578125 50.2204687,3.48972656 53.3653125,6.6346875 C56.5102734,9.77953125 58.2421875,13.9608984 58.2421875,18.4083984 C58.2421875,22.8558984 56.5102734,27.0372656 53.3653125,30.1821094 Z" id="Shape"></path>
                        <path d="M52.1224219,7.87769531 C49.3094531,5.06484375 45.5695312,3.515625 41.5916016,3.515625 C37.6136719,3.515625 33.8738672,5.06472656 31.0607813,7.87757813 C29.6191406,9.31921875 28.5104297,11.0048438 27.7712109,12.8407031 C27.7691016,12.8460938 27.7667578,12.8513672 27.7647656,12.8567578 C27.0658594,14.5985156 26.6989453,16.4750391 26.6989453,18.4083984 C26.6989453,22.3864453 28.2480469,26.12625 31.0608984,28.9392188 C33.8738672,31.7520703 37.6137891,33.3012891 41.5917187,33.3012891 C45.5696484,33.3012891 49.3095703,31.7520703 52.1225391,28.9392188 C52.7851172,28.2765234 53.3865234,27.5518359 53.9102344,26.7853125 C54.1839844,26.3844141 54.0809766,25.8376172 53.6801953,25.56375 C53.2794141,25.29 52.7323828,25.3930078 52.4586328,25.7937891 C51.9964453,26.4704297 51.4651172,27.1105078 50.8794141,27.6960938 C48.3985547,30.1770703 45.1000781,31.5433594 41.5916016,31.5433594 C38.083125,31.5433594 34.7846484,30.1770703 32.3037891,27.6960938 C29.8229297,25.2152344 28.4566406,21.916875 28.4566406,18.4082813 C28.4566406,17.2714453 28.6008984,16.1571094 28.8792188,15.0850781 L35.3191406,24.1359375 C34.8986719,24.6803906 34.6477734,25.3619531 34.6477734,26.1014063 C34.6477734,27.8783203 36.0935156,29.3240625 37.8704297,29.3240625 C39.6473437,29.3240625 41.0930859,27.8783203 41.0930859,26.1014063 C41.0930859,25.2991406 40.7977734,24.5650781 40.3109766,24.0004688 L42.6713672,19.9502344 C42.9789844,20.0480859 43.3062891,20.1011719 43.6458984,20.1011719 C45.2103516,20.1011719 46.5175781,18.9802734 46.8078516,17.4996094 L52.5386719,17.4996094 C53.0241797,17.4996094 53.4175781,17.1062109 53.4175781,16.6207031 C53.4175781,16.1351953 53.0241797,15.7417969 52.5386719,15.7417969 L46.6607812,15.7417969 C46.2001172,14.5242188 45.0226172,13.6558594 43.6457812,13.6558594 C41.8688672,13.6558594 40.423125,15.1016016 40.423125,16.8785156 C40.423125,17.6798438 40.7178516,18.4132031 41.2035937,18.9776953 L38.8426172,23.0289844 C38.5357031,22.9316016 38.2091016,22.87875 37.8704297,22.87875 C37.4692969,22.87875 37.0852734,22.9530469 36.7306641,23.0875781 L29.5906641,13.0528125 C30.2370703,11.6058984 31.1494922,10.2746484 32.3036719,9.12046875 C34.7846484,6.63972656 38.0832422,5.2734375 41.5916016,5.2734375 C45.0999609,5.2734375 48.3985547,6.63972656 50.8795312,9.12070313 C53.3602734,11.6014453 54.7265625,14.8999219 54.7265625,18.4085156 C54.7265625,19.805625 54.5104687,21.1782422 54.084375,22.4882813 C53.9342578,22.9498828 54.1866797,23.4458203 54.6482812,23.5959375 C55.1097656,23.7459375 55.6058203,23.49375 55.7559375,23.0320313 C56.2393359,21.5459766 56.4844922,19.9904297 56.4844922,18.4083984 C56.484375,14.4303516 54.9352734,10.6904297 52.1224219,7.87769531 Z M43.6457812,15.4136719 C44.4535547,15.4136719 45.110625,16.0707422 45.110625,16.8785156 C45.110625,17.6862891 44.4535547,18.3433594 43.6457812,18.3433594 C42.8380078,18.3433594 42.1809375,17.6862891 42.1809375,16.8785156 C42.1809375,16.0707422 42.838125,15.4136719 43.6457812,15.4136719 Z M37.8704297,24.6365625 C38.6782031,24.6365625 39.3352734,25.29375 39.3352734,26.1014063 C39.3352734,26.9091797 38.6782031,27.56625 37.8704297,27.56625 C37.0626563,27.56625 36.4055859,26.9091797 36.4055859,26.1014063 C36.4055859,25.2936328 37.0626563,24.6365625 37.8704297,24.6365625 Z" id="Shape"></path>
                    </g>
                </g>
            </g>
        </g>
    </g>
</svg>