<?xml version="1.0" encoding="utf-8"?>
<!-- Generator: Adobe Illustrator 16.0.0, SVG Export Plug-In . SVG Version: 6.00 Build 0)  -->
<!DOCTYPE svg PUBLIC "-//W3C//DTD SVG 1.1//EN" "http://www.w3.org/Graphics/SVG/1.1/DTD/svg11.dtd">
<svg version="1.1" id="Layer_1" xmlns="http://www.w3.org/2000/svg" xmlns:xlink="http://www.w3.org/1999/xlink" x="0px" y="0px"
	 width="1417.32px" height="784px" viewBox="0 0 1417.32 784" enable-background="new 0 0 1417.32 784" xml:space="preserve">
<g>
	<path fill-rule="evenodd" clip-rule="evenodd" fill="none" stroke="#FFFFFF" stroke-width="5.6693" stroke-miterlimit="10" d="
		M367.857,39.085c-7.682,4.14-238.483,137.123-299.065,171.994c-11.525,6.796-21.572,13.89-22.458,15.956
		c-1.478,3.844,2.067,31.03,4.137,32.805c2.363,1.773,116.73,66.194,200.362,112.594c74.769,41.668,84.815,46.396,94.567,44.917
		c6.204-0.886,32.506-14.185,62.353-31.619c28.372-16.552,83.929-48.76,123.235-71.519l71.514-41.075l130.621,72.994
		c118.209,66.198,131.209,72.698,140.961,71.219c6.206-0.886,31.03-13.004,58.216-28.664c26.007-15.073,68.564-39.6,94.565-54.671
		c26.01-15.073,76.541-44.327,112.299-65.014c35.757-20.392,66.492-39.306,68.264-41.372c2.957-3.844,1.185-32.214-2.066-34.874
		c-0.589-0.589-9.755-5.911-20.392-11.526c-10.637-5.614-53.193-29.553-94.566-52.897C955.352,52.678,920.479,34.064,913.09,34.064
		c-6.499,0-101.358,52.896-223.115,124.118c-16.253,9.749-31.618,18.321-34.278,19.209c-2.956,1.182-24.528-9.46-56.149-27.485
		C474.84,79.274,390.911,34.064,384.111,34.064C379.976,34.358,372.885,36.425,367.857,39.085z M443.811,76.32
		c33.096,18.621,89.245,49.944,125.002,70.042c35.759,19.797,66.197,37.234,67.38,38.417c1.478,1.18-10.935,10.046-27.188,19.209
		c-16.551,9.159-31.03,18.319-32.211,20.389c-1.182,1.775-2.071,8.273-2.071,14.479v11.525l-112.299,65.016
		c-61.762,36.054-115.252,65.902-118.796,66.492c-7.388,1.772-10.344,0.294-138.306-71.514
		c-48.761-27.192-101.067-56.446-115.843-64.72c-15.071-8.277-27.483-15.959-27.483-16.845s20.391-13.597,45.213-27.778
		c63.54-36.94,144.513-83.635,213.365-123.529c32.508-18.915,59.993-34.279,61.176-34.574C382.932,42.929,411.006,58,443.811,76.32z
		 M1033.959,110.01c65.905,36.939,128.258,71.516,138.602,77.13c10.048,5.322,18.32,10.641,18.32,11.821
		c0,1.183-17.731,12.118-39.301,24.825C1031.005,293.527,884.722,377.457,877.334,381.3c-9.161,5.022,11.526,15.66-196.224-100.476
		c-32.507-18.327-66.194-36.941-74.469-41.671c-8.571-4.729-15.665-9.457-15.665-10.641c0-0.882,23.054-15.07,51.128-31.323
		C735.487,143.7,889.75,54.453,899.203,48.542c5.315-2.955,10.639-5.613,12.115-5.613C912.797,42.929,968.057,73.07,1033.959,110.01
		z"/>
	<path fill-rule="evenodd" clip-rule="evenodd" fill="none" stroke="#FFFFFF" stroke-width="5.6693" stroke-miterlimit="10" d="
		M307.872,148.133c-10.938,7.389-6.8,19.503,6.204,18.617c2.066,0,0.589-1.18-2.956-2.658c-7.979-3.252-6.204-12.71,2.956-17.143
		c3.543-1.771,5.022-3.25,3.543-3.25C315.848,143.406,311.415,145.473,307.872,148.133z"/>
	<path fill-rule="evenodd" clip-rule="evenodd" fill="none" stroke="#FFFFFF" stroke-width="5.6693" stroke-miterlimit="10" d="
		M337.125,148.723c7.092,4.433,7.389,5.321,3.253,9.459c-2.661,2.361-6.8,5.317-9.163,6.499c-4.432,1.773-4.432,2.07,0,2.07
		c2.363,0.297,7.388-2.363,11.229-5.91c6.205-5.911,6.205-6.502,1.478-11.821c-2.661-2.956-7.094-5.613-9.752-5.613
		C330.918,143.406,332.101,145.179,337.125,148.723z"/>
	<path fill-rule="evenodd" clip-rule="evenodd" fill="none" stroke="#FFFFFF" stroke-width="5.6693" stroke-miterlimit="10" d="
		M421.35,182.118c-27.777,1.478-51.419,3.841-52.897,5.319c-1.478,1.477-3.844,13-5.322,25.71
		c-5.021,39.896-2.363,36.646-29.258,36.646c-12.704,0-24.23,1.478-25.119,2.955c-2.955,4.728-8.568,58.808-6.499,60.876
		c1.771,2.065,221.934-123.233,229.617-130.621c3.549-3.546-0.294-4.136-28.075-3.841
		C485.772,179.458,448.832,180.936,421.35,182.118z M511.186,185.959c0,0.591-12.41,7.98-27.186,16.551
		c-15.07,8.865-59.104,34.28-98.113,56.737c-38.715,22.459-71.222,40.19-72.105,39.601c-0.594-0.888-0.297-10.637,1.18-21.575
		l2.658-20.092l25.12-1.477l25.118-1.478l2.073-13.298c1.18-7.388,3.25-21.281,4.433-31.03l2.359-17.731l56.15-3.253
		C504.981,184.779,511.186,184.482,511.186,185.959z"/>
	<path fill-rule="evenodd" clip-rule="evenodd" fill="none" stroke="#FFFFFF" stroke-width="5.6693" stroke-miterlimit="10" d="
		M837.735,204.282c-55.26,31.916-102.248,59.693-104.612,61.765c-3.841,3.544-3.547,4.434,0.298,5.911
		c5.315,2.067,212.471-115.847,214.544-122.052C950.92,140.746,931.417,150.2,837.735,204.282z"/>
	<path fill-rule="evenodd" clip-rule="evenodd" fill="none" stroke="#FFFFFF" stroke-width="5.6693" stroke-miterlimit="10" d="
		M983.427,155.815c-6.204,3.25-11.231,7.094-11.231,8.572c0,4.138,2.366,3.25,12.71-3.844c5.315-3.838,10.048-7.091,10.637-7.388
		c0.589-0.589,0.589-1.478,0-2.066C994.953,150.498,989.338,152.566,983.427,155.815z"/>
	<path fill-rule="evenodd" clip-rule="evenodd" fill="none" stroke="#FFFFFF" stroke-width="5.6693" stroke-miterlimit="10" d="
		M957.419,171.48c-5.615,4.136-8.57,7.388-6.795,7.388c2.067,0,5.316-2.072,7.683-4.433c2.36-2.366,5.023-3.55,5.911-2.661
		c0.589,0.886,2.066-0.591,2.955-3.25C969.534,162.615,969.238,162.909,957.419,171.48z"/>
	<path fill-rule="evenodd" clip-rule="evenodd" fill="none" stroke="#FFFFFF" stroke-width="5.6693" stroke-miterlimit="10" d="
		M937.326,180.936c-1.776,0.591-2.659,2.661-1.776,4.432c0.889,1.478-0.591,2.367-3.25,1.772c-2.955-0.589-5.616,0.889-6.205,2.955
		c-0.295,2.072,0,2.367,0.589,0.889c0.889-1.772,3.256-2.367,5.322-1.477c2.066,0.885,6.204-1.183,9.159-4.728
		C946.487,179.163,945.01,177.686,937.326,180.936z"/>
	<path fill-rule="evenodd" clip-rule="evenodd" fill="none" stroke="#FFFFFF" stroke-width="5.6693" stroke-miterlimit="10" d="
		M914.568,196.6c-0.883,1.772,0.294,2.066,2.661,1.182c5.321-2.07,6.204-4.137,2.066-4.137
		C917.523,193.645,915.457,194.825,914.568,196.6z"/>
	<path fill-rule="evenodd" clip-rule="evenodd" fill="none" stroke="#FFFFFF" stroke-width="5.6693" stroke-miterlimit="10" d="
		M1006.18,206.055c-7.977,5.024-15.364,10.343-15.659,11.525c-0.595,1.479-2.661,1.772-4.139,0.886
		c-2.071-1.18-2.366-0.591-1.183,1.181c1.477,2.366,5.321,1.183,13.004-3.839c5.91-4.138,16.253-10.048,22.753-13.003
		c7.983-3.844,10.049-5.911,5.909-5.911C1023.617,196.895,1014.456,200.736,1006.18,206.055z"/>
	<path fill-rule="evenodd" clip-rule="evenodd" fill="none" stroke="#FFFFFF" stroke-width="5.6693" stroke-miterlimit="10" d="
		M868.767,250.088c-44.627,25.708-81.563,48.466-82.155,49.944c-2.661,7.388,14.482,1.478,44.623-15.959
		c108.159-62.06,130.617-75.652,131.506-78.313C965.99,196.302,941.76,207.532,868.767,250.088z"/>
	<path fill-rule="evenodd" clip-rule="evenodd" fill="none" stroke="#FFFFFF" stroke-width="5.6693" stroke-miterlimit="10" d="
		M819.413,246.244c-54.374,31.625-68.262,41.967-55.26,41.967c5.91,0,128.251-70.631,128.251-74.177
		C892.404,206.646,873.79,214.625,819.413,246.244z"/>
	<path fill-rule="evenodd" clip-rule="evenodd" fill="none" stroke="#FFFFFF" stroke-width="5.6693" stroke-miterlimit="10" d="
		M973.966,224.674c-2.361,2.658-5.609,4.433-6.793,4.433c-1.183-0.297-2.955,1.771-3.249,4.727
		c-1.184,4.433-0.301,4.139,6.498-0.592c4.14-3.251,7.684-6.796,7.684-7.979c0-1.478,1.478-1.478,3.55-0.294
		c2.066,1.183,2.36,0.886,1.178-1.183C980.178,219.353,979.288,219.353,973.966,224.674z"/>
	<path fill-rule="evenodd" clip-rule="evenodd" fill="none" stroke="#FFFFFF" stroke-width="5.6693" stroke-miterlimit="10" d="
		M951.804,237.676c-3.251,3.253-6.794,4.73-7.979,3.841c-1.183-1.183-1.183-0.588,0,1.478c2.662,4.728,15.665-0.886,15.665-6.797
		C959.49,230.879,958.603,230.879,951.804,237.676z"/>
	<path fill-rule="evenodd" clip-rule="evenodd" fill="none" stroke="#FFFFFF" stroke-width="5.6693" stroke-miterlimit="10" d="
		M934.959,248.019c-0.887,2.363-5.614,5.319-10.342,6.208c-4.728,1.181-13.004,5.911-18.319,10.932
		c-9.166,8.572-9.166,8.572-1.479,5.024c4.434-1.775,7.389-5.024,6.205-6.502c-1.183-1.771,0-2.363,2.36-1.477
		c5.322,2.07,31.029-13.888,26.598-16.548C938.21,244.472,935.85,245.361,934.959,248.019z"/>
	<path fill-rule="evenodd" clip-rule="evenodd" fill="none" stroke="#FFFFFF" stroke-width="5.6693" stroke-miterlimit="10" d="
		M883.839,276.093c-6.207,3.252-8.865,6.208-6.505,7.388c1.774,1.181,3.253,0.592,3.253-1.18c0-1.774,0.886-2.66,2.362-2.072
		c1.184,0.888,4.728-1.18,7.684-4.136C897.725,269.297,896.543,269.297,883.839,276.093z"/>
	<path fill-rule="evenodd" clip-rule="evenodd" fill="none" stroke="#FFFFFF" stroke-width="5.6693" stroke-miterlimit="10" d="
		M862.855,291.167c0,1.478-2.069,2.066-4.433,1.181c-2.364-1.181-4.435-1.181-4.435-0.298c0,3.845,8.867,4.139,11.821,0.298
		c2.658-2.956,2.658-4.136,0.298-4.136C864.332,288.211,862.855,289.392,862.855,291.167z"/>
	<path fill-rule="evenodd" clip-rule="evenodd" fill="none" stroke="#FFFFFF" stroke-width="5.6693" stroke-miterlimit="10" d="
		M843.646,299.438c-1.774,1.183-3.253,4.138-3.841,6.504c-0.889,3.544,0,3.544,4.138-0.595
		C849.26,300.032,848.966,295.6,843.646,299.438z"/>
	<path fill-rule="evenodd" clip-rule="evenodd" fill="none" stroke="#FFFFFF" stroke-width="5.6693" stroke-miterlimit="10" d="
		M831.826,305.942c-0.888,1.478-0.298,2.955,1.18,2.955c1.774,0,3.252-1.477,3.252-2.955c0-1.775-0.592-2.955-1.18-2.955
		C834.189,302.988,832.711,304.167,831.826,305.942z"/>
	<path fill-rule="evenodd" clip-rule="evenodd" fill="none" stroke="#FFFFFF" stroke-width="5.6693" stroke-miterlimit="10" d="
		M821.482,311.853c-5.91,3.545-2.956,5.613,4.136,2.956c3.253-0.888,4.432-2.662,2.954-3.845
		C826.801,310.079,823.846,310.375,821.482,311.853z"/>
	<path fill-rule="evenodd" clip-rule="evenodd" fill="none" stroke="#FFFFFF" stroke-width="5.6693" stroke-miterlimit="10" d="
		M434.35,419.719c-98.999,57.331-114.955,66.492-188.244,109.343c-42.555,24.523-42.262,24.229-37.532,48.165
		c1.478,7.982,6.208,11.526,34.871,27.486c18.026,10.048,82.157,46.1,142.441,80.085c61.468,34.28,112.889,61.471,117.028,61.471
		c6.793,0,55.554-26.892,211.297-117.025c26.597-15.37,48.76-27.78,49.645-27.78c1.183,0,177.903,98.112,244.69,135.939
		c13.298,7.39,19.208,9.159,26.303,7.683c5.021-0.889,36.64-17.438,70.035-36.645c186.179-106.978,259.168-149.532,263.013-153.077
		c3.251-2.954,3.545-7.094,1.478-19.208c-2.366-14.188-3.844-16.254-15.958-23.348c-7.389-4.432-70.926-39.896-140.962-79.202
		c-98.704-55.259-130.323-71.515-138.306-71.515c-9.749,0-58.811,27.187-221.638,122.048
		c-19.506,11.231-36.939,20.687-38.417,20.687c-1.775,0-60.582-31.913-130.618-71.22c-106.979-59.99-129.44-71.515-138.895-71.22
		C535.716,362.386,513.847,373.912,434.35,419.719z M614.03,408.191c36.94,20.687,98.407,54.672,136.527,75.947
		c38.124,21.279,70.628,39.305,71.811,40.488c2.663,2.067-13.591,11.821-164.899,99.001
		c-46.985,27.185-100.478,57.919-118.502,68.265c-18.026,10.343-34.872,18.914-37.235,18.914
		c-4.139,0-272.174-148.055-278.083-153.671c-1.478-1.184,16.548-13.005,39.895-26.598c23.345-13.298,68.264-39.307,99.883-57.626
		c31.625-18.326,84.224-48.762,116.731-67.676c32.507-18.62,60.878-34.279,62.948-34.279
		C545.468,370.957,577.383,387.8,614.03,408.191z M1115.521,394.005c230.802,128.85,235.233,131.505,231.396,135.056
		c-2.071,1.771-36.939,22.457-77.725,45.805c-40.483,23.347-110.224,63.538-154.854,89.245
		c-44.622,25.715-82.15,46.695-83.629,46.695c-2.661,0-139.189-75.359-211.886-117.026l-21.869-12.415l21.275-11.227
		c23.346-12.709,25.713-16.848,22.758-38.123c-1.478-9.16-3.844-13.592-7.982-14.775c-2.956-1.184-5.613-2.661-5.613-3.845
		s38.121-24.231,84.815-50.827c46.395-26.891,100.771-58.221,120.274-70.042c19.798-11.523,37.234-20.98,38.711-21.275
		C1072.966,370.957,1092.771,381.3,1115.521,394.005z"/>
	<path fill-rule="evenodd" clip-rule="evenodd" fill="none" stroke="#FFFFFF" stroke-width="5.6693" stroke-miterlimit="10" d="
		M508.231,511.624c-30.142,7.094-56.739,13.003-59.399,13.003c-2.661,0-7.094,2.362-9.751,5.617
		c-5.911,6.498-8.274,4.434,44.919,34.279c22.458,12.41,31.917,16.547,37.234,15.069c5.024-1.182,14.482-12.409,30.144-35.167
		c23.939-34.573,27.777-44.623,17.435-45.512C565.563,498.619,538.377,504.236,508.231,511.624z M543.399,537.928
		c-11.821,17.135-22.459,31.912-23.643,32.8c-2.955,1.771-67.674-33.985-67.674-37.235c0-1.182,10.937-4.431,24.53-7.092
		c13.298-2.661,36.939-8.277,52.304-12.116c15.371-3.549,29.85-7.093,31.919-7.093C562.902,506.896,554.925,520.784,543.399,537.928
		z"/>
	<path fill-rule="evenodd" clip-rule="evenodd" fill="none" stroke="#FFFFFF" stroke-width="5.6693" stroke-miterlimit="10" d="
		M1034.548,476.161c-20.092,2.065-40.189,2.367-44.622,1.185c-6.204-1.772-10.932-0.596-20.392,5.02
		c-6.5,3.846-12.115,7.683-12.115,8.277c0,0.589,15.069,9.16,33.396,19.502c18.024,10.051,42.256,23.644,53.192,29.848
		l20.393,11.821l-9.165,5.616c-18.909,11.526-23.343,36.939-8.565,47.872c17.73,13.298,62.648,5.027,80.674-14.478
		c9.459-10.343,9.755-24.529,0.889-32.806c-3.846-3.25-24.236-15.66-45.806-27.774c-21.575-11.82-38.124-22.759-36.646-24.235
		c1.184-1.184,13.003-2.361,26.008-2.956c21.862-0.589,24.818,0,35.162,7.683c11.232,7.982,11.527,7.982,12.415,1.776
		c0.589-3.549,0.295-10.643-0.596-15.958C1114.935,476.457,1091.882,470.84,1034.548,476.161z M1093.063,485.616
		c14.775,7.387,15.072,12.12,0.89,9.459c-6.506-1.184-25.42-0.294-42.264,1.771c-16.84,2.067-32.8,3.847-35.167,4.14
		c-7.683,0,2.367,6.793,48.761,32.213c45.806,25.413,57.627,33.685,57.627,41.073c0,7.093-18.914,23.347-31.617,27.19
		c-22.76,6.794-44.924-3.25-41.08-18.621c2.067-8.865,14.482-21.274,25.708-26.3c4.733-2.067,8.571-4.435,8.571-5.316
		c0-0.89-23.937-14.777-53.192-30.735c-29.259-15.96-53.194-30.442-53.194-31.919c0-1.772,5.028-2.066,11.232-1.177
		c5.91,0.881,23.641-0.302,39.006-2.367C1067.65,479.412,1081.537,479.412,1093.063,485.616z"/>
</g>
</svg>
