<?xml version="1.0" encoding="UTF-8"?>
<svg width="259px" height="273px" viewBox="0 0 259 273" version="1.1" xmlns="http://www.w3.org/2000/svg" xmlns:xlink="http://www.w3.org/1999/xlink">
    <!-- Generator: Sketch 51.3 (57544) - http://www.bohemiancoding.com/sketch -->
    <title>section-4-4-5</title>
    <desc>Created with Sketch.</desc>
    <defs></defs>
    <g id="web_0917" stroke="none" stroke-width="1" fill="none" fill-rule="evenodd">
        <g id="Home_white_main1" transform="translate(-1217.000000, -7845.000000)" fill="#09909F">
            <g id="Group-6" transform="translate(372.000000, 4904.000000)">
                <g id="section-4-4-5" transform="translate(845.000000, 2941.000000)">
                    <path d="M14.1714911,52.22761 C10.4447543,56.9584224 7.02553656,61.9394018 3.94332588,67.1439943 C-7.23407594,86.0183285 6.70678402,109.838703 28.7189638,109.838703 L29.8268746,109.838703 C39.9946594,109.838703 49.2623543,104.386738 54.5224733,95.7273252 C69.0222034,71.8538429 95.985579,56.2819931 126.370981,58.0177889 C166.417252,60.3042318 198.642151,92.9964515 200.221872,132.88901 C201.984138,177.410357 166.11535,214.179321 121.768026,214.179321 C93.3569237,214.179321 68.4226116,199.079854 54.634809,176.522893 C49.2749921,167.751673 39.8753027,162.225637 29.5586731,162.225637 C6.84579945,162.225637 -7.00378776,186.932078 4.75495129,206.271807 C7.62231995,210.988643 10.7677195,215.516806 14.1714911,219.838127 C39.9862342,252.583455 80.5309955,273.299802 125.765772,272.007039 C197.27306,269.965173 255.592137,212.518995 258.341553,141.37093 C261.333895,63.9435333 198.922991,0 121.768026,0 C78.1480746,0 39.2237556,20.4480107 14.1714911,52.22761 Z" id="Fill-438" opacity="0.601841518"></path>
                    <g id="businessman" transform="translate(106.000000, 107.000000)" fill-rule="nonzero">
                        <path d="M38.0921962,33.8347368 C34.3216852,33.8347368 31.2540175,36.8878363 31.2540175,40.6407018 C31.2540175,44.3935673 34.3216852,47.4466667 38.0921962,47.4466667 C41.8627071,47.4466667 44.9303749,44.3934503 44.9303749,40.6407018 C44.9303749,36.8879532 41.8627071,33.8347368 38.0921962,33.8347368 Z M38.0921962,45.6920468 C35.2936324,45.6920468 33.0168247,43.4259649 33.0168247,40.6405848 C33.0168247,37.8552047 35.2936324,35.5891228 38.0921962,35.5891228 C40.89076,35.5891228 43.1675676,37.8552047 43.1675676,40.6405848 C43.1675676,43.4259649 40.89076,45.6920468 38.0921962,45.6920468 Z" id="Shape"></path>
                        <path d="M40.9575072,38.6768421 L39.6898982,38.4935673 L39.1232522,37.3505263 C38.7014993,36.5007018 37.4827756,36.5007018 37.0611402,37.3506433 L36.4944942,38.4936842 L35.2268852,38.6769591 C34.2844337,38.8134503 33.9079232,39.9671345 34.5898491,40.628655 L35.5069178,41.5183626 L35.290342,42.7749708 C35.1297022,43.7093567 36.1156334,44.4218713 36.9586691,43.9811696 L38.0921962,43.3880702 L39.2257232,43.9811696 C40.0694641,44.4223392 41.0550427,43.7088889 40.8938153,42.7748538 L40.677357,41.5184795 L41.5944258,40.6287719 C42.2764692,39.9669006 41.9000762,38.8133333 40.9575072,38.6768421 Z M38.9466307,41.8526316 C38.0952515,41.4071345 37.9375495,41.4865497 37.2377617,41.8526316 C37.4006342,40.9061988 37.2744256,40.7832749 36.7097773,40.2350877 C37.4796027,40.1237427 37.6615123,40.1042105 38.0921962,39.2355556 C38.5192372,40.0969591 38.6960937,40.1225731 39.4747325,40.2350877 C38.7798802,40.9094737 38.8143114,41.0844444 38.9466307,41.8526316 Z" id="Shape"></path>
                        <path d="M40.3532571,31.1987135 C39.8788585,31.0864327 39.4043425,31.3774269 39.2915303,31.848655 C39.1787182,32.319883 39.4709721,32.7929825 39.9445481,32.9053801 C43.5591198,33.762807 46.0835266,36.9436257 46.0835266,40.6405848 C46.0835266,45.0246784 42.4931625,48.5940351 38.0924312,48.5940351 C33.6845316,48.5940351 30.1013359,45.0081871 30.1013359,40.6405848 C30.1013359,36.9125146 32.6924898,33.7470175 36.2403143,32.9053801 C36.7137728,32.7929825 37.0061443,32.319883 36.8933321,31.848655 C36.78052,31.3775439 36.3054163,31.0864327 35.8316053,31.1987135 C35.1775299,31.3539181 34.542374,31.5776608 33.9368313,31.8632749 L25.9996742,28.8039766 L25.9996742,26.262924 C27.7168866,24.937076 28.9063497,22.9676023 29.2003663,20.7205848 C31.2938542,20.5822222 32.8215187,18.8959064 32.8215187,16.9208187 C32.8215187,16.0007018 32.4869602,15.1219883 31.8910535,14.4384795 L31.8910535,11.1053801 C31.890701,4.98187135 26.8853671,0 20.7327572,0 C14.5801473,0 9.57493088,4.98187135 9.57493088,11.1053801 L9.57493088,14.525731 C8.97256103,15.2025731 8.64493575,16.0364912 8.64493575,16.9207018 C8.64493575,18.8968421 10.1727177,20.5818713 12.264913,20.7203509 C12.5549342,22.9585965 13.7435747,25.0218713 15.6483373,26.3952047 L15.6483373,28.8040936 L4.8632611,32.965731 C4.85773801,32.9679532 4.85221491,32.9700585 4.84669182,32.9723977 C4.65291345,33.0516959 0.0988281403,34.9760234 0.0988281403,40.2700585 L0.0988281403,50.8500585 C0.0988281403,51.8700585 0.932697919,52.7 1.95764327,52.7 C3.15779998,52.7 29.9106128,52.7 31.1057165,52.7 L31.1057165,58.7030409 C31.1057165,59.5291228 31.9353558,60.0921637 32.7018908,59.8088889 L38.0920787,57.822924 L43.482149,59.8087719 C44.2547947,60.0938012 45.0786759,59.5238596 45.0786759,58.7030409 L45.0786759,47.405614 C46.7895426,45.6557895 47.8462164,43.2694737 47.8462164,40.6408187 C47.8462164,36.102807 44.6778402,32.2247953 40.3532571,31.1987135 Z M27.999152,31.4562573 L25.3265618,36.7872515 C25.3153981,36.7792982 23.8001899,35.7080702 22.1002519,34.5063158 L25.3987145,30.4539181 C27.8590769,31.4022222 27.2254487,31.1580117 27.999152,31.4562573 Z M20.8268848,35.7585965 L22.667368,37.0596491 L21.9625271,38.1154386 L19.6912426,38.1154386 L18.9864017,37.0597661 L20.8268848,35.7585965 Z M20.8267673,33.2832749 L17.4112621,29.0870175 L17.4112621,27.3692398 C19.5280175,28.2259649 22.0460786,28.2739181 24.2366319,27.3118129 L24.2366319,29.094152 C22.4623084,31.274152 21.0244236,33.0405848 20.8267673,33.2832749 Z M31.0584764,16.9207018 C31.0584764,17.9191813 30.3356561,18.7879532 29.2735767,18.948538 L29.2735767,14.8938012 C30.3420018,15.0557895 31.0584764,15.9316959 31.0584764,16.9207018 Z M12.1928777,18.948538 C11.1322085,18.7884211 10.4078606,17.9215205 10.4078606,16.9207018 C10.4078606,15.9392982 11.2337395,15.1463158 12.1928777,14.9364912 L12.1928777,18.948538 Z M12.23718,13.1521637 C11.9485689,13.1842105 11.6041394,13.2633918 11.3378557,13.3554386 L11.3378557,11.1053801 C11.3378557,5.94935673 15.552447,1.75450292 20.7328747,1.75450292 C25.9133024,1.75450292 30.1278937,5.94935673 30.1278937,11.1053801 L30.1278937,13.2928655 C29.8530316,13.2076023 29.5671233,13.1521637 29.2734592,13.1274854 C29.2734592,12.2506433 29.3058927,12.4443275 26.4394066,9.37684211 C25.9135375,8.81461988 25.0629809,8.71111111 24.4167788,9.13134503 C21.2706126,11.1768421 17.4326494,12.2039766 13.8912881,11.951345 C13.1184074,11.8921637 12.4188546,12.4073684 12.23718,13.1521637 Z M13.9555675,19.631462 C13.9555675,18.3631579 13.9555675,14.8244444 13.9555675,13.7139181 C17.8693264,13.9476023 21.9547713,12.7893567 25.2525288,10.6830409 C26.5737236,12.0952047 27.2859677,12.8318129 27.5107694,13.1079532 C27.5107694,13.8169591 27.5107694,18.825731 27.5107694,19.631345 C27.5107694,23.245848 24.5607318,26.2680702 20.8423965,26.2680702 C16.7538963,26.2680702 13.9555675,23.119883 13.9555675,19.631462 Z M16.2507071,30.4556725 L19.5499923,34.5090058 C17.889186,35.682924 16.4811494,36.6783626 16.3273254,36.7871345 L13.6548526,31.4562573 L16.2507071,30.4556725 Z M9.01263284,50.9453801 L9.01263284,41.908538 C9.01263284,41.4239766 8.61814287,41.031345 8.13128795,41.031345 C7.64443304,41.031345 7.24994306,41.4239766 7.24994306,41.908538 L7.24994306,50.9453801 L1.95776078,50.9453801 C1.90476258,50.9453801 1.86175295,50.9025731 1.86175295,50.8499415 L1.86175295,40.2698246 C1.86175295,36.2118129 5.30358101,34.685614 5.51204845,34.597076 L12.0037999,32.0922807 L14.8566545,37.782807 C15.2836955,38.6345029 16.3745655,38.905848 17.1537919,38.3550877 L17.5486344,38.0760234 L18.2915494,39.1888889 L16.2919541,50.9453801 L9.01263284,50.9453801 Z M31.105834,50.9453801 L25.3618156,50.9453801 L24.743229,47.3079532 C24.6621452,46.8304094 24.2081939,46.508538 23.7272146,46.5894737 C23.2472929,46.6702924 22.9241331,47.1231579 23.0053344,47.6007018 L23.5740956,50.9451462 L18.0800266,50.9451462 L19.9635194,39.8695906 L21.6906028,39.8695906 L22.3091894,43.5070175 C22.3903907,43.9845614 22.8451646,44.3069006 23.3252038,44.2254971 C23.8051255,44.1446784 24.1282853,43.6918129 24.047084,43.214269 L23.3624553,39.188655 L24.1052528,38.0759064 L24.5000953,38.3549708 C25.2800268,38.9063158 26.3704267,38.6340351 26.7972326,37.782807 L26.7973501,37.7826901 L29.6499698,32.0925146 L32.0555713,33.0197661 C29.7000301,34.8646784 28.3382935,37.6693567 28.3382935,40.6405848 C28.3382935,43.1891228 29.340794,45.6010526 31.105834,47.4063158 L31.105834,50.9453801 Z M33.7444631,57.5539181 L32.8686413,57.8766082 C32.8686413,56.9632749 32.8686413,49.7052632 32.8686413,48.837193 C32.9865065,48.9119298 33.3573764,49.1378947 33.7444631,49.3305263 L33.7444631,57.5539181 Z M40.677122,56.9043275 L38.503373,56.1035088 C38.2382644,56.0059649 37.9462455,56.005848 37.6809019,56.1036257 L35.5072704,56.9044444 L35.5072704,50.0015205 C37.1637287,50.4536842 38.949451,50.4733333 40.677122,50.0015205 L40.677122,56.9043275 Z M43.3157511,57.8764912 L42.4399293,57.5538012 L42.4399293,49.3305263 C42.7657919,49.1684211 43.114922,48.9644444 43.3157511,48.837193 L43.3157511,57.8764912 Z" id="Shape"></path>
                    </g>
                </g>
            </g>
        </g>
    </g>
</svg>