<?xml version="1.0" encoding="UTF-8"?>
<svg width="244px" height="273px" viewBox="0 0 244 273" version="1.1" xmlns="http://www.w3.org/2000/svg" xmlns:xlink="http://www.w3.org/1999/xlink">
    <!-- Generator: Sketch 51.3 (57544) - http://www.bohemiancoding.com/sketch -->
    <title>section-4-4-2</title>
    <desc>Created with Sketch.</desc>
    <defs></defs>
    <g id="web_0917" stroke="none" stroke-width="1" fill="none" fill-rule="evenodd">
        <g id="Home_white_main1" transform="translate(-663.000000, -7845.000000)" fill="#01CC9B">
            <g id="Group-6" transform="translate(372.000000, 4904.000000)">
                <g id="section-4-4-2" transform="translate(291.000000, 2941.000000)">
                    <path d="M188.898182,176.522893 C175.110379,199.079854 150.177471,214.179321 121.764965,214.179321 C93.3538634,214.179321 68.4209555,199.079854 54.6331529,176.522893 C49.273336,167.751673 39.8736465,162.225637 29.557017,162.225637 C6.8441433,162.225637 -7.00544391,186.932078 4.75189095,206.273204 C7.61925961,210.988643 10.7660633,215.518204 14.1698349,219.838127 C39.2220995,251.616329 78.1464184,272.065737 121.764965,272.065737 C165.400362,272.065737 204.324681,251.616329 229.3615,219.838127 C232.765271,215.518204 235.912075,210.988643 238.779444,206.273204 C250.538183,186.932078 236.687191,162.225637 213.974318,162.225637 C203.659092,162.225637 194.257999,167.751673 188.898182,176.522893 Z M29.8266227,109.838703 C39.9747487,109.838703 49.2494646,104.418883 54.4941375,95.7706503 C68.2524519,73.0865096 93.258378,57.8864163 121.764965,57.8864163 C150.274361,57.8864163 175.280287,73.0865096 189.037197,95.7720478 C194.28187,104.418883 203.556586,109.838703 213.703308,109.838703 L214.814027,109.838703 C236.826207,109.838703 250.767067,86.0183285 239.589665,67.1439943 C236.507454,61.9407994 233.088237,56.9584224 229.3615,52.22761 C204.324681,20.4480107 165.400362,0 121.764965,0 C78.1464184,0 39.2220995,20.4480107 14.1698349,52.22761 C10.4445024,56.9570248 7.02528461,61.9380042 3.94447813,67.1398015 C-7.23573209,86.016931 6.70793627,109.838703 28.7215202,109.838703 L29.8266227,109.838703 Z" id="Fill-424" opacity="0.601841518"></path>
                    <g id="cloud-computing" transform="translate(88.000000, 107.000000)" fill-rule="nonzero">
                        <path d="M52.6811919,8.56978448 C49.6465945,3.2925 43.9935413,0.0140948276 37.9283742,0.0139655172 C31.8195532,0.0139655172 26.2579653,3.24672414 23.2107655,8.50836207 C22.1109724,8.13633621 20.9633679,7.94818966 19.7880899,7.94818966 C16.9631873,7.94818966 14.2965302,9.04021552 12.2790953,11.0230603 C10.4820088,12.7894397 9.3775385,15.0875431 9.11600472,17.5696552 C6.77220475,17.8088793 4.60133148,18.8487931 2.9270216,20.5510345 C1.03950907,22.4701293 0,25.0117241 0,27.7078448 C0,33.3287069 4.55832717,37.9015086 10.1612304,37.9015086 L18.6206073,37.9015086 C19.1587459,37.9015086 19.5950253,37.4672845 19.5950253,36.931681 C19.5950253,36.3960776 19.1587459,35.9618534 18.6206073,35.9618534 L10.1612304,35.9618534 C5.63291528,35.9618534 1.9488359,32.259181 1.9488359,27.7078448 C1.9488359,23.2201293 5.58133609,19.51875 10.046379,19.457069 C10.5704859,19.4498276 10.9949424,19.03125 11.0070252,18.5096121 C11.0605532,16.1934052 11.9987228,14.0247414 13.6486073,12.4031897 C15.2988815,10.7811207 17.4792391,9.88784483 19.7882199,9.88784483 C20.9951989,9.88784483 22.1660595,10.130431 23.2685809,10.6090086 C23.740589,10.8139655 24.29133,10.617931 24.52571,10.1615948 C27.1268863,5.09883621 32.2624586,1.95362069 37.9285041,1.95362069 C43.2965076,1.95362069 48.301508,4.85793103 50.9899921,9.53327586 C51.2572424,9.99814655 51.8525468,10.1592672 52.3196178,9.89327586 C52.7866888,9.62715517 52.9485721,9.03465517 52.6811919,8.56978448 Z" id="Shape"></path>
                        <path d="M55.8169987,17.5143103 L54.9445699,17.5143103 C54.9480778,17.37375 54.9498967,17.2339655 54.9498967,17.0954741 C54.9498967,16.167931 54.8750614,15.2367672 54.7275995,14.3279741 C54.6417208,13.7992241 54.1420392,13.4401293 53.610137,13.5253448 C53.0788843,13.610819 52.71783,14.1086638 52.8035787,14.6374138 C52.9346704,15.444181 53.0010608,16.27125 53.0010608,17.0954741 C53.0010608,17.5212931 52.9820921,17.9609483 52.9445445,18.4025431 C52.9215483,18.672931 53.0135333,18.9406034 53.1981531,19.1403879 C53.3826429,19.3401724 53.6428774,19.4539655 53.9154546,19.4539655 L55.8168688,19.4539655 C60.3453138,19.4539655 64.0293932,23.1566379 64.0293932,27.7078448 C64.0293932,32.2590517 60.3453138,35.9618534 55.8168688,35.9618534 L41.6102449,35.9618534 C41.0721063,35.9618534 40.6358269,36.3960776 40.6358269,36.931681 C40.6358269,37.4672845 41.0721063,37.9015086 41.6102449,37.9015086 L55.8169987,37.9015086 C61.4200319,37.9015086 65.978359,33.3287069 65.978359,27.7078448 C65.978359,22.0869828 61.4200319,17.5143103 55.8169987,17.5143103 Z" id="Shape"></path>
                        <path d="M24.7346252,29.6746552 L22.1378664,25.6853017 C22.7677301,25.0364224 23.1567178,24.1519397 23.1567178,23.1775862 C23.1567178,21.1924138 21.5443809,19.5774569 19.5625447,19.5774569 C17.5807085,19.5774569 15.9682417,21.1925431 15.9682417,23.1775862 C15.9682417,25.1627586 17.5805786,26.7778448 19.5625447,26.7778448 C19.8702009,26.7778448 20.1687626,26.7387931 20.4539422,26.6656034 L23.0990322,30.7294397 C23.1908873,30.8705172 23.2956048,31.2230172 23.2956048,31.39125 L23.2956048,43.4473707 L1.49670597,43.4473707 C0.958567417,43.4473707 0.522288021,43.8815948 0.522288021,44.4171983 C0.522288021,44.9528017 0.958567417,45.3870259 1.49670597,45.3870259 L23.6204108,45.3870259 C24.5159658,45.3868966 25.2444407,44.6617241 25.2444407,43.7705172 L25.2444407,31.3911207 C25.2444407,30.8502155 25.0300687,30.1284052 24.7346252,29.6746552 Z M19.5626746,24.8380603 C18.6552966,24.8380603 17.9172075,24.0931034 17.9172075,23.1774569 C17.9172075,22.2618103 18.6552966,21.5169828 19.5626746,21.5169828 C20.4699227,21.5169828 21.2080118,22.2619397 21.2080118,23.1774569 C21.2080118,24.0931034 20.4699227,24.8380603 19.5626746,24.8380603 Z" id="Shape"></path>
                        <path d="M43.3046927,19.5773276 C41.6583162,19.5773276 40.2680166,20.6923707 39.8440799,22.2076293 L32.8474991,22.2076293 C32.4235624,20.6922414 31.0332628,19.5773276 29.3867564,19.5773276 C27.4049202,19.5773276 25.7925833,21.1924138 25.7925833,23.1774569 C25.7925833,24.7642241 26.8231277,26.1134483 28.2486362,26.5916379 L28.2486362,49.2748707 L17.6694455,49.2748707 C17.1313069,49.2748707 16.6950275,49.7090948 16.6950275,50.2446983 C16.6950275,50.7803017 17.1313069,51.2145259 17.6694455,51.2145259 L28.5735721,51.2145259 C29.4691272,51.2145259 30.197602,50.4894828 30.197602,49.5981466 L30.197602,26.6842241 C31.4764281,26.3877155 32.4955394,25.4061207 32.8474991,24.1472845 L39.8440799,24.1472845 C40.2678867,25.6626724 41.6583162,26.7777155 43.3046927,26.7777155 C45.2865289,26.7777155 46.8988658,25.1626293 46.8988658,23.1774569 C46.8988658,21.1922845 45.2865289,19.5773276 43.3046927,19.5773276 Z M29.3867564,24.8380603 C28.4796382,24.8380603 27.7414192,24.0931034 27.7414192,23.1774569 C27.7414192,22.2618103 28.4795083,21.5169828 29.3867564,21.5169828 C30.2940044,21.5169828 31.0322235,22.2619397 31.0322235,23.1774569 C31.0322235,24.0931034 30.2941344,24.8380603 29.3867564,24.8380603 Z M43.3045628,24.8380603 C42.3973147,24.8380603 41.6592256,24.0931034 41.6592256,23.1774569 C41.6592256,22.2619397 42.3973147,21.5169828 43.3045628,21.5169828 C44.2118109,21.5169828 44.9499,22.2619397 44.9499,23.1774569 C44.9499,24.0931034 44.2118109,24.8380603 43.3045628,24.8380603 Z" id="Shape"></path>
                        <path d="M11.4330407,49.2748707 L7.58058188,49.2748707 C7.16158216,47.7460345 5.77725906,46.6444397 4.1181501,46.6444397 C4.08527973,46.6444397 4.05227944,46.6449569 4.01940908,46.6458621 C2.03848235,46.6993966 0.470319064,48.3572845 0.523587245,50.3415517 C0.576465659,52.3060345 2.15411328,53.8448276 4.11529181,53.8448276 C4.14790233,53.8448276 4.18090261,53.8444397 4.21377298,53.8435345 C5.82559019,53.7999569 7.16405069,52.6940948 7.57811335,51.2145259 L11.4330407,51.2145259 C11.9711792,51.2145259 12.4074586,50.7803017 12.4074586,50.2446983 C12.4074586,49.7090948 11.9711792,49.2748707 11.4330407,49.2748707 Z M4.16063472,51.9045259 L4.11516188,51.9050431 C3.21791784,51.9050431 2.49606902,51.1953879 2.47177353,50.289569 C2.4472182,49.3740517 3.16516934,48.609181 4.07254734,48.5846121 L4.1181501,48.5839655 C5.01526422,48.5839655 5.73698312,49.2936207 5.76140853,50.199569 C5.78596386,51.1150862 5.06788279,51.8799569 4.16063472,51.9045259 Z" id="Shape"></path>
                        <path d="M65.5458474,55.4159483 L21.5529557,55.4159483 C21.133956,53.8871121 19.7496329,52.7855172 18.090524,52.7855172 C18.0577835,52.7855172 18.0246533,52.7860345 17.9917829,52.7869397 C16.3800956,52.8305172 15.0416352,53.9365086 14.6274426,55.4160776 L1.49670597,55.4160776 C0.958567417,55.4160776 0.522288021,55.8503017 0.522288021,56.3859052 C0.522288021,56.9215086 0.958567417,57.3557328 1.49670597,57.3557328 L14.6248441,57.3557328 C15.0439738,58.8844397 16.4284268,59.9860345 18.0875357,59.9860345 C18.1201463,59.9860345 18.1531465,59.9856466 18.1860169,59.9847414 C19.7978341,59.9411638 21.1362946,58.8353017 21.5504872,57.3557328 L65.5458474,57.3557328 C66.0841159,57.3557328 66.5202653,56.9215086 66.5202653,56.3859052 C66.5202653,55.8501724 66.0841159,55.4159483 65.5458474,55.4159483 Z M18.1330086,58.0457328 L18.0875357,58.04625 C17.1902917,58.04625 16.468313,57.3365948 16.4440175,56.4307759 C16.4194621,55.5151293 17.1375432,54.7502586 18.0447913,54.725819 L18.090394,54.7251724 C18.9875082,54.7251724 19.7092271,55.4348276 19.7336525,56.3407759 C19.7583377,57.2562931 19.0402567,58.0211638 18.1330086,58.0457328 Z" id="Shape"></path>
                        <path d="M65.5458474,43.4472414 L50.9295781,43.4472414 C50.3913097,43.4472414 49.9551602,43.8814655 49.9551602,44.417069 C49.9551602,44.9526724 50.3913097,45.3868966 50.9295781,45.3868966 L65.5458474,45.3868966 C66.0841159,45.3868966 66.5202653,44.9526724 66.5202653,44.417069 C66.5202653,43.8814655 66.0841159,43.4472414 65.5458474,43.4472414 Z" id="Shape"></path>
                        <path d="M44.8230957,43.4472414 L37.3069554,43.4472414 L37.3069554,33.8560345 C38.7817045,33.407069 39.8581115,32.0327586 39.8581115,30.4109483 C39.8581115,28.4257759 38.2457746,26.810819 36.2638085,26.810819 C34.2819723,26.810819 32.6696354,28.4259052 32.6696354,30.4109483 C32.6696354,32.0828017 33.8133422,33.4920259 35.3581195,33.8952155 L35.3581195,43.7705172 C35.3581195,44.6617241 36.0867243,45.3868966 36.9821494,45.3868966 L44.8230957,45.3868966 C45.3613642,45.3868966 45.7975137,44.9526724 45.7975137,44.417069 C45.7975137,43.8814655 45.3613642,43.4472414 44.8230957,43.4472414 Z M36.2638085,32.0714224 C35.3565604,32.0714224 34.6184713,31.3265948 34.6184713,30.4109483 C34.6184713,29.4953017 35.3565604,28.7504741 36.2638085,28.7504741 C37.1710565,28.7504741 37.9092756,29.495431 37.9092756,30.4109483 C37.9092756,31.3265948 37.1710565,32.0714224 36.2638085,32.0714224 Z" id="Shape"></path>
                        <path d="M65.5458474,49.2748707 L61.7777082,49.2748707 C61.3588384,47.7460345 59.9745153,46.6444397 58.3154064,46.6444397 C58.282536,46.6444397 58.2494058,46.6449569 58.2165354,46.6458621 C56.6047182,46.6894397 55.2662577,47.795431 54.852195,49.2748707 L39.7277993,49.2748707 C39.3087996,47.7460345 37.9246064,46.6444397 36.2653675,46.6444397 C36.2324972,46.6444397 36.199367,46.6449569 36.1664966,46.6458621 C34.1856998,46.6995259 32.6175365,48.3572845 32.6706748,50.3415517 C32.7235532,52.3060345 34.3012008,53.8448276 36.2622494,53.8448276 C36.2949899,53.8448276 36.3279901,53.8444397 36.3608605,53.8435345 C37.9726777,53.7999569 39.3111382,52.6940948 39.7253308,51.2145259 L54.8497265,51.2145259 C55.2687262,52.7432328 56.6530493,53.8448276 58.3122882,53.8448276 C58.3450287,53.8448276 58.378029,53.8444397 58.4108993,53.8435345 C60.0227165,53.7999569 61.361177,52.6940948 61.7751098,51.2145259 L65.5458474,51.2145259 C66.0841159,51.2145259 66.5202653,50.7803017 66.5202653,50.2446983 C66.5202653,49.7090948 66.0841159,49.2748707 65.5458474,49.2748707 Z M36.3079821,51.9045259 L36.2623793,51.9050431 C35.3652652,51.9050431 34.6432865,51.1953879 34.618991,50.289569 C34.5944356,49.3740517 35.3125167,48.609181 36.2197648,48.5846121 L36.2654975,48.5839655 C37.1624817,48.5839655 37.8843305,49.2936207 37.908626,50.199569 C37.9333112,51.1150862 37.2152302,51.8799569 36.3079821,51.9045259 Z M58.3580209,51.9045259 L58.3124181,51.9050431 C57.4151741,51.9050431 56.6933253,51.1955172 56.6690298,50.289569 C56.6443445,49.3740517 57.3624256,48.609181 58.2696737,48.5846121 L58.3154064,48.5839655 C59.2123906,48.5839655 59.9342394,49.2936207 59.9585349,50.199569 C59.9832201,51.1150862 59.2651391,51.8799569 58.3580209,51.9045259 Z" id="Shape"></path>
                        <path d="M36.2638085,10.6999138 C34.2819723,10.6999138 32.6696354,12.315 32.6696354,14.3000431 C32.6696354,16.2852155 34.2819723,17.9001724 36.2638085,17.9001724 C38.2457746,17.9003017 39.8581115,16.2852155 39.8581115,14.3000431 C39.8581115,12.3148707 38.2457746,10.6999138 36.2638085,10.6999138 Z M36.2638085,15.9605172 C35.3565604,15.9605172 34.6184713,15.2156897 34.6184713,14.3000431 C34.6184713,13.3843966 35.3565604,12.639569 36.2638085,12.639569 C37.1710565,12.639569 37.9092756,13.3845259 37.9092756,14.3000431 C37.9092756,15.2156897 37.1710565,15.9605172 36.2638085,15.9605172 Z" id="Shape"></path>
                    </g>
                </g>
            </g>
        </g>
    </g>
</svg>