<?xml version="1.0" encoding="UTF-8"?>
<svg width="259px" height="273px" viewBox="0 0 259 273" version="1.1" xmlns="http://www.w3.org/2000/svg" xmlns:xlink="http://www.w3.org/1999/xlink">
    <!-- Generator: Sketch 51.3 (57544) - http://www.bohemiancoding.com/sketch -->
    <title>section-4-4-1</title>
    <desc>Created with Sketch.</desc>
    <defs></defs>
    <g id="web_0917" stroke="none" stroke-width="1" fill="none" fill-rule="evenodd">
        <g id="Home_white_main1" transform="translate(-463.000000, -7845.000000)" fill="#7DE314">
            <g id="Group-6" transform="translate(372.000000, 4904.000000)">
                <g id="section-4-4-1" transform="translate(91.000000, 2941.000000)">
                    <path d="M203.80903,176.522874 C190.021228,199.079835 165.08832,214.179303 136.675814,214.179303 C92.3383183,214.179303 56.4512757,177.401953 58.2233713,132.873618 C59.8115173,92.9796622 92.043437,60.2944303 132.091113,58.016373 C162.469494,56.2889626 189.421636,71.8580173 203.919962,95.7245117 C209.181485,104.385322 218.44918,109.838684 228.618369,109.838684 L229.720663,109.838684 C251.735651,109.838684 265.677915,86.0169126 254.499109,67.1397831 C251.416898,61.9379859 247.999085,56.9570064 244.272348,52.2275916 C218.489902,19.5032275 177.983053,-1.20613097 132.770744,0.0544872889 C61.2578394,2.04883568 2.8994449,59.4614719 0.106498637,130.610934 C-2.93358616,208.076065 59.5082109,272.065719 136.675814,272.065719 C180.311211,272.065719 219.23553,251.616311 244.272348,219.838109 C247.67612,215.518185 250.822923,210.988625 253.690292,206.273186 C265.449031,186.932059 251.59804,162.225619 228.885166,162.225619 C218.569941,162.225619 209.168847,167.751655 203.80903,176.522874 Z" id="Fill-422" opacity="0.601841518"></path>
                    <g id="selfie" transform="translate(103.000000, 107.000000)" fill-rule="nonzero">
                        <path d="M55.404834,-7.52731211e-14 L11.5849488,-7.52731211e-14 C9.0521424,0.00549316406 7.00044557,2.05719 6.9949524,4.58999637 L6.9949524,11.0380554 C6.11009525,12.665863 1.0431092,22.2477722 0.0607483004,29.8869323 C-0.102215567,31.22406 0.0630370895,32.5813294 0.542773418,33.8401794 L4.34312748,48.7509155 C4.43193357,49.1038513 4.50471803,49.4599915 4.57796021,49.8179626 C4.65074467,50.1759339 4.72490232,50.5421448 4.81508186,50.9051514 C4.94050904,51.4393616 5.00093385,51.986847 4.99498295,52.5361634 L4.99498295,58.0000305 C4.99498295,59.1046143 5.89036869,60 6.9949524,60 L19.9949829,60 C21.0995667,60 21.9949524,59.1046143 21.9949524,58.0000305 L22.0260803,52.4221802 C22.024707,52.1919251 22.0388977,51.9621277 22.0691102,51.7341614 C22.1981995,50.8831787 22.439441,50.0527955 22.785968,49.2649841 L22.8628723,49.0791321 C25.1828186,42.2460937 23.8548462,34.7460937 23.2258789,31.9999695 L55.404834,31.9999695 C57.9376404,31.9944763 59.9893372,29.9427796 59.9948303,27.4099732 L59.9948303,4.58999637 C59.9893372,2.05719 57.9376404,0.00549316406 55.404834,-7.52731211e-14 Z M8.9949199,31.1938477 C9.75664061,31.7193604 10.6598084,32.0004272 11.5849488,31.9999695 L13.9479249,31.9999695 C13.7314026,33.1187439 12.7852051,33.949585 11.6481202,34.0200806 C10.9921448,34.0548705 10.3517335,33.8145446 9.88115232,33.356781 C9.31444096,32.820282 8.99400639,32.0741272 8.99492186,31.2940979 L8.9949199,31.1938477 Z M8.99492186,4.58999637 C8.99675303,3.16040039 10.1553528,2.00180051 11.5849488,1.99996945 L13.9950745,1.99996945 L13.9950745,30 L11.5849488,30 C10.1553528,29.9981689 8.99675303,28.8395691 8.99492186,27.4099732 L8.99492186,4.58999637 Z M20.9947388,48.356781 L20.9480469,48.4648132 C20.5301087,49.4155884 20.240802,50.4171752 20.0869934,51.4439392 C20.0425904,51.7634583 20.0206177,52.0857239 20.021991,52.4079895 L19.9949829,56.9929505 L19.9949829,58.0000305 L6.9949524,58.0000305 L6.9949524,52.5361634 C7.00227662,51.8261719 6.92354127,51.1180114 6.76011967,50.4267884 C6.67680662,50.0889587 6.60814213,49.7529602 6.53993537,49.4187927 C6.46074217,49.0278626 6.38109135,48.6410522 6.28312998,48.2569886 L2.46675416,33.290863 C2.45714115,33.2519531 2.4447815,33.2148743 2.43196412,33.1777955 C2.05430912,32.2132874 1.92201545,31.1695862 2.04606943,30.1409912 C2.6791565,25.2159118 5.20097654,19.2462158 6.9949524,15.4788209 L6.9949524,31.2940979 C6.99586799,32.6266479 7.54564213,33.8996887 8.51472779,34.8138428 C9.38905646,35.6469727 10.5691712,36.0813904 11.7749207,36.0140991 C14.145221,35.8639526 15.9918397,33.899231 15.995044,31.5238952 L15.995044,18.3119202 C15.9922974,16.9898987 17.0195191,15.8944702 18.338794,15.8120728 C18.9943116,15.7759095 19.6347229,16.0162354 20.1048462,16.473999 C20.6738465,17.0114135 20.9956543,17.7593994 20.9947388,18.5421752 L20.9947388,31.1997986 C20.9947388,31.2931823 21.0080139,31.3861084 21.0341065,31.4758301 C21.0588257,31.5628052 23.6117737,40.6498718 20.9947388,48.356781 Z M26.995105,30 L26.995105,29.6562195 C27.0010559,28.41568 27.682666,27.2767639 28.7730591,26.6848755 L33.7109559,23.9588929 C34.5015137,23.5281373 34.9940675,22.7005005 34.9949829,21.8000794 L34.9949829,20.3997803 C34.9949829,20.0184632 34.8462098,19.6522522 34.5807069,19.3780518 C33.6830323,18.3412171 32.9538147,17.1697998 32.4209778,15.9059143 C32.3687928,15.7800293 32.2918885,15.6655884 32.1948426,15.5699157 L31.9947999,15.3858948 L31.9947999,13.2737732 L32.199878,13.0741882 C32.3916809,12.8860474 32.4997131,12.6287842 32.4997131,12.3600769 L32.4997131,8.51303098 C32.9240601,6.04522711 36.9560425,5.99990848 36.9949524,5.99990848 C37.0338624,5.99990848 41.0640137,6.02920535 41.4947694,8.51303098 L41.4947694,12.3577881 C41.4947694,12.6264954 41.6032593,12.8837585 41.7950623,13.0718994 L41.995105,13.2559205 L42.0001404,15.368042 L41.7950623,15.5680847 C41.6980164,15.6637573 41.6211121,15.7781982 41.568927,15.9040833 C41.0360901,17.167511 40.3068726,18.339386 39.4087402,19.3762207 C39.1432374,19.6504212 38.9944641,20.0180053 38.9949219,20.3997803 L38.9949219,21.8000794 C38.9962952,22.6986694 39.4874757,23.5249329 40.2757447,23.9561462 L45.2191346,26.68396 C46.3086121,27.2763061 46.9893066,28.41568 46.9947999,29.6562195 L46.9947999,30 L26.995105,30 Z M57.9948609,27.4099732 C57.9934876,28.8395691 56.8348878,29.9981689 55.404834,30 L48.9947694,30 L48.9947694,29.6562195 C48.9883606,27.6869202 47.9112427,25.8778382 46.1827271,24.9339294 L41.2397949,22.2052002 C41.0901063,22.1250915 40.9962647,21.9699096 40.9948914,21.8000794 L40.9948914,20.6089782 C41.9575683,19.4819641 42.746753,18.2176208 43.3368104,16.8580628 L43.4008973,16.7939759 C43.7812988,16.4241028 43.9955323,15.9155273 43.9950745,15.3849792 L43.9950745,13.2559205 C43.9955323,12.772522 43.8174622,12.305603 43.4947388,11.9448853 L43.4947388,8.43383789 C43.4947388,8.38577273 43.4910767,8.33770758 43.4837525,8.29010016 C42.8671448,4.04891965 37.2339051,3.99993891 36.9949524,3.99993891 C36.7559998,3.99993891 31.12276,4.04891965 30.5061523,8.29010016 C30.4988281,8.33770758 30.495166,8.38577273 30.4947083,8.43383789 L30.4947083,11.9448853 C30.1724426,12.305603 29.9943726,12.772522 29.9948303,13.2559205 L29.9948303,15.3849792 C29.9948303,15.9187317 30.2113526,16.4291381 30.5949585,16.7999268 L30.65813,16.8621826 C31.246814,18.2199096 32.0346253,19.4828796 32.9950135,20.6089782 L32.9950135,21.8000794 C32.9927246,21.9703675 32.8975097,22.1255494 32.7469055,22.2052002 L27.8080933,24.9311829 C26.0786621,25.8750915 25.0006287,27.6855469 24.9951356,29.6562195 L24.9951356,30 L22.9947083,30 L22.9947083,18.5421752 C22.9933351,17.2096253 22.4435608,15.9365845 21.4749329,15.0219727 C20.6006043,14.1888428 19.4204895,13.7548828 18.2147401,13.8221741 C17.4209778,13.8729858 16.6546815,14.1343689 15.995044,14.5788574 L15.995044,1.99996945 L55.404834,1.99996945 C56.8348878,2.00180051 57.9934876,3.16040039 57.9948609,4.58999637 L57.9948609,7.00012207 C57.9948609,7.552185 57.5471679,7.99987793 56.995105,7.99987793 C55.3380005,7.99987793 53.9949219,9.34295648 53.9949219,11.0000611 L53.9949219,20.9999085 C53.9949219,22.657013 55.3380005,24.0000915 56.995105,24.0000915 C57.5471679,24.0000915 57.9948609,24.4477845 57.9948609,24.9998474 L57.9948609,27.4099732 Z M57.9948609,9.81582645 L57.9948609,22.1841431 C57.674884,22.0655823 57.3365968,22.0033264 56.995105,22.0001221 C56.4425842,22.0001221 55.9948914,21.5524291 55.9948914,20.9999085 L55.9948914,11.0000611 C55.9948914,10.4475403 56.4425842,9.99984738 56.995105,9.99984738 C57.3365968,9.99664312 57.674884,9.93438727 57.9948609,9.81582645 Z" id="Shape"></path>
                    </g>
                </g>
            </g>
        </g>
    </g>
</svg>