<?xml version="1.0" encoding="UTF-8"?>
<svg width="139px" height="131px" viewBox="0 0 139 131" version="1.1" xmlns="http://www.w3.org/2000/svg" xmlns:xlink="http://www.w3.org/1999/xlink">
    <!-- Generator: Sketch 51.3 (57544) - http://www.bohemiancoding.com/sketch -->
    <title>section-4-4-m-5</title>
    <desc>Created with Sketch.</desc>
    <defs></defs>
    <g id="mobile_0917" stroke="none" stroke-width="1" fill="none" fill-rule="evenodd">
        <g id="m_main" transform="translate(-20.000000, -5521.000000)" fill="#09909F">
            <g id="section-4-4-m-5" transform="translate(20.000000, 5521.000000)">
                <path d="M11.2669594,23.1251342 C9.37845177,25.521121 7.64577807,28.0438083 6.08388125,30.6797476 C0.419781606,40.2389206 7.48425161,52.3030853 18.6388277,52.3030853 L19.2002567,52.3030853 C24.3527373,52.3030853 29.0491013,49.5418611 31.7146437,45.156179 C39.0623187,33.0651169 52.7258917,25.1785338 68.1235616,26.0576521 C88.4168352,27.2156534 104.746662,43.7730895 105.547179,63.9772387 C106.440199,86.5257033 88.2638476,105.147864 65.7910341,105.147864 C51.3938321,105.147864 38.7584782,97.5005258 31.7715693,86.0762346 C29.0555055,81.6339266 24.2922538,78.8351876 19.0643468,78.8351876 C7.55469707,78.8351876 0.536479137,91.3481132 6.49516889,101.142992 C7.94819545,103.5319 9.54211294,105.825252 11.2669594,108.013847 C24.3484679,124.59818 44.8943489,135.090266 67.8168748,134.435528 C104.052881,133.401396 133.605819,104.306968 134.999074,68.2730269 C136.51543,29.058829 104.888976,-3.326276 65.7910341,-3.326276 C43.6868141,-3.326276 23.9620852,7.02990765 11.2669594,23.1251342 Z" id="Fill-438-Copy" opacity="0.601841518" transform="translate(69.568518, 65.569112) rotate(90.000000) translate(-69.568518, -65.569112) "></path>
                <g id="businessman-copy" transform="translate(56.000000, 43.000000)" fill-rule="nonzero">
                    <path d="M24.1855214,21.4704379 C21.7915462,21.4704379 19.8438206,23.4078368 19.8438206,25.7892848 C19.8438206,28.1707328 21.7915462,30.1081317 24.1855214,30.1081317 C26.5794966,30.1081317 28.5272222,28.1706586 28.5272222,25.7892848 C28.5272222,23.4079111 26.5794966,21.4704379 24.1855214,21.4704379 Z M24.1855214,28.9947062 C22.4086555,28.9947062 20.9630633,27.5567234 20.9630633,25.7892106 C20.9630633,24.0216978 22.4086555,22.583715 24.1855214,22.583715 C25.9623873,22.583715 27.4079794,24.0216978 27.4079794,25.7892106 C27.4079794,27.5567234 25.9623873,28.9947062 24.1855214,28.9947062 Z" id="Shape"></path>
                    <path d="M26.0047665,24.5430825 L25.1999354,24.4267822 L24.8401601,23.7014451 C24.5723805,23.1621737 23.7985877,23.1621737 23.5308827,23.7015193 L23.1711074,24.4268564 L22.3662763,24.5431567 C21.7678944,24.6297697 21.5288401,25.3618607 21.961809,25.7816403 L22.5440748,26.3462202 L22.4065664,27.1436234 C22.3045728,27.7365548 22.9305609,28.1886937 23.4658217,27.9090385 L24.1855214,27.5326766 L24.9052211,27.9090385 C25.4409296,28.1889905 26.0666938,27.7362579 25.9643272,27.1435492 L25.8268933,26.3462944 L26.4091592,25.7817145 C26.8422027,25.3617122 26.603223,24.6296955 26.0047665,24.5430825 Z M24.7280195,26.5583366 C24.1874613,26.2756384 24.087333,26.3260328 23.6430233,26.5583366 C23.7464344,25.9577607 23.666302,25.8797571 23.3077951,25.5318952 C23.7965732,25.4612392 23.9120713,25.4488447 24.1855214,24.8976241 C24.4566585,25.4442432 24.5689484,25.460497 25.0633222,25.5318952 C24.6221462,25.9598389 24.6440073,26.0708697 24.7280195,26.5583366 Z" id="Shape"></path>
                    <path d="M25.6211156,19.7977021 C25.3199102,19.7264524 25.0186301,19.9111079 24.9470034,20.2101341 C24.8753766,20.5091603 25.0609347,20.8093741 25.3616179,20.880698 C27.656584,21.4247936 29.2593819,23.443239 29.2593819,25.7892106 C29.2593819,28.5712157 26.9797857,30.8362149 24.1856706,30.8362149 C21.3870042,30.8362149 19.1119593,28.5607508 19.1119593,25.7892106 C19.1119593,23.4234969 20.7571364,21.4147741 23.0097234,20.880698 C23.3103319,20.8093741 23.4959646,20.5091603 23.4243378,20.2101341 C23.3527111,19.9111822 23.051058,19.7264524 22.7502256,19.7977021 C22.3349396,19.89619 21.931666,20.03817 21.5471945,20.2194115 L16.5077297,18.278079 L16.5077297,16.6656085 C17.5980233,15.824268 18.3532379,14.5745032 18.5399151,13.148618 C19.8691138,13.0608176 20.8390595,11.9907357 20.8390595,10.7374084 C20.8390595,10.1535317 20.6266414,9.59592838 20.248288,9.16219565 L20.248288,7.04711775 C20.2480641,3.16133564 17.0700744,0 13.1636554,0 C9.25723636,0 6.0793212,3.16133564 6.0793212,7.04711775 L6.0793212,9.21756263 C5.69686415,9.64706491 5.4888481,10.1762426 5.4888481,10.7373342 C5.4888481,11.9913294 6.45886841,13.0605949 7.78724635,13.1484696 C7.97138681,14.5687884 8.72607917,15.8780764 9.93545224,16.7495496 L9.93545224,18.2781532 L3.08778483,20.9189947 C3.0842781,20.9204049 3.08077137,20.9217408 3.07726465,20.9232252 C2.95423076,20.9735453 0.0627480256,22.1946618 0.0627480256,25.5540865 L0.0627480256,32.2678149 C0.0627480256,32.9150741 0.592189155,33.4417284 1.24294811,33.4417284 C2.00495237,33.4417284 18.9908653,33.4417284 19.7496613,33.4417284 L19.7496613,37.2510655 C19.7496613,37.7752705 20.2764164,38.1325582 20.7631053,37.9528011 L24.1854468,36.6925715 L27.6077136,37.9527269 C28.0982823,38.1335973 28.6213815,37.7719307 28.6213815,37.2510655 L28.6213815,30.082081 C29.7076461,28.9716985 30.3785501,27.4574191 30.3785501,25.789359 C30.3785501,22.9096825 28.3668827,20.4488207 25.6211156,19.7977021 Z M17.7772394,19.9611312 L16.0803567,23.344009 C16.0732686,23.3389621 15.1112317,22.6591951 14.031906,21.8966004 L16.126168,19.3250789 C17.6883028,19.9268422 17.2859992,19.7718741 17.7772394,19.9611312 Z M13.2234189,22.6912575 L14.3919797,23.5168638 L13.9444616,24.1868339 L12.5023762,24.1868339 L12.0548582,23.516938 L13.2234189,22.6912575 Z M13.2233443,21.1204979 L11.0547696,18.4576877 L11.0547696,17.367641 C12.3987413,17.9112913 13.9975102,17.9417209 15.3883377,17.3311998 L15.3883377,18.462215 C14.2617831,19.845573 13.3488404,20.9664945 13.2233443,21.1204979 Z M19.7196676,10.7373342 C19.7196676,11.3709373 19.260734,11.922232 18.5863979,12.024134 L18.5863979,9.45112815 C19.264763,9.55392073 19.7196676,10.1097428 19.7196676,10.7373342 Z M7.74150968,12.024134 C7.06806892,11.9225289 6.60816543,11.3724216 6.60816543,10.7373342 C6.60816543,10.114567 7.132533,9.61136582 7.74150968,9.47821789 L7.74150968,12.024134 Z M7.7696381,8.34594094 C7.58639298,8.3662768 7.36770753,8.41652271 7.19863853,8.47493264 L7.19863853,7.04711775 C7.19863853,3.77527081 9.87456949,1.11335124 13.16373,1.11335124 C16.4528904,1.11335124 19.1288214,3.77527081 19.1288214,7.04711775 L19.1288214,8.43522576 C18.9543058,8.3811205 18.7727767,8.34594094 18.5863233,8.33028085 C18.5863233,7.77386499 18.606916,7.89677077 16.7869248,5.95024301 C16.4530397,5.59347484 15.9130037,5.5277915 15.5027167,5.79445845 C13.5051509,7.09246524 11.0683488,7.74425182 8.81986546,7.58393993 C8.32914755,7.54638539 7.88498703,7.87331774 7.7696381,8.34594094 Z M8.86067779,12.4574956 C8.86067779,11.6526706 8.86067779,9.4071166 8.86067779,8.70241224 C11.3456041,8.85070074 13.9395373,8.11571526 16.0333516,6.77911487 C16.8722054,7.67522865 17.324424,8.14265656 17.4671552,8.31788636 C17.4671552,8.76779871 17.4671552,11.9462046 17.4671552,12.4574214 C17.4671552,14.7510689 15.5941154,16.6688742 13.2332676,16.6688742 C10.6373945,16.6688742 8.86067779,14.6711357 8.86067779,12.4574956 Z M10.3179093,19.3261922 L12.4126936,21.8983074 C11.3582134,22.6432382 10.4642219,23.2749116 10.3665558,23.3439347 L8.66974771,19.9611312 L10.3179093,19.3261922 Z M5.72230657,32.3283029 L5.72230657,26.593813 C5.72230657,26.2863259 5.47183674,26.0371745 5.16272251,26.0371745 C4.85360828,26.0371745 4.60313845,26.2863259 4.60313845,26.593813 L4.60313845,32.3283029 L1.24302272,32.3283029 C1.20937306,32.3283029 1.18206536,32.301139 1.18206536,32.2677407 L1.18206536,25.5539381 C1.18206536,22.9788541 3.36735302,22.0103773 3.4997133,21.9541939 L7.62146025,20.3647312 L9.43279653,23.9757566 C9.70393366,24.5162154 10.3965495,24.6884023 10.8912964,24.3389075 L11.1419901,24.1618223 L11.6136821,24.868011 L10.3440978,32.3283029 L5.72230657,32.3283029 Z M19.7497359,32.3283029 L16.10274,32.3283029 L15.7099866,30.0201086 C15.6585049,29.7170746 15.3702818,29.5128254 15.0648981,29.5641845 C14.760186,29.6154695 14.5550052,29.9028434 14.6065615,30.2058774 L14.9676797,32.3281545 L11.479382,32.3281545 L12.6752504,25.2999625 L13.7718113,25.2999625 L14.1645647,27.6081568 C14.2161211,27.9111908 14.5048664,28.1157369 14.8096532,28.0640809 C15.1143654,28.0127959 15.3195462,27.725422 15.2679899,27.422388 L14.833305,24.8678625 L15.3049224,24.161748 L15.5556161,24.3388333 C16.0508106,24.6886992 16.743128,24.5159186 17.0141159,23.9757566 L17.0141906,23.9756823 L18.8253776,20.3648796 L20.3527437,20.9532837 C18.857162,22.1240058 17.9925673,23.9037646 17.9925673,25.7892106 C17.9925673,27.406431 18.6290755,28.9369643 19.7497359,30.0825263 L19.7497359,32.3283029 Z M21.4250559,36.521869 L20.8689786,36.7266378 C20.8689786,36.1470658 20.8689786,31.5413645 20.8689786,30.9905151 C20.9438136,31.0379407 21.1792866,31.1813307 21.4250559,31.3035686 L21.4250559,36.521869 Z M25.8267441,36.1096597 L24.446586,35.6014858 C24.2782631,35.5395876 24.0928543,35.5395134 23.9243822,35.60156 L22.5442987,36.1097339 L22.5442987,31.7293599 C23.5960182,32.0162885 24.7298101,32.0287572 25.8267441,31.7293599 L25.8267441,36.1096597 Z M27.5020642,36.7265636 L26.9459868,36.5217948 L26.9459868,31.3035686 C27.1528837,31.2007018 27.3745536,31.0712647 27.5020642,30.9905151 L27.5020642,36.7265636 Z" id="Shape"></path>
                </g>
            </g>
        </g>
    </g>
</svg>