<?xml version="1.0" encoding="UTF-8"?>
<svg width="139px" height="124px" viewBox="0 0 139 124" version="1.1" xmlns="http://www.w3.org/2000/svg" xmlns:xlink="http://www.w3.org/1999/xlink">
    <!-- Generator: Sketch 51.3 (57544) - http://www.bohemiancoding.com/sketch -->
    <title>section-4-4-m-2</title>
    <desc>Created with Sketch.</desc>
    <defs></defs>
    <g id="mobile_0917" stroke="none" stroke-width="1" fill="none" fill-rule="evenodd">
        <g id="m_main" transform="translate(-20.000000, -5240.000000)" fill="#01CC9B">
            <g id="section-4-4-m-2" transform="translate(20.000000, 5240.000000)">
                <path d="M103.586829,82.5605129 C96.5999204,93.9848041 83.965278,101.632142 69.5673645,101.632142 C55.1701624,101.632142 42.5355201,93.9848041 35.5486112,82.5605129 C32.8325474,78.1182049 28.0692957,75.3194659 22.8413887,75.3194659 C11.331739,75.3194659 4.31352105,87.8323915 10.2714992,97.627978 C11.7245258,100.016179 13.3191548,102.310239 15.0440013,104.498125 C27.7391271,120.592644 47.463856,130.949535 69.5673645,130.949535 C91.6794117,130.949535 111.404141,120.592644 124.091439,104.498125 C125.816286,102.310239 127.410915,100.016179 128.863941,97.627978 C134.822631,87.8323915 127.803702,75.3194659 116.294052,75.3194659 C111.066856,75.3194659 106.302893,78.1182049 103.586829,82.5605129 Z M22.9780102,48.7873636 C28.1205288,48.7873636 32.8204507,46.0424193 35.4781658,41.6623999 C42.4501316,30.1736966 55.1217757,22.4753949 69.5673645,22.4753949 C84.0143764,22.4753949 96.6860204,30.1736966 103.657275,41.6631077 C106.31499,46.0424193 111.014912,48.7873636 116.156719,48.7873636 L116.719571,48.7873636 C127.874147,48.7873636 134.938617,36.7231989 129.274517,27.1640259 C127.712621,24.5287944 125.979947,22.0053992 124.091439,19.6094125 C111.404141,3.51418593 91.6794117,-6.84199772 69.5673645,-6.84199772 C47.463856,-6.84199772 27.7391271,3.51418593 15.0440013,19.6094125 C13.1562052,22.0046914 11.4235316,24.5273788 9.8623463,27.1619024 C4.19682352,36.7224911 11.2627167,48.7873636 22.4180044,48.7873636 L22.9780102,48.7873636 Z" id="Fill-424-Copy" opacity="0.601841518" transform="translate(69.568140, 62.053769) rotate(90.000000) translate(-69.568140, -62.053769) "></path>
                <g id="cloud-computing-copy" transform="translate(49.000000, 41.000000)" fill-rule="nonzero">
                    <path d="M33.4483758,5.43811015 C31.5216473,2.08931481 27.9324072,0.00894412516 24.0815074,0.00886206897 C20.2028909,0.00886206897 16.671724,2.06026692 14.736994,5.39913346 C14.0387126,5.16305779 13.3100749,5.04366603 12.5638666,5.04366603 C10.7702777,5.04366603 9.07716205,5.73663059 7.79625099,6.99488027 C6.65524366,8.11576788 5.9539927,9.57407056 5.78793951,11.1491392 C4.29981254,11.3009432 2.9214803,11.9608391 1.85842641,13.0410268 C0.660005758,14.2588228 0,15.8716373 0,17.5825089 C0,21.1493276 2.89417598,24.0510808 6.45157484,24.0510808 L11.8226078,24.0510808 C12.1642831,24.0510808 12.4412859,23.7755361 12.4412859,23.4356593 C12.4412859,23.0957826 12.1642831,22.8202379 11.8226078,22.8202379 L6.45157484,22.8202379 C3.57645415,22.8202379 1.23735613,20.4706408 1.23735613,17.5825089 C1.23735613,14.7347487 3.54370545,12.3859722 6.37865332,12.3468314 C6.71141963,12.3422363 6.98091579,12.0766204 6.9885874,11.7456057 C7.02257345,10.2758151 7.61823669,8.8996507 8.66578238,7.87066603 C9.71357555,6.84135313 11.0979296,6.27450894 12.5639491,6.27450894 C13.330285,6.27450894 14.0736886,6.42844636 14.7737022,6.73213633 C15.0733898,6.8621954 15.4230667,6.73779821 15.5718794,6.4482219 C17.2234198,3.23555779 20.4841007,1.23970498 24.0815899,1.23970498 C27.4898461,1.23970498 30.6676241,3.0826871 32.3745981,6.04951086 C32.5442809,6.34450287 32.922252,6.44674489 33.218805,6.2779553 C33.515358,6.10908365 33.618141,5.73310217 33.4483758,5.43811015 Z" id="Shape"></path>
                    <path d="M35.4393643,11.1140192 L34.8854412,11.1140192 C34.8876684,11.0248241 34.8888233,10.9361213 34.8888233,10.8482391 C34.8888233,10.2596501 34.8413088,9.66876341 34.7476822,9.09207248 C34.693156,8.7565447 34.3758979,8.52867465 34.0381822,8.58274968 C33.7008789,8.63698883 33.4716381,8.95290517 33.5260817,9.28843295 C33.6093146,9.80038155 33.6514672,10.325213 33.6514672,10.8482391 C33.6514672,11.1184502 33.6394236,11.3974413 33.6155838,11.6776632 C33.600983,11.8492427 33.6593862,12.019099 33.7766051,12.1458758 C33.8937415,12.2726526 34.0589698,12.3448621 34.2320347,12.3448621 L35.4392818,12.3448621 C38.314485,12.3448621 40.653583,14.6944591 40.653583,17.5825089 C40.653583,20.4705587 38.314485,22.8202379 35.4392818,22.8202379 L26.4192031,22.8202379 C26.0775278,22.8202379 25.800525,23.0957826 25.800525,23.4356593 C25.800525,23.7755361 26.0775278,24.0510808 26.4192031,24.0510808 L35.4393643,24.0510808 C38.9968456,24.0510808 41.8910216,21.1493276 41.8910216,17.5825089 C41.8910216,14.0156903 38.9968456,11.1140192 35.4393643,11.1140192 Z" id="Shape"></path>
                    <path d="M15.704524,18.8305837 L14.0557882,16.299068 C14.4557017,15.88731 14.7026779,15.3260457 14.7026779,14.7077522 C14.7026779,13.4480255 13.678972,12.4232257 12.4206633,12.4232257 C11.1623546,12.4232257 10.1385661,13.4481076 10.1385661,14.7077522 C10.1385661,15.9674789 11.1622721,16.9923608 12.4206633,16.9923608 C12.6160006,16.9923608 12.8055635,16.9675798 12.98663,16.921136 L14.6660522,19.499916 C14.7243729,19.5894393 14.7908602,19.8131245 14.7908602,19.9198796 L14.7908602,27.5703068 L0.950289505,27.5703068 C0.608614233,27.5703068 0.331611442,27.8458515 0.331611442,28.1857283 C0.331611442,28.525605 0.608614233,28.8011497 0.950289505,28.8011497 L14.9970862,28.8011497 C15.5656926,28.8010677 16.0282163,28.3408966 16.0282163,27.7753653 L16.0282163,19.9197976 C16.0282163,19.5765565 15.8921071,19.1185188 15.704524,18.8305837 Z M12.4207458,15.7614358 C11.8446328,15.7614358 11.3760048,15.2887101 11.3760048,14.7076702 C11.3760048,14.1266303 11.8446328,13.6539866 12.4207458,13.6539866 C12.9967763,13.6539866 13.4654043,14.1267123 13.4654043,14.7076702 C13.4654043,15.2887101 12.9967763,15.7614358 12.4207458,15.7614358 Z" id="Shape"></path>
                    <path d="M27.495043,12.4231437 C26.4497245,12.4231437 25.5669947,13.1307142 25.2978285,14.0922487 L20.855555,14.0922487 C20.5863888,13.1306322 19.703659,12.4231437 18.658258,12.4231437 C17.3999493,12.4231437 16.3762433,13.4480255 16.3762433,14.7076702 C16.3762433,15.7145817 17.0305573,16.5707561 17.935642,16.8741999 L17.935642,31.2682513 L11.2186955,31.2682513 C10.8770203,31.2682513 10.6000175,31.543796 10.6000175,31.8836727 C10.6000175,32.2235495 10.8770203,32.4990942 11.2186955,32.4990942 L18.1419505,32.4990942 C18.7105569,32.4990942 19.1730806,32.0390051 19.1730806,31.4733918 L19.1730806,16.9329521 C19.9850337,16.7447973 20.6320885,16.1219087 20.855555,15.3230916 L25.2978285,15.3230916 C25.5669122,16.2847082 26.4497245,16.9922787 27.495043,16.9922787 C28.7533517,16.9922787 29.7770577,15.9673969 29.7770577,14.7076702 C29.7770577,13.4479435 28.7533517,12.4231437 27.495043,12.4231437 Z M18.658258,15.7614358 C18.08231,15.7614358 17.6135995,15.2887101 17.6135995,14.7076702 C17.6135995,14.1266303 18.0822275,13.6539866 18.658258,13.6539866 C19.2342885,13.6539866 19.702999,14.1267123 19.702999,14.7076702 C19.702999,15.2887101 19.234371,15.7614358 18.658258,15.7614358 Z M27.4949605,15.7614358 C26.91893,15.7614358 26.450302,15.2887101 26.450302,14.7076702 C26.450302,14.1267123 26.91893,13.6539866 27.4949605,13.6539866 C28.070991,13.6539866 28.539619,14.1267123 28.539619,14.7076702 C28.539619,15.2887101 28.070991,15.7614358 27.4949605,15.7614358 Z" id="Shape"></path>
                    <path d="M7.25907345,31.2682513 L4.81306786,31.2682513 C4.54703629,30.2981009 3.66810099,29.5990642 2.61469848,29.5990642 C2.5938284,29.5990642 2.57287584,29.5993924 2.55200576,29.5999668 C1.29427451,29.6339381 0.298615278,30.6859805 0.332436346,31.9451328 C0.366009942,33.1917305 1.36769097,34.1681992 2.61288369,34.1681992 C2.63358878,34.1681992 2.65454134,34.1679531 2.67541142,34.1673787 C3.69878742,34.1397257 4.54860361,33.4379812 4.81150054,32.4990942 L7.25907345,32.4990942 C7.60074872,32.4990942 7.87775151,32.2235495 7.87775151,31.8836727 C7.87775151,31.543796 7.60074872,31.2682513 7.25907345,31.2682513 Z M2.64167284,32.936946 L2.6128012,32.9372743 C2.04312244,32.9372743 1.58480573,32.4869499 1.56938002,31.9121462 C1.55378933,31.3311884 2.00963133,30.845826 2.58574434,30.8302353 L2.61469848,30.829825 C3.18429475,30.829825 3.64252896,31.2801494 3.65803716,31.8550351 C3.67362785,32.435993 3.21770336,32.9213554 2.64167284,32.936946 Z" id="Shape"></path>
                    <path d="M41.616411,35.165182 L13.6844163,35.165182 C13.4183848,34.1950316 12.5394495,33.4959949 11.486047,33.4959949 C11.4652594,33.4959949 11.4442243,33.4963231 11.4233542,33.4968975 C10.4000607,33.5245504 9.55024454,34.2263771 9.28726512,35.165264 L0.950289505,35.165264 C0.608614233,35.165264 0.331611442,35.4408087 0.331611442,35.7806855 C0.331611442,36.1205623 0.608614233,36.396107 0.950289505,36.396107 L9.28561531,36.396107 C9.55172937,37.3661753 10.4307472,38.065212 11.4841497,38.065212 C11.5048548,38.065212 11.5258073,38.0649658 11.5466774,38.0643914 C12.5700534,38.0367385 13.4198696,37.3349939 13.682849,36.396107 L41.616411,36.396107 C41.9581688,36.396107 42.2350891,36.1205623 42.2350891,35.7806855 C42.2350891,35.4407267 41.9581688,35.165182 41.616411,35.165182 Z M11.5130213,36.8339588 L11.4841497,36.834287 C10.9144709,36.834287 10.4560717,36.3839626 10.440646,35.809159 C10.4250553,35.2281191 10.8809798,34.7427567 11.4570103,34.7272481 L11.4859645,34.7268378 C12.0555607,34.7268378 12.513795,35.1771622 12.5293032,35.7520479 C12.5449763,36.3330057 12.0890518,36.8183681 11.5130213,36.8339588 Z" id="Shape"></path>
                    <path d="M41.616411,27.5702248 L32.3362401,27.5702248 C31.9944823,27.5702248 31.717562,27.8457695 31.717562,28.1856462 C31.717562,28.525523 31.9944823,28.8010677 32.3362401,28.8010677 L41.616411,28.8010677 C41.9581688,28.8010677 42.2350891,28.525523 42.2350891,28.1856462 C42.2350891,27.8457695 41.9581688,27.5702248 41.616411,27.5702248 Z" id="Shape"></path>
                    <path d="M28.4591084,27.5702248 L23.6869558,27.5702248 L23.6869558,21.4839527 C24.6233044,21.1990536 25.3067375,20.3269604 25.3067375,19.2978116 C25.3067375,18.0380849 24.2830315,17.0132851 23.0246403,17.0132851 C21.7663316,17.0132851 20.7426256,18.038167 20.7426256,19.2978116 C20.7426256,20.3587162 21.4687887,21.2529646 22.4495997,21.5088158 L22.4495997,27.7753653 C22.4495997,28.3408966 22.9122059,28.8010677 23.4807298,28.8010677 L28.4591084,28.8010677 C28.8008662,28.8010677 29.0777865,28.525523 29.0777865,28.1856462 C29.0777865,27.8457695 28.8008662,27.5702248 28.4591084,27.5702248 Z M23.0246403,20.3514952 C22.4486098,20.3514952 21.9799818,19.8788515 21.9799818,19.2978116 C21.9799818,18.7167717 22.4486098,18.244128 23.0246403,18.244128 C23.6006708,18.244128 24.0693813,18.7168538 24.0693813,19.2978116 C24.0693813,19.8788515 23.6006708,20.3514952 23.0246403,20.3514952 Z" id="Shape"></path>
                    <path d="M41.616411,31.2682513 L39.2239417,31.2682513 C38.9579926,30.2981009 38.0790573,29.5990642 37.0256548,29.5990642 C37.0047848,29.5990642 36.9837497,29.5993924 36.9628796,29.5999668 C35.9395036,29.6276197 35.0896874,30.3294464 34.8267905,31.2682513 L25.2239996,31.2682513 C24.957968,30.2981009 24.0791152,29.5990642 23.0256302,29.5990642 C23.0047601,29.5990642 22.9837251,29.5993924 22.962855,29.5999668 C21.7052062,29.6340201 20.709547,30.6859805 20.7432856,31.9451328 C20.7768592,33.1917305 21.7785402,34.1681992 23.0236504,34.1681992 C23.044438,34.1681992 23.0653906,34.1679531 23.0862606,34.1673787 C24.1096366,34.1397257 24.9594528,33.4379812 25.2224323,32.4990942 L34.8252232,32.4990942 C35.0912548,33.4691625 35.9701901,34.1681992 37.0236751,34.1681992 C37.0444626,34.1681992 37.0654152,34.1679531 37.0862853,34.1673787 C38.1096613,34.1397257 38.9594775,33.4379812 39.2222919,32.4990942 L41.616411,32.4990942 C41.9581688,32.4990942 42.2350891,32.2235495 42.2350891,31.8836727 C42.2350891,31.543796 41.9581688,31.2682513 41.616411,31.2682513 Z M23.052687,32.936946 L23.0237329,32.9372743 C22.4541366,32.9372743 21.9957374,32.4869499 21.9803117,31.9121462 C21.964721,31.3311884 22.4206455,30.845826 22.9966761,30.8302353 L23.0257127,30.829825 C23.5952265,30.829825 24.0535432,31.2801494 24.0689689,31.8550351 C24.0846421,32.435993 23.6287176,32.9213554 23.052687,32.936946 Z M37.0527117,32.936946 L37.0237576,32.9372743 C36.4540788,32.9372743 35.9957621,32.4870319 35.9803364,31.9121462 C35.9646632,31.3311884 36.4205877,30.845826 36.9966182,30.8302353 L37.0256548,30.829825 C37.5951686,30.829825 38.0534853,31.2801494 38.068911,31.8550351 C38.0845842,32.435993 37.6286597,32.9213554 37.0527117,32.936946 Z" id="Shape"></path>
                    <path d="M23.0246403,6.78982184 C21.7663316,6.78982184 20.7426256,7.8147037 20.7426256,9.07434834 C20.7426256,10.334075 21.7663316,11.3588748 23.0246403,11.3588748 C24.2830315,11.3589569 25.3067375,10.334075 25.3067375,9.07434834 C25.3067375,7.81462165 24.2830315,6.78982184 23.0246403,6.78982184 Z M23.0246403,10.1280319 C22.4486098,10.1280319 21.9799818,9.65538825 21.9799818,9.07434834 C21.9799818,8.49330843 22.4486098,8.02066475 23.0246403,8.02066475 C23.6006708,8.02066475 24.0693813,8.49339049 24.0693813,9.07434834 C24.0693813,9.65538825 23.6006708,10.1280319 23.0246403,10.1280319 Z" id="Shape"></path>
                </g>
            </g>
        </g>
    </g>
</svg>