<?xml version="1.0" encoding="UTF-8"?>
<svg width="139px" height="131px" viewBox="0 0 139 131" version="1.1" xmlns="http://www.w3.org/2000/svg" xmlns:xlink="http://www.w3.org/1999/xlink">
    <!-- Generator: Sketch 51.3 (57544) - http://www.bohemiancoding.com/sketch -->
    <title>section-4-4-m-1</title>
    <desc>Created with Sketch.</desc>
    <defs></defs>
    <g id="mobile_0917" stroke="none" stroke-width="1" fill="none" fill-rule="evenodd">
        <g id="m_main" transform="translate(-20.000000, -5139.000000)" fill="#7DE314">
            <g id="section-4-4-m-1" transform="translate(20.000000, 5139.000000)">
                <path d="M107.365055,85.9891665 C100.378146,97.4134577 87.7435038,105.060796 73.3455902,105.060796 C50.8777578,105.060796 32.6921554,86.4343883 33.5901572,63.8823845 C34.3949432,43.6775275 50.728328,27.1236305 71.0223132,25.9698762 C86.4164252,25.0950048 100.074306,32.9801723 107.421269,45.0676953 C110.087523,49.4540851 114.783887,52.2160172 119.937079,52.2160172 L120.495662,52.2160172 C131.651661,52.2160172 138.716843,40.1511447 133.052032,30.590556 C131.490135,27.9560324 129.758173,25.433345 127.869665,23.0380661 C114.804523,6.46435002 94.2778539,-4.02419686 71.3667132,-3.38573895 C35.1278606,-2.37567306 5.55499865,26.7017669 4.13968531,62.7364162 C2.5991356,101.969725 34.241244,134.378189 73.3455902,134.378189 C95.4576375,134.378189 115.182366,124.021297 127.869665,107.926778 C129.594511,105.738892 131.18914,103.444832 132.642167,101.056632 C138.600857,91.2610451 131.581927,78.7481195 120.072278,78.7481195 C114.845082,78.7481195 110.081119,81.5468585 107.365055,85.9891665 Z" id="Fill-422-Copy" opacity="0.601841518" transform="translate(69.568145, 65.482427) rotate(90.000000) translate(-69.568145, -65.482427) "></path>
                <g id="selfie-copy" transform="translate(50.000000, 53.000000)" fill-rule="nonzero">
                    <path d="M35.1776724,-7.89245212e-14 L7.35552303,-7.89245212e-14 C5.747392,0.00348578559 4.44472734,1.30542674 4.44123962,2.91266436 L4.44123962,7.00439564 C3.87942556,8.03735011 0.662291555,14.1177221 0.0385703495,18.9652879 C-0.0648987726,19.8137862 0.0400235489,20.6750658 0.344618043,21.4738916 L2.75754126,30.9357661 C2.81392608,31.1597279 2.86013843,31.385723 2.90664141,31.61288 C2.95285376,31.840037 2.99993798,32.0724228 3.05719483,32.3027751 C3.13683114,32.6417677 3.17519609,32.9891844 3.17141775,33.3377629 L3.17141775,36.8049577 C3.17141775,37.505891 3.73991663,38.0740741 4.44123962,38.0740741 L12.6952273,38.0740741 C13.3965503,38.0740741 13.9650491,37.505891 13.9650491,36.8049577 L13.9848129,33.2654329 C13.983941,33.1193204 13.9929509,32.9734983 14.0121334,32.8288382 C14.0940949,32.2888319 14.2472641,31.7618974 14.4672813,31.2619776 L14.5161094,31.1440419 C15.9890912,26.808015 15.1459341,22.0487558 14.7465898,20.3061535 L35.1776724,20.3061535 C36.7858035,20.3026677 38.088468,19.0007268 38.0919558,17.3934892 L38.0919558,2.91266436 C38.088468,1.30542674 36.7858035,0.00348578559 35.1776724,-7.89245212e-14 Z M5.71106025,19.7946144 C6.19469245,20.1280879 6.76813233,20.3064439 7.35552303,20.3061535 L8.85582533,20.3061535 C8.71835086,21.0160918 8.11759051,21.5433169 7.39563188,21.5880512 C6.97913955,21.6101277 6.5725292,21.4576246 6.27374751,21.1671425 C5.91393077,20.8266974 5.71048025,20.3532116 5.7110615,19.85823 L5.71106025,19.7946144 Z M5.7110615,2.91266436 C5.71222414,2.00548864 6.44784304,1.27027835 7.35552303,1.26911642 L8.88576157,1.26911642 L8.88576157,19.037037 L7.35552303,19.037037 C6.44784304,19.0358751 5.71222414,18.3006648 5.7110615,17.3934892 L5.7110615,2.91266436 Z M13.3299929,30.685661 L13.3003472,30.7542148 C13.0349896,31.3575462 12.8513029,31.9931211 12.7536466,32.6446725 C12.7254542,32.8474291 12.7115033,33.0519285 12.7123753,33.2564279 L12.6952273,36.165897 L12.6952273,36.8049577 L4.44123962,36.8049577 L4.44123962,33.3377629 C4.44588992,32.8872251 4.39589922,32.4378492 4.29213947,31.9992213 C4.2392423,31.7848454 4.1956458,31.5716316 4.15233992,31.3595796 C4.10205852,31.1115079 4.05148657,30.8660504 3.98928888,30.6223359 L1.56619312,21.1253131 C1.56008962,21.1006221 1.55224222,21.0770931 1.5441042,21.053564 C1.30432325,20.4415182 1.22032727,19.7792189 1.2990917,19.1265055 C1.70105175,16.0012083 3.30220733,12.2130308 4.44123962,9.82236287 L4.44123962,19.85823 C4.44182094,20.7038235 4.79088389,21.5116543 5.40617638,22.0917471 C5.96130569,22.6204246 6.71058486,22.8960921 7.47614014,22.8533913 C8.98109267,22.7581131 10.153549,21.5113639 10.1555835,20.004052 L10.1555835,11.6201568 C10.1538396,10.7812444 10.8060439,10.0861206 11.6436788,10.0338339 C12.0598804,10.0108858 12.4664907,10.1633889 12.7649817,10.453871 C13.1262517,10.794897 13.3305741,11.2695448 13.3299929,11.7662692 L13.3299929,19.7983907 C13.3299929,19.857649 13.3384215,19.9166169 13.3549883,19.9735514 C13.370683,20.0287431 14.9916023,25.7951038 13.3299929,30.685661 Z M17.1397492,19.037037 L17.1397492,18.8188849 C17.1435276,18.0316784 17.5762959,17.3089588 18.268609,16.9333655 L21.4037815,15.2035444 C21.905723,14.9302007 22.2184555,14.405009 22.2190368,13.8336306 L22.2190368,12.9450458 C22.2190368,12.7030742 22.1245776,12.4706884 21.9560044,12.2966896 C21.3860523,11.6387476 20.923057,10.8954038 20.5847478,10.0933827 C20.5516145,10.0135001 20.5027863,9.94087958 20.4411699,9.88016875 L20.3141587,9.76339497 L20.3141587,8.42311038 L20.444367,8.29646017 C20.5661466,8.17707207 20.6347385,8.01382107 20.6347385,7.84330804 L20.6347385,5.4020962 C20.9041651,3.83610708 23.464154,3.80734933 23.4888587,3.80734933 C23.5135634,3.80734933 26.0723896,3.82594019 26.3458853,5.4020962 L26.3458853,7.84185565 C26.3458853,8.01236868 26.4147678,8.1756196 26.5365475,8.29500778 L26.6635587,8.41178163 L26.6667558,9.75206615 L26.5365475,9.87900683 C26.4749311,9.93971757 26.4261029,10.0123381 26.3929695,10.0922207 C26.0546604,10.8939514 25.5916651,11.6375857 25.0214224,12.2955277 C24.8528491,12.4695265 24.7583899,12.7027836 24.7586805,12.9450458 L24.7586805,13.8336306 C24.7595525,14.403847 25.0714131,14.9281673 25.5719014,15.2018014 L28.7105616,16.9327845 C29.4022934,17.3086683 29.8344804,18.0316784 29.8379682,18.8188849 L29.8379682,19.037037 L17.1397492,19.037037 Z M36.8221339,17.3934892 C36.8212619,18.3006648 36.085643,19.0358751 35.1776724,19.037037 L31.1077901,19.037037 L31.1077901,18.8188849 C31.103721,17.5692308 30.4198366,16.4212455 29.3223664,15.8222713 L26.1839968,14.0907073 C26.0889564,14.0398729 26.0293744,13.9413994 26.0285025,13.8336306 L26.0285025,13.0777961 C26.6397259,12.3626291 27.1407956,11.5603174 27.5154352,10.6975855 L27.5561253,10.656918 C27.79765,10.4222085 27.9336713,10.0994828 27.9333806,9.76281397 L27.9333806,8.41178163 C27.9336713,8.1050325 27.8206109,7.80874065 27.6157072,7.5798408 L27.6157072,5.35184281 C27.6157072,5.3213422 27.613382,5.2908416 27.6087317,5.26063146 C27.2172348,2.56931444 23.6405747,2.53823284 23.4888587,2.53823284 C23.3371427,2.53823284 19.7604826,2.56931444 19.3689856,5.26063146 C19.3643353,5.2908416 19.3620102,5.3213422 19.3617195,5.35184281 L19.3617195,7.5798408 C19.1571064,7.80874065 19.0440461,8.1050325 19.0443367,8.41178163 L19.0443367,9.76281397 C19.0443367,10.1015162 19.1818112,10.4254037 19.4253705,10.6606943 L19.4654794,10.7001998 C19.839247,11.5617698 20.3394446,12.36321 20.9492149,13.0777961 L20.9492149,13.8336306 C20.9477616,13.94169 20.8873078,14.0401634 20.791686,14.0907073 L17.6559323,15.8205284 C16.5578807,16.4195025 15.8734151,17.5683594 15.8699273,18.8188849 L15.8699273,19.037037 L14.5998148,19.037037 L14.5998148,11.7662692 C14.5989429,10.9206758 14.2498799,10.112845 13.634878,9.53246166 C13.0797488,9.00378418 12.3304695,8.72840712 11.5649143,8.77110801 C11.0609383,8.80335147 10.5744009,8.96921679 10.1555835,9.25127496 L10.1555835,1.26911642 L35.1776724,1.26911642 C36.085643,1.27027835 36.8212619,2.00548864 36.8221339,2.91266436 L36.8221339,4.44205277 C36.8221339,4.79237419 36.5378844,5.07646575 36.1873683,5.07646575 C35.1352384,5.07646575 34.2824901,5.92874029 34.2824901,6.98028568 L34.2824901,13.3258678 C34.2824901,14.3774132 35.1352384,15.2296877 36.1873683,15.2296877 C36.5378844,15.2296877 36.8221339,15.5137793 36.8221339,15.8641007 L36.8221339,17.3934892 Z M36.8221339,6.22880839 L36.8221339,14.0773451 C36.618974,14.0021103 36.4041884,13.9626047 36.1873683,13.9605713 C35.8365614,13.9605713 35.552312,13.6764797 35.552312,13.3258678 L35.552312,6.98028568 C35.552312,6.62967373 35.8365614,6.34558217 36.1873683,6.34558217 C36.4041884,6.34354885 36.618974,6.30404328 36.8221339,6.22880839 Z" id="Shape"></path>
                </g>
            </g>
        </g>
    </g>
</svg>