<?xml version="1.0" encoding="utf-8"?>
<!-- Generator: Adobe Illustrator 16.0.0, SVG Export Plug-In . SVG Version: 6.00 Build 0)  -->
<!DOCTYPE svg PUBLIC "-//W3C//DTD SVG 1.1//EN" "http://www.w3.org/Graphics/SVG/1.1/DTD/svg11.dtd">
<svg version="1.1" id="Layer_1" xmlns="http://www.w3.org/2000/svg" xmlns:xlink="http://www.w3.org/1999/xlink" x="0px" y="0px"
	 width="30px" height="30px" viewBox="0 0 30 30" enable-background="new 0 0 30 30" xml:space="preserve">
<desc>Created with Sketch.</desc>
<g id="web_0917" display="none">
	<g id="influencer_영향력페이지-2" transform="translate(-917.000000, -825.000000)" display="inline">
		<g id="Group-9" transform="translate(674.000000, 820.000000)">
			<g id="instar" transform="translate(243.000000, 5.000000)">
				<path id="Shape" fill="#CCCCCC" d="M15.336,11.769c-2,0-3.616,1.616-3.616,3.616S13.335,19,15.336,19
					c2,0,3.615-1.615,3.615-3.615C19.027,13.385,17.336,11.769,15.336,11.769z"/>
				<path id="Shape_1_" fill="#CCCCCC" d="M20.027,6.539H10.72c-2.308,0-4.154,1.846-4.154,4.154V20
					c0,2.308,1.846,4.154,4.154,4.154h9.385c2.307,0,4.153-1.847,4.153-4.154v-9.308C24.182,8.385,22.336,6.539,20.027,6.539z
					 M15.336,21c-3.077,0-5.616-2.539-5.616-5.615c0-3.077,2.539-5.616,5.616-5.616c3.076,0,5.615,2.539,5.615,5.616
					C20.951,18.461,18.489,21,15.336,21z M21.182,10.846c-0.692,0-1.308-0.615-1.308-1.308s0.615-1.308,1.308-1.308
					s1.308,0.615,1.308,1.308C22.489,10.308,21.874,10.846,21.182,10.846z"/>
				<path id="Shape_2_" fill="#CCCCCC" d="M29.489,4.539c-0.308-0.77-0.769-1.461-1.384-2c-1.231-1.231-2.847-1.923-4.693-1.923
					h-1.23h-6.923H8.335h-1c-1.846,0-3.538,0.77-4.692,1.923c-0.539,0.539-1.077,1.23-1.385,2C0.874,5.385,0.644,6.308,0.644,7.231
					v0.538v3.923V18v4.385v0.923c0,1.153,0.308,2.153,0.769,3.153c0.308,0.616,0.692,1.154,1.154,1.616
					C3.797,29.308,5.413,30,7.259,30h1h6.923h6.924h1.23c1.846,0,3.538-0.77,4.691-1.923c0.462-0.462,0.847-1,1.154-1.616
					c0.462-0.922,0.77-2,0.77-3.153v-0.923V18v-6.308V7.769V7.231C30.105,6.308,29.874,5.385,29.489,4.539z M26.182,19.923
					c0,3.462-2.77,6.231-6.23,6.231h-9.154c-3.462,0-6.231-2.77-6.231-6.231v-9.154c0-3.461,2.769-6.23,6.231-6.23h9.154
					c3.461,0,6.23,2.769,6.23,6.23V19.923z"/>
			</g>
		</g>
	</g>
</g>
<image display="none" overflow="visible" width="220" height="220" xlink:href="../../../Users/user/Desktop/line.png"  transform="matrix(0.136 0 0 0.136 0.083 0)">
</image>
<g>
	<path fill="#00C300" d="M24.537,0.069L5.46,0.042C2.464,0.038,0.032,2.464,0.027,5.46L0,24.539
		c-0.004,2.996,2.422,5.429,5.418,5.434L24.496,30c2.996,0.004,5.428-2.422,5.433-5.419l0.026-19.079
		C29.959,2.506,27.533,0.073,24.537,0.069z"/>
	<g>
		<g>
			<path fill="#FFFFFF" d="M14.982,4.853c-6.013,0-10.907,3.971-10.907,8.851c0,4.375,3.881,8.04,9.122,8.732
				c0.356,0.077,0.839,0.235,0.961,0.539c0.11,0.275,0.073,0.707,0.036,0.985c0,0-0.128,0.77-0.156,0.934
				c-0.047,0.276-0.22,1.078,0.944,0.589c1.164-0.491,6.281-3.699,8.568-6.333c1.581-1.732,2.338-3.492,2.338-5.446
				C25.889,8.824,20.996,4.853,14.982,4.853z M10.713,16.607H8.546c-0.315,0-0.571-0.257-0.571-0.572v-4.334
				c0-0.315,0.256-0.572,0.571-0.572c0.316,0,0.571,0.257,0.571,0.572v3.761h1.596c0.316,0,0.571,0.257,0.571,0.573
				S11.029,16.607,10.713,16.607z M12.955,16.035c0,0.315-0.256,0.572-0.571,0.572c-0.316,0-0.572-0.257-0.572-0.572v-4.334
				c0-0.315,0.256-0.572,0.572-0.572c0.315,0,0.571,0.257,0.571,0.572V16.035z M18.171,16.035c0,0.247-0.156,0.465-0.391,0.543
				c-0.06,0.019-0.12,0.029-0.182,0.029c-0.179,0-0.349-0.086-0.458-0.229l-2.22-3.024v2.681c0,0.315-0.256,0.572-0.572,0.572
				c-0.315,0-0.571-0.257-0.571-0.572v-4.334c0-0.247,0.157-0.464,0.39-0.542c0.06-0.02,0.121-0.03,0.183-0.03
				c0.179,0,0.349,0.086,0.457,0.229l2.221,3.024v-2.682c0-0.315,0.257-0.572,0.572-0.572s0.571,0.257,0.571,0.572V16.035z
				 M21.677,13.296c0.317,0,0.572,0.257,0.572,0.573c0,0.315-0.255,0.571-0.572,0.571h-1.594v1.022h1.594
				c0.316,0,0.572,0.257,0.572,0.573s-0.256,0.572-0.572,0.572h-2.166c-0.315,0-0.572-0.257-0.572-0.572V13.87c0,0,0,0,0-0.001
				s0-0.001,0-0.001v-2.166c0-0.315,0.257-0.572,0.572-0.572h2.166c0.317,0,0.572,0.257,0.572,0.572
				c0,0.316-0.255,0.572-0.572,0.572h-1.594v1.023H21.677z"/>
		</g>
	</g>
</g>
<g>
	<g>
		<defs>
			<path id="SVGID_1_" d="M2.957,0C1.33,0,0,1.33,0,2.957v24.148c0,1.626,1.33,2.957,2.957,2.957h24.148
				c1.626,0,2.957-1.331,2.957-2.957V2.957C30.063,1.33,28.731,0,27.105,0H2.957z"/>
		</defs>
		<clipPath id="SVGID_2_">
			<use xlink:href="#SVGID_1_"  overflow="visible"/>
		</clipPath>
		
			<linearGradient id="SVGID_3_" gradientUnits="userSpaceOnUse" x1="-385.0161" y1="215.8584" x2="-384.7158" y2="215.8584" gradientTransform="matrix(100 0 0 -100 38501.625 21600.875)">
			<stop  offset="0" style="stop-color:#E5DD4A"/>
			<stop  offset="0.0237" style="stop-color:#E5DC47"/>
			<stop  offset="0.1784" style="stop-color:#E4D83C"/>
			<stop  offset="0.3958" style="stop-color:#E4D635"/>
			<stop  offset="1" style="stop-color:#E4D533"/>
		</linearGradient>
		<rect clip-path="url(#SVGID_2_)" fill="url(#SVGID_3_)" width="30.063" height="30.063"/>
	</g>
	<path fill="#381E1F" d="M14.985,5.697c-5.608,0-10.153,3.594-10.153,8.027c0,2.886,1.926,5.415,4.817,6.83
		c-0.212,0.793-0.769,2.872-0.881,3.315c-0.138,0.554,0.203,0.547,0.425,0.397c0.175-0.116,2.782-1.89,3.908-2.655
		c0.61,0.091,1.241,0.14,1.884,0.14c5.608,0,10.154-3.594,10.154-8.027C25.139,9.291,20.593,5.697,14.985,5.697"/>
	<g>
		<defs>
			<path id="SVGID_4_" d="M7.956,12.03c-0.62,0-0.619,1.089,0.002,1.089h1.058c0,0,0.006,2.833,0,3.509
				c0.002,0.494,1.102,0.464,1.1-0.03l0.005-3.572c0,0,0.355-0.007,1.053-0.007c0.658,0.001,0.659-1.043,0.001-1.044
				C10.434,11.976,7.956,12.03,7.956,12.03"/>
		</defs>
		<clipPath id="SVGID_5_">
			<use xlink:href="#SVGID_4_"  overflow="visible"/>
		</clipPath>
		
			<linearGradient id="SVGID_6_" gradientUnits="userSpaceOnUse" x1="-389.4722" y1="224.1797" x2="-389.1715" y2="224.1797" gradientTransform="matrix(13.8924 0 0 -13.8924 5418.1992 3128.9404)">
			<stop  offset="0" style="stop-color:#E5DD4A"/>
			<stop  offset="0.0237" style="stop-color:#E5DC47"/>
			<stop  offset="0.1784" style="stop-color:#E4D83C"/>
			<stop  offset="0.3958" style="stop-color:#E4D635"/>
			<stop  offset="1" style="stop-color:#E4D533"/>
		</linearGradient>
		<rect x="7.336" y="11.976" clip-path="url(#SVGID_5_)" fill="url(#SVGID_6_)" width="4.497" height="5.147"/>
	</g>
	<g>
		<defs>
			<path id="SVGID_7_" d="M13.022,13.158l0.589,1.845h-1.228L13.022,13.158z M12.363,12.293c-0.26,0.573-1.201,3.282-1.513,4
				c-0.226,0.519,0.748,0.942,0.973,0.423l0.212-0.74h1.937c0,0-0.067,0.03,0.19,0.709c0.208,0.549,1.213,0.169,1.005-0.382
				c-0.297-0.784-1.326-3.609-1.514-4.01c-0.086-0.186-0.396-0.318-0.697-0.318C12.708,11.976,12.467,12.066,12.363,12.293"/>
		</defs>
		<clipPath id="SVGID_8_">
			<use xlink:href="#SVGID_7_"  overflow="visible"/>
		</clipPath>
		
			<linearGradient id="SVGID_9_" gradientUnits="userSpaceOnUse" x1="-389.772" y1="223.7236" x2="-389.4713" y2="223.7236" gradientTransform="matrix(14.5688 0 0 -14.5688 5689.3184 3273.9746)">
			<stop  offset="0" style="stop-color:#E5DD4A"/>
			<stop  offset="0.0237" style="stop-color:#E5DC47"/>
			<stop  offset="0.1784" style="stop-color:#E4D83C"/>
			<stop  offset="0.3958" style="stop-color:#E4D635"/>
			<stop  offset="1" style="stop-color:#E4D533"/>
		</linearGradient>
		<rect x="10.624" y="11.976" clip-path="url(#SVGID_8_)" fill="url(#SVGID_9_)" width="4.751" height="5.261"/>
	</g>
	<g>
		<defs>
			<path id="SVGID_10_" d="M15.537,12.463c0.002,0.921,0.006,3.887,0.006,3.887s-0.085,0.59,0.421,0.59
				c0.505,0,1.627-0.006,2.125-0.006c0.496,0,0.494-1.058-0.003-1.058s-1.405-0.005-1.405-0.005s0.004-2.744,0.003-3.411
				c-0.001-0.322-0.287-0.482-0.572-0.482C15.824,11.977,15.537,12.139,15.537,12.463"/>
		</defs>
		<clipPath id="SVGID_11_">
			<use xlink:href="#SVGID_10_"  overflow="visible"/>
		</clipPath>
		
			<linearGradient id="SVGID_12_" gradientUnits="userSpaceOnUse" x1="-393.5327" y1="228.3359" x2="-393.2321" y2="228.3359" gradientTransform="matrix(9.7206 0 0 -9.7206 3840.9014 2234.0186)">
			<stop  offset="0" style="stop-color:#E5DD4A"/>
			<stop  offset="0.0237" style="stop-color:#E5DC47"/>
			<stop  offset="0.1784" style="stop-color:#E4D83C"/>
			<stop  offset="0.3958" style="stop-color:#E4D635"/>
			<stop  offset="1" style="stop-color:#E4D533"/>
		</linearGradient>
		<rect x="15.458" y="11.977" clip-path="url(#SVGID_11_)" fill="url(#SVGID_12_)" width="3.127" height="4.963"/>
	</g>
	<g>
		<defs>
			<path id="SVGID_13_" d="M18.719,12.316c0.011,0.404-0.014,4.053-0.013,4.324c0,0.427,1.087,0.426,1.086-0.001
				c0-0.496,0-1.436,0-1.436l0.319-0.256l1.396,1.904c0.282,0.372,1.169-0.3,0.887-0.672l-1.481-1.952c0,0,1.006-1.087,1.402-1.481
				c0.231-0.229-0.485-0.952-0.717-0.721c-0.224,0.222-1.799,1.799-1.799,1.799s0.015-0.99-0.001-1.538
				c-0.005-0.208-0.26-0.308-0.521-0.308C18.998,11.979,18.712,12.094,18.719,12.316"/>
		</defs>
		<clipPath id="SVGID_14_">
			<use xlink:href="#SVGID_13_"  overflow="visible"/>
		</clipPath>
		
			<linearGradient id="SVGID_15_" gradientUnits="userSpaceOnUse" x1="-392.144" y1="225.3008" x2="-391.8434" y2="225.3008" gradientTransform="matrix(12.4499 0 0 -12.4499 4900.8789 2819.502)">
			<stop  offset="0" style="stop-color:#E5DD4A"/>
			<stop  offset="0.0237" style="stop-color:#E5DC47"/>
			<stop  offset="0.1784" style="stop-color:#E4D83C"/>
			<stop  offset="0.3958" style="stop-color:#E4D635"/>
			<stop  offset="1" style="stop-color:#E4D533"/>
		</linearGradient>
		<rect x="18.705" y="11.795" clip-path="url(#SVGID_14_)" fill="url(#SVGID_15_)" width="3.971" height="5.428"/>
	</g>
</g>
</svg>
