<?xml version="1.0" encoding="utf-8"?>
<!-- Generator: Adobe Illustrator 16.0.0, SVG Export Plug-In . SVG Version: 6.00 Build 0)  -->
<!DOCTYPE svg PUBLIC "-//W3C//DTD SVG 1.1//EN" "http://www.w3.org/Graphics/SVG/1.1/DTD/svg11.dtd">
<svg version="1.1" id="Layer_1" xmlns="http://www.w3.org/2000/svg" xmlns:xlink="http://www.w3.org/1999/xlink" x="0px" y="0px"
	 width="30px" height="30px" viewBox="0 0 30 30" enable-background="new 0 0 30 30" xml:space="preserve">
<desc>Created with Sketch.</desc>
<g id="web_0917" display="none">
	<g id="influencer_영향력페이지-2" transform="translate(-917.000000, -825.000000)" display="inline">
		<g id="Group-9" transform="translate(674.000000, 820.000000)">
			<g id="instar" transform="translate(243.000000, 5.000000)">
				<path id="Shape" fill="#CCCCCC" d="M15.336,11.769c-2,0-3.616,1.616-3.616,3.616S13.335,19,15.336,19
					c2,0,3.615-1.615,3.615-3.615C19.027,13.385,17.336,11.769,15.336,11.769z"/>
				<path id="Shape_1_" fill="#CCCCCC" d="M20.027,6.539H10.72c-2.308,0-4.154,1.846-4.154,4.154V20
					c0,2.308,1.846,4.154,4.154,4.154h9.385c2.307,0,4.153-1.847,4.153-4.154v-9.308C24.182,8.385,22.336,6.539,20.027,6.539z
					 M15.336,21c-3.077,0-5.616-2.539-5.616-5.615c0-3.077,2.539-5.616,5.616-5.616c3.076,0,5.615,2.539,5.615,5.616
					C20.951,18.461,18.489,21,15.336,21z M21.182,10.846c-0.692,0-1.308-0.615-1.308-1.308s0.615-1.308,1.308-1.308
					s1.308,0.615,1.308,1.308C22.489,10.308,21.874,10.846,21.182,10.846z"/>
				<path id="Shape_2_" fill="#CCCCCC" d="M29.489,4.539c-0.308-0.77-0.769-1.461-1.384-2c-1.231-1.231-2.847-1.923-4.693-1.923
					h-1.23h-6.923H8.335h-1c-1.846,0-3.538,0.77-4.692,1.923c-0.539,0.539-1.077,1.23-1.385,2C0.874,5.385,0.644,6.308,0.644,7.231
					v0.538v3.923V18v4.385v0.923c0,1.153,0.308,2.153,0.769,3.153c0.308,0.616,0.692,1.154,1.154,1.616
					C3.797,29.308,5.413,30,7.259,30h1h6.923h6.924h1.23c1.846,0,3.538-0.77,4.691-1.923c0.462-0.462,0.847-1,1.154-1.616
					c0.462-0.922,0.77-2,0.77-3.153v-0.923V18v-6.308V7.769V7.231C30.105,6.308,29.874,5.385,29.489,4.539z M26.182,19.923
					c0,3.462-2.77,6.231-6.23,6.231h-9.154c-3.462,0-6.231-2.77-6.231-6.231v-9.154c0-3.461,2.769-6.23,6.231-6.23h9.154
					c3.461,0,6.23,2.769,6.23,6.23V19.923z"/>
			</g>
		</g>
	</g>
</g>
<image display="none" overflow="visible" width="220" height="220" xlink:href="../../../Users/user/Desktop/line.png"  transform="matrix(0.136 0 0 0.136 0.083 0)">
</image>
<g>
	<path fill="#00C300" d="M24.537,0.069L5.46,0.042C2.464,0.038,0.032,2.464,0.027,5.46L0,24.539
		c-0.004,2.996,2.422,5.429,5.418,5.434L24.496,30c2.996,0.004,5.428-2.422,5.433-5.419l0.026-19.079
		C29.959,2.506,27.533,0.073,24.537,0.069z"/>
	<g>
		<g>
			<path fill="#FFFFFF" d="M14.982,4.853c-6.013,0-10.907,3.971-10.907,8.851c0,4.375,3.881,8.04,9.122,8.732
				c0.356,0.077,0.839,0.235,0.961,0.539c0.11,0.275,0.073,0.707,0.036,0.985c0,0-0.128,0.77-0.156,0.934
				c-0.047,0.276-0.22,1.078,0.944,0.589c1.164-0.491,6.281-3.699,8.568-6.333c1.581-1.732,2.338-3.492,2.338-5.446
				C25.889,8.824,20.996,4.853,14.982,4.853z M10.713,16.607H8.546c-0.315,0-0.571-0.257-0.571-0.572v-4.334
				c0-0.315,0.256-0.572,0.571-0.572c0.316,0,0.571,0.257,0.571,0.572v3.761h1.596c0.316,0,0.571,0.257,0.571,0.573
				S11.029,16.607,10.713,16.607z M12.955,16.035c0,0.315-0.256,0.572-0.571,0.572c-0.316,0-0.572-0.257-0.572-0.572v-4.334
				c0-0.315,0.256-0.572,0.572-0.572c0.315,0,0.571,0.257,0.571,0.572V16.035z M18.171,16.035c0,0.247-0.156,0.465-0.391,0.543
				c-0.06,0.019-0.12,0.029-0.182,0.029c-0.179,0-0.349-0.086-0.458-0.229l-2.22-3.024v2.681c0,0.315-0.256,0.572-0.572,0.572
				c-0.315,0-0.571-0.257-0.571-0.572v-4.334c0-0.247,0.157-0.464,0.39-0.542c0.06-0.02,0.121-0.03,0.183-0.03
				c0.179,0,0.349,0.086,0.457,0.229l2.221,3.024v-2.682c0-0.315,0.257-0.572,0.572-0.572s0.571,0.257,0.571,0.572V16.035z
				 M21.677,13.296c0.317,0,0.572,0.257,0.572,0.573c0,0.315-0.255,0.571-0.572,0.571h-1.594v1.022h1.594
				c0.316,0,0.572,0.257,0.572,0.573s-0.256,0.572-0.572,0.572h-2.166c-0.315,0-0.572-0.257-0.572-0.572V13.87c0,0,0,0,0-0.001
				s0-0.001,0-0.001v-2.166c0-0.315,0.257-0.572,0.572-0.572h2.166c0.317,0,0.572,0.257,0.572,0.572
				c0,0.316-0.255,0.572-0.572,0.572h-1.594v1.023H21.677z"/>
		</g>
	</g>
</g>
</svg>
